<svg xmlns="http://www.w3.org/2000/svg" viewBox="0 0 681.5704 562.7329"><g style="isolation:isolate"><g id="Layer_2" data-name="Layer 2"><g id="Layer_1-2" data-name="Layer 1"><path d="M650.1042,538.9672c10.58,9.8828-32.9605,23.7657-293.69,23.7657S41.6837,549.85,57.5484,538.9672c6.3793-4.376,130.0606-15.7656,293.69-15.7656C514.8684,523.2016,644.451,533.6864,650.1042,538.9672Z" style="fill:#726396;opacity:0.30000000000000004"/><path d="M99.442,367.2162c.4492,1.0342,4.0156-1.3672,7.585,1.5693,7.5258,6.19,18.2182,18.2344,21.87,10.7315.7178-1.4746,2.0947,4.7539,2.2129,4.9692,0,0,.4541,1.7.5371,2.4009.1186.99.1738,3.4424.1738,3.4424,7.9468,3.8193,11.5371-21.7852,7.961-30.6607-.7862-1.9379,0,0-1.3628-1.4887-.42-.5586-3.5411-4.9473-4.0435-5.4668-4.7935-4.9976-6.7524-5.8692-12.9282-3.8789C109.8483,351.227,97.8282,363.5,99.442,367.2162Z" style="fill:#ffc27d"/><path d="M72.3458,379.2494l12.86-15.0146a17.2084,17.2084,0,0,1,24.2392-1.875l16.397,14.04a17.2118,17.2118,0,0,1,1.8745,24.2393l-12.8613,15.0166a17.2114,17.2114,0,0,1-24.24,1.875l-16.3945-14.042A17.2113,17.2113,0,0,1,72.3458,379.2494Zm31.71-10.5986a8.9135,8.9135,0,0,0-12.5567.9731L78.64,384.6391a8.9142,8.9142,0,0,0,.9693,12.5561l16.3974,14.0405a8.9124,8.9124,0,0,0,12.5557-.9687l12.8594-15.0176a8.9142,8.9142,0,0,0-.9707-12.5566Z" style="fill:#912610"/><path d="M146.3585,420.2011,63.2726,349.0453a13.0467,13.0467,0,0,0-18.397,1.4219L15.82,384.392,3.1383,399.2011a13.0468,13.0468,0,0,0,1.4228,18.3974l83.0845,71.1558a13.046,13.046,0,0,0,18.3985-1.4219l12.6811-14.8081L147.78,438.6A13.05,13.05,0,0,0,146.3585,420.2011Z" style="fill:#515151"/><path d="M145.4908,276.2729c7.71-11.2442,36.6587-43.4664,36.6587-43.4664,10.836-7.997,25.543-3.0957,33.5381,7.7373s2.625,23.1338-6.8813,32.66c-8.6753,8.6958-29.0762,39.6016-29.0762,39.6016l-27.1895,48.7763-43.1049-20.6635S135.0191,291.5434,145.4908,276.2729Z" style="fill:#213945"/><polygon points="147.918 359.387 144.609 366.677 109.876 350.352 114.056 343.288 147.918 359.387" style="fill:#e6e7e8"/><path d="M113.0821,374.7113c-1.8769,2.4639-5.0317,3.2173-7.0459,1.6831s-2.125-4.7758-.247-7.24,5.0322-3.2168,7.0459-1.6826S114.96,372.2479,113.0821,374.7113Z" style="fill:#ffc27d"/><path d="M119.214,379.9672c-1.877,2.4639-5.0318,3.2173-7.0454,1.6831s-2.125-4.7759-.2476-7.24,5.0322-3.2168,7.0459-1.6826S121.0914,377.5038,119.214,379.9672Z" style="fill:#ffc27d"/><path d="M125.422,386.1c-1.877,2.4639-5.0318,3.2173-7.0454,1.6831s-2.125-4.7759-.2476-7.24,5.0322-3.2168,7.0459-1.6827S127.2994,383.6366,125.422,386.1Z" style="fill:#ffc27d"/><path d="M107.027,368.7855c-1.877,2.4634-5.0318,3.2168-7.0454,1.6827s-2.125-4.7759-.2476-7.24,5.0322-3.2168,7.0459-1.6826S108.9044,366.3217,107.027,368.7855Z" style="fill:#ffc27d"/><path d="M195.7023,506.5692v23.566h22.6411l1.5957-4.4668,18.188,4.4668a272.6428,272.6428,0,0,0,42.7461,0c2.227-.1734,5.0634-12.5752,0-12.9175C268.1388,516.3568,245.15,506.02,245.15,506.02Z" style="fill:#272526"/><path d="M183.4415,355.7162l25.94,2.06c.1909-.1206.3022-.18.3022-.18l39.6855,11.3291-4.0747,137.0215s-14.936,4.8047-28.0776,5.456c-17.5918.8706-24.6567-3.27-24.6567-3.27s-5.6158-79.1548-7.2808-90.0747C177.1022,364.46,183.4415,355.7162,183.4415,355.7162Z" style="fill:#1a2e35"/><path d="M148.0939,518.1278v18.689l8.09,3.4375,2.917-1.708s9.1084,4.2671,14.751,7.4775c9.0747,5.1621,32.434,10.064,42.7812,8.67,3.563-.479,13.1607-8.0175,10.1528-9.9877-23.56-15.4361-35.977-27.7007-35.977-27.7007Z" style="fill:#272526"/><path d="M559.1061,515.0453v21.7715l-8.0909,3.4375-2.9179-1.708s-9.107,4.2671-14.75,7.4775c-9.0747,5.1621-32.4351,10.064-42.7808,8.67-3.563-.479-13.1606-8.0175-10.1543-9.9877,23.5606-15.4361,35.978-27.7007,35.978-27.7007Z" style="fill:#272526"/><path d="M149.0914,367.0888l25.7407,3.813c.1988-.1075.314-.1582.314-.1582l38.8257,13.9921L200.62,521.1674s-15.228,3.78-28.3828,3.5395c-17.6113-.3232-24.3789-4.934-24.3789-4.934s-.2383-79.3526-1.1592-90.3614C142.1734,375.3837,149.0914,367.0888,149.0914,367.0888Z" style="fill:#213945"/><path d="M145.4894,410.9125c-.6411-11.043-1.0664-22.6064-.8389-29.3457.2344-3.3594,21.1006-18.4624,21.1006-18.4624.1987-.1079.3139-.1592.3139-.1592l83.0367,13.9937s-.3081,19.3618-.958,33.91c-.8775.1138,0,0-1.5083,0-1.3013,0-6.1465-9.1225-6.1465-9.1225l-4.7437,9.4326C204.53,411.6757,153,413.7553,145.4894,410.9125Z" style="fill:#1a2e35"/><path d="M256.1105,274.3549c-2.6631-27.9568-37.0508-51.8892-64.8789-48.0774l-1.9253.2654c-27.83,3.8088-42.78-2.2952-46.648,52.4633-1.6045,22.5655-4.1621,116.503-4.1621,116.503,4.561,3.3252,60.5029,3.19,94.4561,2.8408l9.0385-16.0771,5.5371,15.8969c5.3169-.0766,8.5-.1352,8.5-.1352S262.0758,337.0082,256.1105,274.3549Z" style="fill:#345a6f"/><path d="M427.8072,306.3407c10.6485-8.5161,32.7974-39.0141,32.7974-39.0141a24.3736,24.3736,0,0,0-7.6309-33.6177c-11.3921-7.1795-16.75-6.5188-32.0669,9.2612l-29.392,30.5791-48.6006,25.627L366.0719,339.87S413.3468,317.9047,427.8072,306.3407Z" style="fill:#345a6f"/><path d="M331.5983,355.5229c-10.5225,1.978-7.4258-12.7642-9.7374-16.3174-2.2827-3.5088,2.5665-3.3033-.2182-6.2256-1.9522-2.041-2.0044.2754-4.3672-2.39-3.8574-4.353,7.5728-8.6123,6.4932-9.5981,0,0-4.9185-1.4414-5.5132-2.0654-6.0767-6.3877,20.3-10.9414,28.082-5.3775,1.7,1.22,3.5908,4.8531,4.7183,6.5279.4438.542,3.9756,4.6069,4.3633,5.2163,3.728,5.8354,4.1127,7.9438.727,13.477C351.0914,349.4828,335.5782,354.7748,331.5983,355.5229Z" style="fill:#ffa969"/><polygon points="345.313 303.389 338.357 307.335 357.515 340.764 364.19 336.565 345.313 303.389" style="fill:#e6e7e8"/><path d="M494.01,509.7572v23.5655H471.3688l-1.5953-4.4673-18.1875,4.4673a272.6428,272.6428,0,0,1-42.7461,0c-2.2275-.1739-4.8984-12.7081,0-12.917,12.752-.5474,35.7242-11.1983,35.7242-11.1983Z" style="fill:#272526"/><path d="M558.8912,359.2914l-25.7407,3.813c-.1987-.1079-.314-.1592-.314-.1592l-85.6591,14.16s-.7544,39.8432-2.3438,53.395c-.9228,7.9961-.2695,78.707-.2695,78.707s14.43,5.32,27.5864,5.0791c17.61-.3218,21.86-4.5293,21.86-4.5293s.6547-87.9765,7.479-89.1611c6.4526.6123,8.313,98.083,8.313,98.083a98.0482,98.0482,0,0,0,25.9428,3.54c17.6114-.3222,24.3789-4.9336,24.3789-4.9336s.2378-84.664,1.1592-95.6709C565.8092,367.5854,558.8912,359.2914,558.8912,359.2914Z" style="fill:#213945"/><path d="M497.5191,403.4784l8.563,10.8618c16.1079-.645,46.2452-1.88,56.1953-5.645.6407-11.0434.7251-19.6836.4971-26.4223-.2344-3.3594-.4834-6.9375-.7441-10.669-1.1558-10.0107-3.0645-12.3125-3.0645-12.3125l-25.7407,3.813c-.1987-.1079-.314-.1592-.314-.1592l-85.6591,14.16s-.3345,17.62-1.0259,33.4106c7.46.9658,26.6924,3.2774,44.0146,3.8692Z" style="fill:#1a2e35"/><path d="M497.4449,386.1146l8.5625,16.1709c17.6255-.705,52.0645-2.1162,58.4541-6.7763,0,0-6.5395-93.9375-8.1435-116.503C552.45,224.2477,537.5,230.3517,509.67,226.5429l-1.9253-.2654c-27.8276-3.8118-62.2153,20.1206-64.8784,48.0774-5.9658,62.6533.0821,123.68.0821,123.68s25.163,3.542,47.2187,4.2959Z" style="fill:#345a6f"/><path d="M601.9444,284.8114c-5.2055-12.602-26.8276-50.1367-26.8276-50.1367-8.9375-10.073-24.3418-8.335-34.4121.6-10.0737,8.9353-8.9917,23.3115-.0571,33.3779l20.2129,44.7764,15.24,53.6587,45.54-10.8794S609.0138,301.9252,601.9444,284.8114Z" style="fill:#345a6f"/><path d="M454.4664,191.0966l-.2241,43.0178c-.1065,20.3811,43.0264,73.83,43.0264,73.83s43.041-51.4277,43.1464-72.3376l.2325-44.0613Z" style="fill:#fff"/><path d="M462.45,197.9418l-.1855,35.0151c-.083,16.5894,19.18,24.6055,32.4126,24.6817l5.0673.0259c13.2286.0683,32.5674-6.4756,32.6622-23.4942l.1879-35.8616Z" style="fill:#ff8a54"/><polygon points="510.195 290.128 500.925 278.209 507.667 266.596 497.027 257.658 486.388 266.596 493.13 278.209 483.86 290.128 497.269 307.945 510.195 290.128" style="fill:#ed3e21"/><polygon points="540.648 235.691 497.027 256.938 453.407 235.691 475.964 278.023 497.027 259.012 518.091 278.023 540.648 235.691" style="fill:#e6e7e8"/><polygon points="549.606 220.156 564.461 253.081 546.758 260.648 552.707 283.095 497.269 307.945 549.606 220.156" style="fill:#869ca9"/><polygon points="444.449 220.156 429.593 253.081 447.297 260.648 441.602 283.498 497.269 307.945 444.449 220.156" style="fill:#869ca9"/><path d="M502.0509,256.2817c22.81.0158,52.0244-6.9712,71.3027-23.3662-8.5869-7.6138-21.6533-6.2059-31.0283,1.0253-7.7246-6.0805-18.53-5.4646-32.6558-7.3979l-1.9253-.2654c-15.7578-2.1584-33.6147,4.5838-46.6279,15.9111a24.2691,24.2691,0,0,0-8.1426-8.48c-10.042-6.3286-15.3989-6.5586-27.019,4.2835C444.52,250.2658,468.4225,256.2677,487.74,256.28Z" style="fill:#232323;opacity:0.30000000000000004;mix-blend-mode:multiply"/><path d="M405.9518,94.1708l-.0523,88.887c-.0234,42.11,48.9741,62.248,82.563,62.269l12.8779.0017c33.5835.0232,82.6016-16.8186,82.63-60.0217l.0479-91.0371L483.86,48.43Z" style="fill:#ffa969"/><path d="M404.7316,138.81l-.0528-49.1213c-.0244-42.959,49.961-63.503,84.2271-63.5247l13.1382-.0017c34.2607-.0232,84.2666,17.158,84.2958,61.2317l.05,51.3142c-21.3588.0315-28.4-37.3877-28.4-37.3877s-24.4473,8.95-62.4551,8.95c-39.7486,0-63.3589-8.2307-63.3589-8.2307S431.0231,138.81,404.7316,138.81Z" style="fill:#232323"/><path d="M472.1427,166.5275h-.0042a4.389,4.389,0,0,1-4.3847-4.3931,11.9648,11.9648,0,0,0-11.9573-11.9765,12.0754,12.0754,0,0,0-11.9778,12.0141,4.3887,4.3887,0,1,1-8.7768-.1025A20.9164,20.9164,0,0,1,455.7936,141.38h.0073a20.7427,20.7427,0,0,1,20.7307,20.7629A4.3891,4.3891,0,0,1,472.1427,166.5275Z" style="fill:#3c2415"/><path d="M549.6056,166.5715a4.389,4.389,0,0,1-4.3889-4.389,11.9916,11.9916,0,0,0-11.9678-11.978h-.0049a12.1072,12.1072,0,0,0-11.9668,12.0132,4.3887,4.3887,0,0,1-8.7768-.106,20.9166,20.9166,0,0,1,20.7446-20.685h.0083a20.7808,20.7808,0,0,1,20.7412,20.7558A4.3891,4.3891,0,0,1,549.6056,166.5715Z" style="fill:#3c2415"/><path d="M525.3248,193.7653l-60.1235-.0325c3.0571,20.2732,15.3374,31.48,30.0449,31.4873,15.83.0112,28.877-12.9668,30.62-36.2749C525.7433,190.6017,525.5607,192.2128,525.3248,193.7653Z" style="fill:#231f20"/><path d="M464.4693,183.7968c.004.0632.004.13.004.19.0039.719.0068,1.4326.0385,2.1306,0,.1931.0166.3826.0244.5718.0293.6875.0586,1.365.1065,2.03.0083.1116.0195.2156.0312.3228.06.7544.1245,1.4985.21,2.2324a.475.475,0,0,0,.0127.1074c.085.79.188,1.565.2983,2.3284a.036.036,0,0,1,.0064.0227l60.1235.0325c.2359-1.5525.4185-3.1636.5415-4.82a1.1954,1.1954,0,0,0,.0127-.1521c.0532-.7488.0986-1.5156.13-2.2869,0-.1057.0117-.2082.0117-.3125.03-.7744.0449-1.5639.0474-2.3608Z" style="fill:#fff"/><path d="M495.24,226.2155c10.6406.0117,20.0209-5.8428,25.56-16.7588-2.8716-4.7776-20.374-3.5213-25.1812,6.7959-5.3471-10.1309-22.1923-10.6734-25.726-6.45C475.4493,220.4794,484.7223,226.2147,495.24,226.2155Z" style="fill:#ed1c24"/><path d="M422.0035,162.1508A17.699,17.699,0,0,1,404.2921,179.84h0a17.7009,17.7009,0,0,1-17.69-17.71l.0117-15.0188a17.7,17.7,0,0,1,17.707-17.6885h0a17.6976,17.6976,0,0,1,17.6875,17.7095Z" style="fill:#ffa969"/><path d="M567.8961,162.2328a17.6936,17.6936,0,0,0,17.6846,17.71h0a17.703,17.703,0,0,0,17.7138-17.69l.01-15.0154a17.7035,17.7035,0,0,0-17.69-17.709h0a17.6982,17.6982,0,0,0-17.7139,17.6875Z" style="fill:#ffa969"/><path d="M405.921,146.7836a6.9329,6.9329,0,0,0-8.5825,6.7715l-.01,5.364a6.9848,6.9848,0,0,0,6.9751,6.979,7.098,7.098,0,0,0,1.6079-.1953Z" style="fill:#ff8a54"/><path d="M585.6031,146.6869a6.9016,6.9016,0,0,0-2.6821.5388l-.0088,18.2327a6.9648,6.9648,0,0,0,9.6538-6.43v-5.3635A6.964,6.964,0,0,0,585.6031,146.6869Z" style="fill:#ff8a54"/><path d="M501.4029,322.8417a4.3755,4.3755,0,1,1-4.3755-4.3755A4.3763,4.3763,0,0,1,501.4029,322.8417Z" style="fill:#213945"/><path d="M501.4029,344.1254a4.3755,4.3755,0,1,1-4.3755-4.3755A4.3762,4.3762,0,0,1,501.4029,344.1254Z" style="fill:#213945"/><path d="M501.4029,367.0878a4.3755,4.3755,0,1,1-4.3755-4.375A4.3751,4.3751,0,0,1,501.4029,367.0878Z" style="fill:#213945"/><polygon points="551.855 364.674 554.48 372.006 522.977 376.925 520.8 369.744 551.855 364.674" style="fill:#869ca9"/><polygon points="448.322 364.674 445.697 372.006 477.199 376.925 479.377 369.744 448.322 364.674" style="fill:#869ca9"/><path d="M620.8966,439.98H599.31a17.21,17.21,0,0,1-17.191-17.1909v-19.77a17.2106,17.2106,0,0,1,17.191-17.1909h21.5864a17.2111,17.2111,0,0,1,17.1909,17.1909v19.77A17.2109,17.2109,0,0,1,620.8966,439.98ZM599.31,394.1137a8.9152,8.9152,0,0,0-8.9058,8.9057v19.77a8.9151,8.9151,0,0,0,8.9058,8.9052h21.5864a8.9149,8.9149,0,0,0,8.9048-8.9052v-19.77a8.915,8.915,0,0,0-8.9048-8.9057Z" style="fill:#212121"/><path d="M548.112,404.6991H657.5026A13.0478,13.0478,0,0,1,670.55,417.7469v64.1636a13.0484,13.0484,0,0,1-13.0484,13.0484h-109.39a13.0483,13.0483,0,0,1-13.0483-13.0483V417.7475a13.0484,13.0484,0,0,1,13.0484-13.0484Z" style="fill:#912610"/><path d="M681.57,417.7475a13.0484,13.0484,0,0,0-13.0478-13.0484H559.1319a13.0484,13.0484,0,0,0-13.0478,13.0484v44.666H681.57Z" style="fill:#b54d2a"/><path d="M559.1319,494.9589H668.5226A13.0481,13.0481,0,0,0,681.57,481.9105v-19.497H546.0841v19.497A13.0481,13.0481,0,0,0,559.1319,494.9589Z" style="fill:#a32f11"/><rect x="571.7843" y="454.3129" width="9.98" height="16.6738" style="fill:#c0bebf"/><rect x="645.9889" y="454.3129" width="9.9795" height="16.6738" style="fill:#c0bebf"/><path d="M625.3351,396.0238c-3.7886,1.8418-2.7119-1.8926-5.3355-1.8359-2.8686.0615-1.55,4.7881-4.4228,4.4463-2.5381-.3023-2.0064-3.7637-5.3614-3.3247-2.6689.3491-.5835,2.7446-4.7978,3.1928-4.1636.4434-1.7808-3.7851-5.648-2.6279-2.705.8145-.6635,1.91-4.1113,2.8076-5.6294,1.4644-4.2412-10.6552-5.61-10.14,0,0-1.4506.9951-1.97,1.4731-.7329.6758-2.3711,2.5034-2.3711,2.5034-8.519-2.2695-.5449-23.0537,7.9439-27.4677,1.8579-.961,5.9541-.9986,7.9565-1.2432.6851-.1514,5.9087-1.4541,6.6284-1.5234,6.8931-.6768,8.9454-.0635,12.3414,5.4638C627.8321,377.1117,628.9767,394.2523,625.3351,396.0238Z" style="fill:#ffa969"/><polygon points="580.814 365.961 584.019 373.425 620.109 364.674 616.742 357.378 580.814 365.961" style="fill:#e6e7e8"/><path d="M244.5094,191.0966l.2241,43.0178c.1064,20.3811,0,56.7961,0,56.7961s-86.0669-34.3935-86.1728-55.3034l-.2325-44.0613Z" style="fill:#fff"/><path d="M240.5089,196.6144l.1855,35.0149c.083,16.59-19.18,24.6055-32.4135,24.6816l-5.0674.0264c-13.2276.0674-32.5669-6.4756-32.6616-23.4946l-.188-35.8614Z" style="fill:#ff8a54"/><polygon points="165.809 235.009 228.121 250.977 238.931 239.912 239.014 257.656 228.734 252.856 217.627 268.139 165.809 235.009" style="fill:#e6e7e8"/><polygon points="228.734 252.856 222.487 261.453 231.018 265.019 230.042 276.258 240.695 283.271 240.11 268.881 235.107 263.404 236.19 256.337 228.734 252.856" style="fill:#ed3e21"/><polygon points="187.56 358.213 186.262 365.544 217.765 370.463 218.614 363.281 187.56 358.213" style="fill:#869ca9"/><path d="M222.526,338.4994c-12.5166-5.4092-41.9194-28.9932-41.9194-28.9932a24.3733,24.3733,0,0,1-1.4971-34.44c9.0976-9.9277,14.44-10.7021,33.3745.4834l36.41,21.7539L302.53,309.2182l-11.6157,45.3574S239.5216,345.8446,222.526,338.4994Z" style="fill:#345a6f"/><path d="M168.5357,299.9946c-5.9883-6.3047-5.893-15.9-7.0024-17.5-6.4146,13.1577,5.7177,26.2934,10.15,30.3559,0,0,38.2344,20.24,50.75,25.6494,16.9971,7.3452,68.3892,16.0762,68.3892,16.0762l1.8169-7.0957c-13.6309-2.4336-54.8077-10.12-70.187-16.7647C208.7941,324.8119,178.2657,310.2368,168.5357,299.9946Z" style="fill:#213945"/><path d="M337.8468,355.7475c2.1274-3.7769-8.8916-4.961-8.7442-6.0533.28-2.0825,15.6187,5.8433,17.8086-.0815,1.9864-5.3731-15.5117-6.3262-14.6284-8.8486.7066-2.0225,17.0322,7.36,19.0274,1.19,1.831-5.6582-16.9869-7.9741-15.9991-10.6582.4063-1.1045,10.6109,3.8467,12.0083.46,3.606-8.7441-39.4521-19.7919-45.15-11.7656-1.2421,1.7559-1.8593,5.9258-2.3921,7.9331-.25.6763-2.3164,5.815-2.4877,6.5376-1.6656,6.9292-4.57,6.8545.5825,11.0967,2.7119,2.7754,10.9687,6.5156,16.1679,8.4639C325.1612,358.1889,335.6412,359.6615,337.8468,355.7475Z" style="fill:#ffc27d"/><polygon points="301.708 312.427 309.308 314.213 299.404 353.183 291.728 351.039 301.708 312.427" style="fill:#e6e7e8"/><polygon points="152.524 225.877 145.848 244.465 168.25 269.804 196.627 275.889 195.397 288.868 244.781 292.308 257.18 266.282 249.977 256.448 250.797 247.101 237.615 236.337 240.695 283.271 152.524 225.877" style="fill:#869ca9"/><path d="M238.0079,242.3219c-13.0259-11.4064-30.9575-18.2111-46.7763-16.0444l-1.9253.2654c-11.69,1.6-21.107,1.4521-28.3853,4.8l-8.3965-5.4656-6.6762,18.5874,1.061,1.2A122.4811,122.4811,0,0,0,187.7276,255.79l14.6724.8721a132.8126,132.8126,0,0,0,48.105-6.2342l.292-3.3273-13.1817-10.7635Z" style="fill:#232323;opacity:0.30000000000000004;mix-blend-mode:multiply"/><path d="M117.3414,89.7458l-5.22,87.6147c-2.4619,41.5071,44.6626,64.1982,77.7686,66.1677l12.6909.7544c33.1006,1.97,82.393-11.7825,84.9282-54.3669l5.3389-89.7278Z" style="fill:#ffc27d"/><path d="M178.6378,164.9189a4.3271,4.3271,0,0,1-3.4963-1.7691,15.763,15.763,0,0,0-11.3477-5.9541,18.8726,18.8726,0,0,0-14.4631,4.6512,4.3334,4.3334,0,0,1-5.8877-6.36,27.2936,27.2936,0,0,1,21.1753-6.9187,24.4094,24.4094,0,0,1,17.509,9.4521,4.3338,4.3338,0,0,1-3.4895,6.8985Z" style="fill:#3c2415"/><path d="M258.8653,169.6921a4.3271,4.3271,0,0,1-3.4963-1.7691,15.7625,15.7625,0,0,0-11.3479-5.9546,18.8708,18.8708,0,0,0-14.4575,4.6512,4.3336,4.3336,0,0,1-5.8887-6.3594,27.279,27.279,0,0,1,21.17-6.9192,24.4088,24.4088,0,0,1,17.51,9.4526,4.3339,4.3339,0,0,1-3.49,6.8985Z" style="fill:#3c2415"/><path d="M205.2086,218.51c-13.03,0-26.9741-2.7029-34.5124-7.6736-5.6031-3.6946-6.577-7.8662-6.4073-10.7153a3.978,3.978,0,0,1,7.9419.4731c-.0818,1.3713,1.502,2.7149,2.845,3.6,10.4353,6.8811,39.09,8.5847,50.2624,2.9882,1.4366-.7195,3.1661-1.8647,3.2471-3.2341a3.9779,3.9779,0,1,1,7.9419.47c-.1685,2.8479-1.6284,6.8733-7.626,9.8774C223.19,217.1569,214.4281,218.51,205.2086,218.51Z" style="fill:#d82432"/><path d="M116.36,82.6581c1.5669-28.9475,24.64-44.7847,49.73-51.4878-8.91-16.6719-22.0381-20.906-13.46-20.4446,14.0073.7532,33.8482,18.1851,34.2632,15.885,3.33-18.5473,34.0933-32.4343,29.3852-24.17-3.3549,5.9036-7.0332,17.7041-9.1982,25.2539l7.4136.4019C247.88,29.91,295.5084,52.5421,293.235,94.3971l-2.7256,50.1348s-2.9776-40.5884-33.3218-42.2178c-23.335-1.2544-28.7563,22.4971-56.772,20.9924-28.0063-1.5012-29.5864-25.6328-55.2573-27.0122-29.3838-1.5776-31.5351,36.8384-31.6362,38.6421Z" style="fill:#852913"/><path d="M113.5221,134.9364l-.0049.0879S113.52,134.9945,113.5221,134.9364Z" style="fill:#de7540"/><path d="M129.21,157.6886a17.473,17.473,0,0,1-18.4854,16.407h0A17.4808,17.4808,0,0,1,94.319,155.6129l.8833-14.801A17.4764,17.4764,0,0,1,113.6832,124.4h0a17.4779,17.4779,0,0,1,16.4077,18.4859Z" style="fill:#ffc27d"/><path d="M273.0035,166.2411a17.4786,17.4786,0,0,0,16.4077,18.4837h0a17.4785,17.4785,0,0,0,18.482-16.408l.8818-14.802a17.4764,17.4764,0,0,0-16.41-18.4861h0a17.4772,17.4772,0,0,0-18.48,16.41Z" style="fill:#ffc27d"/><path d="M114.2535,141.6024a7.0023,7.0023,0,0,0-1.5791-.2839,6.8867,6.8867,0,0,0-7.28,6.4624l-.3154,5.2876a6.8863,6.8863,0,0,0,6.4634,7.2783,6.7048,6.7048,0,0,0,1.5976-.092Z" style="fill:#ff9e61"/><path d="M291.3609,151.9467a6.829,6.829,0,0,0-2.6767.372l-1.0684,17.9732a6.7665,6.7665,0,0,0,2.6109.6855,6.8792,6.8792,0,0,0,7.2817-6.4631l.3169-5.2871A6.888,6.888,0,0,0,291.3609,151.9467Z" style="fill:#ff9e61"/><path d="M337.1344,314.6479c.7085,2.82-3.5674,6.3266-9.55,7.8305s-11.4087.437-12.1172-2.3833,3.5669-6.3276,9.5493-7.832S336.4254,311.8275,337.1344,314.6479Z" style="fill:#ffa969"/><path d="M310.0548,349.0932c-.7417,2.5156-2.9746,4.0722-4.9868,3.4775s-3.04-3.1143-2.2969-5.6289,2.9751-4.0723,4.9868-3.4785S310.7984,346.5785,310.0548,349.0932Z" style="fill:#ffa969"/><path d="M316.1705,351.7084c-.7422,2.5156-2.9746,4.0708-4.9868,3.4766s-3.04-3.1143-2.2969-5.6289,2.9756-4.0713,4.9873-3.4786C315.8854,346.6732,316.9147,349.1937,316.1705,351.7084Z" style="fill:#ffa969"/><path d="M322.3805,354.3983c-.5625,2.5621-2.6807,4.273-4.729,3.8238-2.0479-.4517-3.253-2.8916-2.6914-5.4527.5634-2.5615,2.68-4.2719,4.7285-3.8217S322.943,351.8383,322.3805,354.3983Z" style="fill:#ffa969"/><path d="M328.9645,356.5629c-.5625,2.56-2.6787,4.2725-4.7286,3.8208-2.0488-.4492-3.2539-2.89-2.6894-5.4517.5615-2.5615,2.6787-4.2715,4.7275-3.8213S329.5274,354.0009,328.9645,356.5629Z" style="fill:#ffa969"/><path d="M246.3658,344.1254a4.3753,4.3753,0,1,1-4.375-4.3755A4.3758,4.3758,0,0,1,246.3658,344.1254Z" style="fill:#213945"/><path d="M246.3658,367.0878a4.3753,4.3753,0,1,1-4.375-4.375A4.3748,4.3748,0,0,1,246.3658,367.0878Z" style="fill:#213945"/><path d="M144.6837,263.35c5.3333-4,22.6667-27.3333,73.3333,14.6667S230.6837,309.35,230.6837,309.35s-60-15.3333-64.6667-25.3333-8.6666-18-15.3333-14.6667S144.6837,263.35,144.6837,263.35Z" style="fill:#345a6f"/></g></g></g></svg>