<svg xmlns="http://www.w3.org/2000/svg" xmlns:xlink="http://www.w3.org/1999/xlink" viewBox="0 0 2831.4411 3009.5263"><defs><clipPath id="clip-path"><path d="M1869.16,710.6143a327.783,327.783,0,0,1-115.1548,249.7531,631.2524,631.2524,0,0,0-105.32,114.8359l-1.2751-.91c-14.6162,19.0783-103.0885,16.7561-206.2222-6.33-103.6349-23.176-184.9581-58.966-189.375-82.461,0-.9561-.0456-1.9121-.1365-2.8237v-.1823c-3.0962-63.1547-12.34-125.8547-28.6409-187.0518a327.5135,327.5135,0,0,1-11.0191-90.4761c2.96-178.9012,151.1266-323.79,330.0285-322.9706C1722.86,382.8169,1869.16,529.6177,1869.16,710.6143Z" style="fill:none"/></clipPath></defs><g id="Layer_2" data-name="Layer 2"><g id="Layer_1-2" data-name="Layer 1"><ellipse cx="1377.8619" cy="2938.3896" rx="943.5444" ry="71.1367" style="fill:#000072;opacity:0.2"/><path d="M18.2128,1666.05,825.2984,838.0024l492.9028,561.6748s1159.592-250.4356,1495.0254-136.6013l-634.4376,988.936L825.2984,2230.668Z" style="fill:#fff"/><g style="opacity:0.30000000000000004"><path d="M18.2128,1666.05,825.2984,838.0024l492.9028,561.6748s1159.592-250.4356,1495.0254-136.6013l-634.4376,988.936L825.2984,2230.668Z" style="fill:#000072"/></g><path d="M2178.7893,2270.2244h-.2881L825.01,2248.8816a18.2342,18.2342,0,0,1-10.1538-3.291L7.7736,1680.9714a18.2128,18.2128,0,0,1-2.6025-27.6367l807.085-828.0468a18.21,18.21,0,0,1,26.7309.7031l485.8545,553.6377c124.0894-26.3575,1171.13-243.4668,1494.2383-133.7989a18.2126,18.2126,0,0,1,9.4775,27.08l-634.4384,988.9356A18.2176,18.2176,0,0,1,2178.7893,2270.2244ZM831.1648,2212.5437l1337.771,21.0986,615.9179-960.0683C2431.04,1179.9705,1333.34,1415.0388,1322.0461,1417.48a18.1832,18.1832,0,0,1-17.5342-5.791L824.5974,864.8142,46.2185,1663.4129Z" style="fill:#000072"/><polygon points="18.213 1666.049 18.213 1829.971 825.299 2324.012 825.299 2166.351 18.213 1666.049" style="fill:#39a1ff"/><g style="opacity:0.30000000000000004"><path d="M761.5517,2126.8353h0c0,37.814-41.4193,61.0233-73.6707,41.2812L18.2134,1758.1931v71.7779L825.299,2324.0122V2166.3516Z" style="fill:#000072"/></g><path d="M825.2981,2342.2263a18.1783,18.1783,0,0,1-9.5093-2.6806L8.7038,1845.5027A18.2123,18.2123,0,0,1,0,1829.9705V1666.05a18.212,18.212,0,0,1,27.81-15.4785l807.0849,500.3027a18.21,18.21,0,0,1,8.6157,15.4785v157.6611a18.2113,18.2113,0,0,1-18.2128,18.2129ZM36.426,1819.7654l770.6592,471.7432v-115.02L36.426,1698.7693Z" style="fill:#000072"/><polygon points="825.299 2166.351 825.299 2324.012 2178.79 2337.672 2178.79 2166.351 825.299 2166.351" style="fill:#39a1ff"/><g style="opacity:0.30000000000000004"><path d="M1022.3278,2258.7119a148.4611,148.4611,0,0,1-135.954-92.36H825.299v157.6606l1353.4905,13.66v-67.289Z" style="fill:#000072"/></g><path d="M2178.7893,2355.8836h-.1831L825.1149,2342.2263a18.2156,18.2156,0,0,1-18.03-18.2129V2166.3523a18.213,18.213,0,0,1,18.2129-18.2129H2178.7893a18.213,18.213,0,0,1,18.2129,18.2129v171.3184a18.2085,18.2085,0,0,1-18.2129,18.2129ZM843.5109,2305.9812l1317.0655,13.291v-134.707H843.5109Z" style="fill:#000072"/><polygon points="2813.227 1263.076 2178.79 2166.351 2178.79 2337.672 2813.227 1471.597 2813.227 1263.076" style="fill:#ff926b"/><polygon points="2813.227 1263.076 2178.789 2166.352 2178.789 2337.672 2813.227 1471.597 2813.227 1263.076" style="fill:#39a1ff"/><g style="opacity:0.30000000000000004"><polygon points="2178.789 2337.672 2813.227 1471.597 2813.227 1394.19 2178.789 2260.265 2178.789 2337.672" style="fill:#000072"/></g><path d="M2178.7868,2355.8836a18.2167,18.2167,0,0,1-18.21-18.2129V2166.3523a18.22,18.22,0,0,1,3.3081-10.4687l634.4385-903.2764a18.2125,18.2125,0,0,1,33.1176,10.4687v208.52a18.1993,18.1993,0,0,1-3.5205,10.7618l-634.4385,866.0742A18.2062,18.2062,0,0,1,2178.7868,2355.8836Zm18.2154-183.7745v109.878l598.0127-816.3477V1320.698Z" style="fill:#000072"/><path d="M825.2984,2166.3516,1331.79,1374.4869s28.4052-464.6443-559.62-597.6482L53.8816,1662.2566S500.1123,1700.2,825.2984,2166.3516Z" style="fill:#fff"/><g style="opacity:0.30000000000000004"><path d="M825.2984,2166.3516,1331.79,1374.4869s28.4052-464.6443-559.62-597.6482L53.8816,1662.2566S500.1123,1700.2,825.2984,2166.3516Z" style="fill:#000072"/></g><path d="M825.2981,2184.5652a18.2178,18.2178,0,0,1-14.939-7.793c-165.1416-236.7334-362.3047-359.0478-498.6255-419.9707-147.959-66.123-258.313-76.3037-259.4092-76.4013a18.2177,18.2177,0,0,1-12.5879-29.6192L758.0251,765.366a18.1874,18.1874,0,0,1,18.1641-6.2891c310.708,70.2783,450.2466,233.6426,512.59,358.3154,67.81,135.6055,61.4917,253.2618,61.189,258.2081a18.2177,18.2177,0,0,1-2.8345,8.7011L840.6423,2176.1668a18.2224,18.2224,0,0,1-14.9805,8.3935C825.5422,2184.5652,825.4177,2184.5652,825.2981,2184.5652ZM88.3571,1648.6716c44.58,7.6026,130.7007,27.002,236.6944,74.1846,136.665,60.84,332.38,181.1768,499.436,410.9619l489.2529-764.917c.3516-22.2168-1.4795-124.0332-58.3569-236.8408-84.49-167.5635-244.6777-280.2051-476.2329-334.9121Z" style="fill:#000072"/><path d="M825.2984,2166.3516,1331.79,1374.4869s28.4052-464.6443-559.62-597.6482L34.15,1575.738S624.572,1590.9189,825.2984,2166.3516Z" style="fill:#fff"/><g style="opacity:0.30000000000000004"><path d="M839.0759,2166.3516l492.72-791.8647s27.6329-464.6443-544.4044-597.6482L69.4383,1575.738S643.8071,1590.9189,839.0759,2166.3516Z" style="fill:#000072"/></g><path d="M825.3029,2184.5652a18.19,18.19,0,0,1-17.2021-12.2119c-81.3477-233.208-236.0108-401.3819-459.6948-499.8584-167.605-73.7891-313.2813-78.5108-314.7339-78.55a18.2178,18.2178,0,0,1-12.9-30.5664l738.02-798.8965a18.2154,18.2154,0,0,1,17.3975-5.4053c310.708,70.2783,450.2466,233.6426,512.59,358.3154,67.81,135.6055,61.4917,253.2618,61.189,258.2081a18.2177,18.2177,0,0,1-2.8345,8.7011L840.6423,2176.1668A18.2215,18.2215,0,0,1,825.3029,2184.5652ZM73.0568,1560.4636c55.6763,5.9912,165.4224,24.0528,288.7085,78.11,154.6387,67.8076,358.34,206.958,467.9175,487.124L1313.74,1368.9011c.3516-22.2168-1.4795-124.0332-58.3569-236.8408-84.585-167.7539-245.0342-280.4541-477.0093-335.0928Z" style="fill:#000072"/><path d="M825.2984,2166.3516,1331.79,1374.4869s28.4052-464.6443-559.62-597.6482L69.4383,1500.99S720.1929,1481.6379,825.2984,2166.3516Z" style="fill:#fff"/><g style="opacity:0.30000000000000004"><path d="M849.7469,2166.3516l482.0539-791.8647s27.0347-464.6443-532.6191-597.6482L130.3564,1500.99S749.7126,1481.6379,849.7469,2166.3516Z" style="fill:#000072"/></g><path d="M825.3005,2184.5652a18.2246,18.2246,0,0,1-18.0054-15.4492c-42.5171-276.9824-179.0014-470.4688-405.6665-575.0733-170.0366-78.4765-330.0757-74.9072-331.66-74.8437a18.22,18.22,0,0,1-13.6011-30.8936l702.7319-724.15a18.22,18.22,0,0,1,17.09-5.0781c310.708,70.2783,450.2466,233.6426,512.59,358.3154,67.81,135.6055,61.4917,253.2618,61.189,258.2081a18.2177,18.2177,0,0,1-2.8345,8.7011L840.6423,2176.1668A18.2171,18.2171,0,0,1,825.3005,2184.5652ZM111.3894,1483.9158c60.6982,3.76,178.5644,18.75,304.165,76.4355,104.6826,48.0762,192.666,115.9619,261.5064,201.7774,77.3754,96.45,130.4516,215.7177,158.0859,355.0244l478.5937-748.252c.3516-22.2168-1.4795-124.0332-58.3569-236.8408-84.6216-167.8223-245.1611-280.5517-477.2974-335.1611Z" style="fill:#000072"/><path d="M1380.739,1325.5381,825.2984,2166.3516c239.4324-138.3088,633.2859-244.2325,1289.7433-83.6683l625.7911-819.7052S2017.0019,859.8088,1380.739,1325.5381Z" style="fill:#fff"/><g style="opacity:0.30000000000000004"><path d="M1380.739,1325.5381,825.2984,2166.3516c234.4442-135.4273,602.4784-275.4917,1233.9891-130.5323a67.8619,67.8619,0,0,0,67.6114-23.2539l613.9339-749.5873S2017.0019,859.8088,1380.739,1325.5381Z" style="fill:#000072"/></g><path d="M825.3054,2184.5652a18.2144,18.2144,0,0,1-15.2051-28.252l555.4419-840.8154a18.2717,18.2717,0,0,1,4.4409-4.6582c147.4-107.8906,311.7676-178.3789,488.5376-209.4922,141.2183-24.8584,290.54-24.7607,443.8013.2881,260.6372,42.5977,439.8706,141.25,447.373,145.43a18.2167,18.2167,0,0,1,5.6153,26.9678l-625.7911,819.7021a18.21,18.21,0,0,1-18.8037,6.6406c-529.0063-129.3847-958.4179-101.89-1276.3061,81.7481A18.16,18.16,0,0,1,825.3054,2184.5652Zm568.8232-846.25-514.0014,778.081c316.37-156.1279,728.85-174.3945,1227.6538-54.2138l605.3979-792.9981c-52.5195-26.1035-210.5908-98.0859-417.9614-131.8017C2061.9362,1099.4627,1716.5529,1103.6326,1394.1286,1338.3152Z" style="fill:#000072"/><path d="M1380.739,1325.5381l-527.34,798.2768c121.7872-158.6433,570.2768-295.7959,1226.7342-135.2361l607.1173-798.3569S2017.0019,859.8088,1380.739,1325.5381Z" style="fill:#fff"/><g style="opacity:0.30000000000000004"><path d="M1360.8832,1292.7068,979.279,1870.3716c-28.65,43.37,15.1289,97.72,63.7289,79.2855,210.585-79.8758,552.3518-111.2522,989.1531-10.0372a53.3913,53.3913,0,0,0,54.5368-19.6853l544.1978-715.6178c-1.1642-34.2858-10.0969-61.099-23.7449-82.3408C2445.7667,870.7985,1511.56,1221.9942,1382.95,1271.2219Z" style="fill:#000072"/></g><path d="M853.3864,2142.0261a18.2156,18.2156,0,0,1-15.1855-28.2519l527.3413-798.2764a18.2717,18.2717,0,0,1,4.4409-4.6582c147.1509-107.71,308.4107-181.9629,479.2969-220.6885,136.6626-30.9716,279.685-39.3847,425.1025-25.0439,247.544,24.4336,413.96,105.3467,420.9229,108.7793a18.2142,18.2142,0,0,1,6.4429,27.3633l-607.1167,798.3545a18.1954,18.1954,0,0,1-18.8233,6.665c-680.3345-166.3916-1101.9873-9.4043-1207.9614,128.6328A18.1873,18.1873,0,0,1,853.3864,2142.0261ZM1394.1286,1338.31,939.2092,2026.9627c81.0425-49.2334,192.83-87.0948,324.1333-108.4473,164.6216-26.7578,438.1323-39.6289,809.5044,49.5557l586.0254-770.6153c-51.5015-21.9726-196.7285-77.4072-389.4654-96.2353C2048.0935,1079.5994,1716.8459,1103.2664,1394.1286,1338.31Z" style="fill:#000072"/><path d="M1380.74,1325.5378,862.4,2105.8534c121.7867-158.64,539.2675-374.9753,1195.7255-214.4121l591.18-775.5915S2017.0025,859.8085,1380.74,1325.5378Z" style="fill:#fff"/><path d="M862.3879,2124.0671a18.2111,18.2111,0,0,1-15.1587-28.291l518.34-780.3174a18.2111,18.2111,0,0,1,4.414-4.6191c332.8125-243.6084,664.4849-288.3057,884.082-283.0029,238.1861,5.8105,395.4957,68.4668,402.0752,71.1328a18.2093,18.2093,0,0,1,7.649,27.92L2072.61,1902.48a18.1931,18.1931,0,0,1-18.8111,6.65c-285.61-69.8535-558.5571-74.209-789.3383-12.5879-254.917,68.0664-361.13,185.9082-387.6124,220.4A18.1871,18.1871,0,0,1,862.3879,2124.0671Zm531.7212-785.7421L959.7609,1992.2019c198.1641-137.2119,576.9874-244.0381,1091.0865-121.26l568.8745-746.3281c-51.5918-17.2265-187.1314-56.1865-368.0933-60.3955C2038.5988,1059.1453,1717.1975,1102.8611,1394.1091,1338.325Z" style="fill:#000072"/><path d="M1380.739,1325.5381l-518.34,780.3168c121.7872-158.6434,539.268-374.9776,1195.7255-214.4133l591.18-775.59S2017.0019,859.8088,1380.739,1325.5381Z" style="fill:#fff"/><path d="M862.3879,2124.0671a18.2111,18.2111,0,0,1-15.1587-28.291l518.34-780.3174a18.2111,18.2111,0,0,1,4.414-4.6191c332.8125-243.6084,664.4849-288.3057,884.082-283.0029,238.1861,5.8105,395.4957,68.4668,402.0752,71.1328a18.2093,18.2093,0,0,1,7.649,27.92L2072.61,1902.48a18.1931,18.1931,0,0,1-18.8111,6.65c-285.61-69.8535-558.5571-74.209-789.3383-12.5879-254.917,68.0664-361.13,185.9082-387.6124,220.4A18.1871,18.1871,0,0,1,862.3879,2124.0671Zm531.7212-785.7421L959.7609,1992.2019c198.1641-137.2119,576.9874-244.0381,1091.0865-121.26l568.8745-746.3281c-51.5918-17.2265-187.1314-56.1865-368.0933-60.3955C2038.5988,1059.1453,1717.1975,1102.8611,1394.1091,1338.325Z" style="fill:#000072"/><g style="opacity:0.30000000000000004"><path d="M1346.1606,1303.8564,835.0793,2023.73q124.5965-49.66,249.1928-99.32a1188.0217,1188.0217,0,0,1,319.705-110.1356c175.628-33.4507,323.336-20.041,375.6534-11.3834,87.4447,14.4705,150.8377,24.961,180.64,32.8508a70.2535,70.2535,0,0,0,10.0379,1.9276c28.9352,3.4439,54.6853-10.991,73.475-25.7536l553.178-701.5057S1973.5134,874.2016,1346.1606,1303.8564Z" style="fill:#000072"/></g><path d="M1380.739,1325.5381l-518.34,780.3168c121.7872-158.6434,459.2661-479.7052,1115.7235-319.1409L2564.31,1025.9447S2017.0019,859.8088,1380.739,1325.5381Z" style="fill:#fff"/><path d="M862.3879,2124.0671a18.2111,18.2111,0,0,1-15.1587-28.291l518.34-780.3174a18.2111,18.2111,0,0,1,4.414-4.6191c332.1314-243.11,639.9756-312.5049,839.7388-327.9053,217.2851-16.7334,354.1577,23.8526,359.8779,25.586a18.2126,18.2126,0,0,1,9.1358,28.5449L1992.549,1797.8318a18.2277,18.2277,0,0,1-18.7524,6.5723c-651.2256-159.2774-984.0747,165.5078-1096.9483,312.539A18.1871,18.1871,0,0,1,862.3879,2124.0671Zm531.7236-785.7421-405.22,610.0244a939.8179,939.8179,0,0,1,223.5254-138.4326c219.0454-96.5039,474.1919-111.1866,758.4888-43.6768l561.936-729.2969c-49.2065-10.7177-164.8633-29.8877-322.2046-17.5439C2016.5529,1034.6384,1717.5588,1102.3777,1394.1115,1338.325Z" style="fill:#000072"/><path d="M862.3991,2105.8549l518.34-780.3168s-2.6035-590.9871-581.0533-620.54l-671.0536,693.54S761.76,1332.1814,862.3991,2105.8549Z" style="fill:#fff"/><path d="M862.4025,2124.0671a18.2143,18.2143,0,0,1-18.0639-15.8642c-40.7862-313.55-172.9517-525.1611-392.8272-628.95-164.436-77.627-319.4506-62.7588-320.9961-62.5977a18.2167,18.2167,0,0,1-14.9707-30.7812l671.0523-693.54a17.7665,17.7665,0,0,1,14.0185-5.5224C1108.3425,702.5291,1254.8342,875.83,1323.54,1018.447c73.8941,153.3838,75.3858,300.8106,75.4126,307.0117a18.2006,18.2006,0,0,1-3.042,10.1563l-518.34,780.3174A18.2072,18.2072,0,0,1,862.4025,2124.0671ZM173.0373,1378.8425c60.6055.63,173.02,10.7227,292.4732,66.7383,102.0581,47.8565,187.7124,119.4385,254.5849,212.7539,75.6616,105.5811,127.1729,239.2676,153.396,397.9053l488.8892-735.9814c-1.0279-27.5586-9.1626-156.919-72.1973-287.1241-92.7124-191.5039-255.2539-295.5957-483.2007-309.4824Z" style="fill:#000072"/><g style="opacity:0.30000000000000004"><path d="M1469.83,1693.3945c-82.83,14.8037-149.7272-46.0246-157.7273-117.952,25.4229-8.1582,52.0525-15.0661,78.0354-19.0378,31.3275-4.7885,59.4993-22.9984,74.1883-51.08,6.2651-11.9768,9.557-24.6089,5.6542-35.83-7.345-21.1169-64.12-20.5452-121.61-4.3894l137.7082-211.509c-34.7921,22.1488-69.9181,46.0129-105.3405,71.9413,0,0-.2468-49.1611-14.413-119.78l-167.49,256.485c-22.4536-19.3688-49.8767-36.9545-76.4294-38.2821a68.94,68.94,0,0,0-40.3875,10.6244c-41.153,25.6889-39.9674,85.8841.2759,112.9756a264.7317,264.7317,0,0,1,34.9335,28.2224c-108.9717,108.65-290.5194,110.9882-403.6679-4.4469-149.5885-152.6117-368.6646-214.22-520.7852-239.0911l-64.1433,66.293s633.128-66.3575,733.767,707.316c121.7872-158.6433,459.266-479.7051,1115.7234-319.1409l38.6162-50.1171C1828.0857,1659.85,1630.4861,1664.681,1469.83,1693.3945Z" style="fill:#000072"/></g><g style="opacity:0.55"><g style="clip-path:url(#clip-path)"><rect x="1211.4707" y="381.1783" width="657.6894" height="712.1929" style="fill:#ffe610"/><path d="M1403.3867,1098.3712H1302.3012v25.6142a1008.898,1008.898,0,0,1-96.49-31.5161h.6594V376.1783H1874.16v722.1929Z" style="fill:#ffe610"/><path d="M1405.7768,1131.6086a1000.47,1000.47,0,0,1-194.7178-52.7849q-11.5864-4.4419-23.0176-9.1563h18.4293V376.1783H1874.16v714.4658h19.6348q-45.5288,15.7668-92.7506,27.14v-19.4131H1405.7768Z" style="fill:#ffe611"/><path d="M1408.1669,1117.1884a985.7979,985.7979,0,0,1-191.86-52.01q-11.4165-4.3769-22.68-9.022h12.8438V376.1783H1874.16V1076.825h14.8629q-44.8606,15.5355-91.3894,26.742v-5.1958H1408.1669Z" style="fill:#ffe512"/><path d="M1410.557,1102.7682a971.11,971.11,0,0,1-189.0026-51.2356q-22.493-8.6234-44.378-18.2978h29.2943V376.1783H1874.16V1063.006h10.091q-44.1924,15.304-90.0282,26.3437A963.7232,963.7232,0,0,1,1410.557,1102.7682Z" style="fill:#ffe513"/><path d="M1412.9471,1088.348a956.4281,956.4281,0,0,1-186.145-50.4609q-22.1528-8.493-43.707-18.0212h23.3756V376.1783H1874.16V1049.187h5.319q-43.5242,15.0726-88.667,25.9453A949.1508,949.1508,0,0,1,1412.9471,1088.348Z" style="fill:#fee414"/><path d="M1415.3372,1073.9277a941.7366,941.7366,0,0,1-183.2873-49.6862q-21.8128-8.3625-43.0361-17.7445h17.4569V376.1783H1874.16v659.19h.5471q-42.8561,14.8413-87.3058,25.5471A934.577,934.577,0,0,1,1415.3372,1073.9277Z" style="fill:#fee415"/><path d="M1417.7273,1059.5075a927.0573,927.0573,0,0,1-180.43-48.9116q-21.4728-8.2322-42.3651-17.4678h11.5382v-616.95H1874.16v637.8162h16.7642q-10.4413,3.9014-20.989,7.5544-42.1878,14.61-85.9446,25.1487A920.0052,920.0052,0,0,1,1417.7273,1059.5075Z" style="fill:#fee416"/><path d="M1420.1174,1045.0873A912.3829,912.3829,0,0,1,1242.5453,996.95q-21.1326-8.1018-41.6941-17.1912h5.62V376.1783H1874.16V992.3732h32.1042q-20.3355,8.1635-41.1009,15.3567-41.52,14.3784-84.5835,24.75A905.4364,905.4364,0,0,1,1420.1174,1045.0873Z" style="fill:#fee317"/><path d="M1422.5075,1030.6671a897.6945,897.6945,0,0,1-174.7145-47.3623Q1227,975.3334,1206.77,966.39q-10.1133-4.469-20.0814-9.174h19.7823V376.1783H1874.16v602.623h26.6709q-20.0083,8.032-40.4395,15.11-40.8516,14.1473-83.2223,24.3522A890.8664,890.8664,0,0,1,1422.5075,1030.6671Z" style="fill:#fee318"/><path d="M1424.8976,1016.2469a883.0132,883.0132,0,0,1-171.8569-46.5877q-40.9048-15.6821-79.5686-35.1451h32.9986V376.1783H1874.16V965.2294h21.2376q-19.6812,7.9006-39.7781,14.8624-40.1835,13.9158-81.8611,23.9538A876.2944,876.2944,0,0,1,1424.8976,1016.2469Z" style="fill:#fee319"/><path d="M1427.2876,1001.8266a868.3274,868.3274,0,0,1-168.9992-45.8129q-40.2247-15.4213-78.2456-34.5608h26.4279V376.1783H1874.16V951.6575h15.8042q-19.3538,7.7694-39.1166,14.6153-39.5152,13.6844-80.5,23.5555A861.7225,861.7225,0,0,1,1427.2876,1001.8266Z" style="fill:#fee21a"/><path d="M1429.6777,987.4064a853.639,853.639,0,0,1-166.1416-45.0383q-39.5445-15.16-76.9225-33.9764h19.8571V376.1783H1874.16V938.0856h10.3709q-19.0266,7.638-38.4552,14.3681-38.8472,13.4531-79.1388,23.1573A847.1525,847.1525,0,0,1,1429.6777,987.4064Z" style="fill:#fee21b"/><path d="M1432.0678,972.9862a838.9646,838.9646,0,0,1-163.284-44.2636q-38.8644-14.9-75.5994-33.392h13.2863V376.1783H1874.16V924.5137h4.9375q-18.6993,7.5066-37.7937,14.121-38.179,13.2216-77.7776,22.7589A832.5824,832.5824,0,0,1,1432.0678,972.9862Z" style="fill:#fde11c"/><path d="M1434.4579,958.566a824.2853,824.2853,0,0,1-160.4264-43.489q-38.1842-14.639-74.2764-32.8076h6.7156V376.1783H1874.16V903.35h17.7755q-9.0846,3.9036-18.2713,7.5917-18.372,7.3754-37.1324,13.874-37.5107,12.99-76.4164,22.3606A818.0118,818.0118,0,0,1,1434.4579,958.566Z" style="fill:#fde11d"/><path d="M1436.848,944.1458a809.604,809.604,0,0,1-157.5688-42.7144q-37.5041-14.3783-72.9533-32.2232h.1448v-493.03H1874.16V882.0349h29.76a802.2111,802.2111,0,0,1-467.0718,62.1109Z" style="fill:#fde11e"/><path d="M1439.2381,929.7256a794.92,794.92,0,0,1-154.7111-41.94q-36.824-14.1176-71.63-31.6388-17.3895-8.7417-34.2406-18.2866h27.8146V376.1783H1874.16V868.7411h23.6791a787.6636,787.6636,0,0,1-458.6011,60.9845Z" style="fill:#fde01f"/><path d="M1441.6282,915.3053a780.2311,780.2311,0,0,1-151.8535-41.165q-36.1438-13.8567-70.3072-31.0544-17.0683-8.58-33.6082-17.9488h20.6114V376.1783H1874.16v479.269h17.5986a773.1142,773.1142,0,0,1-450.13,59.858Z" style="fill:#fde020"/><path d="M1444.0183,900.8851a765.5447,765.5447,0,0,1-148.9959-40.39q-35.4636-13.5958-68.9842-30.47-16.747-8.4186-32.9757-17.611h13.4082V376.1783H1874.16V842.1535h11.518a758.5644,758.5644,0,0,1-441.66,58.7316Z" style="fill:#fddf21"/><path d="M1446.4084,886.4649A750.8632,750.8632,0,0,1,1300.27,846.8492q-34.7835-13.3353-67.6611-29.8857-16.4259-8.2572-32.3433-17.2732h6.205V376.1783H1874.16V828.86h5.4374a744.0169,744.0169,0,0,1-433.1891,57.6052Z" style="fill:#fddf22"/><path d="M1448.7985,872.0447a730.5858,730.5858,0,0,1-272.0176-103.4658h29.69V376.1783H1874.16V800.1062h31.0453q-15.6444,8.1024-31.6885,15.46a729.4676,729.4676,0,0,1-424.7184,56.4788Z" style="fill:#fcdf23"/><path d="M1451.1886,857.6245a716.0148,716.0148,0,0,1-266.5925-101.4023h21.8746V376.1783H1874.16V787.1207h24.3327q-15.3322,7.9408-31.0565,15.1514a714.92,714.92,0,0,1-416.2477,55.3524Z" style="fill:#fcde24"/><path d="M1453.5786,843.2043a701.4428,701.4428,0,0,1-261.1672-99.3388h14.0593V376.1783H1874.16V774.1352h17.62q-15.02,7.7793-30.4245,14.8431a700.3712,700.3712,0,0,1-407.7772,54.226Z" style="fill:#fcde25"/><path d="M1455.9687,828.784a686.8717,686.8717,0,0,1-255.7421-97.2752h6.2441v-355.33H1874.16V761.15h10.9076q-14.7084,7.6176-29.7925,14.5348a685.8226,685.8226,0,0,1-399.3065,53.0994Z" style="fill:#fcde27"/><path d="M1458.3588,814.3638a672.3035,672.3035,0,0,1-250.3169-95.2116q-13.8789-8.7867-27.2639-18.2091h25.6927V376.1783H1874.16v356.4h32.6036q-28.0164,16.2541-57.5691,29.8125a671.2752,671.2752,0,0,1-390.8358,51.973Z" style="fill:#fcdd28"/><path d="M1460.7489,799.9436a657.7314,657.7314,0,0,1-244.8917-93.1481q-13.5781-8.5962-26.6731-17.8145h17.2866V376.1783H1874.16V719.9306h25.2753q-27.4092,15.9019-56.3214,29.1664a656.7253,656.7253,0,0,1-382.3651,50.8466Z" style="fill:#fcdd29"/><path d="M1463.139,785.5234a643.16,643.16,0,0,1-239.4666-91.0846q-26.5545-16.8114-51.1972-36.0251h33.9955V376.1783H1874.16V707.283h17.947q-26.802,15.55-55.0737,28.52a642.176,642.176,0,0,1-373.8944,49.72Z" style="fill:#fcdc2a"/><path d="M1465.5291,771.1032a628.5893,628.5893,0,0,1-234.0414-89.0211q-25.953-16.4305-50.0374-35.2089h25.02V376.1783H1874.16v318.457h10.6187q-26.1948,15.1974-53.8259,27.8741a627.6293,627.6293,0,0,1-365.4238,48.5938Z" style="fill:#fbdc2b"/><path d="M1467.9192,756.683a614.0187,614.0187,0,0,1-228.6162-86.9575q-25.3514-16.05-48.8775-34.3928h16.0452V376.1783H1874.16V681.9876h3.29q-25.5874,14.8452-52.5782,27.228a613.0795,613.0795,0,0,1-356.9531,47.4674Z" style="fill:#fbdc2c"/><path d="M1470.3093,742.2627a599.4458,599.4458,0,0,1-223.1911-84.8939q-24.75-15.6688-47.7176-33.5767h7.07V376.1783H1874.16V654.2617h20.5783q-12.1224,7.8292-24.6162,15.0783-24.98,14.4927-51.3305,26.5818a598.5293,598.5293,0,0,1-348.4824,46.3409Z" style="fill:#fbdb2d"/><path d="M1472.6994,727.8425a584.8737,584.8737,0,0,1-217.7659-82.83q-24.1482-15.288-46.5577-32.76-11.1946-8.7221-21.9294-17.955h20.0243V376.1783H1874.16V641.9806h12.6517q-11.8278,7.6389-24.0178,14.7117-24.3732,14.14-50.0829,25.9357a583.9819,583.9819,0,0,1-340.0117,45.2145Z" style="fill:#fbdb2e"/><path d="M1475.09,713.4223a569.433,569.433,0,0,1-299.5881-148.6951h30.9693V376.1783H1874.16V614.26h27.424C1782.5179,699.4686,1630.9458,739.2549,1475.09,713.4223Z" style="fill:#fbda2f"/><path d="M1477.48,699.0021A554.8833,554.8833,0,0,1,1185.5458,554.106h20.9249V376.1783H1874.16V602.3734h18.9174C1777.0534,685.4049,1629.3538,724.1746,1477.48,699.0021Z" style="fill:#fbda30"/><path d="M1479.87,684.5819A540.3363,540.3363,0,0,1,1195.59,543.4849h10.88V376.1783H1874.16V590.4867h10.4108C1771.5889,671.3412,1627.7619,709.0944,1479.87,684.5819Z" style="fill:#fbda31"/><path d="M1482.26,670.1617a525.789,525.789,0,0,1-276.6252-137.298h.8362V376.1783H1874.16V578.6h1.9042A526.6012,526.6012,0,0,1,1482.26,670.1617Z" style="fill:#fbd932"/><path d="M1484.65,655.7414a511.2377,511.2377,0,0,1-268.9709-133.4988q-17.9544-17.01-34.1744-35.6363h24.9662V376.1783H1874.16V536.15h32.0669q-18.6012,16.2024-38.6693,30.5638A512.03,512.03,0,0,1,1484.65,655.7414Z" style="fill:#fad933"/><path d="M1487.04,641.3212a496.6893,496.6893,0,0,1-261.3166-129.7q-17.4435-16.5263-33.2019-34.6222h13.9493V376.1783H1874.16V525.1326h22.46q-18.0718,15.7413-37.5688,29.6941A497.46,497.46,0,0,1,1487.04,641.3212Z" style="fill:#fad834"/><path d="M1489.43,626.901a482.8884,482.8884,0,0,1-314.716-195.9771h31.7567V376.1783H1874.16V514.1157h12.8528q-17.5423,15.28-36.4683,28.8243A482.8883,482.8883,0,0,1,1489.43,626.901Z" style="fill:#fad835"/><path d="M1491.82,612.4808a468.3167,468.3167,0,0,1-305.2194-190.0635h19.87v-46.239H1874.16V503.0988h3.2458q-17.013,14.8191-35.3679,27.9545A468.3169,468.3169,0,0,1,1491.82,612.4808Z" style="fill:#fad836"/><path d="M1494.21,598.0606a453.7457,453.7457,0,0,1-295.7228-184.15h7.9833V376.1783H1874.16v85.6193h25.2186a457.4315,457.4315,0,0,1-65.8473,57.369A453.7454,453.7454,0,0,1,1494.21,598.0606Z" style="fill:#fad737"/><path d="M1496.6,583.64a439.1745,439.1745,0,0,1-286.2262-178.2363q-12.3029-17.1914-22.9358-35.5137l19.0324,6.2879H1874.16v75.5749h14.5975a442.7374,442.7374,0,0,1-63.7328,55.5267A439.1741,439.1741,0,0,1,1496.6,583.64Z" style="fill:#fad738"/><path d="M1498.99,569.22a424.6027,424.6027,0,0,1-276.73-172.3226q-11.8947-16.621-22.1748-34.3354l6.3847,13.6162H1874.16v65.5305h3.9763a428.0494,428.0494,0,0,1-61.6182,53.6845A424.6031,424.6031,0,0,1,1498.99,569.22Z" style="fill:#fad739"/><path d="M1501.3805,554.8A410.032,410.032,0,0,1,1234.1474,388.391q-11.4864-16.0508-21.4138-33.1572v20.9445H1874.16v25.3981h19.2261q-12.2292,15.696-25.8709,30.088a413.3661,413.3661,0,0,1-59.5036,51.8422A410.0321,410.0321,0,0,1,1501.3805,554.8Z" style="fill:#f9d63a"/><path d="M1503.7706,540.38a395.4611,395.4611,0,0,1-257.7365-160.4953q-11.0783-15.48-20.6528-31.9789v28.2728H1874.16l29.836-15.0562A397.3382,397.3382,0,0,1,1799.5051,471.62,395.4607,395.4607,0,0,1,1503.7706,540.38Z" style="fill:#f9d63b"/><path d="M1506.1606,525.96a380.89,380.89,0,0,1-248.24-154.5817v4.8005H1874.16l17.4793-22.8715a382.6987,382.6987,0,0,1-100.6409,106.4264A380.89,380.89,0,0,1,1506.1606,525.96Z" style="fill:#f9d53c"/><path d="M1508.5507,511.5393a366.3188,366.3188,0,0,1-238.7432-148.6681v13.3071H1874.16l5.1226-30.6868a368.0578,368.0578,0,0,1-96.7908,102.355A366.3185,366.3185,0,0,1,1508.5507,511.5393Z" style="fill:#f9d53d"/></g></g><path d="M1872.5924,710.6143a327.783,327.783,0,0,1-115.1548,249.7531,631.2566,631.2566,0,0,0-105.32,114.8359l-1.275-.91c-14.6162,19.0783-103.0885,16.7561-206.2223-6.33-103.6348-23.176-184.958-58.966-189.3749-82.461,0-.9561-.0456-1.9121-.1365-2.8237v-.1823c-3.0962-63.1547-12.34-125.8547-28.6409-187.0518a327.51,327.51,0,0,1-11.0191-90.4761c2.96-178.9012,151.1265-323.79,330.0285-322.9706C1726.2924,382.8169,1872.5924,529.6177,1872.5924,710.6143Z" style="fill:#feda24"/><path d="M1262.7631,1263.0756,1266.32,1306.6c4.0665,49.758,40.9359,91.1341,90.1471,99.52q1.2372.2135,2.49.4136c45.8539,7.288,91.2565-15.7234,113.37-56.5481l21.1794-39.1Z" style="fill:#5e4c80"/><path d="M1375.8376,1421.5281a121.0976,121.0976,0,0,1-19.0234-1.5039c-.9082-.1416-1.8238-.293-2.7344-.4541-55.0342-9.38-96.76-55.3809-101.3745-111.8555l-3.5571-43.5254a13.6585,13.6585,0,0,1,16.3867-14.4873l230.7422,47.8125a13.66,13.66,0,0,1,9.2407,19.8828l-21.1792,39.0967A123.8252,123.8252,0,0,1,1375.8376,1421.5281Zm-97.9712-141.3721,2.07,25.332c3.5962,44.0284,36.0108,79.8682,78.8257,87.1631l2.3267.3907c39.8388,6.3134,79.7387-13.584,99.226-49.5606l12.4292-22.9443Z" style="fill:#000072"/><path d="M1543.1825,1279.43l-295.169-70.475s-19.8187,27.9072-11.1255,53.3954c6.3365,18.5737,66.42,44.6978,143.8515,63.187,81.5094,19.4585,134.2979,20.4813,154.0433-.12C1547.8581,1303.2689,1543.1825,1279.43,1543.1825,1279.43Z" style="fill:#9da9b9"/><g style="opacity:0.30000000000000004"><path d="M1543.1825,1279.43l-295.169-70.475s-19.8187,27.9072-11.1255,53.3954c6.3365,18.5737,66.42,44.6978,143.8515,63.187,81.5094,19.4585,134.2979,20.4813,154.0433-.12C1547.8581,1303.2689,1543.1825,1279.43,1543.1825,1279.43Z" style="fill:#000072"/></g><path d="M1481.5993,1354.1453c-26.8677,0-61.2646-5.1123-104.0307-15.3223-32.9517-7.8662-141.4112-36.3135-153.6084-72.0654-10.8252-31.7334,11.9409-64.3408,12.915-65.7129a13.6409,13.6409,0,0,1,14.3091-5.376l295.1684,70.4736a13.6552,13.6552,0,0,1,10.2344,10.6543c.23,1.1817,5.4981,29.2481-10.0415,55.5664a13.5889,13.5889,0,0,1-1.9018,2.51C1532.322,1347.7293,1511.6823,1354.1453,1481.5993,1354.1453Zm-226.8921-129.5459c-4.3286,8.8623-8.6792,22.2314-4.89,33.34,3.6938,8.6182,46.8506,33.4815,134.0942,54.3115,98.5743,23.5352,129.9732,13.628,139.9512,4.7364A57.087,57.087,0,0,0,1530.32,1290.4Z" style="fill:#000072"/><path d="M1597.5206,1213.3531l-379.2974-89.3778s-26.0641,36.5916-15.6211,65.9039c7.61,21.3573,80.8446,57.8955,180.3474,81.3427,104.7387,24.6789,172.9326,27.467,199.0945,4.5978C1599.635,1250.9807,1597.5206,1213.3531,1597.5206,1213.3531Z" style="fill:#9da9b9"/><path d="M1519.3,1305.1462c-35.0537,0-81.1035-6.87-139.4824-20.63-85.71-20.1953-178.523-57.6172-190.083-90.0537-12.688-35.61,16.13-76.6846,17.3633-78.4131a13.6686,13.6686,0,0,1,14.2578-5.3711l379.2969,89.38a13.66,13.66,0,0,1,10.5053,12.5293c.0977,1.7334,2.1509,42.72-17.9663,71.1279a13.6243,13.6243,0,0,1-2.1557,2.3877C1576.5188,1298.7937,1552.986,1305.1462,1519.3,1305.1462Zm-294.6509-165.625c-6.5185,11.8116-14.3408,31.2793-9.1772,45.7715,4.4385,12.3633,66.9458,48.2032,170.61,72.6319,124.1431,29.2578,169.6607,21.1523,185.7642,8.6084,8.7769-13.3692,11.2378-31.3428,11.8774-42.3975Z" style="fill:#000072"/><path d="M1597.5206,1213.3531c-6.5877,27.9517-96.8348,30.6063-201.5757,5.923-104.7388-24.679-184.3072-67.3491-177.7217-95.3008,6.5877-27.9561,96.837-30.6063,201.5757-5.9273C1524.5377,1142.7313,1604.1083,1185.397,1597.5206,1213.3531Z" style="fill:#9da9b9"/><g style="opacity:0.30000000000000004"><path d="M1597.5206,1213.3531c-6.5877,27.9517-96.8348,30.6063-201.5757,5.923-104.7388-24.679-184.3072-67.3491-177.7217-95.3008,6.5877-27.9561,96.837-30.6063,201.5757-5.9273C1524.5377,1142.7313,1604.1083,1185.397,1597.5206,1213.3531Z" style="fill:#000072"/></g><path d="M1523.7722,1249.8142c-39.0894,0-86.2891-6.7138-130.96-17.2412-97.7417-23.0273-198.23-67.8174-187.8857-111.7285,10.3491-43.9111,120.2661-39.1211,218.0053-16.0938,51.7847,12.2022,99.3482,29.1358,133.9307,47.6807,40.6763,21.8164,58.8281,43.3643,53.9526,64.0576C1605.1955,1240.3318,1570.2126,1249.8142,1523.7722,1249.8142Zm-232.107-134.9121c-37.6611,0-58.7475,6.2647-60.1464,12.207-2.5513,10.83,53.0053,51.88,167.5586,78.8721,114.5556,26.9971,182.5976,15.0684,185.1464,4.2383h0c.503-2.1338-5.083-14.8389-40.271-33.7109-32.5488-17.4512-77.7514-33.4913-127.2851-45.1661C1364.9343,1119.155,1322.6784,1114.9021,1291.6652,1114.9021Z" style="fill:#000072"/><path d="M1585.508,1128.3553l-309.2827-70.1415s-20.379,29.4013-10.9921,55.93c6.8412,19.33,69.937,45.9206,151.0729,64.3209,85.4069,19.3651,140.581,19.8054,160.9711-1.9521C1590.6794,1153.2121,1585.508,1128.3553,1585.508,1128.3553Z" style="fill:#9da9b9"/><g style="opacity:0.30000000000000004"><path d="M1585.508,1128.3553l-309.2827-70.1415s-20.379,29.4013-10.9921,55.93c6.8412,19.33,69.937,45.9206,151.0729,64.3209,85.4069,19.3651,140.581,19.8054,160.9711-1.9521C1590.6794,1153.2121,1585.508,1128.3553,1585.508,1128.3553Z" style="fill:#000072"/></g><path d="M1519.49,1206.5769c-27.6269,0-62.7661-4.9414-106.2036-14.79-34.4506-7.8125-147.8613-36.1768-160.93-73.0811-11.5845-32.749,11.6479-66.8408,12.6416-68.2763a13.6287,13.6287,0,0,1,14.248-5.5372l309.2822,70.1416a13.6592,13.6592,0,0,1,10.354,10.5372c.2539,1.2255,6.0474,30.2636-9.7631,57.7539a13.5716,13.5716,0,0,1-1.8726,2.5293C1574.2873,1199.6824,1552.1291,1206.5769,1519.49,1206.5769Zm-236.4233-132.8076c-4.5386,9.4189-9.1772,23.8867-4.956,35.82,3.7451,9.0332,49.0332,34.6436,141.2182,55.5566,103.7525,23.5254,136.5747,12.5879,146.9336,3.0616,5.5811-10.5127,6.6333-21.46,6.5454-28.7256Z" style="fill:#000072"/><path d="M1649.2863,1070.3932l-397.42-88.8976s-23.594,27.7294-12.3328,58.2334c8.2041,22.2289,85.1668,59.5407,189.4252,82.8634,109.7435,24.55,181.0389,26.6488,208.1035,2.4413C1655.1515,1098.87,1649.2863,1070.3932,1649.2863,1070.3932Z" style="fill:#9da9b9"/><path d="M1568.6013,1155.8445c-36.15,0-83.2666-6.6406-142.6245-19.9219-89.646-20.0537-186.875-57.91-199.2578-91.46-13.87-37.5733,13.5668-70.44,14.7436-71.8213a13.6272,13.6272,0,0,1,13.3838-4.4776l397.4219,88.9014a13.66,13.66,0,0,1,10.3979,10.5762c.2881,1.3965,6.7993,34.5459-14.3677,65.1611a13.6018,13.6018,0,0,1-2.1289,2.4121C1630.7961,1148.9646,1605.3737,1155.8445,1568.6013,1155.8445ZM1257.8957,996.8406c-4.7925,8.2129-11.1059,23.1006-5.5469,38.1592,4.7852,12.9638,70.6836,49.8974,179.5948,74.2627,130.4834,29.1845,178.0957,20.0195,194.8266,6.5966,8.1934-12.6367,9.751-25.9668,9.7412-34.3261Z" style="fill:#000072"/><path d="M1587.9812,1105.4783c-58.1812,0-130.4761-15.2-150.7715-19.7412-32.2608-7.2168-193.6963-45.8008-203.2959-96.87a18.2979,18.2979,0,0,1-.3125-3.3643,9.9179,9.9179,0,0,0-.0489-1.02c-.0585-.5957-.0878-1.2012-.0878-1.8018a21.0335,21.0335,0,0,1,.1709-2.6855c.0659-.4639.1464-.9326.2441-1.4112.0562-.3613.127-.7177.2051-1.0742,6.3867-28.4912,50.3369-31.2793,82.8344-30.8935,40.54.4785,92.7613,7.4267,147.0484,19.5654,54.2651,12.1338,104.458,28.0908,141.3306,44.9268,29.5654,13.5009,68.1347,34.7461,61.7529,63.247a.1028.1028,0,0,0-.0049.02,28.054,28.054,0,0,1-5.21,11.0351C1650.3249,1100.4392,1621.4943,1105.4783,1587.9812,1105.4783Zm61.2963-35.1026h0Zm-375.12-83.8867c16.6846,14.2188,73.9014,41.9824,171.0059,63.7012,97.0849,21.7285,160.6762,20.9717,181.8237,15.2051-16.6748-14.2041-73.894-41.958-170.9692-63.667C1358.9309,980.0242,1295.3225,980.742,1274.1579,986.489Zm-40.3808-7.1875c0,.01-.0025.0147-.0025.0244C1233.7746,979.3162,1233.7771,979.3113,1233.7771,979.3015Z" style="fill:#000072"/><ellipse cx="1450.5766" cy="1025.9458" rx="43.044" ry="203.62" transform="translate(132.7233 2217.5832) rotate(-77.3912)" style="fill:#fff"/><g style="opacity:0.30000000000000004"><ellipse cx="1449.9885" cy="1028.5751" rx="32.311" ry="203.6201" transform="translate(129.6975 2219.0646) rotate(-77.3912)" style="fill:#000072"/></g><path d="M1520.0808,1044.5115c-.2295,0-.4566-.0049-.6861-.0147a13.657,13.657,0,0,1-12.9687-14.3115c.22-4.5166,5.9692-112.1338,53.9941-238.6816q1.7139-4.5117,3.4815-8.7158L1478.76,758.13c-3.9917,59.4336-23.5279,141.3428-67.2364,249.0235a13.6589,13.6589,0,0,1-25.3125-10.2735c46.5577-114.707,63.335-193.8232,65.8936-246.47l-9.4507-2.7392c-5.9326-1.8164-56.4868-18.1983-66.7749-51.9971-3.1567-10.3711-3.7427-26.65,11.4038-45.293,15.542-19.1357,37.7759-24.2871,56.648-13.125,19.9951,11.8213,34.5678,41.6651,35.5639,92.6465l96.7261,28.0225c23.645-40.3858,50.647-49.7852,66.4087-51.4649,21.6309-2.2607,42.8076,7.29,53.9355,24.458,8.2178,12.6709,9.065,27.2217,2.2681,38.9112-19.7412,33.96-81.2988,25.61-108.2373,20.0634q-2.3987,5.4273-4.6338,11.3086c-46.4111,122.295-52.1972,229.2627-52.251,230.3272A13.6594,13.6594,0,0,1,1520.0808,1044.5115Zm84.2016-279.8828c28.4571,4.6582,63.169,4.8242,70.9326-8.53,2.1827-3.7549-.3735-8.4668-1.5747-10.3223-4.57-7.0507-15.0317-13.5107-28.1152-12.1484C1630.9524,735.18,1616.6994,746.0886,1604.2824,764.6287ZM1423.3352,658.8474c-6.8238,0-12.3853,5.7324-14.8462,8.76-9.1553,11.2646-7.1411,17.91-6.48,20.0928,4.58,15.1123,32.1582,28.75,48.4668,33.7939l1.5869.459c-2.2192-37.7-13.1983-55.957-22.0361-61.1817A12.9986,12.9986,0,0,0,1423.3352,658.8474Z" style="fill:#000072"/><path d="M919.6206,320.8628c55.6174,2.6013,110.4415,35.2018,149.3911,73.39,17.1728,16.8371,42.3867,42.0389,42.9147,67.5768.603,29.16-25.0788,42.2856-50.7925,39.3987-52.92-5.9413-106.519-37.692-143.53-74.9588-16.1043-16.2154-38.0573-39.7085-39.4117-63.6808C876.8868,339.4922,896.5205,319.8685,919.6206,320.8628Z" style="fill:#feda24"/><path d="M1068.1789,517.5632a79.4663,79.4663,0,0,1-8.8232-.4931c-52.1778-5.8594-109.397-35.6055-153.0616-79.57-21.936-22.09-42.4511-46.3428-44.0136-74.0137a55.3413,55.3413,0,0,1,16.0058-41.86,55.912,55.912,0,0,1,42.0215-16.6845c.02,0,.0391.0049.0586.0049,53.5962,2.5,111.8433,30.9033,159.8023,77.9248,17.5854,17.2412,47.019,46.0986,47.69,78.6328.3369,16.3037-5.4248,30.3467-16.6626,40.6054C1100.2224,512.1238,1084.8855,517.5632,1068.1789,517.5632ZM917.9641,336.7673a23.9823,23.9823,0,0,0-16.99,7.2461,23.4215,23.4215,0,0,0-6.8725,17.6758c1.0986,19.4043,23.8672,42.334,34.8095,53.35,38.1348,38.3985,89.48,65.3565,133.9991,70.3565,10.7837,1.1865,20.7885-1.3428,26.7968-6.8262,4.375-3.9941,6.4307-9.36,6.2867-16.4111-.4053-19.5313-24.9512-43.5938-38.14-56.5235-41.8066-40.9912-93.7451-66.7285-138.9429-68.8476C918.5964,336.7722,918.279,336.7673,917.9641,336.7673Z" style="fill:#000072"/><path d="M1308.7934,22.0505c46.8516,30.0831,78.0047,85.7425,92.6177,138.2961,6.4428,23.1707,15.6619,57.6073,3.34,79.9821-14.0693,25.5478-42.8727,24.0612-63.6909,8.6947-42.8448-31.625-73.3626-85.9356-86.7586-136.7215-5.8288-22.0978-13.08-53.4233-2.2567-74.8561C1262.4726,16.7958,1289.291,9.63,1308.7934,22.0505Z" style="fill:#feda24"/><path d="M1372.2561,276.0837c-13.7427,0-28.0567-4.9365-40.6617-14.2382-42.2436-31.1817-76.8994-85.5713-92.7026-145.4834-7.9419-30.0977-13.5693-61.3575-1.0742-86.0987a55.9772,55.9772,0,0,1,79.5386-21.6552.2945.2945,0,0,1,.0488.0341c45.1514,28.9893,81.3672,82.7295,99.36,147.4366,6.5992,23.7256,17.6416,63.4375,1.9458,91.9384-7.8662,14.2823-19.8828,23.56-34.7485,26.8164A54.4359,54.4359,0,0,1,1372.2561,276.0837ZM1287.6223,31.8748a24.9025,24.9025,0,0,0-6.5552.8838,23.4585,23.4585,0,0,0-14.7974,11.87c-8.7622,17.3535-.52,48.5937,3.4424,63.6035,13.8013,52.3291,44.7681,101.3623,80.813,127.9687,8.7207,6.4405,18.6719,9.253,26.6138,7.5,5.7861-1.2695,10.2514-4.8877,13.6523-11.0595,9.4238-17.1143.2149-50.2344-4.7339-68.0274-15.686-56.4013-47.7734-104.6728-85.84-129.1308A23.4375,23.4375,0,0,0,1287.6223,31.8748Z" style="fill:#000072"/><path d="M1946.5914,151.59c-11.8417,54.4044-53.13,103.0228-97.28,135.057-19.4657,14.1238-48.52,34.7809-73.7882,31.0418-28.8516-4.2692-37.51-31.7806-30.3747-56.6526,14.685-51.1875,54.9312-98.74,97.8494-129.0167,18.6743-13.174,45.5-30.9009,69.3624-28.2378C1935.3509,106.3472,1951.4249,128.9789,1946.5914,151.59Z" style="fill:#feda24"/><path d="M1781.6335,334.0671a57.7018,57.7018,0,0,1-8.4424-.61c-16.1377-2.3926-29.021-10.415-37.2607-23.2129-9.4434-14.6631-11.6675-34.1992-6.1011-53.6035,14.4824-50.4785,53.3545-101.9336,103.9819-137.6416,25.4395-17.9492,52.815-34.1455,80.315-31.06a55.9742,55.9742,0,0,1,48.0493,66.9824.4844.4844,0,0,1-.0122.0586c-11.4136,52.4366-49.1358,105.127-103.4937,144.5655C1840.4812,312.7439,1811.0988,334.0671,1781.6335,334.0671Zm125.7739-214.624c-18.9355,0-43.2153,17.1289-55.2221,25.6006-44.2188,31.1865-79.36,77.3193-91.7163,120.3858-2.9908,10.42-2.146,20.7226,2.2583,27.5585,3.208,4.9805,8.1567,7.9053,15.1293,8.9356,19.3091,2.8223,47.1485-17.3291,62.0948-28.1787,47.3828-34.375,81.4209-81.2891,91.06-125.5029a23.9356,23.9356,0,0,0-4.1333-18.9014,23.4217,23.4217,0,0,0-16.2866-9.7217A28.455,28.455,0,0,0,1907.4074,119.4431Zm39.1846,32.1485h0Z" style="fill:#000072"/><path d="M2223.6585,539.26c-36.9766,41.6268-96.7893,63.7834-150.9721,70.08-23.889,2.7764-59.338,6.5505-79.5342-9.0882-23.0605-17.8565-17.1307-46.0821,1.2748-64.269,37.8793-37.43,96.2612-59.1674,148.5091-64.5359,22.7339-2.3359,54.8044-4.6475,74.3022,9.3645C2236.0241,494.3124,2238.9494,521.9169,2223.6585,539.26Z" style="fill:#feda24"/><path d="M2038.6135,627.8025c-19.353,0-39.9585-3.13-55.22-14.9463-12.8931-9.9853-20.1954-23.2959-21.1133-38.4863-1.05-17.4072,6.5844-35.5322,20.9448-49.7266,37.3535-36.9043,96.45-62.7148,158.0835-69.0478,30.9644-3.1739,62.7124-3.9014,85.23,12.27a55.98,55.98,0,0,1,9.0723,81.9385c-.0123.0146-.0245.0292-.0391.0439-35.6323,40.1123-94.3311,67.5684-161.0449,75.3223C2064.573,626.3279,2051.8874,627.8025,2038.6135,627.8025ZM2171.3869,485.6a260.87,260.87,0,0,0-26.8188,1.7041c-53.8306,5.5273-107.0679,28.5253-138.94,60.0146-7.71,7.6172-12.0214,17.0117-11.5307,25.1318.3564,5.9131,3.24,10.8887,8.811,15.2,15.4468,11.9678,49.5972,7.9932,67.937,5.8594,58.1617-6.7627,110.8252-30.9912,140.8814-64.8144a23.9157,23.9157,0,0,0,5.6445-18.4864,23.4432,23.4432,0,0,0-9.4336-16.46C2198.9968,487.3289,2184.8122,485.6,2171.3869,485.6Zm52.2705,53.6621h0Z" style="fill:#000072"/><path d="M1588.4963,1103.0418c-60.95,0-138.1152-16.6895-150.7886-19.5264-19.624-4.39-192.0215-44.3506-201.5552-95.0684a15.905,15.905,0,0,1-.2758-2.9443,12.23,12.23,0,0,0-.0586-1.2451c-.044-.4444-.0684-.8887-.0757-1.333-3.1323-63.4229-12.5879-125.1172-28.1055-183.3789a344.0585,344.0585,0,0,1-11.5552-94.8536c3.0933-187.0361,157.4732-338.6376,344.4507-338.6376.5371,0,1.0474.0048,1.5869.0048,189.1187.8594,342.9786,155.4248,342.9786,344.5557a344.177,344.177,0,0,1-120.7325,261.86,616.2338,616.2338,0,0,0-102.6733,111.9433,15.9673,15.9673,0,0,1-8.7915,6.1572C1639.2849,1099.7654,1615.4738,1103.0369,1588.4963,1103.0418Zm-320.8154-120.044c5.8593,11.3623,64.3066,44.2139,176.9873,69.4141,114.1186,25.542,181.2646,20.249,190.3344,11.9092a15.4253,15.4253,0,0,1,4.9024-4.2139,649.8459,649.8459,0,0,1,103.7475-111.8555,312.3529,312.3529,0,0,0,109.57-237.6367c0-171.6357-139.6265-311.9043-311.25-312.6807-.4786-.0048-.962-.0048-1.44-.0048-169.6924,0-309.7729,137.5537-312.58,307.3046a312.123,312.123,0,0,0,10.4809,86.0938c16.128,60.5517,25.9375,124.6,29.1626,190.3857,0,.0244.0025.0537.0025.0782C1267.632,982.1873,1267.6589,982.5925,1267.6809,982.9978Z" style="fill:#000072"/><g style="opacity:0.30000000000000004"><path d="M1820.6108,811.0146c-10.6072,29.9406-22.6628,63.9693-53.5021,94.862-22.4924,22.5315-38.5137,26.9031-68.4425,61.6014-9.2638,10.74-12.3065,15.6284-36.2851,45.4029-15.1853,18.8559-27.8746,34.167-36.427,44.3954a795.322,795.322,0,0,1-175.6844-12.5217c-69.8207-12.9958-105.5047-29.8087-125.9767-40.98a352.2131,352.2131,0,0,1-45.1555-29.3382,655.3123,655.3123,0,0,0,127.1163-4.8121c45.0471-6.16,215.1436-31.658,331.258-157.0914,30.1962-32.62,44.0009-58.2347,50.0871-70.5773,30.98-62.827,30.3213-123.1672,27.32-155.9531C1825.2954,614.576,1856.308,710.2538,1820.6108,811.0146Z" style="fill:#000072"/></g><g style="opacity:0.7000000000000001"><path d="M1282.8465,619.9341c-6.2012-53.7966,43.85-101.2749,59.66-116.2722,16.5587-15.7075,34.3383-25.742,69.8977-45.8109,20.6316-11.644,32.1019-15.2368,46.59-15.0838,16.5174.1744,33.9254,9.51,38.8145,25.2886,5.4445,17.57-6.1623,36.4443-21.25,46.9663s-33.3312,15.32-49.9193,23.2688a143.2042,143.2042,0,0,0-60.3862,54.898c-11.9418,19.8321-10.5054,28.29-24.9752,41.81-3.0927,2.89-26.3869,24.1842-42.925,16.6062C1285.836,645.87,1283.6074,626.5349,1282.8465,619.9341Z" style="fill:#fff"/></g><g style="opacity:0.7000000000000001"><path d="M1536.0249,430.049c-9.6,6.3347-17.2445,18.72-14.4558,32.2856,2.8887,14.052,15.5243,23.2635,27.3852,24.14,13.1055.969,26.087-6.4068,33.38-17.3389a24.8029,24.8029,0,0,0,4.353-9.4022c2.2756-11.382-5.0026-23.73-14.7569-29.9829A33.2629,33.2629,0,0,0,1536.0249,430.049Z" style="fill:#fff"/></g></g></g></svg>