<svg xmlns="http://www.w3.org/2000/svg" viewBox="0 0 2794.2425 2730.2324"><g id="Layer_2" data-name="Layer 2"><g id="Layer_1-2" data-name="Layer 1"><path d="M1787.4659,156.4307l-.0926.2194c-57.8454-32.055-330.969-165.9647-412.6106-120.2539-69.6923,39.0218,35.4921,158.603,35.4921,158.603L1698.78,363.9475v-.0048l-582.0319,1361.903,943.8468,552.6827c35.5555,20.8223,79.5989,4.495,96.8623-35.9017l609.977-1427.2759c16.2591-38.0419,2.6717-83.5186-30.8118-103.127Z" style="fill:#0096f0"/><g style="opacity:0.6000000000000001"><path d="M2736.6219,712.2238l-949.156-555.7931-.0926.2194c-57.8454-32.055-330.969-165.9647-412.6106-120.2539-13.8605,7.7614-20.7237,18.7357-22.9529,31.2945.1737-.1.3114-.2158.4875-.3145,81.6417-45.7107,354.7653,88.1989,412.6106,120.254l.0926-.2194,949.156,555.793c33.4835,19.6084,47.071,65.0852,30.8119,103.1271L2135.6641,2272.032a77.0333,77.0333,0,0,0,21.7926-29.4053l609.977-1427.2759C2783.6928,777.3089,2770.1054,731.8322,2736.6219,712.2238Z" style="fill:#fff"/></g><g style="opacity:0.23"><path d="M1762.72,195.64l-.0892.2194c-55.7111-32.0551-318.7578-165.9647-397.3872-120.254-67.1209,39.0219,34.1826,158.603,34.1826,158.603l277.88,168.9484v-.0049L1129.7517,1733.46l918.5119,537.8476a79.6274,79.6274,0,0,0,51.9674,13.6941l606.3-1430.4424c15.6593-38.0419,2.5731-83.5186-29.675-103.1271Z" style="fill:#000072"/></g><path d="M2093.38,2307.5988A84.5426,84.5426,0,0,1,2050.5,2295.758l-943.8428-552.6807a19.9749,19.9749,0,0,1-8.2715-25.0781L1673.5024,372.2814l-273.335-160.0488a19.94,19.94,0,0,1-4.9072-4.0429c-7.5244-8.5547-73.2471-85.2833-63.2666-143.5889,3.3594-19.6387,14.7754-35.4151,33.0127-45.625,97.2315-54.4629,396.3818,101.24,429.1455,118.6572A18.9852,18.9852,0,0,1,1797.56,139.2l949.1553,555.791c42.1045,24.6582,59.2676,80.9766,39.082,128.208L2175.8217,2250.4748c-10.8691,25.4248-31.2646,44.6777-55.957,52.8223A84.4158,84.4158,0,0,1,2093.38,2307.5988Zm-951.3525-590.0927,928.6572,543.789a44.2625,44.2625,0,0,0,36.67,4.0723c13.8086-4.5557,25.376-15.7031,31.7383-30.586L2749.0688,807.5061c12.2266-28.5987,2.1143-63.6133-22.5391-78.0518L1780.0454,175.2258a19.0426,19.0426,0,0,1-2.3487-1.1084C1674.4692,116.9152,1445.6655,19.5861,1384.518,53.82c-7.7734,4.3555-11.831,9.7559-13.1591,17.5147-5.5225,32.2705,34.624,87.7978,51.8457,108.11l285.6689,167.27a19.9751,19.9751,0,0,1,8.2715,25.0782Z" style="fill:#000072"/><path d="M1679.1905,193.5415c-154.01-83.06-207.7118-67.5326-210.7978-29.4029-3.2762,40.4941,64.5049,109.4941,170.0111,167.2907L1015.7754,1815.97l747.392,434.8322a64.6023,64.6023,0,0,0,40.0067,8.5317l225.8333-25.917c24.6836-2.8374,46.2421-19.8425,56.8069-44.8088L2648.6667,858.2729c15.9715-37.7494,2.6473-82.7483-30.3584-102.5079Z" style="fill:#fff"/><g style="opacity:0.23"><path d="M2529.8437,755.765,1590.7259,193.5415c-46.1891-24.91-83.2956-40.9-112.7807-50.1254-5.8577,5.3568-8.8883,12.51-9.5525,20.7225-3.2762,40.4941,64.5049,109.4941,170.0111,167.2907L1015.7754,1815.97l747.392,434.8322q2.2642,1.3181,4.6005,2.4425l172.7748-19.8278c24.6837-2.8374,46.2422-19.8425,56.807-44.8088L2560.2021,858.2729C2576.1736,820.5235,2562.8494,775.5246,2529.8437,755.765Z" style="fill:#000072"/></g><path d="M1795.8217,2279.7229a84.578,84.578,0,0,1-42.7-11.66l-747.3876-434.834a19.969,19.969,0,0,1-8.3692-24.9853l615.752-1468.1543c-82.1582-47.6612-169.336-119.3457-164.6241-177.5635,1.4649-18.13,10.7618-32.7246,26.1719-41.0986,37.8369-20.5567,107.8369-2.72,214.0039,54.5361.2637.1416.5225.293.7813.4443l939.1162,562.2217c41.3428,24.751,58.2519,80.7227,38.4912,127.4268L2104.2006,2196.3928c-13.2959,31.4355-41.2353,53.2226-72.915,56.8652l-225.835,25.9131A83.9471,83.9471,0,0,1,1795.8217,2279.7229Zm-754.8486-472.1973,732.2363,426.0156a44.6064,44.6064,0,0,0,27.6856,5.9522L2026.73,2213.58c17.3975-1.9971,32.9883-14.5508,40.6885-32.749L2630.28,850.49c12.168-28.76,2.4024-62.8467-22.2314-77.5928l-938.73-561.9922c-131.7431-70.9814-169.37-57.7637-175.5859-54.3848-2.9395,1.5967-4.99,3.7793-5.4346,9.2285-1.8945,23.4375,47.5489,86.7334,159.7022,148.1641a19.9678,19.9678,0,0,1,8.8183,25.2393Z" style="fill:#000072"/><path d="M1447.4581,216.782a210.0771,210.0771,0,0,1-81.8707-87.97c-12.0274-24.2351-19.6085-50.64-11.0231-70.8477l-624.34,1463.9624c-21.5293,50.4837-20.52,109.2358,2.73,158.6859,15.0257,31.9673,38.4466,58.0891,67.1572,74.8991l899.701,526.8338c35.58,20.8321,79.6525,4.4707,96.8964-35.97L2390.31,853.88c16.2152-38.0322,2.618-83.465-30.8411-103.054Z" style="fill:#0096f0"/><g style="opacity:0.6000000000000001"><path d="M2359.4693,750.8263,1447.4581,216.782a210.0771,210.0771,0,0,1-81.8707-87.97c-12.0274-24.2351-19.6085-50.64-11.0231-70.8477,0,0,27.45,141.9605,58.3189,160.0333l885.43,554.6382c33.4591,19.5889,47.0563,65.0217,30.8411,103.0539L1755.586,2272.032c-3.6333,8.522-28.5433,12.0542-34.2291,18.3153,30.2207,5.4835,61.4744-11.424,75.3525-43.9715L2390.31,853.88C2406.5256,815.8481,2392.9284,770.4153,2359.4693,750.8263Z" style="fill:#fff"/></g><polygon points="1834.244 1373.928 1282.995 1031.507 1454.123 633.727 2005.372 976.148 1834.244 1373.928" style="fill:#fff"/><g style="opacity:0.23"><path d="M1802.3342,2233.1576h0l-5.6407,13.2291c-17.2238,40.4381-61.3056,56.813-96.9013,35.9443L800.13,1755.4948c-28.7057-16.7746-52.1693-42.9342-67.1962-74.8845-23.2137-49.4244-24.2625-108.1839-2.696-158.7053L1354.5753,57.962c-8.5866,20.2191-.9982,46.6285,11.0328,70.8417a210.3521,210.3521,0,0,0,53.9171,68.3442v0c-42.474,110.9416,28.036,232.8266,145.3832,251.3123l269.0039,42.376a115.7411,115.7411,0,0,1,96.7224,129.5742l-190.05,1430.4848A217.2873,217.2873,0,0,0,1802.3342,2233.1576Z" style="fill:#000072"/></g><path d="M1732.5991,2311.4123a84.538,84.538,0,0,1-42.8809-11.8359L790.021,1772.7453c-32.3389-18.9355-58.32-47.8564-75.1368-83.6377-25.5029-54.2334-26.6357-119.6582-3.0273-175.0146L1336.1928,50.133a19.9689,19.9689,0,0,1,36.7481,15.64c-4.8584,11.4453-1.1182,30.6787,10.5322,54.16A189.5539,189.5539,0,0,0,1457.55,199.552L2369.562,733.5949c42.0605,24.6289,59.2431,80.9033,39.1162,128.1153L1815.08,2254.21c-10.8545,25.4541-31.25,44.7314-55.9571,52.8906A84.5522,84.5522,0,0,1,1732.5991,2311.4123ZM1344.8305,131.6906,748.5952,1529.757c-19.209,45.0489-18.3008,98.2666,2.4316,142.3584,13.3692,28.4473,33.833,51.3282,59.18,66.167l899.6973,526.8311a44.247,44.247,0,0,0,36.6943,4.0625c13.8184-4.5654,25.3858-15.7276,31.7432-30.63l593.5986-1392.5c12.1875-28.584,2.0654-63.5693-22.5586-77.9883l-912.0166-534.043a229.3537,229.3537,0,0,1-89.6631-96.3281Q1346.2,134.6618,1344.8305,131.6906Z" style="fill:#000072"/><path d="M1834.2446,1393.8977a19.9546,19.9546,0,0,1-10.5371-3.0079l-551.25-342.4218a19.9716,19.9716,0,0,1-7.8076-24.8535l171.1279-397.7784a19.9665,19.9665,0,0,1,28.8818-9.0722l551.25,342.4218a19.9717,19.9717,0,0,1,7.8076,24.8536l-171.1279,397.7783a19.9665,19.9665,0,0,1-18.3447,12.08ZM1308.1313,1023.61,1825.07,1344.718l155.166-360.6739L1463.2973,662.9357Z" style="fill:#000072"/><path d="M716.5312,338.7313l-.0353.2182c-65.7982-11.9835-371.9488-52.99-441.1392,11.3456-59.06,54.9153,76.5566,131.459,76.5566,131.459l330.5713,67.8726.0012-.0061L459.0439,1933.7111,1540.4427,2155.742a73.0945,73.0945,0,0,0,86.8612-59.9516L1861.4722,645.2611a73.0944,73.0944,0,0,0-57.4592-83.25Z" style="fill:#fc9b28"/><g style="opacity:0.23"><path d="M1760.7469,591.9649,673.2642,368.6851l-.0353.2182c-57.9727-10.5587-302.4988-43.6315-407.1707-7.3483-32.2342,53.5356,85.8551,120.1991,85.8551,120.1991l330.5713,67.8726.0012-.0061L459.0439,1933.7111l1081.3989,222.0306a72.6675,72.6675,0,0,0,31.8594-.6045,72.6757,72.6757,0,0,0,11.7348-29.3932L1818.2058,675.2154A73.0945,73.0945,0,0,0,1760.7469,591.9649Z" style="fill:#000072"/></g><path d="M1555.4067,2177.2473a94.4469,94.4469,0,0,1-18.9844-1.9434L455.0258,1953.2727a19.9664,19.9664,0,0,1-15.6933-22.7442L659.7231,565.3332,347.9018,501.3147a19.8668,19.8668,0,0,1-5.8008-2.168c-9.663-5.4541-94.5849-54.8926-101.1865-110.7324-1.6162-13.7159.6836-33.9942,20.8447-52.7442,81.7237-75.9961,419.1211-22.8662,455.21-16.89a19.3023,19.3023,0,0,1,3.5791.3906L1808.0337,542.4523a92.8509,92.8509,0,0,1,73.1494,105.9913L1647.018,2098.9758a93.171,93.171,0,0,1-91.6113,78.2715ZM481.8081,1917.9992l1062.6513,218.1836a53.13,53.13,0,0,0,63.1348-43.5742l234.165-1450.5322a53.0088,53.0088,0,0,0-41.7627-60.503L715.436,358.8928a19.0632,19.0632,0,0,1-2.5195-.2979c-117.8272-21.46-371.5039-42.4463-423.96,6.3233-8.4619,7.8662-8.9209,14.1748-8.3789,18.7939,2.93,24.9414,46.7676,60.5811,78.5059,79.126l327.4218,67.2266a19.9662,19.9662,0,0,1,15.6934,22.7441Z" style="fill:#000072"/><path d="M618.6487,403.0425c-174.5939-29.866-223.8929-.5363-217.0285,34.41,7.2886,37.1156,92.5818,79.243,212.4263,100.5042l-231.825,1505.32,855.5845,173.3069a73.0557,73.0557,0,0,0,41.9616-3.8954l217.555-88.155a73.1,73.1,0,0,0,44.7552-56.3779L1754.6893,717.7914a73.0928,73.0928,0,0,0-56.8508-82.8313Z" style="fill:#fff"/><g style="opacity:0.23"><path d="M1641.26,666.5776,562.07,434.66c-74.3952-12.7257-125.9758-14.6783-160.221-10.0541a28.8559,28.8559,0,0,0-.2286,12.8464c7.2886,37.1156,92.5818,79.243,212.4263,100.5042l-231.825,1505.32,855.5845,173.3069a73.0557,73.0557,0,0,0,41.9616-3.8954l188.7975-76.5018a73.052,73.052,0,0,0,16.9337-36.4136L1698.11,749.4088A73.0926,73.0926,0,0,0,1641.26,666.5776Z" style="fill:#000072"/></g><path d="M1252.36,2238.0188a93.132,93.132,0,0,1-18.52-1.8653l-855.581-173.3056a19.9678,19.9678,0,0,1-15.7715-22.6075L591.3735,553.966c-93.97-19.1211-198.7012-58.4424-209.3457-112.666a47.3223,47.3223,0,0,1,12.8613-43.291c29.6778-30.4248,106.0938-35.3467,227.1289-14.6484.2735.0488.5518.1025.8252.1611l1079.19,231.9189a93.09,93.09,0,0,1,72.3828,105.4541L1561.8032,2071.2609a93.5308,93.5308,0,0,1-56.9824,71.7774l-217.5537,88.1543A92.8763,92.8763,0,0,1,1252.36,2238.0188Zm-847.5-210.5323,836.9092,169.5264a53.0679,53.0679,0,0,0,30.4981-2.832l217.5537-88.1543A53.3922,53.3922,0,0,0,1522.35,2065.05L1734.9624,714.6838a53.1331,53.1331,0,0,0-41.3184-60.1953L614.8745,422.6574C461.32,396.4416,428.4926,420.758,423.4731,425.9c-2.3144,2.3731-2.9053,4.39-2.2559,7.7051,4.0918,20.835,69.3116,62.1582,196.3135,84.6875a19.9677,19.9677,0,0,1,16.25,22.7Z" style="fill:#000072"/><path d="M394.5364,490.5054c-39.2642-8.0616-75.8219-26.7349-104.2239-55.0191-18.2589-18.1832-32.6654-39.5887-29.4-60.1135L22.0313,1862.8051a165.6592,165.6592,0,0,0,44.0349,140.9677h0a165.6591,165.6591,0,0,0,86.2106,47.575l1030.8163,211.6463a73.0944,73.0944,0,0,0,86.8726-60.0224l226.967-1414.7449a73.0944,73.0944,0,0,0-57.4706-83.1793Z" style="fill:#fc9b28"/><g style="opacity:0.6000000000000001"><path d="M1439.4621,705.0473,394.5364,490.5052c-37.6759-7.7346-72.7792-25.3405-100.6568-51.7329-.1237.1889-.2425.39-.3665.5789,15.6893,26.2986,34.6575,51.4673,51.32,54.8885l1043.042,243.2576a73.0945,73.0945,0,0,1,57.4711,83.18L1218.3791,2235.421A72.7754,72.7754,0,0,1,1207.4,2263.81a73.0784,73.0784,0,0,0,62.5658-60.8387l226.9668-1414.744A73.0948,73.0948,0,0,0,1439.4621,705.0473Z" style="fill:#fff"/></g><g style="opacity:0.23"><path d="M893.6353,2167.8617c-449.5464-104.2569-741.392-539.1683-668.2163-994.8083L338.2457,470.519a198.2386,198.2386,0,0,1-47.9332-35.0326c-18.2589-18.1837-32.6654-39.5886-29.4-60.1136L22.0312,1862.8049a165.66,165.66,0,0,0,44.0349,140.9678h0a165.6514,165.6514,0,0,0,86.21,47.5744L1183.093,2262.9945a73.0078,73.0078,0,0,0,67.13-20.6676C1193.1629,2231.7621,1054.8887,2205.2588,893.6353,2167.8617Z" style="fill:#000072"/></g><path d="M1198.0581,2284.4982a94.362,94.362,0,0,1-18.9795-1.9433l-1030.82-211.6455A185.6364,185.6364,0,0,1,2.3159,1859.64L241.1782,372.3254c.0049-.0293.01-.0635.0146-.0928l.0049-.0244a19.97,19.97,0,0,1,39.4385,6.3037c-1.6992,10.6641,6.7432,25.8692,23.77,42.8223,25.0489,24.9512,57.6074,42.1094,94.1455,49.6094h.0049L1443.4829,685.49a92.87,92.87,0,0,1,73.1689,105.8984L1289.684,2206.134a93.1632,93.1632,0,0,1-91.6259,78.3642ZM270.2163,443.3947,41.75,1865.968a145.7017,145.7017,0,0,0,114.541,165.82l1030.82,211.6455a53.13,53.13,0,0,0,63.14-43.6279L1477.2182,785.0647a53.0143,53.0143,0,0,0-41.7676-60.4541L390.519,510.0647c-44.1894-9.0723-83.7158-29.9708-114.2969-60.43Q273.08,446.5075,270.2163,443.3947Z" style="fill:#000072"/><polygon points="1080.051 1412.828 443.353 1265.618 509.74 861.032 1146.433 1008.242 1080.051 1412.828" style="fill:#fff"/><g style="opacity:0.23"><path d="M753.7016,1305.8759C588.98,1267.79,482.1241,1108.3608,509.5,941.5258l12.7336-77.6049L509.74,861.0323l-66.3869,404.5859,636.6986,147.2094,4.9789-30.3462Z" style="fill:#000072"/></g><path d="M1080.05,1432.799a20.0427,20.0427,0,0,1-4.4971-.5127L438.854,1285.0744a19.972,19.972,0,0,1-15.21-22.69l66.3867-404.585a19.9754,19.9754,0,0,1,24.2041-16.2256l636.6944,147.212a19.9719,19.9719,0,0,1,15.21,22.69l-66.3818,404.5849a19.9776,19.9776,0,0,1-19.707,16.7383ZM466.0854,1250.3772l597.71,138.1982,59.9023-365.0928L525.9926,885.2844Z" style="fill:#000072"/><path d="M538.2844,444.3167l312.0187,62.4038s19.9692-239.63,159.7536-464.2839L740.4725,174.7326l-97.35-154.7613S545.7729,89.8635,538.2844,444.3167Z" style="fill:#ff1b40"/><g style="opacity:0.23"><path d="M846.4108,474.4521C651.858,435.5412,546.2933,221.0929,637.3863,44.8353c3.506-6.784,6.8955-12.6965,10.1156-17.9021l-4.3792-6.9619s-97.35,69.8922-104.8383,424.3454l312.0187,62.4038s.9288-11.106,3.7686-30.7363Z" style="fill:#000072"/></g><g style="opacity:0.6000000000000001"><path d="M616.4975,83.2063l97.35,154.7612L970.6393,111.95c11.9506-23.1455,25.04-46.4079,39.4174-69.5132L740.4725,174.7326l-97.35-154.7613S611.19,42.93,582.4942,129.1193C601.3207,94.1221,616.4975,83.2063,616.4975,83.2063Z" style="fill:#fff"/></g><path d="M850.2993,526.6906a20.01,20.01,0,0,1-3.9112-.3906L534.3667,463.8977a19.9636,19.9636,0,0,1-16.05-20C525.9292,83.6047,627.1694,6.842,631.476,3.7512a19.9653,19.9653,0,0,1,28.55,5.5859l87.7784,139.5508,253.4521-124.375a19.9685,19.9685,0,0,1,25.752,28.4766C891.5786,270.6457,870.4018,506.0363,870.2016,508.385a19.9752,19.9752,0,0,1-19.9023,18.3056Zm-291.626-98.6572,274.2188,54.8389c7.6416-58.6621,35.957-223.54,127.0556-393.6035L749.269,192.6574a19.9608,19.9608,0,0,1-25.7031-7.29L640.4067,53.16C615.4018,88.8293,565.8462,188.9416,558.6733,428.0334Z" style="fill:#000072"/><line x1="1747.1267" y1="672.3414" x2="1492.0854" y2="748.2134" style="fill:#fff"/><path d="M1492.0766,768.19a19.9732,19.9732,0,0,1-5.6836-39.1163l255.0391-75.874a19.9694,19.9694,0,1,1,11.3867,38.2813L1497.78,767.3547A19.9368,19.9368,0,0,1,1492.0766,768.19Z" style="fill:#000072"/><line x1="2654.6227" y1="813.3315" x2="2396.8627" y2="813.3315" style="fill:#fff"/><path d="M2654.6206,833.302H2396.8618a19.9707,19.9707,0,0,1,0-39.9414h257.7588a19.9707,19.9707,0,0,1,0,39.9414Z" style="fill:#000072"/><path d="M1338.1675,2176.2249c4.95-4.4761,7.1268-7.8858,8.4636-14.5469,1.389-6.9209,2.4417-13.9178,3.6256-20.8767,2.3026-13.5358,4.3307-27.12,6.4605-40.6845,4.2639-27.1561,8.2126-54.3619,12.2618-81.5508l24.2994-163.1633c16.1858-108.6831,32.3377-217.3978,45.9867-326.4347q5.7173-45.6725,11.8407-91.2866c2.0826-15.3128,3.8207-30.6619,5.962-45.9693,2.117-15.1345,4.1163-30.4038,4.3382-45.6946a2.0571,2.0571,0,0,0-4.0221-.5443c-7.5689,26.2415-10.4659,53.8877-15.1945,80.7422-4.7575,27.0193-8.8906,54.1593-13.5235,81.2029-9.2683,54.1018-17.6189,108.3545-26.8243,162.4672-9.2146,54.1661-16.5142,108.736-24.5861,163.0842q-12.1179,81.59-24.2359,163.1808c-4.4676,30.0811-9.1278,60.141-13.3581,90.2564-2.1444,15.2659-4.3868,30.5219-6.419,45.8032q-1.4784,11.1162-2.8457,22.2507c-.4931,4.0455-1.3078,8.3075-.6876,12.3615.5229,3.4184,2.2821,5.8983,4.0479,8.8343a2.8476,2.8476,0,0,0,4.41.5683Z" style="fill:#000072"/><path d="M1421.9718,2142.9745c5.2658-12.3555,6.2709-25.4568,7.9348-38.7082,1.75-13.9376,3.2645-27.9086,4.8888-41.8615,3.2377-27.8122,6.5433-55.6172,9.7444-83.4336,6.335-55.0494,12.7976-110.1232,19.88-165.0773,1.9874-15.42,3.782-30.8619,5.7308-46.2869,1.9895-15.7467,4.8208-31.5046,5.3436-47.3781.0855-2.5969-3.5956-2.8947-4.3669-.591-4.4234,13.2123-6.8138,26.9756-9.53,40.6248-2.7156,13.6468-5.4872,27.3056-7.7982,41.0275-4.608,27.3608-8.97,54.6873-12.5011,82.2115-7.0607,55.0414-13.1365,110.1894-19.0842,165.36l-5.0439,46.7864c-1.66,15.399-4.4195,31.1466-1.6144,46.4882.5137,2.81,5.245,3.5856,6.4158.8385Z" style="fill:#000072"/><path d="M1590.1342,720.7244c.26,6.3537,1.5059,12.5929,2.1166,18.9229a190.5871,190.5871,0,0,1,1.0769,20.28c-.1335,14.0483-1.7284,27.9495-3.1123,41.9137-2.9421,29.687-6.2051,59.3392-9.24,89.0162-6.0958,59.6035-13.68,119.18-17.7426,178.9632-2.2946,33.7647-7.5671,67.2079-9.6032,101.0023-.1893,3.143,4.8406,3.8421,5.5161.7465,6.5245-29.9,9.5974-60.25,15.2132-90.2907,5.599-29.95,10.09-60.2309,14.2043-90.4246,8.271-60.701,14.0039-121.8283,19.5492-182.8283,1.4493-15.9422,2.9354-32.0818,1.7624-48.0983-1.0422-14.2313-3.5-30.8611-13.2487-41.8919-2.1665-2.4517-6.6231-.5211-6.4916,2.6889Z" style="fill:#000072"/><path d="M1665.8429,699.5238c-4.2673,9.418-3.1568,22.143-3.5854,32.35q-.7438,17.713-2.2594,35.401c-1.9624,23.0056-3.9928,45.9729-7.1692,68.8531-3.2932,23.7218-5.8087,47.4609-7.94,71.3174q-3.1251,34.9717-7.1541,69.8943c-3.1618,27.7023-5.45,55.5366-9.2845,83.1494-.1514,1.0906,1.4894,1.5947,1.6924.4666,4.236-23.5362,9.8468-46.7809,14.6321-70.21,4.8591-23.7905,9.1575-47.8249,14.87-71.4246,5.5772-23.0395,11.55-46.0944,14.9412-69.606,3.48-24.1275,6.5258-48.3007,7.5847-72.6695a277.5693,277.5693,0,0,0-1.0308-39.0717c-.6723-6.8419-1.5161-13.623-2.8544-20.369-1.223-6.1652-2.0794-12.9793-5.9763-18.0811-1.501-1.9652-5.17-2.8608-6.466,0Z" style="fill:#000072"/><path d="M796.2367,510.5724a212.07,212.07,0,0,0,42.6342,14.091c14.361,3.1948,28.7084,6.3672,43.1378,9.2415q44.6069,8.8859,89.1038,18.3247c15.2476,3.2542,30.45,6.7853,45.8329,9.3591,14.6894,2.4577,29.6115,3.4126,44.2743,6.1044,15.0818,2.7687,30.272,4.8331,45.4117,7.2889,15.0662,2.444,29.9709,6.0386,44.9575,8.936,17.0261,3.2917,33.9968,6.8213,50.9726,10.3624,16.1111,3.3607,33.155,8.3271,49.7069,8.1127,2.2929-.03,3.5342-3.4863,1.24-4.5788-13.4639-6.4121-28.9382-9.0059-43.393-12.3393-14.8593-3.4267-29.7521-6.7343-44.56-10.38s-29.6413-7.1586-44.4814-10.6632c-14.8607-3.5094-29.3282-8.2781-44.036-12.2785-29.7622-8.0951-58.89-17.5731-89.1038-23.9787-29.7-6.2965-59.4385-12.3039-89.3463-17.537-17.2362-3.016-34.5017-5.5138-51.9066-7.33-8.06-.8408-16.1788-1.8763-24.2937-1.8976-8.5654-.0226-16.8856,1.2871-25.299,2.6389-2.9362.4718-3.5579,5.2942-.8525,6.5227Z" style="fill:#000072"/><path d="M1872.8128,2242.0165c10.4-5.786,14.4649-20.3537,19.5831-30.5714,5.9256-11.8292,11.373-23.9017,16.7477-35.989,10.7692-24.219,21.78-48.3464,32.313-72.6689,10.4071-24.0314,19.5509-49.0487,28.11-73.797,8.6175-24.9163,19.5946-48.9325,28.18-73.8482a.999.999,0,0,0-1.8178-.7663c-12.6889,23.1528-23.1013,47.4718-35.7685,70.6491-12.5862,23.029-25.0746,46.6822-35.7662,70.65-10.8035,24.22-21.37,48.5478-32.0543,72.82-5.31,12.0619-10.5286,24.19-15.28,36.4842-4.1448,10.7239-12.0413,23.3274-9.3181,34.9739a3.488,3.488,0,0,0,5.0706,2.0629Z" style="fill:#000072"/><path d="M1942.1878,2242.3226c2.7414-4.2328,6.5848-7.1255,9.08-11.5022,1.9924-3.4947,3.701-7.1873,5.5391-10.768,4.4314-8.6328,8.8062-17.2645,12.9125-26.0566q11.8124-25.2924,23.4217-50.6791c15.3168-33.4941,30.0372-67.2734,44.6334-101.0866,29.1156-67.4483,57.5411-135.4567,82.7649-204.4668,7.0685-19.3389,13.8651-38.774,20.8182-58.1543,7.1271-19.8653,13.22-39.6861,18.8675-60.003.397-1.4281-1.7848-2.4445-2.4593-1.0368-7.8414,16.3638-15.5509,32.5451-22.4584,49.3441-7.2009,17.5123-14.66,34.9059-22.0655,52.3319-14.3329,33.7283-28.2932,67.6053-42.4888,101.3916q-42.8478,101.98-88.1442,202.9358c-8.4848,18.8286-16.8636,37.704-25.4116,56.5043q-6.4724,14.2351-12.5221,28.6194-2.9142,6.93-5.8454,13.8538c-2.2026,5.208-2.0114,10.44-3.6995,15.7971-1.3579,4.3091,4.7463,6.5437,7.0573,2.9754Z" style="fill:#000072"/><path d="M2568.0532,824.7348c-19.7118,31.2723-31.3532,67.2248-44.1726,101.7776q-19.3782,52.231-40.2377,103.9c-13.6878,34.0331-28.6073,67.5632-41.2145,102.0147-12.6631,34.6043-26.0476,68.8986-41.3685,102.4243-17.4277,38.1358-36.14,75.6205-54.652,113.2335-2.3068,4.6868,4.5294,8.8057,7.0722,4.1339,35.8088-65.7884,67.7819-133.6636,102.3423-200.1133,34.2788-65.9081,60.61-136.241,86.396-205.8391,14.3139-38.6336,30.1288-78.0906,33.6842-119.4057.3783-4.3955-5.78-5.4086-7.8494-2.126Z" style="fill:#000072"/><path d="M2478.4744,807.6488c-5.1682,10.716-6.7736,23.5586-9.8715,35.0113-3.0134,11.14-6.6563,22.1247-10.4988,33.0043-7.7493,21.9409-17.9976,42.7666-26.4027,64.4183-8.8476,22.7912-15.8357,46.2372-25.0387,68.8936-4.8447,11.9271-9.7552,23.8166-14.8169,35.6534-4.9971,11.6857-10.412,23.23-13.96,35.4576-.6794,2.3418,2.5891,3.6079,3.8495,1.6229,7.0968-11.1765,12.3549-23.3811,18.0346-35.3146,5.3333-11.2057,10.8188-22.3237,16.3566-33.43,11.2988-22.6591,24.9475-44.0179,36.313-66.64,10.7645-21.4265,19.6981-44.38,27.4559-67.049a305.4471,305.4471,0,0,0,9.2868-33.3321c2.5214-11.469,5.4252-24.8244,2.9791-36.5069-1.276-6.094-10.9211-7.5239-13.687-1.7888Z" style="fill:#000072"/><path d="M2571.28,818.1928c-24.9242-38.2474-64.0479-65.3677-101.982-89.52q-28.9407-18.426-58.8221-35.3866c-20.1159-11.4118-40.8373-21.3434-60.1528-34.1695-10.489-6.965-21.6523-13.1273-31.7962-20.5759-10.4945-7.7061-20.2852-16.1957-31.0027-23.6005-1.55-1.0708-3.0362,1.2014-1.9142,2.4809,7.4052,8.4441,15.6231,15.7657,24.14,23.0747,8.4191,7.2251,16.2,15.1513,24.66,22.3329,17.3774,14.7515,36.1615,28.0818,54.3713,41.7785,18.2463,13.7241,38.51,24.9584,57.9482,36.8917,19.752,12.1259,38.8045,25.1315,57.9064,38.2363,20.843,14.2992,40.937,29.6844,62.8817,42.2191,2.3015,1.3146,5.3069-1.3915,3.7621-3.762Z" style="fill:#000072"/><g style="opacity:0.23"><ellipse cx="1208.9437" cy="2680.9217" rx="1042.0311" ry="49.3107" style="fill:#000072"/></g></g></g></svg>