<svg xmlns="http://www.w3.org/2000/svg" viewBox="0 0 159.2432 229.9766"><g style="isolation:isolate"><g id="Layer_2" data-name="Layer 2"><g id="_1" data-name="1"><path d="M100.0312,158.2324c.5606-2.2168,1.1328-4.375-.9189-10.2773l-1.7305.4844c-.4326,3.0527-2.7764,7.3779-2.3233,8.3994C95.2246,157.1787,99.8437,158.9883,100.0312,158.2324Z" style="fill:#ffcd9c"/><path d="M95.2343,155.583c-.292,1.041-2.3554,4.459-1.791,4.6963.8692.3731,2.25-2.5576,2.8985-3.7314C97.1962,155.0254,95.2343,155.583,95.2343,155.583Z" style="fill:#ffcd9c"/><path d="M98.746,157.4766c-.0712,1.05-1.0341,5.2549-.4335,5.4238,1.0585.2871,1.8808-4.209,1.8623-5.2978C100.1445,155.9483,98.746,157.4766,98.746,157.4766Z" style="fill:#ffcd9c"/><path d="M98.5078,154.6836c2.19-.3574,3.23,3.7676,4.3828,4.1143,1.5957.4892-1.3975-5.1524-2.291-6.7637C99.72,150.4483,98.5078,154.6836,98.5078,154.6836Z" style="fill:#ffcd9c"/><path d="M96.8837,157.126c-.2509,1.0352-1.7109,5.3936-1.1416,5.624.8936.3662,2.1963-4.02,2.5528-5.0791C98.8076,156.0674,96.8837,157.126,96.8837,157.126Z" style="fill:#ffcd9c"/><path d="M124.8828,99.1836l5.708-3.7109,1.1523.9287-5.9062,4.25S124.4921,100.3379,124.8828,99.1836Z" style="fill:#ffb845"/><path d="M108.1191,108.249l16.9785-9.9218,2.0625,2.2187-16.2832,12.2529S107.0009,111.4893,108.1191,108.249Z" style="fill:#91513a"/><path d="M148.0957,92.8438C155.95,88.126,160.75,81.6865,158.8144,78.4629c-1.9355-3.2256-9.876-2.0156-17.7334,2.7012S128.4238,92.32,130.3593,95.5469C132.2978,98.7715,140.2353,97.5606,148.0957,92.8438Z" style="fill:#ffb845"/><path d="M148.0957,92.8438c6.8808-4.1338,11.4179-9.5869,11.1347-13.043-2.98-1.7734-9.833-.3242-16.6328,3.7578-6.8828,4.1338-11.42,9.5879-11.1367,13.0459C134.44,98.376,141.2939,96.9258,148.0957,92.8438Z" style="fill:#f99d3a"/><path d="M140.9091,81.2735c-7.7529,4.7089-12.47,11.0712-10.55,14.2734,1.9385,3.2246,9.876,2.0137,17.7364-2.7031,1.1279-.6787,2.1865-1.3946,3.1806-2.1309C145.6064,89.24,141.4921,85.4,140.9091,81.2735Z" style="fill:#f99d3a"/><path d="M140.5781,82.0557c7.8594-4.7158,15.7978-5.9268,17.7334-2.7.706,1.1748.5078,2.7793-.3994,4.5713,1.3232-2.1465,1.7236-4.0967.9023-5.4639-1.9355-3.2256-9.876-2.0156-17.7334,2.7012-4.99,2.998-8.7392,6.6875-10.3213,9.81C132.5556,88.0567,136.0546,84.7735,140.5781,82.0557Z" style="fill:#ffd366"/><path d="M147.9394,91.7637c6.6631-3.9971,11.1943-8.6943,10.1172-10.4863-1.0762-1.795-7.3525-.0088-14.0176,3.9892s-11.1963,8.6934-10.12,10.4883C134.996,97.5479,141.2724,95.7627,147.9394,91.7637Z" style="fill:#704c53"/><path d="M147.4462,90.9434c6.1719-3.7071,10.47-7.8926,9.5967-9.3467-.8711-1.4541-6.584.3721-12.7549,4.0811-6.1738,3.707-10.4716,7.8925-9.5986,9.3476S141.2724,94.6533,147.4462,90.9434Z" style="fill:#9ad5d8"/><path d="M144.4335,91.8242c1.0967-.625,1.8633-1.373,1.709-1.6679-.1562-.2959-1.1709-.0274-2.2685.5976s-1.8633,1.3711-1.71,1.666C142.3193,92.7168,143.3359,92.4492,144.4335,91.8242Z" style="fill:#c1f4f4"/><polygon points="93.612 151.765 92.732 145.29 102.542 144.693 102.192 150.99 93.612 151.765" style="fill:#fff5d9"/><path d="M119.3544,103.31c-1.6552-1.8789-3.2587-3.7334-9.3974-5.53l-.4209,1.8662c2.4492,2.28,5.07,7.0752,6.1807,7.2969C116.0937,107.003,119.9218,103.9453,119.3544,103.31Z" style="fill:#ffcd9c"/><path d="M114.71,106.0049c.7647.9111,2.084,3.3389,2.5654,2.9746.7471-.5537-.4814-2.0635-1.1865-3.3779C115.1806,103.8877,114.71,106.0049,114.71,106.0049Z" style="fill:#ffcd9c"/><path d="M118.07,104.003c.8789.7138,2.8,2.4638,3.2392,2.0253.7657-.7793-1.4765-2.583-2.4345-3.2382C117.4218,101.792,118.07,104.003,118.07,104.003Z" style="fill:#ffcd9c"/><path d="M115.5224,102.4893c.7569-2.2022,4.8526-.5889,5.7178-1.417,1.2041-1.14-5.166-1.9248-7.0039-2.1143C112.4257,98.7715,115.5224,102.4893,115.5224,102.4893Z" style="fill:#ffcd9c"/><path d="M116.8574,105.4707c.7793.8662,2.2041,2.6035,2.6816,2.2305.7529-.5811-.7724-2.1934-1.52-3.17C116.872,103.0762,116.8574,105.4707,116.8574,105.4707Z" style="fill:#ffcd9c"/><polygon points="111.395 104.285 104.889 103.699 106.494 94 112.553 95.747 111.395 104.285" style="fill:#fff5d9"/><polygon points="83.468 175.182 61.032 178.724 54.242 148.023 56.604 179.315 40.958 180.495 50.7 116.731 78.744 145.956 83.468 175.182" style="fill:#ba733e"/><polygon points="78.94 159.145 43.43 124.876 53.905 111.489 61.175 117.34 85.502 150.554 78.94 159.145" style="fill:#54343c"/><path d="M75.9668,34.1187,89.1591,12.8848c6.2393-.1558,21.2188,31.7173,22.12,41.289L93.2187,61.293Z" style="fill:#ad8c53"/><path d="M100.9755,55.626c3.5694,7.6162-1.2177,41.6006-2.6875,45.8437s-.7959,9.2471-1.77,13.0352c-.9716,3.7891-19.6074-1.8291-19.373-8.1514.2344-6.32,3.2305-28.5488,5.2432-33.9384C84.4072,67.0225,96.9755,47.0967,100.9755,55.626Z" style="fill:#ead5a7"/><path d="M92.8066,98.5733c3.54-34.8643,5.6738-31.2168,8.1689-42.9473-4-8.5293-16.5683,11.3965-18.5878,16.7891-2.0127,5.39-5.0088,27.6181-5.2432,33.9384-.167,4.5039,9.2363,8.6455,15.0146,9.2891A126.1111,126.1111,0,0,1,92.8066,98.5733Z" style="fill:#dbc08a"/><path d="M20.9052,81.8887l1.1641-8.125s44.72-45.0557,48.9-45.4111,26.7549,11.88,31.1543,24.8886S72.2949,104.7979,71.66,105.4131c-.6357.6182-10.6279,2.7568-10.6279,2.7568Z" style="fill:#ead5a7"/><path d="M40.8183,84.9649c-.4941-.7452.2168-2.2784.2168-2.2784l5.293,1.9883-5.3145-7.5771S68.2177,45.6289,80.746,32.2124c-4.4853-2.518-8.2919-3.9848-9.7763-3.86-4.1807.3554-48.9,45.4111-48.9,45.4111l-1.1641,8.125L61.0322,108.17s9.9922-2.1386,10.6279-2.7568l.0049-.0049S52.1328,101.9942,40.8183,84.9649Z" style="fill:#dbc08a"/><path d="M51.4746,99.9238s6.8515,1.084,8.2187.254C61.0605,99.35,86.1718,76.042,86.1718,76.042S60.3056,97.043,58.4091,98.4356C56.5127,99.8242,51.4746,99.9238,51.4746,99.9238Z" style="fill:#ad8c53"/><path d="M68.0742,36.3594c-6.4532,7.5947-9.2149,39.6953-8.709,44.4287.5078,4.7354-.9356,9.9932-.8848,14.17.0508,4.1748,18.3672-3.59,19.9287-10.3545s4.2119-31.8779,3.3926-37.9121C80.9785,40.6548,75.2978,27.857,68.0742,36.3594Z" style="fill:#ead5a7"/><path d="M67.6054,64.66c.8867-14.0069,5.9278-27.3482,11.0967-30.3672-3.6973-3.3579-8.99-3.1089-12.7783,1.35-6.4531,7.5947-7.7022,40.8227-8.0469,45.5708-.43,5.9209-1.4131,10.4482.8252,14.7363,1.3272,2.541,8.7168,1.6231,16.24-1.2539C69.8671,91.5889,66.6835,79.2071,67.6054,64.66Z" style="fill:#dbc08a"/><path d="M87.0293,148.8262s14.7246-.0752,15.3173-1.5557c.5957-1.4785-4.0107-36.4453-7.2881-41.082-3.2783-4.6279-13.8916-5.58-15.0771-2.6211C78.7939,106.5264,78.5,130.01,87.0293,148.8262Z" style="fill:#ead5a7"/><path d="M91.43,125.3321c-.9834-8.8633-1.0566-16.8506-.3759-22.1338-5.1514-2.4287-12.7715-3.1172-13.6592-.9-1.1865,2.959,1.1055,27.7119,9.6348,46.5283,0,0,5.1279-.0264,9.4541-.3516C94.4462,143.6133,92.5146,135.1123,91.43,125.3321Z" style="fill:#dbc08a"/><path d="M105.6123,109.6953s4.749-14.5029,3.4853-15.747S71.8769,81.624,66.2382,82.7774c-5.6347,1.1552-8.7588,10.9248-6.2324,13.4111S84.2841,109.6807,105.6123,109.6953Z" style="fill:#ead5a7"/><path d="M96.0752,100.5332c-16.69-4.9248-29.0977-12.72-27.7129-17.4111a2.5351,2.5351,0,0,1,.1464-.3691c-.9765-.0831-1.8847-1.8243-2.4023-1.7178C60.4716,82.19,56.5937,94.49,59.12,96.9766s25.164,12.7041,46.4922,12.7187c0,0,.9931-3.0332,1.9492-6.4423A105.3623,105.3623,0,0,1,96.0752,100.5332Z" style="fill:#dbc08a"/><polygon points="85.025 36.851 88.23 57.049 94.791 50.824 85.025 36.851" style="fill:#fff5d9"/><path d="M85.4453,36.6616l14.8916-8.1289,3.3242,15.042L92.915,51.4912S86.3584,48.6338,85.4453,36.6616Z" style="fill:#ffcd9c"/><polygon points="90.106 50.722 87.841 54.273 88.375 57.16 90.615 54.847 90.618 50.906 90.106 50.722" style="fill:#825c59"/><polygon points="89.804 52.142 89.174 48.316 91.099 47.737 92.51 48.965 92.896 51.569 89.804 52.142" style="fill:#825c59"/><polygon points="92.165 48.543 87.063 35.453 84.442 35.469 86.001 48.944 92.165 48.543" style="fill:#fff5d9"/><polygon points="92.712 53.483 91.742 48.482 96.583 49.686 96.814 51.016 92.712 53.483" style="fill:#fff5d9"/><path d="M82.6513,50.0606,91.69,34.5879c-6.1572-7.2544-3.1836-18.7441-2.5313-21.7031-5.3457,5.4521-9.07,10.4082-11.4814,17.4668C80.9687,33.54,81.3906,40.7046,82.6513,50.0606Z" style="fill:#dbc08a"/><path d="M76.9111,151.8c9.7031,29.294,20.3916,62.5645,22.9375,74.4024l2.3994-.875S93.77,196.1748,87.0214,163.1748c-.9336-4.5693-1.9892-9.2363-3.125-13.9228Z" style="fill:#ea5c7e"/><polygon points="94.248 218.86 103.218 213.047 87.797 144.087 72.507 150.35 94.248 218.86" style="fill:#704c53"/><path d="M97.8906,189.2764l.0117.001-10.1055-45.19-15.29,6.2627,17.8047,56.1065C90.8691,196.7344,94.0449,189.2764,97.8906,189.2764Z" style="fill:#54343c"/><path d="M37.66,149.0391l-8.26-1.4473c-1.0625,5.083-2.04,10.1992-2.8837,15.249-5.337,32-12.5831,64.0352-12.5831,64.0352l2.167.38c1.6748-9.48,10.1465-36.8682,16.9327-61.3154C34.6416,160.1465,36.1953,154.459,37.66,149.0391Z" style="fill:#ea5c7e"/><path d="M98.8466,229.9766h22.545s-.7266-2.7588-5.7139-2.9551c-3.38-.1338-11.6318-5.0107-13.4033-4.0371A6.7562,6.7562,0,0,0,98.8466,229.9766Z" style="fill:#ead5a7"/><path d="M17.4628,229.9766H0s-.06-2.5127,5.9687-2.9551c2.8672-.2129,6.2842-5.3955,8.9-5.3584C17.5517,221.7022,17.4628,229.9766,17.4628,229.9766Z" style="fill:#ead5a7"/><polygon points="22.111 221.07 13.238 216.848 27.162 144.172 43.63 144.21 22.111 221.07" style="fill:#704c53"/><path d="M23.1972,198.5537a6.3566,6.3566,0,0,1,4.3672,3.0391L43.63,144.21l-16.4677-.0381L15.8271,203.334C17.8935,200.1055,20.54,198.2266,23.1972,198.5537Z" style="fill:#54343c"/><path d="M9.2275,190.8457l40.5859-3.56,5.9053-40.9365-.7871-33.4561,17.3184,35.03,3.5429,36.41,25.3662-6.5527-8.8359-34.1856L65.165,112.1055,21.4736,82.3887S11.0429,91.835,10.6513,101.6748C9.8574,121.5156,12.4218,151.4658,9.2275,190.8457Z" style="fill:#ead5a7"/><polygon points="69.846 117.394 56.562 107.504 63.499 110.013 69.846 117.394" style="fill:#dbc08a"/><polygon points="63.794 111.121 33.313 95.991 35.602 91.637 63.499 109.645 63.794 111.121" style="fill:#dbc08a"/><path d="M10.8027,135.8369c.1914,15.5733.1348,33.9258-1.5752,55.0088l40.5859-3.56,5.6084-38.8858C37.9628,147.5947,22.3076,142.94,10.8027,135.8369Z" style="fill:#e2ca9a"/><path d="M72.2539,147.9717l3.539,36.3613,25.3662-6.5527-8.73-33.7813A104.5141,104.5141,0,0,1,72.2539,147.9717Z" style="fill:#e2ca9a"/><path d="M35.2988,188.5586c-7.5332-29.05-5.6006-84.8916,1.165-95.9746l-14.99-10.1953S11.0429,91.835,10.6513,101.6748c-.7939,19.8408,1.77,49.791-1.4238,89.1709Z" style="fill:#dbc08a"/><polygon points="20.974 81.416 19.838 84.018 63.983 110.955 64.108 107.487 20.974 81.416" style="fill:#a37157"/><path d="M62.1435,106.2988a11.2761,11.2761,0,0,1-.5664,3.1875l2.4063,1.4688.125-3.4678Z" style="fill:#8e5942"/><path d="M39.6123,92.6817,20.9736,81.416l-1.1358,2.6016L38.9062,95.6533A10.5863,10.5863,0,0,1,39.6123,92.6817Z" style="fill:#8e5942"/><path d="M51.8037,103.0742s-2.5557,21.0508-3.1328,34.8477l3.7343.2773s2.043-33.6611,1.62-35.34S51.9,102.28,51.8037,103.0742Z" style="fill:#a37157"/><path d="M56.333,104.9131s3.1435,24.5781,4.2363,40.6221l-3.27.1035s-3.23-39.1787-2.93-41.1045C54.6718,102.61,56.2128,103.9863,56.333,104.9131Z" style="fill:#a37157"/><path d="M55.2636,119.7285c.8662,11.7207,2.0352,25.91,2.0352,25.91l3.27-.1035c-.3565-5.2354-.9316-11.378-1.5449-17.28A31.19,31.19,0,0,1,55.2636,119.7285Z" style="fill:#8e5942"/><polygon points="57.659 104.33 52.832 101.922 52.57 105.519 57.397 107.929 57.659 104.33" style="fill:#ce896b"/><polygon points="88.189 87.149 76.856 84.486 80.03 73.998 78.801 83.691 88.189 87.149" style="fill:#dbc08a"/><path d="M85.8857,67.751c8.6592.9834,18.6963-8.4648,19.877-24.0112a33.1749,33.1749,0,0,0-.2959-7.0181c-5.1534-11.62-12.4229-23.9341-16.3077-23.8369-5.3457,5.4521-9.07,10.4082-11.4814,17.4668.1318.1269.25.2724.374.4116l-.0078.0127c-.166-.083-.3242-.1567-.4863-.2349-.0157-.0073-.03-.0156-.0469-.0234-.9834-.4751-1.9-.8809-2.73-1.2061-.043-.017-.084-.0327-.126-.0488-.3574-.1382-.6963-.2627-1.0175-.37-.0508-.0171-.1026-.0352-.1524-.0518-.3418-.1118-.6621-.2075-.9551-.2812-.0449-.0117-.083-.0186-.1259-.0274-.2374-.0581-.4561-.1005-.6583-.1308-.0625-.0093-.125-.0186-.1845-.0239a3.2152,3.2152,0,0,0-.5918-.0249,5.4206,5.4206,0,0,0-1.8721,1C73.7021,41.0689,79.4091,67.0137,85.8857,67.751Z" style="fill:#bc5642;opacity:0.5;mix-blend-mode:multiply"/><path d="M97.1543,32.85c.8662-6.4922,3.4238-15.3388,9.331-19.92,9.73-7.5449,20.0049,10.2744,20.0049,10.2744Z" style="fill:#773926"/><path d="M108.4658,23.0025S93.9736,31.9141,93.2275,35.2617c-.7451,3.3516,1.168,24.2237,3.7559,24.9473,2.5937.7246,20.1328-9.666,23.1884-11.9023,3.0567-2.2334,12.1944-6.6661,12.8028-11.229S124.7558,6.7847,108.4658,23.0025Z" style="fill:#ffcd9c"/><path d="M118.4228,38.4717s-4.5391,1.9927-3.7861,3.2324c.6758,1.1177,5.542-.1787,5.542-.1787Z" style="fill:#4c3e34"/><path d="M121.5127,44.0938s-3.629,2.0429-2.9424,3.2226c.5849,1.0078,4.0761-.6943,4.0761-.6943Z" style="fill:#4c3e34"/><path d="M121.4619,43.396c-.5254.4058.999,4.8091,2.0449,4.6275,1.0469-.18,4.17-1.4,4.3525-1.9707s-1.707-3.9161-2.2568-4.0567C125.0517,41.853,121.9287,43.0386,121.4619,43.396Z" style="fill:#91513a"/><path d="M104.9589,32.3789c.3321-2.5742,10.9717-11.6035,14.7979-14.5947-3.2207-.4023-6.9951.94-11.291,5.2183,0,0-14.4922,8.9116-15.2383,12.2592-.7451,3.3516,1.168,24.2237,3.7559,24.9473,1.6582.4629,9.4013-3.6055,15.5859-7.1894C109.67,49.9561,104.5781,35.3111,104.9589,32.3789Z" style="fill:#ddbea2"/><path d="M100.3837,34.8164c4.042-4.812,14.5157-10.9941,18.7-11.8867,4.1866-.89,9.38-3.5044-2.0459-8.38-11.42-4.8745-16.97,14.1055-19.3867,17.8775Z" style="fill:#91513a"/><path d="M116.6357,13.0381c-8.2031-3.501-13.8311,6.0518-16.1348,13.4526a19.92,19.92,0,0,1,4.0108-1.2514,15.8278,15.8278,0,0,1,8.3916.3037,27.0094,27.0094,0,0,1,6.1806-2.6133C123.2705,22.04,128.0615,17.9136,116.6357,13.0381Z" style="fill:#773926"/><path d="M102.8007,27.7383c1.8174-2.7456,2.837-8.8735-1.8144-9.2251-3.9151-.3008-6.126,11.1992-4.8594,12.7827C97.496,33.0313,100.875,30.666,102.8007,27.7383Z" style="fill:#ffcd9c"/><path d="M101.0605,28.0015c1.1357-1.7183,1.7715-5.5513-1.1367-5.77-2.4473-.189-3.8252,7.0044-3.0332,7.9946C97.747,31.3111,99.8574,29.8325,101.0605,28.0015Z" style="fill:#ef8f6f"/><path d="M99.5625,29.6c.71-1.0815,1.1015-3.4917-.7217-3.63-1.5342-.1177-2.3867,4.4087-1.8887,5.0312C97.4912,31.6831,98.8115,30.7515,99.5625,29.6Z" style="fill:#ffcd9c"/><path d="M100.1923,43.645s7.3848-1.5278,10.9473,6.6265c2.9609,6.78-2.2246,10.3125-2.9258,10.5264C108.2138,60.7979,102.6445,52.0987,100.1923,43.645Z" style="fill:#91513a"/><path d="M125.4062,40.9214s-13.668,12.9058-14.5117,13.09c-.84.1846-1.2715-7.5712-1.2715-7.5712Z" style="fill:#ffcd9c"/><path d="M111.09,53.2237c-.6348.1406-1.0371-4.2706-1.1943-6.4219l-.3711.1308s.4306,7.7559,1.27,7.57c.8437-.1827,14.5117-13.0894,14.5117-13.0894l-1.6982.5937C119.7861,45.59,111.7324,53.085,111.09,53.2237Z" style="fill:#ef8f6f"/><path d="M115.9209,32.0962c-.4864.7207,3.5556,10.6138,4.8173,10.5191,1.2588-.0948,4.7-1.836,4.6651-3.0108-.0371-1.1738-4.0479-8.8979-4.82-9.3535C119.8056,29.79,116.3505,31.4585,115.9209,32.0962Z" style="fill:#91513a"/><path d="M120.1718,48.3067c.5518-.4034,1.3076-.8809,2.17-1.4141.374.6914.7988,1.1943,1.165,1.1309,1.0469-.18,4.17-1.4,4.3525-1.9707a5.1211,5.1211,0,0,0-.8379-2.1612,18.7529,18.7529,0,0,0,5.1739-4.834L108.3437,11.7984a9.39,9.39,0,0,0-1.8584,1.1313,19.5183,19.5183,0,0,0-4.8135,5.6953,4.491,4.491,0,0,0-.6855-.1118,2.4851,2.4851,0,0,0-1.9395.8648L117.57,50.0156C118.7451,49.2813,119.663,48.68,120.1718,48.3067Z" style="fill:#bc5642;opacity:0.5;mix-blend-mode:multiply"/><path d="M107.1025,11.3257c-.2471-.2144,19.2607-11.3125,21.6738-11.021,2.4151.2886,12.086,11.1743,12.4,12.7368.3154,1.56.8477,5.3965,1.7647,6.3941.9228.9907,4.3056.1972,5.0332,1.3276.7334,1.13-12.5069,21.7588-12.5069,21.7588S118.871,21.5772,107.1025,11.3257Z" style="fill:#ceb176"/><path d="M130.1669,21.8941c0-6.7115,1.7041-12.7339,4.4063-16.9429-2.3926-2.4487-4.7617-4.523-5.7969-4.6465-2.4131-.2915-21.9209,10.8066-21.6738,11.021C118.871,21.5772,135.4677,42.522,135.4677,42.522s.3223-.502.8623-1.3516C132.622,37.0591,130.1669,29.9688,130.1669,21.8941Z" style="fill:#bc9c62"/><path d="M93.1035.711c.2461,1.2763,22.5908,24.706,26.6748,28.4907,4.0849,3.7871,30.917,34.0376,32.206,31.8315,1.2881-2.208-25.3447-31.9677-28.1679-35.3369C120.996,22.3277,92.0585-4.6885,93.1035.711Z" style="fill:#ceb176"/><path d="M124.2812,26.2393c-.1865-.2158-.3516-.4082-.4648-.543C120.996,22.3277,92.0585-4.6885,93.1035.711c.2461,1.2763,22.5908,24.706,26.6748,28.4907,1.2236,1.1338,4.4912,4.6474,8.497,8.9448A56.9825,56.9825,0,0,1,124.2812,26.2393Z" style="fill:#ad8d55"/><path d="M142.164,31.7881l-25.208-26.17c-2.1182,1.1377-4.1728,2.2827-5.86,3.248L138.6562,37.478C139.7275,35.7666,140.956,33.7832,142.164,31.7881Z" style="fill:#ead5a7"/></g></g></g></svg>