<svg xmlns="http://www.w3.org/2000/svg" xmlns:xlink="http://www.w3.org/1999/xlink" viewBox="0 0 675.8696 340.8703"><defs><linearGradient id="Áåçûìÿííûé_ãðàäèåíò_51" x1="325.7348" y1="163.7353" x2="325.7348" y2="58.8685" gradientUnits="userSpaceOnUse"><stop offset="0" stop-color="#b32200"/><stop offset="1" stop-color="#810900"/></linearGradient><linearGradient id="Áåçûìÿííûé_ãðàäèåíò_51-2" x1="163.2366" y1="182.8306" x2="163.2366" y2="77.9637" xlink:href="#Áåçûìÿííûé_ãðàäèåíò_51"/><linearGradient id="Áåçûìÿííûé_ãðàäèåíò_51-3" x1="498.586" y1="190.218" x2="498.586" y2="85.3511" xlink:href="#Áåçûìÿííûé_ãðàäèåíò_51"/><linearGradient id="Áåçûìÿííûé_ãðàäèåíò_55" x1="331.83" y1="298.9265" x2="331.83" y2="158.5899" gradientUnits="userSpaceOnUse"><stop offset="0" stop-color="#cc2c00"/><stop offset="1" stop-color="#810900"/></linearGradient><linearGradient id="Áåçûìÿííûé_ãðàäèåíò_64" x1="234.446" y1="297.5887" x2="234.446" y2="160.1491" gradientUnits="userSpaceOnUse"><stop offset="0" stop-color="#ff4600"/><stop offset="1" stop-color="#9a0920"/></linearGradient><linearGradient id="Áåçûìÿííûé_ãðàäèåíò_64-2" x1="443.4544" y1="298.4663" x2="443.4544" y2="159.1594" xlink:href="#Áåçûìÿííûé_ãðàäèåíò_64"/><linearGradient id="Áåçûìÿííûé_ãðàäèåíò_51-4" x1="511.0519" y1="283.2117" x2="511.0519" y2="178.8693" xlink:href="#Áåçûìÿííûé_ãðàäèåíò_51"/><linearGradient id="Áåçûìÿííûé_ãðàäèåíò_51-5" x1="346.2497" y1="285.5853" x2="346.2497" y2="182.552" xlink:href="#Áåçûìÿííûé_ãðàäèåíò_51"/><linearGradient id="Áåçûìÿííûé_ãðàäèåíò_51-6" x1="166.8363" y1="283.2117" x2="166.8363" y2="184.6984" xlink:href="#Áåçûìÿííûé_ãðàäèåíò_51"/><linearGradient id="Áåçûìÿííûé_ãðàäèåíò_98" x1="161.1334" y1="242.2931" x2="161.1334" y2="194.0092" gradientUnits="userSpaceOnUse"><stop offset="0"/><stop offset="1" stop-color="#ffa983"/></linearGradient><linearGradient id="Áåçûìÿííûé_ãðàäèåíò_98-2" x1="346.0205" y1="271.5499" x2="346.0205" y2="203.615" xlink:href="#Áåçûìÿííûé_ãðàäèåíò_98"/><linearGradient id="Áåçûìÿííûé_ãðàäèåíò_78" x1="36.6469" y1="316.6851" x2="624.7911" y2="316.6851" gradientUnits="userSpaceOnUse"><stop offset="0" stop-color="#d33100"/><stop offset="1" stop-color="#900920"/></linearGradient><linearGradient id="Áåçûìÿííûé_ãðàäèåíò_85" x1="68.5379" y1="300.0881" x2="590.5164" y2="300.0881" gradientUnits="userSpaceOnUse"><stop offset="0" stop-color="#ffc342"/><stop offset="1" stop-color="#ff935b"/></linearGradient><linearGradient id="Áåçûìÿííûé_ãðàäèåíò_79" x1="383.4599" y1="143.3605" x2="383.4599" y2="67.0226" gradientUnits="userSpaceOnUse"><stop offset="0" stop-color="#1b2f61"/><stop offset="1" stop-color="#220036"/></linearGradient><linearGradient id="Áåçûìÿííûé_ãðàäèåíò_49" x1="308.3961" y1="80.5665" x2="349.1315" y2="80.5665" gradientUnits="userSpaceOnUse"><stop offset="0" stop-color="#8ba7fd"/><stop offset="1" stop-color="#95baff"/></linearGradient><linearGradient id="Áåçûìÿííûé_ãðàäèåíò_75" x1="325.2442" y1="66.5175" x2="332.579" y2="7.5486" gradientUnits="userSpaceOnUse"><stop offset="0" stop-color="#fda870"/><stop offset="1" stop-color="#fd7e3e"/></linearGradient><linearGradient id="Áåçûìÿííûé_ãðàäèåíò_67" x1="329.5266" y1="74.7739" x2="329.5266" y2="32.1959" gradientUnits="userSpaceOnUse"><stop offset="0" stop-color="#7d8384"/><stop offset="1" stop-color="#2d0019"/></linearGradient><linearGradient id="Áåçûìÿííûé_ãðàäèåíò_80" x1="331.3219" y1="48.025" x2="331.3219" y2="40.6094" gradientTransform="matrix(0.9997, 0.0228, -0.0228, 0.9997, 8.3934, -19.752)" gradientUnits="userSpaceOnUse"><stop offset="0" stop-color="#c25e13"/><stop offset="1" stop-color="#6f160d"/></linearGradient><linearGradient id="Áåçûìÿííûé_ãðàäèåíò_80-2" x1="1360.1291" y1="54.5399" x2="1360.1291" y2="47.1247" gradientTransform="matrix(-0.9996, -0.0283, -0.0283, 0.9996, 1680.6604, 20.0816)" xlink:href="#Áåçûìÿííûé_ãðàäèåíò_80"/><linearGradient id="Áåçûìÿííûé_ãðàäèåíò_69" x1="329.9039" y1="38.8331" x2="329.9039" gradientUnits="userSpaceOnUse"><stop offset="0" stop-color="#2d0019"/><stop offset="1" stop-color="#7d8384"/></linearGradient><linearGradient id="Áåçûìÿííûé_ãðàäèåíò_15" x1="317.9763" y1="68.1804" x2="317.9763" y2="49.9728" gradientUnits="userSpaceOnUse"><stop offset="0"/><stop offset="1" stop-color="#7195c2"/></linearGradient><linearGradient id="Áåçûìÿííûé_ãðàäèåíò_15-2" x1="312.0023" y1="3.7155" x2="347.6294" y2="3.7155" xlink:href="#Áåçûìÿííûé_ãðàäèåíò_15"/><linearGradient id="Áåçûìÿííûé_ãðàäèåíò_79-2" x1="330.2148" y1="147.423" x2="330.2148" y2="68.1795" xlink:href="#Áåçûìÿííûé_ãðàäèåíò_79"/><linearGradient id="Áåçûìÿííûé_ãðàäèåíò_15-3" x1="289.8981" y1="132.9791" x2="362.8648" y2="132.9791" xlink:href="#Áåçûìÿííûé_ãðàäèåíò_15"/><linearGradient id="Áåçûìÿííûé_ãðàäèåíò_79-3" x1="276.1596" y1="143.2232" x2="276.1596" y2="67.0226" xlink:href="#Áåçûìÿííûé_ãðàäèåíò_79"/><linearGradient id="Áåçûìÿííûé_ãðàäèåíò_91" x1="310.5173" y1="118.2477" x2="310.5173" y2="70.2187" gradientUnits="userSpaceOnUse"><stop offset="0" stop-color="#1b4d87"/><stop offset="1" stop-color="#22266e"/></linearGradient><linearGradient id="Áåçûìÿííûé_ãðàäèåíò_91-2" x1="348.4728" y1="118.2477" x2="348.4728" y2="70.2187" xlink:href="#Áåçûìÿííûé_ãðàäèåíò_91"/><linearGradient id="Áåçûìÿííûé_ãðàäèåíò_79-4" x1="369.1233" y1="140.7193" x2="403.1972" y2="140.7193" xlink:href="#Áåçûìÿííûé_ãðàäèåíò_79"/><linearGradient id="Áåçûìÿííûé_ãðàäèåíò_75-2" x1="679.7476" y1="148.2467" x2="679.7476" y2="134.4449" gradientTransform="matrix(-1, 0, 0, 1, 1039.2935, 0)" xlink:href="#Áåçûìÿííûé_ãðàäèåíò_75"/><linearGradient id="Áåçûìÿííûé_ãðàäèåíò_79-5" x1="621.1197" y1="140.7193" x2="655.1936" y2="140.7193" gradientTransform="matrix(-1, 0, 0, 1, 911.1767, 0)" xlink:href="#Áåçûìÿííûé_ãðàäèåíò_79"/><linearGradient id="Áåçûìÿííûé_ãðàäèåíò_75-3" x1="427.7512" y1="148.2467" x2="427.7512" y2="134.4449" gradientTransform="translate(-128.1168)" xlink:href="#Áåçûìÿííûé_ãðàäèåíò_75"/><linearGradient id="Áåçûìÿííûé_ãðàäèåíò_14" x1="402.7658" y1="140.7194" x2="402.7658" y2="132.0848" gradientTransform="translate(-128.1168)" gradientUnits="userSpaceOnUse"><stop offset="0"/><stop offset="1" stop-color="#ffca9d"/></linearGradient><linearGradient id="Áåçûìÿííûé_ãðàäèåíò_79-6" x1="158.1429" y1="145.6751" x2="158.1429" y2="71.9269" xlink:href="#Áåçûìÿííûé_ãðàäèåíò_79"/><linearGradient id="Áåçûìÿííûé_ãðàäèåíò_79-7" x1="120.6068" y1="147.8507" x2="120.6068" y2="74.1184" xlink:href="#Áåçûìÿííûé_ãðàäèåíò_79"/><linearGradient id="Áåçûìÿííûé_ãðàäèåíò_75-4" x1="152.7767" y1="64.9576" x2="159.0365" y2="14.6312" xlink:href="#Áåçûìÿííûé_ãðàäèåíò_75"/><linearGradient id="Áåçûìÿííûé_ãðàäèåíò_5" x1="150.423" y1="63.205" x2="150.423" y2="55.9525" gradientTransform="translate(33.7043 -50.7625) rotate(11.5661)" gradientUnits="userSpaceOnUse"><stop offset="0" stop-color="#a43113"/><stop offset="1" stop-color="#6f160d"/></linearGradient><linearGradient id="Áåçûìÿííûé_ãðàäèåíò_5-2" x1="-53.1866" y1="104.8746" x2="-53.1866" y2="97.6221" gradientTransform="matrix(-0.9797, 0.2005, 0.2005, 0.9797, 71.4537, -50.7625)" xlink:href="#Áåçûìÿííûé_ãðàäèåíò_5"/><linearGradient id="Áåçûìÿííûé_ãðàäèåíò_9" x1="149.2363" y1="52.5021" x2="163.9751" y2="54.3002" gradientUnits="userSpaceOnUse"><stop offset="0" stop-color="#8d0000"/><stop offset="1" stop-color="#a80009"/></linearGradient><linearGradient id="Áåçûìÿííûé_ãðàäèåíò_3" x1="148.6111" y1="54.9828" x2="164.0789" y2="56.8699" gradientUnits="userSpaceOnUse"><stop offset="0" stop-color="#ca0000"/><stop offset="1" stop-color="#a80009"/></linearGradient><linearGradient id="Áåçûìÿííûé_ãðàäèåíò_26" x1="129.8709" y1="24.3703" x2="183.015" y2="24.3703" gradientUnits="userSpaceOnUse"><stop offset="0" stop-color="#7d1831"/><stop offset="1" stop-color="#340000"/></linearGradient><linearGradient id="Áåçûìÿííûé_ãðàäèåíò_75-5" x1="131.1793" y1="152.1882" x2="131.1793" y2="143.1736" xlink:href="#Áåçûìÿííûé_ãðàäèåíò_75"/><linearGradient id="Áåçûìÿííûé_ãðàäèåíò_79-8" x1="118.1531" y1="148.2651" x2="118.1531" y2="126.3982" xlink:href="#Áåçûìÿííûé_ãðàäèåíò_79"/><linearGradient id="Áåçûìÿííûé_ãðàäèåíò_75-6" x1="473.0284" y1="-212.3301" x2="473.5793" y2="-216.7598" gradientTransform="matrix(0.0756, 0.9971, 0.9971, -0.0756, 321.82, -347.768)" xlink:href="#Áåçûìÿííûé_ãðàäèåíò_75"/><linearGradient id="Áåçûìÿííûé_ãðàäèåíò_75-7" x1="473.9254" y1="-209.8236" x2="474.8256" y2="-217.0608" gradientTransform="matrix(0.0756, 0.9971, 0.9971, -0.0756, 321.82, -347.768)" xlink:href="#Áåçûìÿííûé_ãðàäèåíò_75"/><linearGradient id="Áåçûìÿííûé_ãðàäèåíò_75-8" x1="473.6894" y1="-206.4767" x2="474.6779" y2="-214.4235" gradientTransform="matrix(0.0756, 0.9971, 0.9971, -0.0756, 321.82, -347.768)" xlink:href="#Áåçûìÿííûé_ãðàäèåíò_75"/><linearGradient id="Áåçûìÿííûé_ãðàäèåíò_75-9" x1="471.9129" y1="-140.8645" x2="480.6986" y2="-211.4989" gradientTransform="matrix(0.0756, 0.9971, 0.9971, -0.0756, 321.82, -347.768)" xlink:href="#Áåçûìÿííûé_ãðàäèåíò_75"/><linearGradient id="Áåçûìÿííûé_ãðàäèåíò_79-9" x1="193.7898" y1="147.4433" x2="193.7898" y2="73.1263" xlink:href="#Áåçûìÿííûé_ãðàäèåíò_79"/><linearGradient id="Áåçûìÿííûé_ãðàäèåíò_91-3" x1="143.6725" y1="114.9411" x2="143.6725" y2="74.1184" xlink:href="#Áåçûìÿííûé_ãðàäèåíò_91"/><linearGradient id="Áåçûìÿííûé_ãðàäèåíò_91-4" x1="170.2209" y1="114.9411" x2="170.2209" y2="73.6438" xlink:href="#Áåçûìÿííûé_ãðàäèåíò_91"/><linearGradient id="Áåçûìÿííûé_ãðàäèåíò_91-5" x1="174.2607" y1="147.4433" x2="174.2607" y2="139.822" xlink:href="#Áåçûìÿííûé_ãðàäèåíò_91"/><linearGradient id="Áåçûìÿííûé_ãðàäèåíò_91-6" x1="122.5297" y1="148.2207" x2="122.5297" y2="141.5766" xlink:href="#Áåçûìÿííûé_ãðàäèåíò_91"/><linearGradient id="Áåçûìÿííûé_ãðàäèåíò_79-10" x1="550.1923" y1="141.7076" x2="550.1923" y2="67.1718" xlink:href="#Áåçûìÿííûé_ãðàäèåíò_79"/><linearGradient id="Áåçûìÿííûé_ãðàäèåíò_49-2" x1="476.9006" y1="80.3959" x2="516.6743" y2="80.3959" xlink:href="#Áåçûìÿííûé_ãðàäèåíò_49"/><linearGradient id="Áåçûìÿííûé_ãðàäèåíò_44" x1="493.351" y1="66.6785" x2="500.5126" y2="9.1017" gradientUnits="userSpaceOnUse"><stop offset="0" stop-color="#e1862a"/><stop offset="1" stop-color="#b83d18"/></linearGradient><linearGradient id="Áåçûìÿííûé_ãðàäèåíò_80-3" x1="499.0986" y1="45.0848" x2="499.0986" y2="37.8442" xlink:href="#Áåçûìÿííûé_ãðàäèåíò_80"/><linearGradient id="Áåçûìÿííûé_ãðàäèåíò_80-4" x1="1191.9301" y1="50.6574" x2="1191.9301" y2="43.4171" gradientTransform="matrix(-0.9996, -0.0283, -0.0283, 0.9996, 1680.6604, 20.0816)" xlink:href="#Áåçûìÿííûé_ãðàäèåíò_80"/><linearGradient id="Áåçûìÿííûé_ãðàäèåíò_100" x1="497.9007" y1="39.6477" x2="497.9007" y2="1.7314" gradientUnits="userSpaceOnUse"><stop offset="0" stop-color="#5c0000"/><stop offset="1" stop-color="#6e2f04"/></linearGradient><linearGradient id="Áåçûìÿííûé_ãðàäèåíò_15-4" x1="480.4216" y1="5.3592" x2="515.2077" y2="5.3592" xlink:href="#Áåçûìÿííûé_ãðàäèåíò_15"/><linearGradient id="Áåçûìÿííûé_ãðàäèåíò_3-2" x1="494.4136" y1="83.9418" x2="500.9547" y2="83.9418" xlink:href="#Áåçûìÿííûé_ãðàäèåíò_3"/><linearGradient id="Áåçûìÿííûé_ãðàäèåíò_79-11" x1="498.2042" y1="145.6741" x2="498.2042" y2="68.3013" xlink:href="#Áåçûìÿííûé_ãðàäèåíò_79"/><linearGradient id="Áåçûìÿííûé_ãðàäèåíò_15-5" x1="458.8393" y1="131.5712" x2="530.0834" y2="131.5712" xlink:href="#Áåçûìÿííûé_ãðàäèåíò_15"/><linearGradient id="Áåçûìÿííûé_ãðàäèåíò_79-12" x1="443.0313" y1="146.0041" x2="443.0313" y2="67.1718" xlink:href="#Áåçûìÿííûé_ãðàäèåíò_79"/><linearGradient id="Áåçûìÿííûé_ãðàäèåíò_91-7" x1="478.9717" y1="117.1875" x2="478.9717" y2="70.2924" xlink:href="#Áåçûìÿííûé_ãðàäèåíò_91"/><linearGradient id="Áåçûìÿííûé_ãðàäèåíò_91-8" x1="516.0312" y1="117.1875" x2="516.0312" y2="70.2924" xlink:href="#Áåçûìÿííûé_ãðàäèåíò_91"/><linearGradient id="Áåçûìÿííûé_ãðàäèåíò_79-13" x1="536.1942" y1="139.1287" x2="569.4637" y2="139.1287" xlink:href="#Áåçûìÿííûé_ãðàäèåíò_79"/><linearGradient id="Áåçûìÿííûé_ãðàäèåíò_44-2" x1="512.4506" y1="146.4784" x2="512.4506" y2="133.0024" gradientTransform="matrix(-1, 0, 0, 1, 1039.2935, 0)" xlink:href="#Áåçûìÿííûé_ãðàäèåíò_44"/><linearGradient id="Áåçûìÿííûé_ãðàäèåíò_49-3" x1="482.7014" y1="127.136" x2="529.736" y2="127.136" xlink:href="#Áåçûìÿííûé_ãðàäèåíò_49"/><linearGradient id="Áåçûìÿííûé_ãðàäèåíò_22" x1="493.8704" y1="274.4354" x2="493.8704" y2="229.063" gradientTransform="translate(57.6606 -237.0779) rotate(15.4622)" gradientUnits="userSpaceOnUse"><stop offset="0" stop-color="#b83d18"/><stop offset="1" stop-color="#e1862a"/></linearGradient><linearGradient id="Áåçûìÿííûé_ãðàäèåíò_79-14" x1="420.5634" y1="140.3036" x2="470.688" y2="140.3036" xlink:href="#Áåçûìÿííûé_ãðàäèåíò_79"/><linearGradient id="Áåçûìÿííûé_ãðàäèåíò_14-2" x1="439.8944" y1="146.5274" x2="439.8944" y2="129.4997" gradientTransform="matrix(1, 0, 0, 1, 0, 0)" xlink:href="#Áåçûìÿííûé_ãðàäèåíò_14"/><linearGradient id="Áåçûìÿííûé_ãðàäèåíò_14-3" x1="508.5764" y1="40.4322" x2="508.5764" y2="26.3243" gradientTransform="matrix(1, 0, 0, 1, 0, 0)" xlink:href="#Áåçûìÿííûé_ãðàäèåíò_14"/><linearGradient id="Áåçûìÿííûé_ãðàäèåíò_14-4" x1="487.2365" y1="40.4322" x2="487.2365" y2="26.3243" gradientTransform="matrix(1, 0, 0, 1, 0, 0)" xlink:href="#Áåçûìÿííûé_ãðàäèåíò_14"/><linearGradient id="Áåçûìÿííûé_ãðàäèåíò_23" x1="373.4677" y1="130.2527" x2="431.7078" y2="130.2527" gradientTransform="matrix(0.9065, 0.4222, -0.4222, 0.9065, 93.948, -156.026)" gradientUnits="userSpaceOnUse"><stop offset="0" stop-color="#ffcf84"/><stop offset="1" stop-color="#e86d22"/></linearGradient><linearGradient id="Áåçûìÿííûé_ãðàäèåíò_51-7" x1="381.0643" y1="132.9391" x2="381.0643" y2="125.3099" gradientTransform="matrix(0.9065, 0.4222, -0.4222, 0.9065, 93.948, -156.026)" xlink:href="#Áåçûìÿííûé_ãðàäèåíò_51"/><linearGradient id="Áåçûìÿííûé_ãðàäèåíò_98-3" x1="373.4677" y1="130.253" x2="377.9026" y2="130.253" gradientTransform="matrix(0.9065, 0.4222, -0.4222, 0.9065, 93.948, -156.026)" xlink:href="#Áåçûìÿííûé_ãðàäèåíò_98"/><linearGradient id="Áåçûìÿííûé_ãðàäèåíò_51-8" x1="390.4388" y1="110.0853" x2="391.1404" y2="108.5788" xlink:href="#Áåçûìÿííûé_ãðàäèåíò_51"/><linearGradient id="Áåçûìÿííûé_ãðàäèåíò_51-9" x1="377.7443" y1="137.741" x2="378.7886" y2="135.4984" xlink:href="#Áåçûìÿííûé_ãðàäèåíò_51"/><linearGradient id="Áåçûìÿííûé_ãðàäèåíò_23-2" x1="338.0269" y1="140.1256" x2="391.338" y2="140.1256" gradientTransform="matrix(1, 0, 0, 1, 0, 0)" xlink:href="#Áåçûìÿííûé_ãðàäèåíò_23"/><linearGradient id="Áåçûìÿííûé_ãðàäèåíò_98-4" x1="338.0269" y1="140.1256" x2="389.5047" y2="140.1256" xlink:href="#Áåçûìÿííûé_ãðàäèåíò_98"/><linearGradient id="Áåçûìÿííûé_ãðàäèåíò_51-10" x1="427.7989" y1="146.1111" x2="431.0192" y2="139.1958" xlink:href="#Áåçûìÿííûé_ãðàäèåíò_51"/><linearGradient id="Áåçûìÿííûé_ãðàäèåíò_34" x1="53.944" y1="153.7682" x2="603.0857" y2="153.7682" gradientUnits="userSpaceOnUse"><stop offset="0" stop-color="#cc1d00"/><stop offset="1" stop-color="#900920"/></linearGradient></defs><g style="isolation:isolate"><g id="Layer_2" data-name="Layer 2"><g id="courtroom"><ellipse cx="337.9348" cy="332.6207" rx="337.9348" ry="8.2496" style="fill:#7c0200;opacity:0.2"/><g style="opacity:0.2;mix-blend-mode:multiply"><path d="M451.8185,89.0856l-3.693,5.2963h11.6082l-3.0373-5.4872a6.4289,6.4289,0,0,0,4.2726-7.3217c-.88-3.7109-6.8879-8.3841-6.8879-8.3841s-8.435,6.0355-6.87,11.048A7.1356,7.1356,0,0,0,451.8185,89.0856Z" style="fill:#7c0200"/><path d="M619.8755,171.19l1.8092-56.6756-24.1925.7311c-8.6623-5.2337-25.205-12.6885-49.1962-12.6885-28.6678,0-47.2012,11.8223-52.5851,15.7642l-14.8849.45,2.471,32.5617h0l.6016,7.9276-22.32.0588,2.07-64.8525-17.9346-.0978c-4.3247-3.4714-23.1141-16.8834-55.2937-16.8834-30.0734,0-49.0062,13.0172-53.2927,16.2912l-.4422-.0024-2.6932-4.8653a6.4292,6.4292,0,0,0,4.2727-7.3218c-.88-3.7109-6.8879-8.3841-6.8879-8.3841s-8.4351,6.0355-6.87,11.048A7.1357,7.1357,0,0,0,329.115,89.1l-3.2185,4.6157-2.9456-.0161,2.471,32.5618h0l2.5355,33.41-20.4431.054,1.5061-47.1811-17.9347-.0978c-4.3246-3.4714-23.114-16.8834-55.2936-16.8834-30.0735,0-49.0065,13.0174-53.2928,16.2913l-14.1772-.0773,3.6659,48.3057-60.783.16v6.3424l11.827-.0758-1.3163,11.1769-7.0068-.002-3.5039,1.2674v15.0857l63.335-.3252h0l-37.491.1925,2.1885,21.2395h0L151.0413,329.7l141.9356.5915.0019.0239h5.7361l202.9365.8456,2.2464.0321,9.4527.0393,0-.0227,71.8252-30.8616,39.6149,36.2736,36.8929-6.3734L641.1331,191.3166l19.2137-.0987v-13.38ZM184.11,166.1186h0l.9028,11.5859h0Zm-10.7854,11.5826-3.6263-.001V166.2109l2.753-.0176Zm288.0937-13.3586,22.8546-.1464,1.0316,13.5928-20.3794-.0058-3.5429-12.3075Zm-132.09,13.4025-22.39-.0063.3961-12.4094,21.0412-.1347Zm-146.69-30.5023h0l.9982,12.8094h0Zm-55.309,19.24,35.9806-.23,1.1369,11.4468-36.3258-.01Z" style="fill:#7c0200"/></g><polygon points="282.218 163.735 275.811 58.868 375.659 62.916 371.434 163.735 282.218 163.735" style="fill:url(#Áåçûìÿííûé_ãðàäèåíò_51)"/><polygon points="291.907 163.735 287.585 79.707 365.383 74.088 365.383 163.735 291.907 163.735" style="fill:#f9e07a;mix-blend-mode:soft-light"/><polygon points="291.907 163.735 296.877 158.802 295.257 89.924 287.585 79.707 291.907 163.735" style="fill:#f9e07a;mix-blend-mode:soft-light"/><polygon points="272.565 165.285 265.92 53.612 382.456 54.422 379.681 165.285 371.434 163.735 370.476 62.706 275.811 58.868 282.218 163.735 272.565 165.285" style="fill:#5b1800"/><path d="M276.8912,54.4761s16.42-17.9909,44.912-17.9909c30.6137,0,46.6034,18.6961,46.6034,18.6961Z" style="fill:#5b1800"/><path d="M290.3938,54.58s14.7628-12.1029,33.7941-11.3956c23.2586.8644,30.6053,11.8919,30.6053,11.8919Z" style="fill:#5b1800;mix-blend-mode:soft-light"/><path d="M374.0276,49.1155s-3.89-.2042-5.1865-5.4988,5.69-11.67,5.69-11.67,4.9757,4.9362,5.705,8.856S378.4578,49.2116,374.0276,49.1155Z" style="fill:#5b1800"/><polygon points="369.598 54.333 373.271 47.615 376.297 47.615 379.213 54.333 369.598 54.333" style="fill:#5b1800"/><path d="M272.3963,49.13s-3.89-.2042-5.1866-5.4988,5.69-11.67,5.69-11.67,4.9757,4.9362,5.705,8.856S276.8265,49.2265,272.3963,49.13Z" style="fill:#5b1800"/><polygon points="267.967 54.347 271.64 47.63 274.665 47.63 277.581 54.347 267.967 54.347" style="fill:#5b1800"/><polygon points="382.454 54.421 380.552 130.815 380.379 137.745 379.688 165.28 357.816 163.738 370.236 132.184 372.123 127.385 374.515 121.32 355.784 115.455 342.831 111.421 267.965 88.007 265.919 53.614 382.454 54.421" style="fill:#5b1800;mix-blend-mode:soft-light"/><polygon points="119.72 182.831 113.313 77.964 213.161 82.012 208.936 182.831 119.72 182.831" style="fill:url(#Áåçûìÿííûé_ãðàäèåíò_51-2)"/><polygon points="129.409 182.831 125.087 98.802 188.95 98.802 202.885 182.831 129.409 182.831" style="fill:#f9e07a;mix-blend-mode:soft-light"/><polygon points="129.409 182.831 134.379 177.897 132.758 109.019 125.087 98.802 129.409 182.831" style="fill:#f9e07a;mix-blend-mode:soft-light"/><polygon points="110.067 184.38 103.422 72.707 219.958 73.517 217.183 184.38 208.936 182.831 207.978 81.801 113.672 83.85 119.72 182.831 110.067 184.38" style="fill:#5b1800"/><path d="M114.3931,73.5713s16.42-17.9909,44.912-17.9909c30.6137,0,46.6034,18.6961,46.6034,18.6961Z" style="fill:#5b1800"/><path d="M128.1229,72.8787S142.6585,61.5724,161.69,62.28c23.2585.8645,30.6053,11.0452,30.6053,11.0452Z" style="fill:#5b1800;mix-blend-mode:soft-light"/><polygon points="103.422 72.707 105.469 107.101 212.023 140.412 195.321 182.831 217.183 184.38 219.958 73.517 103.422 72.707" style="fill:#5b1800;mix-blend-mode:soft-light"/><polygon points="455.07 190.218 448.662 85.351 548.51 86.005 544.286 190.218 455.07 190.218" style="fill:url(#Áåçûìÿííûé_ãðàäèåíò_51-3)"/><polygon points="465.07 185.705 460.747 101.676 541.569 92.348 538.546 185.705 465.07 185.705" style="fill:#f9e07a;mix-blend-mode:soft-light"/><polygon points="464.758 190.218 469.729 185.284 468.108 116.407 460.436 106.189 464.758 190.218" style="fill:#f9e07a;mix-blend-mode:soft-light"/><path d="M449.7424,80.9587s16.42-17.9909,44.912-17.9909c30.6137,0,46.6034,18.6961,46.6034,18.6961Z" style="fill:#5b1800"/><path d="M463.245,81.0627S478.0078,68.96,497.0391,69.6671c23.2586.8644,30.6053,11.8919,30.6053,11.8919Z" style="fill:#5b1800;mix-blend-mode:soft-light"/><polygon points="445.416 191.768 438.771 80.094 555.44 75.598 552.532 191.768 544.286 190.218 548.51 86.005 448.662 85.351 455.07 190.218 445.416 191.768" style="fill:#5b1800"/><polygon points="438.771 80.094 440.818 114.488 543.593 117.711 530.671 190.218 552.532 191.768 555.44 75.598 438.771 80.094" style="fill:#5b1800;mix-blend-mode:soft-light"/><polygon points="79.788 161.178 93.78 296.973 562.516 298.926 583.872 158.59 79.788 161.178" style="fill:url(#Áåçûìÿííûé_ãðàäèåíò_55)"/><polygon points="224.955 160.149 235.718 297.589 243.154 297.589 243.937 160.447 224.955 160.149" style="fill:url(#Áåçûìÿííûé_ãðàäèåíò_64)"/><polygon points="437.967 159.159 432.777 298.269 446.637 298.466 454.131 159.324 437.967 159.159" style="fill:url(#Áåçûìÿííûé_ãðàäèåíò_64-2)"/><polygon points="458.416 280.143 463.118 178.869 563.688 178.869 545.684 283.212 458.416 280.143" style="fill:url(#Áåçûìÿííûé_ãðàäèåíò_51-4)"/><polygon points="427.298 285.585 265.27 285.585 259.722 182.552 432.777 187.63 427.298 285.585" style="fill:url(#Áåçûìÿííûé_ãðàäèåíò_51-5)"/><polygon points="216.932 283.212 116.741 283.212 122.481 184.698 197.363 184.698 216.932 283.212" style="fill:url(#Áåçûìÿííûé_ãðàäèåíò_51-6)"/><polygon points="122.481 184.698 131.777 194.009 122.481 277.383 116.741 283.212 122.481 184.698" style="fill:#f9e07a;mix-blend-mode:soft-light"/><polygon points="259.722 182.552 270.159 189.917 272.768 280.757 265.27 285.585 259.722 182.552" style="fill:#f9e07a;mix-blend-mode:soft-light"/><polygon points="463.118 178.869 470.541 189.917 466.829 274.21 458.416 280.143 463.118 178.869" style="fill:#f9e07a;mix-blend-mode:soft-light"/><polygon points="116.741 283.212 122.481 277.383 206.495 275.028 191.884 191.963 197.363 184.698 216.932 283.212 116.741 283.212" style="fill:#5b1800;mix-blend-mode:soft-light"/><polygon points="265.27 285.585 272.768 280.757 421.489 280.757 421.489 195.237 432.777 187.63 427.298 285.585 265.27 285.585" style="fill:#5b1800;mix-blend-mode:soft-light"/><polygon points="458.416 280.143 466.829 274.21 542.162 280.143 559.043 184.393 563.688 178.869 545.684 283.212 458.416 280.143" style="fill:#5b1800;mix-blend-mode:soft-light"/><path d="M182.4912,200.9654l-38.3544-1.5345-10.1757,69.357,59.88-2.4551Zm-36.546,1.6387h34.6029l10.9406,63.0106-53.8377.4352Z" style="fill:#5b1800;mix-blend-mode:soft-light"/><path d="M411.0525,199.4309l-125.239-2.9237-3.131,75.0427h128.37Zm-120.4817,0,118.1335,3.1732-2.6531,66.0221H287.6838Z" style="fill:#5b1800;mix-blend-mode:soft-light"/><path d="M477.5858,193.2931l3.5223,75.4948,50.0956,2.762,12.9153-76.7223ZM529.7684,268.79l-46.5625-2.5672-3.2739-70.17,59.4737,1.3716Z" style="fill:#5b1800;mix-blend-mode:soft-light"/><polygon points="81.976 182.418 504.982 229.966 534.671 298.926 562.516 298.926 583.872 158.59 79.788 161.178 81.976 182.418" style="fill:#5b1800;mix-blend-mode:soft-light"/><polygon points="131.777 194.009 182.491 200.965 193.841 242.293 128.426 224.063 131.777 194.009" style="opacity:0.2;mix-blend-mode:color-dodge;fill:url(#Áåçûìÿííûé_ãðàäèåíò_98)"/><polygon points="270.552 203.615 271.5 236.608 421.489 271.55 421.489 220.581 270.552 203.615" style="opacity:0.2;mix-blend-mode:color-dodge;fill:url(#Áåçûìÿííûé_ãðàäèåíò_98-2)"/><polygon points="243.937 160.447 257.635 160.447 260.365 297.356 243.154 297.589 243.937 160.447" style="fill:#5b1800;mix-blend-mode:soft-light"/><polygon points="454.131 159.324 446.637 298.466 456.089 298.506 459.028 159.203 454.131 159.324" style="fill:#5b1800;mix-blend-mode:soft-light"/><polygon points="226.877 184.698 244.79 187.63 243.937 160.447 224.955 160.149 226.877 184.698" style="fill:#5b1800;mix-blend-mode:soft-light"/><polygon points="437.967 159.159 454.131 159.324 452.607 187.63 437.004 184.98 437.967 159.159" style="fill:#5b1800;mix-blend-mode:soft-light"/><polygon points="624.791 336.622 582.611 297.999 72.856 296.748 36.647 332.015 624.791 336.622" style="fill:url(#Áåçûìÿííûé_ãðàäèåíò_78)"/><polygon points="69.16 300.348 590.516 303.439 589.34 298.028 68.538 296.738 69.16 300.348" style="fill:url(#Áåçûìÿííûé_ãðàäèåíò_85)"/><polygon points="62.595 306.742 539.406 312.465 590.919 336.356 624.791 336.622 588.539 303.427 69.16 300.348 62.595 306.742" style="fill:#7e0200;opacity:0.42"/><polygon points="372.35 148.317 372.35 144.69 55.465 144.577 53.43 145.515 372.35 148.317" style="fill:#5b1800"/><path d="M378.5262,127.3855,360.4,119.98l.7493-1.9019,1.0373-2.6224,2.363-6.0083-.5762-.2737-.3891-2.0172-6.93-3.0834-2.8241.3747-.7925-.3747-3.8038,7.3483-.4611.8933-3.5012,6.772-4.6251,8.9188-.6772,1.3255.9077.4179.2594,2.363,2.1036.8212-31.7129-1.6137-5.043,11.0369,11.1666.0288.0144-.0145,42.13.0145-1.83-5.5328-1.0662-3.2275-1.8443-.0865,4.2793-10.8639,10.36,5.6913,6.9448,3.8183,10.1435,5.5616.1729-6.9305Z" style="fill:#7c0200;opacity:0.5;mix-blend-mode:multiply"/><path d="M403.1972,141.8448c0,2.1073-13.5972,1.7556-19.7246.53-3.1569-.6275-5.4412-3.9607-7.647-8.1078-2.0784-3.9019-4.0883-8.5391-6.7059-12.343-.5588-.8137-3.3235-1.7059-3.7451-2.451-.0293-.0686-.0686-.1372-.098-.2059-1.8725-3.5293-1.5294-10.8234-1.5294-10.8234V69.3951s.4706-.2647,1.2059-.6078a16.3791,16.3791,0,0,1,5.8235-1.7647c4.8431,0,13,20.8332,18.8822,35.6076v.0195c1.8235,4.5785,3.4313,8.5784,4.647,11.1862C399.4528,124.8653,403.1972,140.1291,403.1972,141.8448Z" style="fill:url(#Áåçûìÿííûé_ãðàäèåíò_79)"/><path d="M398.2175,140.7965a81.7626,81.7626,0,0,0-10.6078-5.0686,27.2988,27.2988,0,0,0-11.7841-1.4608c-2.0784-3.9019-4.0883-8.5391-6.7059-12.343-.5588-.8137-3.3235-1.7059-3.7451-2.451-.0293-.0686-.0686-.1372-.098-.2059-1.7353-4.0293.5981-19.48.5981-19.48s5.3921,17.8038,16.3429,23.039C392.9823,127.9632,398.0607,140.3847,398.2175,140.7965Z" style="fill:#002;opacity:0.5"/><path d="M349.1315,69.169l-6.453-1.1891-27.9515.5945-6.3309.5946S321.13,92.8907,331.0023,93.151,349.1315,69.169,349.1315,69.169Z" style="fill:url(#Áåçûìÿííûé_ãðàäèåíò_49)"/><path d="M315.8145,64.198,313.5159,68.18a67.2442,67.2442,0,0,0,6.74,9.1362c3.6764,4.0441,5.7052,5.1471,5.7052,5.1471l2.86-10.049Z" style="fill:#b7efeb"/><path d="M341.8153,64.198,344.114,68.18a67.24,67.24,0,0,1-6.74,9.1362c-3.6764,4.0441-5.7052,5.1471-5.7052,5.1471l-2.86-10.049Z" style="fill:#b7efeb"/><path d="M337.0519,68.4345H323.5952a24.8363,24.8363,0,0,0,1.0559-4.9708c.0065-.1771.0131-.3739.02-.5771V62.88c.0525-1.4362.0919-3.39.1115-4.4.0066-.4131.0131-.6689.0131-.6689l9.7188-.4722s.0065.0525.02.1509c.0853.5639.387,2.669.6033,4.879a16.472,16.472,0,0,0,.905,3.633h.0066C336.547,67.3852,337.0519,68.4345,337.0519,68.4345Z" style="fill:#e16736"/><path d="M336.042,66.0015c-.1115.02-1.2.1378-4.6036-.8459-3.5937-1.0362-6.7677-2.269-6.7677-2.269V62.88c.0525-1.4362.0919-3.39.1115-4.4l9.7515-.99c.0853.5639.387,2.669.6033,4.879A16.472,16.472,0,0,0,336.042,66.0015Z" style="fill:#7c1500"/><path d="M347.8556,55.603c-.794,1.9936-7.146,7.8414-12.8845,10.3-.009,0-.018.0111-.027.0111a11.8424,11.8424,0,0,1-4.5114,1.1076,20.2362,20.2362,0,0,1-5.7475-.875c-6.37-1.8939-11.4228-6.3462-12.7221-8.1958-2.4361-3.4445-5.26-20.49-5.08-27.0573.0091-.1993.0181-.3877.0271-.5759.37-6.08,8.0483-23.0923,21.8531-23.0923,14.283,0,22.71,15.3505,23.3147,21.9736C352.7549,36.6972,349.0556,52.59,347.8556,55.603Z" style="fill:url(#Áåçûìÿííûé_ãðàäèåíò_75)"/><path d="M335.4873,35.3893a62.8129,62.8129,0,0,0,9.5877,2.9156c4.9582,1.0292,6.996-4.5621,6.996-4.5621l.9516-8.6682L344.22,21.6279a9.874,9.874,0,0,0-5.8593,3.181C335.524,27.7759,335.4873,35.3893,335.4873,35.3893Z" style="fill:#e16736;opacity:0.5"/><path d="M331.4384,60.06c.0984-.0328.4722-.1442,1.8887-.5639-.2885.118-.5771.2229-.8526.3082Z" style="fill:#e16736"/><path d="M347.8556,55.603c-.794,1.9936-7.146,7.8414-12.8845,10.3-.009,0-.018.0111-.027.0111-.5865.1108-1.173.2105-1.75.2769,2.003-.2326,8.5716-7.7971,12.1445-16.5356,4.2317-10.3112,1.48-22.0512-3.6632-26.57-5.1249-4.5188-30.6141.3433-30.6141.3433-2.0572,4.3416-.776,11.0533.55,21.143,1.173,8.9047,10.8364,19.3045,13.074,21.575-6.37-1.8939-11.4228-6.3462-12.7221-8.1958-2.4361-3.4445-5.26-20.49-5.08-27.0573.0091-.1993.03-.3875.0271-.5759-.2488-15.2819,2.7309-23.0923,21.8531-23.0923,18.6229,0,23.1235,7.1568,23.3147,21.9736C352.1754,36.7271,349.0556,52.59,347.8556,55.603Z" style="fill:#e16736"/><path d="M318.4736,21.9558s3.5422,8.0179,3.48,7.89.59,3.4813.59,3.4813l-.2172,2.4288s-5.4048,2.4306-8.3175,2.5125-5.2756,0-5.2756,0L306.91,30.3178A19.2128,19.2128,0,0,1,312.0869,19.78C316.7528,14.9234,318.4736,21.9558,318.4736,21.9558Z" style="fill:#e16736;opacity:0.5"/><path d="M349.6463,24.4547s-1.4623-2.852-3.96-3.5053c-1.9987-.5227-7.6434-1.5413-9.2589-1.8776a11.5775,11.5775,0,0,1-2.4676-.7506s.289.9561.4533,1.5078l.1642.5516a12.8225,12.8225,0,0,1-1.1563-1.2023c-.5107-.622-.8678-1.09-.8678-1.09a3.5052,3.5052,0,0,0,.41,1.2319,8.5174,8.5174,0,0,1,.5171.8916,5.8968,5.8968,0,0,1-1.4383-1.198,8.6624,8.6624,0,0,0-.6749-.9434,12.436,12.436,0,0,0,.6468,2.3457,5.3846,5.3846,0,0,0,1.9388,1.959c.4793.1946,9.6045.2253,11.4353.3756A12.0251,12.0251,0,0,1,349.6463,24.4547Z" style="fill:#590800"/><path d="M309.2577,23.91s1.6276-2.761,4.1594-3.2662c2.0261-.4043,7.7208-1.089,9.3533-1.33a11.5757,11.5757,0,0,0,2.5076-.6042s-.3448.9375-.5412,1.4785l-.1964.5411a12.8278,12.8278,0,0,0,1.225-1.1323c.5464-.5908.93-1.0376.93-1.0376a3.5031,3.5031,0,0,1-.4812,1.2057,8.5178,8.5178,0,0,0-.5687.86,5.9005,5.9005,0,0,0,1.5064-1.1113,8.6411,8.6411,0,0,1,.7291-.9021,12.4358,12.4358,0,0,1-.7836,2.3036,5.3841,5.3841,0,0,1-2.0507,1.8415c-.49.1661-9.6011-.34-11.4376-.2977A12.0242,12.0242,0,0,0,309.2577,23.91Z" style="fill:#590800"/><path d="M324.136,40.3715a1.9964,1.9964,0,0,0,1.3189,1.4491c1.2921.364,1.7609.1813,2.9067.5123a4.7746,4.7746,0,0,0,3.1947-.09,18.9144,18.9144,0,0,0,2.5878-.8049,4.224,4.224,0,0,0,.9427-1.3339s.3354,2.1317-.7086,2.2845-2.3271,1.5878-4.4421,1.5857a27.9594,27.9594,0,0,1-4.7689-1.0185C324.1488,42.7522,324.136,40.3715,324.136,40.3715Z" style="fill:#e16736"/><path d="M331.5649,43.6832a7.4338,7.4338,0,0,1,1.8073-1.241,1.4461,1.4461,0,0,1,1.1417,0,6.94,6.94,0,0,1-1.2032.4919A13.8624,13.8624,0,0,0,331.5649,43.6832Z" style="fill:#590800"/><path d="M325.1672,42.9559a3.51,3.51,0,0,1,1.8111,0,7.2777,7.2777,0,0,1,1.3833.8582S325.4389,43.0793,325.1672,42.9559Z" style="fill:#590800"/><path d="M332.3,39.7738c0,.3622-1.56.6558-3.4849.6558s-3.4848-.2936-3.4848-.6558,1.56-.6558,3.4848-.6558S332.3,39.4116,332.3,39.7738Z" style="fill:#fff;opacity:0.5"/><path d="M333.9441,39.7738a.6241.6241,0,1,1-.6148-.5167A.5722.5722,0,0,1,333.9441,39.7738Z" style="fill:#fff;opacity:0.5"/><path d="M322.9087,49.0634s5.9189.1225,8.7045,0,4.7522-.1634,4.7522-.1634v.2178a29.12,29.12,0,0,1-7.4149.8443,31.2223,31.2223,0,0,1-6.0418-.6945Z" style="fill:#590800"/><path d="M324.7155,50.4727a18.3716,18.3716,0,0,0,4.5936,1.4706c2.0221.245,5.25-1.4706,5.25-1.4706s-2.5434,2.8186-4.8769,2.8186S324.7155,50.4727,324.7155,50.4727Z" style="fill:#e16736"/><path d="M351.3813,34.95s4.3145-5.47,7.067-4.5691c4.33,1.4167-2.2059,18.2243-5.4337,17.8466-1.9094-.2234-3.09-2.4465-3.09-2.4465Z" style="fill:#e16736"/><path d="M351.9168,43.1483a44.3837,44.3837,0,0,1,2.9877-7.1017c1.6647-2.9271,3.1353-3.6526,3.1353-3.6526a9.9272,9.9272,0,0,0-4.7385,3.8887A11.6983,11.6983,0,0,0,351.9168,43.1483Z" style="fill:#d34d21"/><path d="M352.8519,39.2571a6.3545,6.3545,0,0,0,2.1244,1.9941c1.1844.5553,2.0423-.997,2.0423-.997s-1.5523,2.8614-2.737,2.4665-1.7156-2.1889-1.7156-2.1889Z" style="fill:#d34d21"/><path d="M307.8463,34.95s-4.3145-5.47-7.067-4.5691c-4.33,1.4167,2.2059,18.2243,5.4338,17.8466,1.9094-.2234,3.09-2.4465,3.09-2.4465Z" style="fill:#e16736"/><path d="M307.3109,43.1483a44.394,44.394,0,0,0-2.9877-7.1017c-1.6648-2.9271-3.1354-3.6526-3.1354-3.6526a9.9276,9.9276,0,0,1,4.7386,3.8887A11.6992,11.6992,0,0,1,307.3109,43.1483Z" style="fill:#d34d21"/><path d="M306.3757,39.2571a6.3534,6.3534,0,0,1-2.1244,1.9941c-1.1844.5553-2.0422-.997-2.0422-.997s1.5522,2.8614,2.7369,2.4665,1.7156-2.1889,1.7156-2.1889Z" style="fill:#d34d21"/><path d="M350.5328,38.6036s-5.2759,9.8176-7.2073,9.7686c-1.1961-.0294-3.3235.0588-4.8235-.8628a18.5559,18.5559,0,0,0-1.49-2.245c-.1961-.1471-.3922-.2745-.5687-.3922a5.547,5.547,0,0,0-4.0588-1.1862,18.6883,18.6883,0,0,1-4.02.1274,11.6659,11.6659,0,0,0-4.7745.8432,12.7062,12.7062,0,0,0-3.0882,2.8528,12.209,12.209,0,0,1-6.6176,1.3922c-2.7941-.451-5.9117-13.8136-5.9117-13.8136l-1.49-2.8921s2.7745,18.343,3.696,22.0782a43.2712,43.2712,0,0,0,5.8529,12.3136,19.5672,19.5672,0,0,0,4.4216,3.5588h.01c3.6176,2.3627,7.98,4.6274,7.98,4.6274s.3039-1.8137.6667-4.51c.2745-1.9706.4313-3.3334.5-3.9216a30.0783,30.0783,0,0,0-.0882,4.8235c.2157,1.8431.3039,3.6078.3039,3.6078s8.1372-1.4411,12.8529-6.794c6.99-7.9216,9.8921-32.99,9.8921-32.99ZM324.1394,48.6565c2.3235.2451,5.3823.2451,5.3823.2451l.1177-2.647.2941,2.647h2.0882c1.1275,0,3.2745-.2451,4.99-.4608,0,.5392-.0883,4.549-1.8726,6.3039a2.4477,2.4477,0,0,1-2.9313.5686,2.1057,2.1057,0,0,1-.8824-1.0392l-2.4607.2451a2.5026,2.5026,0,0,1-3.3628.9608c-1.7745-.7647-3.7842-6.4019-4.049-7.1666C322.159,48.4212,323.0806,48.5486,324.1394,48.6565Zm12.8725-3.3921c-.1961-.1471-.3922-.2745-.5687-.3922a8.8342,8.8342,0,0,0-4.0588-1.1862l6.1176,3.8234A18.5559,18.5559,0,0,0,337.0119,45.2644Z" style="fill:url(#Áåçûìÿííûé_ãðàäèåíò_67)"/><path d="M342.9317,33.7988s-1.8528,2.5567-4.4472,2.4255c-.1275-.011-.2467-.012-.3651-.0222a21.7233,21.7233,0,0,1-3.128-.4339c-.585-.1328-.9157-.2346-.9157-.2346s.0677-.3612.2089-.9363c.0989-.4043.233-.8974.4007-1.461l.0008-.0091c.0521-.179.105-.3672.1669-.5545.0008-.0091.0107-.0175.0115-.0266s.0115-.0265.0122-.0356a.0837.0837,0,0,1,.013-.0448l.0016-.0182a17.9154,17.9154,0,0,1,1.3077-3.1539c.12-.2191.2387-.429.3751-.6284.7622-1.1823,1.6958-2.01,2.8077-1.924,2.9623.2269,3.4519,4.9941,3.5283,6.56C342.9291,33.6151,342.9317,33.7988,342.9317,33.7988Z" style="fill:#fff"/><path d="M341.2964,32.1674c-.0467,2.0471-1.2892,3.6792-2.7753,3.6453s-2.653-1.7208-2.6064-3.7679,1.2892-3.6793,2.7753-3.6454S341.343,30.12,341.2964,32.1674Z" style="fill:url(#Áåçûìÿííûé_ãðàäèåíò_80)"/><path d="M340.1525,32.1413c-.0269,1.1769-.7412,2.1151-1.5955,2.0956s-1.5252-.9892-1.4983-2.1661.7411-2.1151,1.5954-2.0956S340.1793,30.9644,340.1525,32.1413Z" style="fill:#590800"/><path d="M338.169,32.4932a1.0653,1.0653,0,1,1-.97-1.1526A1.0654,1.0654,0,0,1,338.169,32.4932Z" style="fill:#fff"/><path d="M342.9317,33.7988s-.0026-.1837-.0216-.4972c-.0967-1.3295-.62-4.9527-3.4148-5.5323a2.6825,2.6825,0,0,0-2.5207,1.04c-.1523.1705-.3053.35-.4508.5485a13.9425,13.9425,0,0,0-1.6325,3.0893l-.0016.0182a.0837.0837,0,0,0-.013.0448c-.0007.0091-.0114.0265-.0122.0356s-.0107.0175-.0115.0266c-.07.1683-.13.3374-.1888.4884-.2033.5514-.3449,1.0254-.4467,1.3561l-.0008.0092c-.09.3042-.1333.484-.1333.484s.02-.2368.0729-.636l.0008-.0091c.068-.4713.1829-1.1678.36-1.9508a17.2363,17.2363,0,0,1,.8619-2.77c.1374-.3185.2832-.6271.4464-.925.762-1.3934,1.845-2.4655,3.3662-2.4449C344.1687,26.2349,342.9317,33.7988,342.9317,33.7988Z" style="fill:#e16736"/><path d="M334.0757,35.5336s1.796-5.6257,4.428-6.3272,4.428,4.5924,4.428,4.5924-.01-6.3282-4.0088-6.0319S334.0757,35.5336,334.0757,35.5336Z" style="fill:#590800"/><path d="M334.0757,35.5336a35.9331,35.9331,0,0,0,5.8188-.6232c2.5625-.5588,2.4822-1.0635,3.4-1.1714a8.35,8.35,0,0,1,2.6981.5444s-3.5455,1.614-5.1993,2.2616S334.0757,35.5336,334.0757,35.5336Z" style="fill:#e16736"/><path d="M315.5449,34.5773s2.3021,2.1609,4.8251,1.5423c.1231-.0348.24-.0584.3543-.0907a21.7388,21.7388,0,0,0,2.99-1.0166c.5493-.2409.8549-.4033.8549-.4033s-.1347-.3419-.3819-.88c-.1735-.3784-.3983-.8373-.6694-1.3592l-.0025-.0087c-.0849-.166-.1724-.3408-.2686-.513-.0025-.0088-.0137-.0151-.0162-.0239s-.0163-.024-.0188-.0327a.0838.0838,0,0,0-.0212-.0416l-.005-.0175a17.904,17.904,0,0,0-1.88-2.85,7.3079,7.3079,0,0,0-.487-.5463c-.9716-1.0171-2.0448-1.6541-3.12-1.3594-2.8662.7821-2.447,5.556-2.2264,7.1086C315.5127,34.3964,315.5449,34.5773,315.5449,34.5773Z" style="fill:#fff"/><path d="M316.9464,32.3257c-.058,2.0468,1.1,3.74,2.5854,3.7824s2.7375-1.583,2.7955-3.63-1.0995-3.74-2.5854-3.7825S317.0045,30.2788,316.9464,32.3257Z" style="fill:url(#Áåçûìÿííûé_ãðàäèåíò_80-2)"/><path d="M318.09,32.3581c-.0334,1.1767.6321,2.15,1.4863,2.1745s1.5737-.91,1.607-2.0868-.632-2.15-1.4862-2.1744S318.1235,31.1814,318.09,32.3581Z" style="fill:#590800"/><path d="M319.9754,32.396a1.0653,1.0653,0,1,0,.7352-1.315A1.0654,1.0654,0,0,0,319.9754,32.396Z" style="fill:#fff"/><path d="M315.5449,34.5773s-.0322-.1809-.0728-.4923c-.1559-1.3239-.3258-4.9808,2.309-6.0775a2.6822,2.6822,0,0,1,2.6718.5458c.1817.1386.3659.286.5463.4535a13.9451,13.9451,0,0,1,2.1863,2.7256l.005.0175a.0838.0838,0,0,1,.0212.0416c.0025.0087.0163.0238.0188.0327s.0137.0151.0162.0239c.1.1521.1913.3068.2776.4439.3038.5031.5324.9419.6948,1.2475l.0025.0088c.1462.2816.2223.45.2223.45s-.0647-.2287-.1917-.6108l-.0025-.0088c-.1558-.45-.4-1.1122-.7221-1.8477a17.24,17.24,0,0,0-1.3694-2.5576c-.1951-.2868-.3965-.5624-.613-.8241-1.0114-1.2244-2.2772-2.0729-3.7673-1.7654C312.9021,27.383,315.5449,34.5773,315.5449,34.5773Z" style="fill:#e16736"/><path d="M324.5691,34.609s-2.9676-5.8525-6.0974-5.8165-2.9268,5.7848-2.9268,5.7848-1.1383-5.9192,2.7469-7.0079S324.5691,34.609,324.5691,34.609Z" style="fill:#590800"/><path d="M324.5691,34.609a20.35,20.35,0,0,1-5.8456.6019,27.4,27.4,0,0,1-3.1786-.6336c-.7786-.1368-2.11.9563-2.11.9563s2.1391.56,4.2809.9934C320.7381,37.1389,324.5691,34.609,324.5691,34.609Z" style="fill:#e16736"/><path d="M352.5706,34.99l-2.0981,3.8432s.1275-17.51-.549-20.7645a11.5586,11.5586,0,0,0-3.1569-5.2157c-1.97-1.9412-4.6372-3.3235-7.4508-2.5588-8.4019,2.2941-12.9608,2.3137-19.2646-.5981-2.2156-1.0195-5.0686.4707-8.0489,2.9412-.4314.3627-.8628.7451-1.3039,1.1373-3.4412,3.1176-2.7255,21.3135-2.7255,21.3135l-1.49-2.8921s-.8824-14.7352.1765-20.0979c.0588-.3039.1274-.5785.1961-.8236a13.2148,13.2148,0,0,1,5.99-7.2058C317.3846,1.2451,323.5022,0,328.4433,0c7.2156,0,14.4116,1.7451,19.1763,4.8726l.01.01c2.8039,1.8431,4.7647,4.1568,5.3921,6.8822a3.3439,3.3439,0,0,1,.0686.3334C354.649,19.5881,352.5706,34.99,352.5706,34.99Z" style="fill:url(#Áåçûìÿííûé_ãðàäèåíò_69)"/><path d="M306.6592,12.098s1.9313.2549,5.3431.5392c-.4314.3627-.8628.7451-1.3039,1.1373-3.4412,3.1176-2.7255,21.3135-2.7255,21.3135l-1.49-2.8921S305.6,17.4607,306.6592,12.098Z" style="fill:#31004f;opacity:0.2;mix-blend-mode:multiply"/><path d="M352.5706,34.99l-2.0981,3.8432s.1275-17.51-.549-20.7645a11.5586,11.5586,0,0,0-3.1569-5.2157c2.5981-.2353,4.7353-.52,6.3235-.7549C354.649,19.5881,352.5706,34.99,352.5706,34.99Z" style="fill:#31004f;opacity:0.2;mix-blend-mode:multiply"/><path d="M352.5706,34.99s-2.902,25.0684-9.8921,32.99c-4.7157,5.3529-12.8529,6.794-12.8529,6.794s-.0882-1.7647-.3039-3.6078a30.0783,30.0783,0,0,1,.0882-4.8235c-.0686.5882-.2254,1.951-.5,3.9216-.3628,2.696-.6667,4.51-.6667,4.51s-4.3627-2.2647-7.98-4.6274c.4117-.1862,10.0783-4.4411,15.9018-11.1567,5.9509-6.8627,6.9607-10.6176,6.9607-10.6176,1.9314.049,7.29-10.6011,7.29-10.6011Z" style="fill:#31004f;opacity:0.2;mix-blend-mode:multiply"/><path d="M318.2351,49.9728s-3.1863,4.73-3.86,7.5167.98,6.7085.98,6.7085l.869-3.7989a12.3568,12.3568,0,0,0,.6015,4.2891,11.2528,11.2528,0,0,0,2.0221,3.4922s2.6348-6.4333,2.88-9.497S318.2351,49.9728,318.2351,49.9728Z" style="opacity:0.63;mix-blend-mode:color-dodge;fill:url(#Áåçûìÿííûé_ãðàäèåíò_15)"/><path d="M347.6294,4.8824A37.4266,37.4266,0,0,1,330.355,7.2941C320.11,6.451,312.0023,6.049,312.0023,6.049a7.198,7.198,0,0,1,.8431-1.98C317.3846,1.2451,323.5022,0,328.4433,0c7.2156,0,14.4116,1.7451,19.1763,4.8726Z" style="opacity:0.63;mix-blend-mode:color-dodge;fill:url(#Áåçûìÿííûé_ãðàäèåíò_15-2)"/><polygon points="329.639 75.333 327.99 75.333 326.332 78.951 327.885 81.728 326.332 95.78 333.032 95.78 329.682 81.892 331.136 78.983 329.639 75.333" style="fill:#3b0e21"/><path d="M370.5315,147.423l-80.6334-.0289.2223-1.5781c.2059-1.2941.9216-5.8626,1.7353-11.6959l.0686-.5c.9608-6.951,2.0588-15.598,2.5883-22.5979a75.9484,75.9484,0,0,0,.2842-9.4411c-.6764-11.3528-.2941-26.51-.1862-30.2644.02-.5686.0294-.8726.0294-.8726l1.6961-.2254L311.63,68.18a136.8891,136.8891,0,0,0,9.5392,14.941,61.2362,61.2362,0,0,0,8.51,9.1764,36.9385,36.9385,0,0,0,9.4019-9.8332,118.92,118.92,0,0,0,6.7254-13.9019s8.3725.8333,11.8528.8333a67.5293,67.5293,0,0,0,7.2941-.6078c1.49-.1863,2.5588-.3529,2.5588-.3529s-.7451,9.6959-1.2941,20.1174c-.2353,4.51-.4314,9.147-.51,13.196a120.4708,120.4708,0,0,0,.6568,12.6862c1.2353,13.4606,3.8432,31.0184,4.1667,32.989Z" style="fill:url(#Áåçûìÿííûé_ãðàäèåíò_79-2)"/><path d="M370.78,147.3711l-80.8816.023.2223-1.5781,1.7353-11.6959.0686-.5s25.9116,6.6862,38.8624,2.7842,35.5781-21.97,35.5781-21.97c1.2353,13.4606,3.8138,29.5879,4.1372,31.5585Z" style="fill:#002;opacity:0.5"/><path d="M293.8069,118.5642s10.14,4.2586,32.5256,8.8337,33.7824,8.3741,33.7824,8.3741l2.75,11.4955-72.9667.1266Z" style="opacity:0.63;mix-blend-mode:color-dodge;fill:url(#Áåçûìÿííûé_ãðàäèåíò_15-3)"/><path d="M296.3361,70.2187l-.902.2353v41.748a9.8539,9.8539,0,0,0-1.2109,2.232c-.6274,1.49-1.1649,5.01-2.6943,7.245-5.3921,7.8431-9.6927,19.47-15.82,20.6959s-19.7257,1.1855-19.7257-.53,3.7454-16.9795,8.8924-28.0089c4.647-9.9607,14.9019-40.0879,21.5293-45.8525a3.2434,3.2434,0,0,1,2-.9608C291.1008,67.0226,296.3361,70.2187,296.3361,70.2187Z" style="fill:url(#Áåçûìÿííûé_ãðàäèåíò_79-3)"/><path d="M389.6588,102.63v.0195s-12.5686-8.9018-23.441-14.0979c-.8432-.4019-1.6666-.7843-2.4706-1.1274a41.9542,41.9542,0,0,0-5.0588-1.8726c-11.441-3.2548-15.8528-4.0685-15.8528-4.0685s-6.99,9.1273-9.8038,11.6665a18.9634,18.9634,0,0,1-4.2156,3.1569S319.0613,86.63,315.14,80.5617c-3.9215-6.0588-4.7843-8.2744-6.745-8.8823-1.951-.6078-10.8627.98-12.9607,0-.2255-.1078-.5-.2255-.8235-.3627-2.6863-1.1667-8.2058-3.3333-8.2058-3.3333a3.2434,3.2434,0,0,1,2-.9608c2.6961,0,7.9314,3.1961,7.9314,3.1961L311.63,68.18a136.8891,136.8891,0,0,0,9.5392,14.941,61.2362,61.2362,0,0,0,8.51,9.1764,36.9385,36.9385,0,0,0,9.4019-9.8332,118.92,118.92,0,0,0,6.7254-13.9019s8.3725.8333,11.8528.8333a67.5293,67.5293,0,0,0,7.2941-.6078,16.3791,16.3791,0,0,1,5.8235-1.7647C375.62,67.0226,383.7765,87.8558,389.6588,102.63Z" style="fill:#002"/><path d="M328.2917,95.7805s1.0532,17.0751,1.181,27.0423.21,23.3658.21,23.3658h1.3888s-.8137-27.2056-.7745-31.454-.6151-19.3626-.6151-19.3626Z" style="fill:#002"/><path d="M296.3361,70.2187s1.1568,21.8037,1.1568,31.1173-.5784,15.9313-.5784,15.9313l27.784.98s-5.6265-23.0022-9.0685-32.691a105.6513,105.6513,0,0,0-6.6505-15.338Z" style="opacity:0.6900000000000001;fill:url(#Áåçûìÿííûé_ãðàäèåíò_91)"/><path d="M348.3911,71.6794s-3.4819,10.7843-7.3528,21.4737c-3.6771,10.1539-6.6993,25.0946-6.6993,25.0946l25.207-1.634s.4464-16.83,1.2633-29.0847a160.6556,160.6556,0,0,1,1.7974-17.31Z" style="opacity:0.6900000000000001;fill:url(#Áåçûìÿííûé_ãðàäèåíò_91-2)"/><path d="M296.3361,73.3309s-8.2838.4525-10.3853,1.443-14.8466,32.1994-14.52,33.5065,13.7254-28.7579,15.85-30.8821,9.2855-2.6244,9.2855-2.6244Z" style="fill:#002"/><path d="M296.8382,80.5665s-7.4335,7.6161-9.5576,11.0474-15.196,34.4768-15.196,34.4768,14.379-28.4213,16.34-31.8575,8.4979-11.7695,8.4979-11.7695Z" style="fill:#002"/><path d="M363.7226,84.8362s6.7272,8.2483,12.2827,16.5815a142.6952,142.6952,0,0,1,10.155,18.8741s-8.1942-19.3642-10.4818-24.92S363.7226,84.8362,363.7226,84.8362Z" style="fill:#002"/><path d="M293.9059,117.6315s28.6208,1.3717,35.4722.9327,20.0631-1.4842,26.08-.9327a36.9841,36.9841,0,0,0,11.3785-.8544v1.4706s-30.3573,2.6176-37.4119,2.0441-28.7456-1.8787-30.5838-1.7163a46.9587,46.9587,0,0,1-5.034-.0113Z" style="fill:#002;opacity:0.5"/><path d="M303.6331,118.7051s-1.6074,7.466-2.3412,11.6062-5.9162,17.0848-5.9162,17.0848l-5.4776-.002,3.9088-28.83Z" style="fill:#002;opacity:0.5"/><path d="M311.9536,118.5755s.1225,4.5741,0,8.9858-1.4706,12.2013,0,14.5288,2.0833-7.9805,1.7156-10.6419-.3817-12.2257-.3817-12.2257Z" style="fill:#002;opacity:0.5"/><path d="M341.9661,118.5755a96.93,96.93,0,0,0-1.5157,13.5093c-.1883,6.6284,2.0341,10.5832,3.8558,11.1626s1.2255-8.47,0-12.9361a37.5046,37.5046,0,0,1-.8376-10.3625Z" style="fill:#002;opacity:0.5"/><path d="M365.3734,143.6584s-9.8555.5661-11.7125.5841-5.0032-3.7709-5.0032-3.7709l12.4413-3.0937Z" style="fill:#e16736"/><path d="M403.1972,141.8448s-8.3522-7.0412-14.81-9.207c-7.8989-2.649-12.7725-.357-19.2636,1.857l9.4484,13.7542S402.2642,155.0252,403.1972,141.8448Z" style="fill:url(#Áåçûìÿííûé_ãðàäèåíò_79-4)"/><path d="M370.6819,143.3973c2.8058,2.9937,6.39,5.4505,7.8938,4.8463,1.92-.7518,1.06-5.5041-1.45-9.2228a11.3212,11.3212,0,0,0-4.1214-3.8663l-.0671-.04h-.0268a6.1914,6.1914,0,0,0-3.7858-.6174,4.16,4.16,0,0,0-1.0607.2953C365.3523,136.0271,367.5405,140.0411,370.6819,143.3973Z" style="fill:#000d22"/><path d="M341.9662,145.0754c.0538,1.6647,3.1012.8591,4.1618-1.2485a13.7668,13.7668,0,0,1,3.5709-4.2692c.51-.3624,2.1481-1.6243,2.3494-1.772a20.5616,20.5616,0,0,0-3.2488,4.43c-.6578,1.6915-1.2754,4.9-.1611,5.4773a1.2924,1.2924,0,0,0,1.7183-.3759,2.1423,2.1423,0,0,0,1.9332.9129c1.2083-.1611,3.4368-3.0206,3.8261-3.9066s1.7721-3.4367,1.7721-3.4367h2.054s-1.88,5.8263-1.5036,6.6452c.3893.8323,2.497.5639,3.1146-1.5438.6041-2.1077,1.88-2.497,3.826-2.3359a19.6836,19.6836,0,0,0,5.3028-.2551,15.9177,15.9177,0,0,0,1.6244-.4028c1.49-.47,3.5442-2.5372,4.82-3.9737a11.3212,11.3212,0,0,0-4.1214-3.8663l-.0671-.04h-.0268c-.2685-.0268-2.1883-.1745-4.8465-.3221-5.7323-.3222-14.888-.6713-18.3248.2148C346.6784,135.7988,341.9394,144.0282,341.9662,145.0754Z" style="fill:url(#Áåçûìÿííûé_ãðàäèåíò_75-2)"/><path d="M293.8069,143.6584s9.8556.5661,11.7125.5841,5.0033-3.7709,5.0033-3.7709l-5.8589-5.1564Z" style="fill:#e16736"/><path d="M255.9831,141.8448s8.3522-7.0412,14.81-9.207c7.8988-2.649,12.7724-.357,19.2635,1.857l-9.4483,13.7542S256.9162,155.0252,255.9831,141.8448Z" style="fill:url(#Áåçûìÿííûé_ãðàäèåíò_79-5)"/><path d="M288.4985,143.3973c-2.8059,2.9937-6.39,5.4505-7.8938,4.8463-1.92-.7518-1.0606-5.5041,1.45-9.2228a11.3212,11.3212,0,0,1,4.1214-3.8663l.0671-.04h.0268a6.1913,6.1913,0,0,1,3.7858-.6174,4.1589,4.1589,0,0,1,1.0606.2953C293.8281,136.0271,291.64,140.0411,288.4985,143.3973Z" style="fill:#000d22"/><path d="M317.2141,145.0754c-.0537,1.6647-3.1011.8591-4.1617-1.2485a13.7654,13.7654,0,0,0-3.571-4.2692c-.51-.3624-2.148-1.6243-2.3493-1.772a20.5616,20.5616,0,0,1,3.2488,4.43c.6578,1.6915,1.2753,4.9.161,5.4773a1.2924,1.2924,0,0,1-1.7183-.3759,2.1421,2.1421,0,0,1-1.9332.9129c-1.2082-.1611-3.4367-3.0206-3.8261-3.9066s-1.7721-3.4367-1.7721-3.4367h-2.0539s1.8794,5.8263,1.5036,6.6452c-.3893.8323-2.497.5639-3.1146-1.5438-.6041-2.1077-1.88-2.497-3.826-2.3359a19.6836,19.6836,0,0,1-5.3028-.2551,15.92,15.92,0,0,1-1.6245-.4028c-1.49-.47-3.5441-2.5372-4.8194-3.9737a11.3212,11.3212,0,0,1,4.1214-3.8663l.0671-.04h.0268c.2685-.0268,2.1882-.1745,4.8464-.3221,5.7323-.3222,14.8881-.6713,18.3248.2148C312.502,135.7988,317.2409,144.0282,317.2141,145.0754Z" style="fill:url(#Áåçûìÿííûé_ãðàäèåíò_75-3)"/><path d="M262.7345,137.3656s6.4327-4.3644,11.9145-5.1475,11.9145,2.14,11.9145,2.14-10.4042,3.7051-13.201,5.8307S262.7345,137.3656,262.7345,137.3656Z" style="opacity:0.47000000000000003;mix-blend-mode:color-dodge;fill:url(#Áåçûìÿííûé_ãðàäèåíò_14)"/><polygon points="166.728 60.894 166.088 73.242 147.982 73.242 146.76 59.945 166.728 60.894" style="fill:#300800"/><path d="M150.44,68.9642c.2573-3.2368,12.9617-2.4454,13.3037,0s-2.45,7.7484-2.45,7.7484l-10.54.927S150.3587,69.9887,150.44,68.9642Z" style="fill:#728bff"/><path d="M186.2805,143.9906c-1.552.4637-3.0756.8422-4.2963,1.1261-1.5426.36-2.6025.5584-2.6025.5584H138.4053s-.71-.2082-1.8359-.5584c-1.4858-.4542-3.71-1.1545-5.9525-1.9115a48.2617,48.2617,0,0,0,1.2964-7.4478c.1515-3.3122-.634-14.0342-.7381-16.2391-.0094-.3312-.0189-.795-.0284-1.3438,0-1.0126-.634-1.5568-1.0031-2.4842l1.3532.1089c-.123-.3029-.246-.6057-.36-.918a22.5116,22.5116,0,0,1-1.2964-6.7663c-.2082-5.574.9085-23.45,1.3627-30.4154.1135-1.76.1893-2.82.1893-2.82s3.5582-.1136,7.4571-.5868a16.374,16.374,0,0,0,5.7348-1.533l1.7319-.0568,6.6811-.2177,16.7786-.5583a9.1837,9.1837,0,0,0,2.5551,1.3153c1.8927.7287,9.9744.3881,9.9744.3881a.1336.1336,0,0,0-.0189.0568.1745.1745,0,0,0-.0189.0662,10.9307,10.9307,0,0,0-.1893,4.2018c.1135.5677.6151,2.9431,1.24,6.2268,1.5709,8.2427,3.9368,22.2579,2.8958,27.9833-.0284.142-.0568.2745-.0852.4069a6.82,6.82,0,0,0-.1514,1.4385c-.2366,3.2932-.36,10.4192-.7571,15.4442C184.8421,134.2055,185.8547,141.2746,186.2805,143.9906Z" style="fill:url(#Áåçûìÿííûé_ãðàäèåíò_79-6)"/><path d="M132.86,110.5659c-.4069,1.552-.8706,3.3216-1.3628,5.2333v.0094c-.1135.4448-.2271.89-.35,1.3533-1.1261,4.3342-2.4415,9.2551-3.8705,13.8922-.1325.4448-.265.88-.4069,1.3155a52.8172,52.8172,0,0,1-4.41,10.2961c-2.0725,3.52-4.4573,5.8484-6.7947,5.0156-3.3216-1.1829-7.618-9.965-7.7316-17.564a16.3743,16.3743,0,0,1,.3218-3.6435.4308.4308,0,0,0,.0094-.0756h.0095a11.2842,11.2842,0,0,1,.8233-2.5457c4.2964-9.189,10.7694-35.7622,14.6115-45.5378.8138-2.063,1.5047-3.3785,2.0346-3.634a6.5715,6.5715,0,0,1,5.65.1988s.104,1.0409.265,2.7822C132.3392,85.2324,134.0805,105.9761,132.86,110.5659Z" style="fill:url(#Áåçûìÿííûé_ãðàäèåíò_79-7)"/><path d="M163.7438,73.487s-4.882,2.6569-6.6767,2.6393c-1.7105-.0167-6.3127-2.6393-6.3127-2.6393a23.9763,23.9763,0,0,0,1.0191-4.7983c.0063-.1709.0127-.3608.019-.557v-.0064c.0507-1.3863.0886-3.2726.1076-4.2475.0063-.3988.0127-.6456.0127-.6456l9.3812-.4558s.0063.0506.019.1456c.0823.5444.3735,2.5764.5823,4.71a15.9,15.9,0,0,0,.8736,3.5069h.0063C163.2563,72.4741,163.7438,73.487,163.7438,73.487Z" style="fill:#e16736"/><path d="M162.7689,71.1385c-.1076.019-1.1584.1329-4.4437-.8166-3.4689-1-6.5327-2.19-6.5327-2.19v-.0064c.0507-1.3863.0886-3.2726.1076-4.2475l9.4129-.9558c.0823.5444.3735,2.5764.5823,4.71A15.9,15.9,0,0,0,162.7689,71.1385Z" style="fill:#7c1500"/><path d="M175.7013,52.2557c-1.0571,2.1713-9.5521,10.1092-15.3758,12.5337a1.0352,1.0352,0,0,1-.1772.07c-.2786.1139-.5571.2152-.823.2975a6.32,6.32,0,0,1-1.899.3419c-1.6332-.0064-4.0323-.899-6.6023-2.2093a.02.02,0,0,1-.0127-.0063c-5.1527-2.6207-11.0017-6.8808-12.7551-8.9128-2.627-3.0384-5.6971-15.0277-5.2983-20.2311.3924-5.2033,8.4443-19.7309,22.9213-19.7309,14.9834,0,23.82,13.11,24.4532,18.7751C180.8414,39.5892,176.961,49.6794,175.7013,52.2557Z" style="fill:url(#Áåçûìÿííûé_ãðàäèåíò_75-4)"/><path d="M162.2335,41.5893a60.6383,60.6383,0,0,0,9.2548,2.8143c4.7859.9935,7.6715-4.6994,7.6715-4.6994V31.6328l-8.4974-3.327a9.5307,9.5307,0,0,0-5.6558,3.07C162.2688,34.24,162.2335,41.5893,162.2335,41.5893Z" style="fill:#e16736;opacity:0.5"/><path d="M158.3252,65.4034c.0949-.0317.4557-.1393,1.8231-.5444-.2786.1139-.5571.2152-.823.2975Z" style="fill:#e16736"/><path d="M175.7013,52.2557c-1.0571,2.1713-9.5521,10.1092-15.3758,12.5337,1.918-.8736,8.987-6.6666,12.7431-14.1352,4.4306-8.81,1.544-18.8384-3.843-22.7-5.3806-3.8613-32.1126.2912-32.1126.2912-2.1586,3.71-.8166,9.4446.576,18.0725,1.361,8.457,12.6792,16.6419,13.1223,16.9647-5.1527-2.6207-11.0017-6.8808-12.7551-8.9128-2.627-3.0384-5.6971-15.0277-5.2983-20.2311.3924-5.2033,8.4443-19.7309,22.9213-19.7309,14.9834,0,23.82,13.11,24.4532,18.7751C180.8414,39.5892,176.961,49.6794,175.7013,52.2557Z" style="fill:#e16736"/><path d="M145.8105,28.6223s3.4193,7.7394,3.3593,7.6159.5694,3.3605.5694,3.3605l-.21,2.3444s-5.2171,2.3462-8.0287,2.4253-5.0924,0-5.0924,0L133.8292,37.32s-1.22-4.3872,3.2838-9.0746S145.8105,28.6223,145.8105,28.6223Z" style="fill:#e16736;opacity:0.5"/><path d="M165.0066,42.1515s4.2813.5733,7.384-1.0161a11.5379,11.5379,0,0,0,4.299-3.4438l1.28-.86s-1.7024,4.8337-6.2678,5.6722A14.6948,14.6948,0,0,1,165.0066,42.1515Z" style="fill:#7c1500"/><path d="M176.1271,37.9654c.557-.8059-3.1177-4.3127-6.9866-3.195a10.4762,10.4762,0,0,0-5.9343,4.3334,18.8972,18.8972,0,0,0-.9727,2.4855s2.2436,1.0617,7.189.3826S176.1271,37.9654,176.1271,37.9654Z" style="fill:#fff"/><path d="M162.1649,41.3937s1.4653-8.2647,5.7986-9.5231c4.4555-1.294,8.6171,3.1153,8.6171,3.1153a21.5265,21.5265,0,0,0-7.8895-.1236C165.1277,35.6689,162.1649,41.3937,162.1649,41.3937Z" style="fill:#7c1500"/><path d="M177.7322,35.2754a28.2034,28.2034,0,0,0-4.2288-2.5327,23.8313,23.8313,0,0,0-3.6488-1.1714,19.0139,19.0139,0,0,1,3.8619,2.228A18.95,18.95,0,0,1,175.4,35.4508Z" style="fill:#590800"/><path d="M172.6809,38.4936a3.6263,3.6263,0,1,1-2.8258-4.28A3.6263,3.6263,0,0,1,172.6809,38.4936Z" style="fill:url(#Áåçûìÿííûé_ãðàäèåíò_5)"/><path d="M171.7317,37.8342a2.5642,2.5642,0,1,1-1.9981-3.0262A2.5642,2.5642,0,0,1,171.7317,37.8342Z" style="fill:#590800"/><path d="M162.1649,41.3937s2.566-4.8669,5.9711-7.0126c4.7266-2.9785,7.7437.4816,9.0513.7982a2.874,2.874,0,0,0,1.9725-.0584s-1.39,2.4813-2.6441,2.8618-3.7546-4.17-7.6409-2.5411C164.8345,37.1347,162.1649,41.3937,162.1649,41.3937Z" style="fill:#590800"/><path d="M175.449,37.1273s-1.2154,2.79-3.1829,3.76a18.9587,18.9587,0,0,1-4.0474,1.3938s3.9183-.1459,5.7824-1.4309A11.9119,11.9119,0,0,0,177.08,37.461Z" style="fill:#590800"/><path d="M168.4913,38.7944c.0671.2013-.9543.7231-2.2815,1.1655s-2.4574.6379-2.5245.4366.9544-.7231,2.2815-1.1655S168.4242,38.5931,168.4913,38.7944Z" style="fill:#fff"/><path d="M147.9824,42.1515s-4.2813.5733-7.384-1.0161a11.5391,11.5391,0,0,1-4.299-3.4438l-1.28-.86s1.7024,4.8337,6.2678,5.6722A14.6948,14.6948,0,0,0,147.9824,42.1515Z" style="fill:#7c1500"/><path d="M136.8619,37.9654c-.557-.8059,3.1177-4.3127,6.9867-3.195a10.4762,10.4762,0,0,1,5.9342,4.3334,18.9008,18.9008,0,0,1,.9728,2.4855s-2.2437,1.0617-7.1891.3826S136.8619,37.9654,136.8619,37.9654Z" style="fill:#fff"/><path d="M150.8241,41.3937s-1.4653-8.2647-5.7986-9.5231c-4.4554-1.294-8.6171,3.1153-8.6171,3.1153a21.527,21.527,0,0,1,7.89-.1236C147.8613,35.6689,150.8241,41.3937,150.8241,41.3937Z" style="fill:#7c1500"/><path d="M135.2569,35.2754a28.2034,28.2034,0,0,1,4.2288-2.5327,23.8283,23.8283,0,0,1,3.6487-1.1714,19.0114,19.0114,0,0,0-3.8618,2.228,18.9446,18.9446,0,0,0-1.6835,1.6515Z" style="fill:#590800"/><path d="M140.3082,38.4936a3.6263,3.6263,0,1,0,2.8257-4.28A3.6262,3.6262,0,0,0,140.3082,38.4936Z" style="fill:url(#Áåçûìÿííûé_ãðàäèåíò_5-2)"/><path d="M141.2574,37.8342a2.5641,2.5641,0,1,0,1.9981-3.0262A2.5641,2.5641,0,0,0,141.2574,37.8342Z" style="fill:#590800"/><path d="M150.8241,41.3937s-2.566-4.8669-5.9711-7.0126c-4.7266-2.9785-7.7437.4816-9.0513.7982a2.874,2.874,0,0,1-1.9725-.0584s1.39,2.4813,2.6442,2.8618,3.7545-4.17,7.6409-2.5411C148.1546,37.1347,150.8241,41.3937,150.8241,41.3937Z" style="fill:#590800"/><path d="M137.54,37.1273s1.2155,2.79,3.1829,3.76a18.9607,18.9607,0,0,0,4.0474,1.3938s-3.9183-.1459-5.7823-1.4309a11.9113,11.9113,0,0,1-3.0789-3.3892Z" style="fill:#590800"/><path d="M144.4977,38.7944c-.0671.2013.9544.7231,2.2815,1.1655s2.4574.6379,2.5245.4366-.9544-.7231-2.2815-1.1655S144.5648,38.5931,144.4977,38.7944Z" style="fill:#fff"/><path d="M178.8619,31.0323s-1.4106-2.7511-3.82-3.3813c-1.9281-.5042-7.373-1.4867-8.9314-1.8112a11.1684,11.1684,0,0,1-2.38-.724s.2788.9223.4372,1.4544l.1584.5322a12.3723,12.3723,0,0,1-1.1153-1.16c-.4927-.6-.8372-1.052-.8372-1.052a3.38,3.38,0,0,0,.3951,1.1883,8.2292,8.2292,0,0,1,.4988.86,5.6887,5.6887,0,0,1-1.3875-1.1556,8.3554,8.3554,0,0,0-.6509-.91,12.0006,12.0006,0,0,0,.6238,2.2627,5.194,5.194,0,0,0,1.87,1.89c.4623.1877,9.2646.2173,11.0307.3623A11.5981,11.5981,0,0,1,178.8619,31.0323Z" style="fill:#590800"/><path d="M134.8785,30.507s1.57-2.6633,4.0122-3.1507c1.9544-.39,7.4477-1.05,9.0224-1.2827a11.172,11.172,0,0,0,2.4188-.5827s-.3325.9042-.522,1.4262l-.19.5219a12.3741,12.3741,0,0,0,1.1817-1.0922c.5271-.57.8976-1.0009.8976-1.0009a3.38,3.38,0,0,1-.4643,1.163,8.2256,8.2256,0,0,0-.5486.8293,5.69,5.69,0,0,0,1.4531-1.072,8.3467,8.3467,0,0,1,.7034-.87,12.0012,12.0012,0,0,1-.7559,2.2221,5.194,5.194,0,0,1-1.9782,1.7764c-.4726.16-9.2614-.328-11.0329-.2872A11.5985,11.5985,0,0,0,134.8785,30.507Z" style="fill:#590800"/><path d="M151.2764,46.3985a1.9267,1.9267,0,0,0,1.2731,1.3987c1.2472.3514,1.7.1751,2.8057.4946a4.6082,4.6082,0,0,0,3.0837-.0869,18.2593,18.2593,0,0,0,2.498-.7769,4.0768,4.0768,0,0,0,.91-1.2876s.3238,2.0577-.6839,2.2052-2.2463,1.5327-4.2878,1.5306a26.9844,26.9844,0,0,1-4.6033-.9831C151.2887,48.6965,151.2764,46.3985,151.2764,46.3985Z" style="fill:#e16736"/><path d="M158.4473,49.5952a7.1733,7.1733,0,0,1,1.7445-1.1979,1.3958,1.3958,0,0,1,1.1021,0,6.6959,6.6959,0,0,1-1.1615.4747A13.3915,13.3915,0,0,0,158.4473,49.5952Z" style="fill:#590800"/><path d="M152.2718,48.8931a3.3882,3.3882,0,0,1,1.7481,0,7.0293,7.0293,0,0,1,1.3353.8284S152.5339,49.0123,152.2718,48.8931Z" style="fill:#590800"/><path d="M159.1566,45.8215c0,.35-1.506.633-3.3638.633s-3.3639-.2834-3.3639-.633,1.5061-.633,3.3639-.633S159.1566,45.4719,159.1566,45.8215Z" style="fill:#fff;opacity:0.5"/><path d="M160.7438,45.8215a.6025.6025,0,1,1-.5934-.4987A.5523.5523,0,0,1,160.7438,45.8215Z" style="fill:#fff;opacity:0.5"/><path d="M186.47,145.1167H130.1437s.1987-.7665.4732-1.9115a48.2617,48.2617,0,0,0,1.2964-7.4478c.1515-3.3122-.634-14.0342-.7381-16.2391-.0094-.3312-.0189-.795-.0284-1.3438-.01-.9275-.0189-2.0915-.01-3.2933.01-2.7633.0379-5.6686.0379-6.0376,0,.388.0473,3.35,1.552,4.6465,1.5993,1.3911,5.871,5.361,11.568,5.5124,5.6969.1609,14.2766,1.7744,25.4812.8281,11.1952-.9464,15.1319-11.0249,15.1319-11.0249a5.324,5.324,0,0,1,1.2208,3.7664c-.0567.3028-.1041.8044-.1514,1.4385-.2366,3.2932-.36,10.4192-.7571,15.4442-.3785,4.7507.6341,11.82,1.06,14.5358C186.3941,144.7,186.47,145.1167,186.47,145.1167Z" style="fill:#002;opacity:0.5"/><path d="M149.102,53.6033a27.9564,27.9564,0,0,1,7.3685-1.2911,25.7091,25.7091,0,0,1,7.5743,1.4168,65.8755,65.8755,0,0,1-7.5743.7494C154.239,54.4183,149.102,53.6033,149.102,53.6033Z" style="fill:url(#Áåçûìÿííûé_ãðàäèåíò_9)"/><path d="M148.7794,53.6033s3.3339,5.6616,8.13,5.6616,7.5681-5.6616,7.5681-5.6616-6.0011,1.5754-8.0069,1.3709S148.7794,53.6033,148.7794,53.6033Z" style="fill:url(#Áåçûìÿííûé_ãðàäèåíò_3)"/><path d="M147.0911,53.1925a91.1752,91.1752,0,0,0,9.3794.7689,89.6037,89.6037,0,0,0,10.2571-1.0449s-6.6771,2.09-9.8183,2.09A35.0136,35.0136,0,0,1,147.0911,53.1925Z" style="fill:#590800"/><path d="M178.5454,41.9432s4.3463-4.39,6.6821-3.3228c3.6746,1.6794-3.7577,15.84-6.5645,15.1855-1.66-.387-2.48-2.4634-2.48-2.4634Z" style="fill:#e16736"/><path d="M178.2011,49.2209a39.3692,39.3692,0,0,1,3.34-5.9606c1.7583-2.4137,3.1264-2.9066,3.1264-2.9066a8.8033,8.8033,0,0,0-4.5626,2.9551A10.3742,10.3742,0,0,0,178.2011,49.2209Z" style="fill:#d34d21"/><path d="M179.4125,45.8851a5.6348,5.6348,0,0,0,1.6736,1.9686c.9884.6073,1.8988-.6753,1.8988-.6753s-1.6527,2.367-2.6573,1.9011-1.2939-2.1-1.2939-2.1Z" style="fill:#d34d21"/><path d="M134.5465,41.9432s-4.3463-4.39-6.6821-3.3228c-3.6746,1.6794,3.7578,15.84,6.5645,15.1855,1.66-.387,2.48-2.4634,2.48-2.4634Z" style="fill:#e16736"/><path d="M134.8908,49.2209a39.3692,39.3692,0,0,0-3.34-5.9606c-1.7583-2.4137-3.1264-2.9066-3.1264-2.9066a8.8038,8.8038,0,0,1,4.5627,2.9551A10.3746,10.3746,0,0,1,134.8908,49.2209Z" style="fill:#d34d21"/><path d="M133.6794,45.8851a5.6348,5.6348,0,0,1-1.6736,1.9686c-.9884.6073-1.8988-.6753-1.8988-.6753s1.6527,2.367,2.6573,1.9011,1.2939-2.1,1.2939-2.1Z" style="fill:#d34d21"/><path d="M179.3628,41.398l-1.164,1.9116a54.4254,54.4254,0,0,0-2.0157-12.2741c-1.7886-5.801-7.9681-11.0437-7.9681-11.0437a.5676.5676,0,0,0-.0474.0568c-.01.0094-.0189.0283-.0378.0378a1.6863,1.6863,0,0,0-.1514.142,21.0041,21.0041,0,0,1-2.9716,1.8926c-1.9589,1.1072-7.3436,3.5393-12.6052,6.0566-2.6308,1.2681-5.2427,2.5456-7.372,3.6907-6.4067,3.4447-10.4854,10.0786-10.4854,10.0786l-2.063-1.59s-7.24-22.9676,2.3942-31.0115c.142-.1136.2745-.2271.4164-.3313,11.9522-9.3025,33.0935,2.3848,34.04,2.9148l.0379.0189s10.2867-.71,12.9364,4.3721C184.9462,21.4113,179.3628,41.398,179.3628,41.398Z" style="fill:url(#Áåçûìÿííûé_ãðàäèåíò_26)"/><path d="M168.2187,17.8334s-13.37-8.8822-24.6025-5.8855S130.53,31.6328,130.53,31.6328l.26,1.5472s3.0248-17.289,13.9808-19.4971S168.2187,17.8334,168.2187,17.8334Z" style="fill:#b26485;opacity:0.2"/><path d="M166.0883,18.4146s-11.1028-.7887-19.3282,2.5235-15.5268,14.5127-15.5268,14.5127l.6534,2.3159s7.2557-11.907,16.0957-15.5115A58.137,58.137,0,0,1,166.0883,18.4146Z" style="fill:#b26485;opacity:0.2"/><path d="M170.0454,19.0054s7.7321,1.7393,10.1728,4.1408a6.577,6.577,0,0,1,2.0849,5.16l-.53,2.7265s-.9351-6.1565-4.0413-8.4381A28.466,28.466,0,0,0,170.0454,19.0054Z" style="fill:#b26485;opacity:0.2"/><path d="M169.37,11.9479l-1.1545,8.0439a.5676.5676,0,0,0-.0474.0568c-.01,0-.0189.0188-.0378.0378a1.6863,1.6863,0,0,0-.1514.142,21.0041,21.0041,0,0,1-2.9716,1.8926c-1.9589,1.1072-7.3436,3.5393-12.6052,6.0566-6.0755-1.4006-14.81-13.41-17.11-19.1634,11.9522-9.3025,33.0935,2.3848,34.04,2.9148Z" style="fill:#b26485;opacity:0.2"/><path d="M127.3112,149.2891s6.5418.3758,7.7743.3878,3.321-2.503,3.321-2.503l-8.2581-2.0535Z" style="fill:#e16736"/><path d="M142.848,150.23c-.0357,1.1049-1.3483.0034-2.46-1.3584a12.5646,12.5646,0,0,0-2.6725-2.304c-.3386-.2406-1.4257-1.0782-1.5594-1.1762a13.84,13.84,0,0,1,1.7872,2.83c.4366,1.1228,1.2158,3.3634.4762,3.7466a.8579.8579,0,0,1-1.1406-.2495s.1567.4536-.661.47c-.5366.0109-1.6319-1.6015-2.6965-2.745-.4378-.47-1.6415-1.9936-1.6415-1.9936h-1.3633s1.2474,3.8673.998,4.4109c-.2584.5524-.7351.2437-1.6406-.9971a3.0613,3.0613,0,0,0-2.9663-1.5781,13.07,13.07,0,0,1-3.52-.1693,10.6,10.6,0,0,1-1.0783-.2674,9.8633,9.8633,0,0,1-3.1989-2.6376,7.5143,7.5143,0,0,1,2.7356-2.5663l.0445-.0268h.0178c.1783-.0178,1.4525-.1158,3.2169-.2138,3.8049-.2139,9.8821-.4456,12.1633.1426C139.72,144.0723,142.8658,149.5346,142.848,150.23Z" style="fill:url(#Áåçûìÿííûé_ãðàäèåíò_75-5)"/><path d="M156.4705,99.4482s1.18,13.758,1.2429,18.0165-.6754,17.1409-.6215,20.5574.08,7.653.08,7.653l1.881,0s.2747-23.4784-.1459-28.8015-.6-16.809-.6-16.809Z" style="fill:#002"/><path d="M128.2794,143.1767a11.6659,11.6659,0,0,0-4.4951.7287,4.9237,4.9237,0,0,0-1.2208.6908,13.2555,13.2555,0,0,0-3.0567,3.6245s-6.52.71-9.7567-3.5487c-2.1671-2.858-2.1009-10.0975-1.817-14.5547.1231-1.9117.2839-3.3122.3218-3.6435a.4308.4308,0,0,0,.0094-.0756h.0095c.2082.0188,2.7065.246,5.8389.6908,5.1292.7287,11.9617,2.044,13.1636,3.9651C129.2447,134.2055,128.2794,143.1767,128.2794,143.1767Z" style="fill:url(#Áåçûìÿííûé_ãðàäèåíò_79-8)"/><path d="M159.053,145.6748s-6.1991-6.8775-7.6238-6.378-3.45,3.7321-3.45,3.7321Z" style="fill:#e16736"/><path d="M145.8247,139.7335s-3.1012-.4515-3.8334-.0608-.9639.6825.1727,1.2057a5.9449,5.9449,0,0,0,2.673.3573Z" style="fill:url(#Áåçûìÿííûé_ãðàäèåíò_75-6)"/><path d="M148.076,138.8761a6.268,6.268,0,0,0-2.5569.4376c-.9676.5-3.7837,3.5474-3.9126,4.258s2.13.1671,2.9254-.4993S148.076,138.8761,148.076,138.8761Z" style="fill:url(#Áåçûìÿííûé_ãðàäèåíò_75-7)"/><path d="M151.3393,138.1106a6.3313,6.3313,0,0,0-3.03.23c-1.0866.5394-4.0554,4.7867-4.014,5.3321s1.9335.5847,2.8529-.5516S151.3393,138.1106,151.3393,138.1106Z" style="fill:url(#Áåçûìÿííûé_ãðàäèåíò_75-8)"/><path d="M204.94,145.3565c5.357-1.2351,13.569-6.6113,12.6349-9.2219-1.349-3.7736-11.743-5.5694-16.4994-4.965-3.9983.508-22.9766,7.7293-30.7782,10.0955a16.915,16.915,0,0,1-3.0493.7432c-1.6421.0757-4.926-1.1184-7.9366-2.3722a.0616.0616,0,0,1-.0153-.0086c-2.7988-1.1626-5.3628-2.3772-6.1551-2.6681-1.65-.6062-6.5941,5.9458-6.64,6.69-.0508.7448,2.8027-.2662,3.4519-1.349.6439-1.0873,1.0411-2.151,1.7208-2.51.68-.3539,6.7252,6.1352,8.552,7.3374,1.4009.9225,3.907-.2329,5.7214-.9945a9.9174,9.9174,0,0,1,1.3984-.5254c.6553-.1667,6.1749-.0294,12.8351.1042l.0484-.0036C189.829,145.9027,201.7829,146.0883,204.94,145.3565Z" style="fill:url(#Áåçûìÿííûé_ãðàäèåíò_75-9)"/><path d="M218.5791,138.0192c-.9463,2.1577-9.9366,10.0975-19.2769,9.3782-9.35-.71-23.9046,0-23.9046,0s-.3123-.7665-.8233-1.7223a9.4422,9.4422,0,0,0-2.4889-3.1986,9.0112,9.0112,0,0,0-3.1891-1.448s1.8927-.8989,4.6087-2.1576c.5677-.265,1.1829-.5394,1.8169-.8328,4.1261-1.9021,9.3783-4.249,12.8986-5.5929,6.6244-2.5172,11.3561-2.839,11.1952-3.6244s-4.1828-.7855-3.71-2.205,1.7412-1.8927,1.7412-3.0756c0-1.0694-6.88-5.3279-11.233-11.375a23.5005,23.5005,0,0,1-1.306-2.0063c-2.6308-4.5424-3.3784-17.3463-3.3027-26.5448.0379-5.0534.3218-9.0185.6814-9.927a.1336.1336,0,0,1,.0189-.0568,24.7316,24.7316,0,0,1,7.0124-.3881c2.3847.3029,5.1765,5.1576,8.006,11.2805,1.2776,2.7822,2.5646,5.82,3.8232,8.8009l.01.01c2.7538,6.53,5.3752,12.8229,7.4855,15.6146C213.8474,115.8465,219.5254,135.871,218.5791,138.0192Z" style="fill:url(#Áåçûìÿííûé_ãðàäèåíò_79-9)"/><path d="M201.1475,93.3236c-.369-.2461-9.2647-6.1417-17.829-9.1417-.5678-.2081-1.145-.3974-1.7129-.5678a23.2859,23.2859,0,0,0-6.6338-1.1639c-9.9366,0-12.35,4.5707-21.16,4.5707s-18.9362-9.5769-22.1537-9.3592c-.1515.01-.3029.0189-.4543.0378-3.1892.2177-7.495.6152-7.495.6152.8138-2.063,1.5047-3.3785,2.0346-3.634a6.5715,6.5715,0,0,1,5.65.1988s3.5582-.1136,7.4571-.5868a16.374,16.374,0,0,0,5.7348-1.533l1.7319-.0568c2.063.246,3.4257.4258,3.4257.4258l7.3585,3.2109,12.6755-4.4127a9.1837,9.1837,0,0,0,2.5551,1.3153c1.8927.7287,9.9744.3881,9.9744.3881a24.7316,24.7316,0,0,1,7.0124-.3881C192.7819,73.6776,197.1161,83.7561,201.1475,93.3236Z" style="fill:#002"/><path d="M142.0125,73.699s6.4192,14.41,10.796,19.6246,4.4722,6.0424,4.4722,6.0424a96.0055,96.0055,0,0,0,8.54-12.8335c2.839-5.62,6.5108-13.29,6.5108-13.29l-2.5574-1.32-7.8571,4.6134-10.6857-1.104L144.5848,72.76Z" style="fill:#728bff"/><path d="M150.5665,68.521,144.41,71.9221a18.6952,18.6952,0,0,0,2.6813,6.6244c2.1687,3.3122,6.7224,5.9146,6.7224,5.9146l2.657-8.3348S151.2825,72.5378,150.5665,68.521Z" style="fill:#b7efeb"/><path d="M163.537,68.521l6.2371,3.4011a18.6952,18.6952,0,0,1-2.6813,6.6244c-2.1687,3.3122-6.7224,5.9146-6.7224,5.9146l-2.657-8.3348S162.821,72.5378,163.537,68.521Z" style="fill:#b7efeb"/><path d="M144.41,83.5542s4.9288,7.0187,7.9256,10.8829,5.378,6.3878,5.378,6.3878,7.989-10.2126,10.1183-13.4065,5.5728-13.9365,5.5728-13.9365l-1.073-.24s-5.6039,10.2929-7.2206,13.7914c-1.1921,2.58-7.83,12.3324-7.83,12.3324l-10.78-16.3817Z" style="fill:#002"/><path d="M132.7227,74.8187s1.7111,10.7859,2.9729,20.407a153.7184,153.7184,0,0,1,1.213,18.4537l17.7137,1.2617s-5.6713-14.8851-7.5312-22.5544-7.0448-18.2683-7.0448-18.2683Z" style="opacity:0.67;fill:url(#Áåçûìÿííûé_ãðàäèåíò_91-3)"/><path d="M175.2826,73.6438a115.1873,115.1873,0,0,0-8.555,18.8485c-2.6945,7.7222-7.4909,22.4488-7.4909,22.4488l18.4132-1.38a70.2348,70.2348,0,0,1,.2366-19.2686c1.6407-9.621,3.3187-20.6487,3.3187-20.6487Z" style="opacity:0.67;fill:url(#Áåçûìÿííûé_ãðàäèåíò_91-4)"/><path d="M218.5791,138.0192c-.9463,2.1577-9.9366,10.0975-19.2769,9.3782-9.35-.71-23.9046,0-23.9046,0s-.3123-.7665-.8233-1.7223a9.4422,9.4422,0,0,0-2.4889-3.1986,9.0112,9.0112,0,0,0-3.1891-1.448s1.8927-.8989,4.6087-2.1576c0,0,7.9208,3.1986,20.29,3.0851,12.3592-.123,23.8383-4.9778,23.0149-6.7474-.8327-1.77-4.5045-3.4352-4.7316-5.8011-.2461-2.3658-2.8391-10.9964-4.9778-12.7756-2.12-1.77-8.7442-16.5609-12.6526-20.46s-4.1355-10.5233-4.1355-10.5233l7.0124-1.1261c1.2776,2.7822,2.5646,5.82,3.8232,8.8009l.01.01c2.7538,6.53,5.3752,12.8229,7.4855,15.6146C213.8474,115.8465,219.5254,135.871,218.5791,138.0192Z" style="fill:#002;opacity:0.5"/><path d="M131.1468,117.1619c-1.1261,4.3342-2.4415,9.2551-3.8705,13.8922,1.9684,3.1514,1.0031,12.1226,1.0031,12.1226a11.6659,11.6659,0,0,0-4.4951.7287,4.9237,4.9237,0,0,0-1.2208.6908s-.0094-.776-.1041-1.9305c-.2176-2.6781-.899-7.4382-2.9526-9.4255-2.9336-2.839-6.2079-5.3658-5.3941-6.1512.8044-.7855,6.1228-.3218,5.3941-2.6877s2.6214-3.7853,5.309-6.2268c2.6782-2.4416,6.331-17.3464,6.331-17.3464Z" style="fill:#002;opacity:0.5"/><path d="M131.1468,118.1745s5.1008-.3549,8.0581.5914,4.9647,1.96,8.8711,1.93,11.3394-.1953,14.3521-.37,9.1889-.3772,13.2109-.3772,10.1356-1.84,10.1356-1.84l-.05,1.2937s-8.9024,1.7288-10.6177,1.61-10.35.0116-12.6572.0058-13.0714.5857-15.3189.29-6.9793-1.5378-9.2268-1.8335-6.7569-.6506-6.7569-.6506Z" style="fill:#002"/><path d="M186.2271,73.1263s-2.1105,10.4279-2.978,16.0271a125.7957,125.7957,0,0,0-.9463,14.274s-.3943-15.1372,0-19.595a76.6254,76.6254,0,0,1,1.8745-10.1886Z" style="fill:#002"/><path d="M130.1437,74.3883s.634,8.0043,1.0031,13.8885,0,13.81,0,13.81,1.0115-16.0357.848-20.5569a45.1816,45.1816,0,0,0-.6019-6.65Z" style="fill:#002"/><path d="M182.7759,85.6441s6.4667,8.0044,9.5423,15.1808a32.7783,32.7783,0,0,0,8.8293,11.6715s-7.2324-10.35-8.1787-14.2542-9.4634-12.8939-9.4634-12.8939Z" style="fill:#002"/><path d="M131.6736,81.977s-4.4162,1.8327-6.4272,5.0566-4.6134,14.1856-5.56,16.3938a30.8,30.8,0,0,0-1.5336,5.3783s3.7447-5.0961,4.4135-7.9776,2.68-11.8135,4.2176-13.7945a16.9506,16.9506,0,0,1,4.8894-3.6371Z" style="fill:#002"/><path d="M131.6736,87.5367s-4.9,8.3988-4.3624,12.4207,4.3624-9.7,4.3624-9.7Z" style="fill:#002"/><path d="M134.3627,118.1233a87.0407,87.0407,0,0,1,0,8.8379c-.2444,5.0535-1.4273,10.2074-.5993,11.0609s2.4842-7.2424,2.2476-11.0609-.8676-7.786-.8676-7.786Z" style="fill:#002"/><path d="M181.2052,120.2274s-1.1894,9.5122-.7163,10.8272-4.2585,1.0784-5.4414-1.6424-3.5488-4.14-6.1512-5.56a5.5622,5.5622,0,0,1-2.9573-3.6251s8.1622.5495,8.8719.5495S181.2052,120.2274,181.2052,120.2274Z" style="fill:#002;opacity:0.5"/><path d="M168.8963,141.0285l3.0756-1.2065a35.0336,35.0336,0,0,1,4.6134,4.0842,27.6834,27.6834,0,0,1,3.04,3.33l-4.5777.2069Z" style="fill:url(#Áåçûìÿííûé_ãðàäèåíò_91-5)"/><path d="M119.5068,148.2207l-3.3609-.1312s1.2932-5.4876,5.7292-6.1974,6.5128,0,6.5128,0l.5256,1.2815s-4.0646-.0134-6.35,1.4226A7.8289,7.8289,0,0,0,119.5068,148.2207Z" style="fill:url(#Áåçûìÿííûé_ãðàäèåíò_91-6)"/><path d="M509.5309,64.4139c.3162-3.4282-25.109-2.1808-25.387,0s9.62,9.3991,13.0715,9.3716S509.4076,65.75,509.5309,64.4139Z" style="fill:#728bff"/><path d="M569.4637,140.2276c0,2.0576-13.2763,1.7141-19.259.5176-3.0823-.6127-5.3127-3.8672-7.4665-7.9164-2.0293-3.81-3.9917-8.3375-6.5475-12.0516-.5456-.7945-3.2451-1.6656-3.6567-2.3931-.0286-.067-.067-.134-.0957-.2011-1.8283-3.446-1.4933-10.5679-1.4933-10.5679V69.4883s.4595-.2585,1.1774-.5935a15.9926,15.9926,0,0,1,5.686-1.723c4.7288,0,12.693,20.3413,18.4365,34.7669v.0191c1.78,4.47,3.35,8.3759,4.5373,10.9222C565.8077,123.6489,569.4637,138.5524,569.4637,140.2276Z" style="fill:url(#Áåçûìÿííûé_ãðàäèåíò_79-10)"/><path d="M564.6016,139.204a79.8583,79.8583,0,0,0-10.3574-4.9489,26.6539,26.6539,0,0,0-11.506-1.4263c-2.0293-3.81-3.9917-8.3375-6.5475-12.0516-.5456-.7945-3.2451-1.6656-3.6567-2.3931-.0286-.067-.067-.134-.0957-.2011-1.6943-3.9342.5839-19.02.5839-19.02s5.2649,17.3834,15.9572,22.4951C559.49,126.6738,564.4484,138.802,564.6016,139.204Z" style="fill:#002;opacity:0.5"/><path d="M516.6743,69.2675l-6.3007-1.1611-27.2916.5805-6.1814.5806s12.4331,23.1617,22.0726,23.4158S516.6743,69.2675,516.6743,69.2675Z" style="fill:url(#Áåçûìÿííûé_ãðàäèåíò_49-2)"/><path d="M503.9456,68.2261s-5.4422,4.4068-7.1581,4.4068c-1.5688,0-6.5914-3.2706-6.5914-3.2706s1.6855-3.7446,1.7751-5.6655c.0064-.1729.0128-.365.0192-.5634v-.0065c.0513-1.4022.09-3.31.1089-4.2964.0064-.4034.0128-.6531.0128-.6531l9.4893-.461s.0063.0512.0192.1473c.0832.5506.3778,2.606.589,4.7638a16.0783,16.0783,0,0,0,.8837,3.5473H503.1A19.2757,19.2757,0,0,0,503.9456,68.2261Z" style="fill:#992e0e"/><path d="M503.0933,66.1748c-.1089.0192-.6217,3.22-5.8779,2.5689a19.8,19.8,0,0,1-5.8779-1.5728l.6529-4.044c.0513-1.4022.09-3.31.1089-4.2964l9.5213-.9668c.0832.5506.3778,2.606.589,4.7638A16.0783,16.0783,0,0,0,503.0933,66.1748Z" style="fill:#7c1500"/><path d="M515.4286,56.0217c-.7753,1.9465-6.9774,7.6563-12.58,10.057-.0089,0-.0177.0109-.0264.0109a11.5643,11.5643,0,0,1-4.4049,1.0813,19.7572,19.7572,0,0,1-5.6118-.8543c-6.22-1.8491-11.1532-6.1964-12.4218-8.0023-2.3786-3.3631-5.136-20.0058-4.96-26.4185.0088-.1947.0176-.3786.0264-.5624.3612-5.9368,7.8583-22.5471,21.3372-22.5471,13.9458,0,22.1741,14.9882,22.7643,21.4549C520.2123,37.5623,516.6,53.08,515.4286,56.0217Z" style="fill:url(#Áåçûìÿííûé_ãðàäèåíò_44)"/><path d="M503.3523,36.2853a61.3333,61.3333,0,0,0,9.3614,2.8467c4.841,1.0049,6.8307-4.4544,6.8307-4.4544l.9292-8.4635-8.5953-3.3654a9.6408,9.6408,0,0,0-5.721,3.1059C503.388,28.8516,503.3523,36.2853,503.3523,36.2853Z" style="fill:#992e0e;opacity:0.5"/><path d="M499.399,60.3737c.096-.0321.461-.1409,1.844-.5507-.2817.1153-.5634.2177-.8324.3009Z" style="fill:#e16736"/><path d="M515.4286,56.0217c-.7753,1.9465-6.9774,7.6563-12.58,10.057-.0089,0-.0177.0109-.0264.0109a13.0629,13.0629,0,0,0-1.8672.6776c1.85-.6744,8.5273-8.02,12.0159-16.5526,4.1318-10.0678,1.4448-21.5306-3.5767-25.9427-5.0039-4.4121-29.8914.3352-29.8914.3352-2.0086,4.2391-.7577,10.7924.5373,20.6439,1.1454,8.6944,10.58,18.8488,12.7654,21.0656-6.22-1.8491-11.1532-6.1964-12.4218-8.0023-2.3786-3.3631-5.136-20.0058-4.96-26.4185.0088-.1947.0294-.3784.0264-.5624-.2429-14.9211,2.6664-22.5471,21.3372-22.5471,18.1833,0,22.5776,6.9879,22.7643,21.4549C519.6464,37.5914,516.6,53.08,515.4286,56.0217Z" style="fill:#992e0e"/><path d="M486.74,23.1689s3.4586,7.8286,3.3979,7.7037.576,3.3991.576,3.3991l-.2121,2.3715s-5.2772,2.3732-8.1212,2.4532-5.1511,0-5.1511,0l-1.78-7.763a18.7592,18.7592,0,0,1,5.0542-10.2895C485.06,16.3025,486.74,23.1689,486.74,23.1689Z" style="fill:#992e0e;opacity:0.5"/><path d="M517.177,25.6087s-1.1291-3.9325-3.5679-4.57c-1.9516-.5105-7.7616-.3571-9.339-.6854a11.3066,11.3066,0,0,1-2.4094-.7329s.2822.9335.4426,1.4721l.16.5387a12.5145,12.5145,0,0,1-1.1289-1.174c-.4987-.6072-.8474-1.0647-.8474-1.0647a3.4223,3.4223,0,0,0,.4,1.2028,8.3207,8.3207,0,0,1,.5049.8706,5.76,5.76,0,0,1-1.4044-1.17,8.4567,8.4567,0,0,0-.6589-.9211,12.1371,12.1371,0,0,0,.6315,2.29,5.2556,5.2556,0,0,0,1.893,1.9127c.468.19,9.3777.22,11.1653.3668A11.7407,11.7407,0,0,1,517.177,25.6087Z" style="fill:#590800"/><path d="M477.7419,25.077s.8939-4.11,3.366-4.6035c1.9782-.3947,8.2337.3511,9.8277.1161a11.3018,11.3018,0,0,0,2.4483-.59s-.3366.9153-.5284,1.4436l-.1918.5283a12.5126,12.5126,0,0,0,1.1961-1.1055c.5335-.5769.9085-1.0131.9085-1.0131a3.4216,3.4216,0,0,1-.47,1.1772,8.3017,8.3017,0,0,0-.5552.8394,5.7587,5.7587,0,0,0,1.4708-1.0851,8.4473,8.4473,0,0,1,.7119-.8808,12.145,12.145,0,0,1-.7651,2.2492,5.2559,5.2559,0,0,1-2.0023,1.7981c-.4784.1622-9.3744-.3321-11.1676-.2907A11.74,11.74,0,0,0,477.7419,25.077Z" style="fill:#590800"/><path d="M491.6387,41.0153a2.1779,2.1779,0,0,0,1.4389,1.5809c1.4095.3971,1.921.1978,3.171.5589a5.2087,5.2087,0,0,0,3.4853-.0982,20.6213,20.6213,0,0,0,2.8232-.8781,4.6083,4.6083,0,0,0,1.0285-1.4552s.3659,2.3256-.773,2.4923-2.5388,1.7323-4.8462,1.73c-1.5576-.0015-4.0916-.8889-5.2027-1.1111S491.6387,41.0153,491.6387,41.0153Z" style="fill:#992e0e"/><path d="M499.7434,44.6282a8.1074,8.1074,0,0,1,1.9716-1.3539,1.5775,1.5775,0,0,1,1.2456,0,7.5673,7.5673,0,0,1-1.3127.5366A15.12,15.12,0,0,0,499.7434,44.6282Z" style="fill:#590800"/><path d="M492.7637,43.8347a3.8291,3.8291,0,0,1,1.9758,0,7.9391,7.9391,0,0,1,1.5091.9363S493.06,43.9694,492.7637,43.8347Z" style="fill:#590800"/><path d="M500.545,40.3632c0,.3951-1.7021.7154-3.8018.7154s-3.8019-.32-3.8019-.7154,1.7022-.7155,3.8019-.7155S500.545,39.968,500.545,40.3632Z" style="fill:#fff;opacity:0.5"/><path d="M502.3389,40.3632a.6809.6809,0,1,1-.6707-.5637A.6242.6242,0,0,1,502.3389,40.3632Z" style="fill:#fff;opacity:0.5"/><path d="M518.2613,35.0476s5.0227-6.3675,8.2269-5.3191c5.0407,1.6493-2.5679,21.2155-6.3256,20.7758-2.2228-.26-3.5975-2.848-3.5975-2.848Z" style="fill:#992e0e"/><path d="M518.8846,44.5916a51.6727,51.6727,0,0,1,3.4781-8.2673c1.938-3.4076,3.65-4.2522,3.65-4.2522a11.5572,11.5572,0,0,0-5.5162,4.527C518.3089,40.0271,518.8846,44.5916,518.8846,44.5916Z" style="fill:#831a0e"/><path d="M519.9733,40.0618a7.397,7.397,0,0,0,2.4731,2.3213c1.3788.6465,2.3774-1.1607,2.3774-1.1607s-1.8071,3.3311-3.1861,2.8715-1.9973-2.5483-1.9973-2.5483Z" style="fill:#831a0e"/><path d="M476.227,34.6092s-4.6177-5.854-7.5635-4.89c-4.6343,1.5163,2.3609,19.5048,5.8155,19.1006,2.0436-.2392,3.3075-2.6184,3.3075-2.6184Z" style="fill:#992e0e"/><path d="M475.654,43.3837a47.5145,47.5145,0,0,0-3.1977-7.6007c-1.7817-3.1328-3.3556-3.9093-3.3556-3.9093a10.6254,10.6254,0,0,1,5.0715,4.162A12.5207,12.5207,0,0,1,475.654,43.3837Z" style="fill:#831a0e"/><path d="M474.6531,39.2191a6.8011,6.8011,0,0,1-2.2737,2.1342c-1.2676.5943-2.1857-1.0671-2.1857-1.0671s1.6613,3.0625,2.9292,2.64,1.8362-2.3428,1.8362-2.3428Z" style="fill:#831a0e"/><path d="M510.6209,34.7323s-1.809,2.4963-4.3422,2.3682c-.1245-.0107-.2409-.0117-.3565-.0216a21.2149,21.2149,0,0,1-3.0542-.4237c-.5711-.13-.894-.2291-.894-.2291s.0661-.3526.2039-.9141c.0967-.3948.2276-.8763.3913-1.4266l.0008-.0089c.0508-.1748.1025-.3585.163-.5414.0007-.0089.01-.017.0112-.0259s.0111-.026.0119-.0348a.08.08,0,0,1,.0127-.0437l.0015-.0178a17.4894,17.4894,0,0,1,1.2769-3.0794c.1169-.2139.2331-.419.3662-.6136.7442-1.1544,1.6557-1.9629,2.7414-1.8786,2.8924.2216,3.37,4.8762,3.4451,6.4055C510.6183,34.5529,510.6209,34.7323,510.6209,34.7323Z" style="fill:#fff"/><path d="M509.0242,33.1394c-.0455,1.9988-1.2587,3.5923-2.71,3.5593s-2.59-1.68-2.5448-3.6791,1.2587-3.5923,2.71-3.5593S509.07,31.1406,509.0242,33.1394Z" style="fill:url(#Áåçûìÿííûé_ãðàäèåíò_80-3)"/><path d="M507.9073,33.1139c-.0262,1.1491-.7236,2.0652-1.5578,2.0462s-1.4892-.9659-1.463-2.115.7236-2.0652,1.5578-2.0462S507.9335,31.9648,507.9073,33.1139Z" style="fill:#590800"/><path d="M505.9706,33.4575a1.04,1.04,0,1,1-.9473-1.1254A1.04,1.04,0,0,1,505.9706,33.4575Z" style="fill:#fff"/><path d="M510.6209,34.7323s-.0026-.1794-.021-.4855c-.0945-1.2981-.6058-4.8358-3.3343-5.4016a2.6189,2.6189,0,0,0-2.4612,1.0158c-.1486.1664-.2981.3417-.44.5355a13.61,13.61,0,0,0-1.594,3.0164l-.0015.0178a.08.08,0,0,0-.0127.0437c-.0008.0088-.0112.0259-.0119.0348s-.01.017-.0112.0259c-.0679.1644-.1269.33-.1844.4769-.1985.5383-.3368,1.0012-.4362,1.3241l-.0008.0089c-.0882.2971-.13.4726-.13.4726s.02-.2312.0712-.6209l.0007-.0089c.0665-.46.1787-1.14.3518-1.9048a16.8365,16.8365,0,0,1,.8416-2.7048c.1342-.3109.2765-.6123.4359-.9031.744-1.3605,1.8014-2.4073,3.2867-2.3872C511.8287,27.347,510.6209,34.7323,510.6209,34.7323Z" style="fill:#992e0e"/><path d="M501.974,36.4261s1.7536-5.4929,4.3234-6.1778,4.3235,4.484,4.3235,4.484-.0092-6.1788-3.9141-5.89S501.974,36.4261,501.974,36.4261Z" style="fill:#590800"/><path d="M501.974,36.4261a35.0862,35.0862,0,0,0,5.6814-.6085c2.502-.5456,2.4236-1.0383,3.3193-1.1437a8.1519,8.1519,0,0,1,2.6344.5315s-3.4617,1.576-5.0765,2.2082S501.974,36.4261,501.974,36.4261Z" style="fill:#992e0e"/><path d="M483.8806,35.4924s2.2478,2.11,4.7112,1.5059c.12-.034.2343-.057.346-.0886a21.21,21.21,0,0,0,2.9193-.9926c.5364-.2352.8347-.3938.8347-.3938s-.1315-.3338-.3729-.8592c-.1694-.3694-.3889-.8175-.6536-1.327l-.0024-.0086c-.0829-.1621-.1683-.3327-.2622-.5009-.0025-.0086-.0135-.0147-.0159-.0233s-.0159-.0234-.0183-.0319a.0815.0815,0,0,0-.0207-.0406l-.0049-.0172a17.4948,17.4948,0,0,0-1.8352-2.783,7.1286,7.1286,0,0,0-.4756-.5333c-.9487-.9932-1.9965-1.6151-3.0467-1.3273-2.7986.7636-2.3893,5.4248-2.1738,6.9407C483.8492,35.3158,483.8806,35.4924,483.8806,35.4924Z" style="fill:#fff"/><path d="M485.2491,33.294c-.0567,1.9985,1.0735,3.652,2.5243,3.6931s2.6729-1.5457,2.73-3.5442-1.0735-3.652-2.5243-3.6931S485.3057,31.2954,485.2491,33.294Z" style="fill:url(#Áåçûìÿííûé_ãðàäèåíò_80-4)"/><path d="M486.3658,33.3256c-.0325,1.1489.6172,2.0995,1.4512,2.1231s1.5366-.8885,1.5692-2.0374-.6172-2.0995-1.4512-2.1232S486.3984,32.1767,486.3658,33.3256Z" style="fill:#590800"/><path d="M488.2066,33.3626a1.04,1.04,0,1,0,.7178-1.284A1.04,1.04,0,0,0,488.2066,33.3626Z" style="fill:#fff"/><path d="M483.8806,35.4924s-.0314-.1766-.071-.4807c-.1523-1.2926-.3181-4.8632,2.2545-5.934a2.6192,2.6192,0,0,1,2.6087.5329c.1774.1354.3573.2793.5333.4428a13.6155,13.6155,0,0,1,2.1348,2.6612l.0049.0172a.0815.0815,0,0,1,.0207.0406c.0024.0085.0158.0233.0183.0319s.0134.0147.0159.0233c.0976.1486.1867.3.271.4335.2966.4912.52.92.6784,1.218l.0024.0086c.1427.275.2171.44.2171.44s-.0632-.2233-.1872-.5964l-.0025-.0086c-.1521-.4393-.3906-1.086-.705-1.804a16.8345,16.8345,0,0,0-1.337-2.4973c-.19-.28-.3872-.5491-.5987-.8046-.9874-1.1956-2.2234-2.024-3.6783-1.7238C481.3,28.4679,483.8806,35.4924,483.8806,35.4924Z" style="fill:#992e0e"/><path d="M492.6918,35.5233s-2.8976-5.7143-5.9535-5.6791-2.8577,5.6482-2.8577,5.6482-1.1114-5.78,2.6821-6.8425S492.6918,35.5233,492.6918,35.5233Z" style="fill:#590800"/><path d="M492.6918,35.5233a19.87,19.87,0,0,1-5.7076.5878,26.7564,26.7564,0,0,1-3.1036-.6187c-.76-.1336-2.06.9337-2.06.9337s2.0886.5465,4.18.97C488.9512,37.9935,492.6918,35.5233,492.6918,35.5233Z" style="fill:#992e0e"/><path d="M520.0322,35.8953l-2.0485,3.7524s.1245-17.0963-.536-20.2743a11.2865,11.2865,0,0,0-3.0824-5.0925c-1.924-1.8954-4.5277-3.2451-7.275-2.4985-8.2035,2.24-12.6547,2.2592-18.81-.5839-2.1633-.9955-4.9489.46-7.8589,2.8717-.4211.3542-.8423.7276-1.2731,1.1105-3.36,3.044-2.6611,20.81-2.6611,20.81l-1.455-2.8238s-.8616-14.3873.1723-19.6234c.0574-.2968.1244-.5648.1914-.8041a12.9029,12.9029,0,0,1,5.8488-7.0357,30.3578,30.3578,0,0,1,15.23-3.9726c7.0453,0,14.0714,1.7039,18.7236,4.7575l.01.01c2.7377,1.8,4.6522,4.0587,5.2648,6.72a3.22,3.22,0,0,1,.067.3255C522.0616,20.8571,520.0322,35.8953,520.0322,35.8953Z" style="fill:url(#Áåçûìÿííûé_ãðàäèåíò_100)"/><path d="M475.2047,13.5438s1.8857.2489,5.2169.5264c-.4211.3542-.8423.7276-1.2731,1.1105-3.36,3.044-2.6611,20.81-2.6611,20.81l-1.455-2.8238S474.1708,18.78,475.2047,13.5438Z" style="fill:#31004f;opacity:0.2;mix-blend-mode:multiply"/><path d="M520.0322,35.8953l-2.0485,3.7524s.1245-17.0963-.536-20.2743a11.2865,11.2865,0,0,0-3.0824-5.0925c2.5367-.23,4.6235-.5074,6.1742-.7371C522.0616,20.8571,520.0322,35.8953,520.0322,35.8953Z" style="fill:#31004f;opacity:0.2;mix-blend-mode:multiply"/><path d="M515.2077,6.4985a36.5418,36.5418,0,0,1-16.8666,2.3548C488.338,8.03,480.4216,7.6376,480.4216,7.6376a7.0282,7.0282,0,0,1,.8233-1.9336,30.3578,30.3578,0,0,1,15.23-3.9726c7.0453,0,14.0714,1.7039,18.7236,4.7575Z" style="opacity:0.63;mix-blend-mode:color-dodge;fill:url(#Áåçûìÿííûé_ãðàäèåíò_15-4)"/><polygon points="497.524 72.977 496.467 72.633 494.414 78.818 495.929 81.53 494.414 95.251 500.955 95.251 497.684 81.69 499.104 78.85 497.524 72.977" style="fill:url(#Áåçûìÿííûé_ãðàäèåíò_3-2)"/><path d="M537.5691,145.6741l-78.73-.0282.217-1.5408c.2011-1.2636.9-5.7243,1.6944-11.42l.067-.4882c.9381-6.7868,2.01-15.23,2.5271-22.0643a74.162,74.162,0,0,0,.2776-9.2182c-.6605-11.0849-.2872-25.8838-.1819-29.55.0192-.5552.0288-.852.0288-.852l1.656-.22,14.9329-1.9911A133.6653,133.6653,0,0,0,489.3721,82.89a59.7847,59.7847,0,0,0,8.3089,8.96,36.0667,36.0667,0,0,0,9.18-9.6011,116.112,116.112,0,0,0,6.5667-13.5737s8.1748.8137,11.573.8137a65.9375,65.9375,0,0,0,7.1218-.5935c1.4551-.1819,2.4984-.3446,2.4984-.3446s-.7275,9.4671-1.2635,19.6425c-.23,4.4034-.4212,8.9311-.4978,12.8845a117.6118,117.6118,0,0,0,.6414,12.3867c1.2061,13.1428,3.7524,30.2862,4.0682,32.21Z" style="fill:url(#Áåçûìÿííûé_ãðàäèåíò_79-11)"/><path d="M537.8115,145.6234l-78.9722.0225.217-1.5408,1.6944-11.42.067-.4882s25.3,6.5284,37.945,2.7186,34.7382-21.4517,34.7382-21.4517c1.2061,13.1428,3.7236,28.8894,4.0395,30.8135Z" style="fill:#002;opacity:0.5"/><path d="M462.6558,117.4966s9.9008,4.1581,31.7578,8.6252,32.9849,8.1764,32.9849,8.1764l2.6849,11.2241-71.2441.1236Z" style="opacity:0.63;mix-blend-mode:color-dodge;fill:url(#Áåçûìÿííûé_ãðàäèåíò_15-5)"/><path d="M465.1253,70.2924l-.8807.23v40.7625a9.62,9.62,0,0,0-1.1823,2.1793c-.6126,1.4549-1.1374,4.8914-2.6307,7.074-5.2648,7.6579-8.8221,21.4433-14.8048,22.64s-24.5871,3.9775-24.6773,2.3048c-.384-7.1238,8.4324-21.8336,13.4579-32.6025,4.5373-9.7256,14.55-39.1416,21.021-44.77a3.1671,3.1671,0,0,1,1.9528-.9381C460.0136,67.1718,465.1253,70.2924,465.1253,70.2924Z" style="fill:url(#Áåçûìÿííûé_ãðàäèåíò_79-12)"/><path d="M556.2449,101.9387v.0191s-12.2718-8.6917-22.8876-13.7651c-.8233-.3924-1.6273-.7658-2.4123-1.1008a40.9531,40.9531,0,0,0-4.9393-1.8283c-11.171-3.1781-15.4786-3.9725-15.4786-3.9725s-6.8251,8.9119-9.5724,11.3911a18.5125,18.5125,0,0,1-4.1161,3.0823s-9.5245-9.4479-13.3535-15.3732c-3.829-5.9158-4.6713-8.0792-6.5858-8.6726-1.9049-.5935-10.6062.9572-12.6547,0-.22-.1053-.4882-.22-.8041-.3542-2.6228-1.1391-8.0121-3.2546-8.0121-3.2546a3.1671,3.1671,0,0,1,1.9528-.9381c2.6324,0,7.7441,3.1206,7.7441,3.1206l14.9329-1.9911A133.6653,133.6653,0,0,0,489.3721,82.89a59.7847,59.7847,0,0,0,8.3089,8.96,36.0667,36.0667,0,0,0,9.18-9.6011,116.112,116.112,0,0,0,6.5667-13.5737s8.1748.8137,11.573.8137a65.9375,65.9375,0,0,0,7.1218-.5935,15.9926,15.9926,0,0,1,5.686-1.723C542.5372,67.1718,550.5014,87.5131,556.2449,101.9387Z" style="fill:#002"/><path d="M496.3266,95.2508s1.0283,16.6719,1.153,26.4039.2046,22.8142.2046,22.8142h1.356s-.7945-26.5634-.7562-30.7115-.6006-18.9055-.6006-18.9055Z" style="fill:#002"/><path d="M465.1253,70.2924s1.13,21.289,1.13,30.3828S465.69,116.23,465.69,116.23l27.1282.9572s-5.4938-22.4592-8.8545-31.9192A103.149,103.149,0,0,0,477.47,70.2924Z" style="opacity:0.6900000000000001;fill:url(#Áåçûìÿííûé_ãðàäèåíò_91-7)"/><path d="M515.9515,71.7187s-3.4,10.53-7.1793,20.9667c-3.59,9.9142-6.5412,24.5021-6.5412,24.5021l24.6119-1.5954s.4359-16.4326,1.2336-28.3981a156.8725,156.8725,0,0,1,1.7549-16.9016Z" style="opacity:0.6900000000000001;fill:url(#Áåçûìÿííûé_ãðàäèåíò_91-8)"/><path d="M465.1253,73.3311s-8.0882.4419-10.14,1.409-14.4961,31.4392-14.177,32.7155,13.4013-28.079,15.4754-30.153S465.35,74.74,465.35,74.74Z" style="fill:#002"/><path d="M465.4636,76.9676s-5.9758,4.2469-8.05,7.5972-15.9675,40.2807-15.9675,40.2807,14.04-27.75,15.954-31.1055,8.2973-11.4917,8.2973-11.4917Z" style="fill:#002"/><path d="M538.0015,84.1531s5.6776,10.37,11.102,18.5067a139.3331,139.3331,0,0,1,9.9153,18.4284s-8.0008-18.9071-10.2344-24.3314S538.0015,84.1531,538.0015,84.1531Z" style="fill:#002"/><path d="M462.7525,116.5859s27.9451,1.3393,34.6348.9107,19.59-1.4491,25.4643-.9107a36.1109,36.1109,0,0,0,11.11-.8342v1.4358s-29.6407,2.5558-36.5287,1.9959-28.067-1.8343-29.8618-1.6758a45.8448,45.8448,0,0,1-4.9152-.011Z" style="fill:#002;opacity:0.5"/><path d="M472.25,117.6342s-1.5695,7.29-2.286,11.3322-5.7766,16.6814-5.7766,16.6814l-5.3482-.0019,3.8165-28.1493Z" style="fill:#002;opacity:0.5"/><path d="M480.3741,117.5076s.12,4.4661,0,8.7737-1.4359,11.9133,0,14.1858,2.0341-7.7921,1.6751-10.3907-.3727-11.9371-.3727-11.9371Z" style="fill:#002;opacity:0.5"/><path d="M509.6781,117.5076a94.6347,94.6347,0,0,0-1.48,13.19c-.1838,6.4719,1.986,10.3334,3.7648,10.8991s1.1965-8.27,0-12.6307a36.62,36.62,0,0,1-.8179-10.1179Z" style="fill:#002;opacity:0.5"/><path d="M532.5329,141.9984s-9.6229.5527-11.4361.57-4.8851-3.6819-4.8851-3.6819l12.1477-3.0206Z" style="fill:#992e0e"/><path d="M569.4637,140.2276s-8.155-6.8749-14.4607-8.99c-7.7124-2.5865-12.4709-.3486-18.8088,1.8131l9.2253,13.43S568.5527,153.0969,569.4637,140.2276Z" style="fill:url(#Áåçûìÿííûé_ãðàäèåíò_79-13)"/><path d="M537.716,141.7435c2.74,2.923,6.2394,5.3218,7.7074,4.7319,1.8745-.7341,1.0355-5.3742-1.4156-9.0051a11.0553,11.0553,0,0,0-4.0242-3.7751l-.0655-.0394h-.0261a6.0462,6.0462,0,0,0-3.6965-.6029,4.0653,4.0653,0,0,0-1.0355.2884C532.5122,134.5472,534.6488,138.4665,537.716,141.7435Z" style="fill:#000d22"/><path d="M509.6782,143.3819c.0525,1.6254,3.028.8389,4.0635-1.219a13.4411,13.4411,0,0,1,3.4867-4.1684c.4981-.3538,2.0973-1.586,2.2939-1.73A20.071,20.071,0,0,0,516.35,140.59c-.6423,1.6516-1.2453,4.7843-.1573,5.3479a1.2619,1.2619,0,0,0,1.6778-.367,2.0917,2.0917,0,0,0,1.8875.8914c1.18-.1573,3.3556-2.9493,3.7358-3.8144s1.73-3.3556,1.73-3.3556H527.23s-1.8351,5.6888-1.4681,6.4883c.38.8127,2.4381.5506,3.0411-1.5073.59-2.058,1.8351-2.4381,3.7357-2.2808a19.2177,19.2177,0,0,0,5.1776-.249,15.5748,15.5748,0,0,0,1.5861-.3933c1.4549-.4588,3.4605-2.4774,4.7057-3.88a11.0553,11.0553,0,0,0-4.0242-3.7751l-.0655-.0394h-.0261c-.2622-.0261-2.1366-.17-4.732-.3145-5.5971-.3146-14.5366-.6554-17.8922.21C514.2791,134.3244,509.6521,142.36,509.6782,143.3819Z" style="fill:url(#Áåçûìÿííûé_ãðàäèåíò_44-2)"/><path d="M490.2479,49.5393a10.4067,10.4067,0,0,1,7.2273-2.82c5.5361,0,7.4591,2.5833,7.4591,2.5833S494.0684,50.1971,490.2479,49.5393Z" style="fill:#992e0e"/><path d="M490.2479,52.7454s3.0508,4.6454,7.3922,4.6454a7.3454,7.3454,0,0,0,6.2538-3.4732,8.7328,8.7328,0,0,1-6.2538,2.6049C493.1132,56.5225,490.2479,52.7454,490.2479,52.7454Z" style="fill:#992e0e"/><path d="M489.3714,49.89s2.305,6.6326,8.2687,6.6326,7.9389-6.7417,7.9389-6.7417-5.59,1.21-8.8324.9041S489.3714,49.89,489.3714,49.89Z" style="fill:#fc9365"/><path d="M488.8834,49.5152s4.5114.226,8.1368.0666,9.3767-.2792,9.3767-.2792v.2835a37.8964,37.8964,0,0,1-9.65,1.0988,40.6334,40.6334,0,0,1-7.8632-.9038Z" style="fill:#590800"/><path d="M484.1439,64.4139,481.9,68.3022a65.6614,65.6614,0,0,0,6.581,8.9206c3.59,3.9486,5.5706,5.0255,5.5706,5.0255l2.7922-9.8117Z" style="fill:#b7efeb"/><path d="M509.5309,64.4139l2.2444,3.8883a65.6614,65.6614,0,0,1-6.581,8.9206c-3.59,3.9486-5.5706,5.0255-5.5706,5.0255l-2.7922-9.8117Z" style="fill:#b7efeb"/><path d="M466.3033,149.0387c-5.5573-.881.3238-16.6751,4.3847-17.5849S472.0542,149.95,466.3033,149.0387Z" style="fill:#000d22"/><path d="M529.736,104.1064l-.22.7529-14.8781,50.5422-29.1459-4.32-2.79-.4073.041-.28c.4638-2.7746,4.1558-25.0375,4.7542-27.86.6-2.8707,1.6459-21.76,1.7354-23.5328l.0118-.13Z" style="fill:url(#Áåçûìÿííûé_ãðàäèåíò_49-3)"/><path d="M529.736,104.1064l-.2091.756-.0113-.0031-37.3282-4.5551-6.6958,50.7769-2.79-.4073.041-.28c.4638-2.7746,4.1558-25.0375,4.7542-27.86.6-2.8707,1.6459-21.76,1.7354-23.5328l.0118-.13Z" style="fill:#b7efeb"/><path d="M503.1639,135.6243c-1.27.3775-6.7955.987-6.7955.987s4.2723-.0268,6.5174-.1953,5.4724-2.3175,6.1094-.3569c.3043.9365-4.4074,3.178-6.7149,3.5722-2.3106.4055-11.0455,1.84-18.3144-.2923-5.0329-1.477-11.6214-3.2143-13.6836-3.6632l-.0257.005a11.9962,11.9962,0,0,0-3.1942.8777.42.42,0,0,1-.1347.0478c-10.0192,3.5084-38.6459,14.0734-45.7021,11.6116,0,0,1.58-15.3615,9.6342-17.1663,3.2759-.7337,8.8331-.5813,14.7478-.1843,10.1366.6781,21.3506,2.1157,24.0145,1.0913,4.18-1.5887,9.89-8.4874,12.3493-9.0341,2.467-.5322,5.7244-1.1328,5.7244-1.1328l-.7645,3.4886-3.9106,1.36s7.8993.3062,13.8007.1629c6.5028-.1579,11.09-2.1085,12.4774-1.239,1.384.8808-6.5827,4.0823-8.4364,4.5048-1.488.3294-5.2444,1.088-5.2444,1.088a53.7986,53.7986,0,0,0,8.2065-.5116c2.6807-.5582,6.266-3.1132,7.4464-2.726,1.1691.3841-.69,2.4935-.69,2.4935a2.775,2.775,0,0,1-.5084,2.0579C509.3562,133.3046,504.4261,135.2325,503.1639,135.6243Z" style="fill:url(#Áåçûìÿííûé_ãðàäèåíò_22)"/><path d="M466.9277,136.6063c-10.0192,3.5084-38.6459,13.6938-45.7021,11.232,0,0,1.58-14.9819,9.6342-16.7867,3.2759-.7337,8.8331-.5813,14.7478-.1843-.4881.0958-8.4541,1.67-12.3454,5.112-4.016,3.5412-2.38,8.3419-.2815,8.9224C434.6844,145.3729,458.0942,139.0336,466.9277,136.6063Z" style="fill:#992e0e"/><polygon points="485.861 125.652 484.425 122.42 487.696 121.792 486.931 125.28 485.861 125.652" style="fill:#992e0e"/><path d="M470.688,131.4538s-3.4528,6.7912-4.3847,10.1693a17.5926,17.5926,0,0,0,0,7.4156s-35.7669,3.9318-40.5784,2.0424c-5.1218-2.0112-5.1594-3.9092-5.1594-3.9092s-.3886-12.738,9.51-16.6365S470.688,131.4538,470.688,131.4538Z" style="fill:url(#Áåçûìÿííûé_ãðàäèåíò_79-14)"/><path d="M420.95,145.4825s5.583-15.6814,17.8113-15.9276,20.0785.4116,20.0785.4116-10.4955,2.3707-15.808,6.9292-9.7407,9.2668-13.648,9.5826A27.739,27.739,0,0,1,420.95,145.4825Z" style="opacity:0.47000000000000003;mix-blend-mode:color-dodge;fill:url(#Áåçûìÿííûé_ãðàäèåíò_14-2)"/><path d="M515.6564,33.3678a7.0436,7.0436,0,0,1-6.8768,7.054,1.1339,1.1339,0,0,1-.1875.01,6.8751,6.8751,0,0,1-2.9592-.6564,7.0111,7.0111,0,0,1-3.98-5.0952,6.8422,6.8422,0,0,1-.1251-1.3128,7.07,7.07,0,0,1,7.0645-7.0644,1.5739,1.5739,0,0,1,.3126.0209A7.0358,7.0358,0,0,1,515.5,31.8882,6.9211,6.9211,0,0,1,515.6564,33.3678Z" style="fill:#fff;opacity:0.2"/><path d="M508.5962,25.1056a8.2629,8.2629,0,1,0,8.2628,8.2628A8.2628,8.2628,0,0,0,508.5962,25.1056Zm0,15.3282a7.0653,7.0653,0,1,1,7.0653-7.0654A7.0654,7.0654,0,0,1,508.5962,40.4338Z" style="fill:#590800"/><path d="M515.5,31.8882,508.78,40.4218a1.1339,1.1339,0,0,1-.1875.01,6.8751,6.8751,0,0,1-2.9592-.6564l4.3241-7.7-5.96,6.658a7.0438,7.0438,0,0,1-2.3444-4.0532l7.252-8.3563A7.0358,7.0358,0,0,1,515.5,31.8882Z" style="opacity:0.47000000000000003;mix-blend-mode:color-dodge;fill:url(#Áåçûìÿííûé_ãðàäèåíò_14-3)"/><path d="M494.3166,33.3678a7.0437,7.0437,0,0,1-6.8768,7.054,1.1352,1.1352,0,0,1-.1876.01,6.8746,6.8746,0,0,1-2.9591-.6564,7.0108,7.0108,0,0,1-3.98-5.0952,6.8422,6.8422,0,0,1-.125-1.3128,7.07,7.07,0,0,1,7.0644-7.0644,1.5729,1.5729,0,0,1,.3126.0209,7.0358,7.0358,0,0,1,6.5955,5.5639A6.9211,6.9211,0,0,1,494.3166,33.3678Z" style="fill:#fff;opacity:0.2"/><path d="M487.2563,25.1056a8.2629,8.2629,0,1,0,8.2629,8.2628A8.2628,8.2628,0,0,0,487.2563,25.1056Zm0,15.3282a7.0653,7.0653,0,1,1,7.0653-7.0654A7.0653,7.0653,0,0,1,487.2563,40.4338Z" style="fill:#590800"/><path d="M494.16,31.8882,487.44,40.4218a1.1352,1.1352,0,0,1-.1876.01,6.8746,6.8746,0,0,1-2.9591-.6564l4.3241-7.7-5.96,6.658a7.0438,7.0438,0,0,1-2.3444-4.0532l7.252-8.3563A7.0358,7.0358,0,0,1,494.16,31.8882Z" style="opacity:0.47000000000000003;mix-blend-mode:color-dodge;fill:url(#Áåçûìÿííûé_ãðàäèåíò_14-4)"/><polygon points="494.982 33.368 500.545 33.378 500.997 34.12 494.982 34.662 494.982 33.368" style="fill:#590800"/><polygon points="516.212 33.079 521.042 31.462 520.902 32.554 516.212 34.915 516.212 33.079" style="fill:#590800"/><polygon points="474.1 32.039 474.1 31.052 479.701 31.052 479.701 32.788 474.1 32.039" style="fill:#590800"/><polygon points="431.02 139.196 391.934 123.258 396.087 112.715 384.571 107.353 371.508 132.599 385.659 139.189 390.872 125.954 426.432 145.475 429.727 145.541 431.281 142.206 431.02 139.196" style="fill:url(#Áåçûìÿííûé_ãðàäèåíò_23)"/><polygon points="376.804 122.364 389.708 128.373 392.687 121.345 380.313 115.583 376.804 122.364" style="fill:url(#Áåçûìÿííûé_ãðàäèåíò_51-7)"/><path d="M372.1919,131.2778s8.668,3.0853,11.5377,2.3633,9.43-22.289,9.43-22.289l2.9278,1.3634-4.1528,10.5425,7.81,3.1849,1.485,5.1971-10.3576-5.6857-5.2132,13.2347-14.1506-6.59Z" style="fill:#7c0200;opacity:0.42;mix-blend-mode:multiply"/><polygon points="373.753 133.644 387.519 108.726 384.571 107.353 371.508 132.599 373.753 133.644" style="opacity:0.53;mix-blend-mode:color-dodge;fill:url(#Áåçûìÿííûé_ãðàäèåíò_98-3)"/><polygon points="395.516 112.45 395.126 110.435 388.192 107.353 385.362 107.721 395.516 112.45" style="fill:url(#Áåçûìÿííûé_ãðàäèåíò_51-8)"/><polygon points="372.41 133.019 372.673 135.38 380.898 138.621 384.979 138.381 372.41 133.019" style="fill:url(#Áåçûìÿííûé_ãðàäèåíò_51-9)"/><polygon points="338.027 145.633 343.07 134.599 388.435 136.9 391.338 145.652 338.027 145.633" style="fill:url(#Áåçûìÿííûé_ãðàäèåíò_23-2)"/><polygon points="338.027 145.633 349.193 145.652 352.916 136.28 389.505 140.126 388.435 136.9 343.07 134.599 338.027 145.633" style="opacity:0.53;mix-blend-mode:color-dodge;fill:url(#Áåçûìÿííûé_ãðàäèåíò_98-4)"/><polygon points="426.432 145.475 431.02 139.196 431.281 142.206 429.727 145.541 426.432 145.475" style="fill:url(#Áåçûìÿííûé_ãðàäèåíò_51-10)"/><polygon points="53.944 146.225 53.944 161.311 603.086 158.491 603.086 150.008 53.944 146.225" style="fill:url(#Áåçûìÿííûé_ãðàäèåíò_34)"/><polygon points="603.086 150.008 603.086 145.111 57.448 144.958 53.944 146.225 603.086 150.008" style="fill:#5b1800"/></g></g></g></svg>