<svg xmlns="http://www.w3.org/2000/svg" viewBox="0 0 1163.48 1238.8574"><g id="Layer_2" data-name="Layer 2"><g id="Illustration"><g id="lawyer"><path d="M1064.544,126.0421A96.3269,96.3269,0,0,0,1048.19,127.22a74.45,74.45,0,0,0,2.9751-19.7974C1051.9479,49.2379,984.3627,1.1524,900.21.02c-66.3475-.8925-123.1748,27.6708-144.64,68.3111a96.1415,96.1415,0,0,0-46.915-12.9339C653.2364,54.652,607.6767,101.2154,606.894,159.4c-.4564,33.921,14.411,64.2983,37.8675,83.8865-15.2016,12.083-24.5033,27.9214-24.738,45.37-.522,38.804,43.98,70.8654,99.3979,71.6109,19.9536.2684,38.6011-3.56,54.3213-10.3809,15.5663,45.7444,67.3792,46.0074,104.8839,31.7835a96.2005,96.2005,0,0,0,48.4772,13.8544c43.279.5822,80.5452-27.6894,95.1674-67.8158a95.9492,95.9492,0,0,0,39.4383,9.0382c55.4179.7455,100.9776-45.8179,101.76-104.0021S1119.9619,126.7876,1064.544,126.0421Z" style="fill:#c5c5be"/><path d="M1038.973,128.3328a83.2628,83.2628,0,0,0-14.138,1.018,64.3608,64.3608,0,0,0,2.572-17.115c.6766-50.3006-57.7511-91.8708-130.502-92.8495C839.5472,18.6147,790.42,43.3078,771.8627,78.4416A83.1152,83.1152,0,0,0,731.3044,67.26c-47.9091-.6445-87.2957,39.61-87.9723,89.91a92.5828,92.5828,0,0,0,32.7367,72.52c-13.1419,10.4459-21.1833,24.1382-21.3862,39.2224-.4513,33.5462,38.0209,61.2635,85.93,61.908a114.7069,114.7069,0,0,0,46.9611-8.9744c13.4571,39.5463,58.25,39.7737,90.6727,27.477a83.1663,83.1663,0,0,0,41.9088,11.9773c37.415.5033,69.6318-23.9377,82.2728-58.6272a82.9475,82.9475,0,0,0,34.0946,7.8136c47.9091.6445,87.2957-39.61,87.9724-89.91S1086.8821,128.9773,1038.973,128.3328Z" style="fill:#fff"/><g id="Balance_Scale_Justice" data-name="Balance Scale Justice"><path d="M869.252,210.7309c.4175,4.8437,5.7831,4.7865,6.3412-.0676s-.2427-100.7278-.9041-105.569-5.796-5.9984-6.3411.0676S868.8345,205.8871,869.252,210.7309Z" style="fill:#634425"/><path d="M864.0441,275.3659c.9991,3.68,15.0757,3.53,16.636-.1773s.9507-60.91-.6882-64.5832-15.0856-4.4529-16.636.1773S863.045,271.6856,864.0441,275.3659Z" style="fill:#886338"/><path d="M872.2837,253.6743c.3079,1.95,4.5187,1.9049,4.9764-.0531s.1352-32.227-.3641-34.1748-4.524-2.3931-4.9764.053S871.9758,251.7245,872.2837,253.6743Z" style="fill:#b89274"/><path d="M863.3558,210.7827c.3512-1.0487,15.71-3.3347,15.71-3.3347a17.0889,17.0889,0,0,1,1.087,4.9331c-.0045.6015-14.2115,2.1355-14.2139,2.7591-.0706,18.3742.6628,46.5947,1.35,49.1249.7828,2.8834,9.5926,3.4153,14.1214,1.7275-.145,4.917-.3841,8.3737-.73,9.196-1.56,3.7075-15.6369,3.8575-16.636.1772S861.8054,215.4128,863.3558,210.7827Z" style="fill:#634425"/><path d="M861.0471,211.3427c1.2321.3914,19.24.2,21.2821-.2268s1.9753-6.6958-.0754-7.0785-19.2411-.3006-21.2821.2268S859.815,210.9513,861.0471,211.3427Z" style="fill:#886338"/><path d="M866.1674,207.6517c.8676.1561,13.5656.0208,15.0068-.16s1.4139-2.7434-.0308-2.8933-13.566-.0622-15.0068.16S865.3,207.4956,866.1674,207.6517Z" style="fill:#b89274"/><path d="M986.1156,227.6149a.8494.8494,0,0,0,.8493-.8493v-82.988a.8493.8493,0,1,0-1.6985,0v82.988A.8493.8493,0,0,0,986.1156,227.6149Z" style="fill:#886338"/><path d="M946.9869,223.9753a.8494.8494,0,0,0,.7624-.474l39.1281-79.3481a.8493.8493,0,0,0-1.5235-.7512L946.2258,222.75a.85.85,0,0,0,.7611,1.2251Z" style="fill:#886338"/><path d="M1025.2444,223.6113a.85.85,0,0,0,.76-1.2265l-39.1281-78.9842a.8493.8493,0,1,0-1.5221.754l39.1281,78.9842A.85.85,0,0,0,1025.2444,223.6113Z" style="fill:#886338"/><path d="M943.4832,221.3555c1.5338-.891,84.393-1.46,85.3534-.1282S1025.675,233.7419,1017.06,234.7c-14.4924,1.6121-47.1829,1.2893-61.7532.0876C948.5108,234.2272,941.9494,222.2466,943.4832,221.3555Z" style="fill:#886338"/><path d="M943.4832,221.3555c1.5338-.891,2.1631,12.69,75.3236,8.5039.96,1.3318,4.1858,3.2759-1.7466,4.8408-14.4924,1.6121-47.1829,1.2893-61.7532.0876C948.5108,234.2272,941.9494,222.2466,943.4832,221.3555Z" style="fill:#634425"/><path d="M1026.949,223.2471s-1.6986,2.6692-6.7944,3.8825c-2.7291.4719-59.2256-2.0456-60.131-3.64s41.666-.78,41.666-.78S1027.3106,221.6871,1026.949,223.2471Z" style="fill:#ac9274"/><path d="M906.7524,96.9136c15.3013,9.7844,24.2568,34.2648,39.4693,44.3317,9.71,6.4011,25.9309,13.2445,35.0811-.194,1.4128-2.0749,4.1209-1.9852,5.6252.2624,1.041,3.2824-.2362,4.5888-1.7791,6.8582-3.6325,5.343-12.3871,8.6335-19.5535,7.1593-19.356-3.7194-32.7161-20.0829-47.8687-33.102-19.066-16.3813-33.3891-9.1547-36.8508-10.2618s-1.902-7.9646,1.36-13.9021C887.7247,91.9949,898.1144,91.39,906.7524,96.9136Z" style="fill:#886338"/><path d="M919.3577,112.06s-7.72-10.2009-13.2526-13.7283-12.83-4.2882-14.4951-3.554c-5.6922,2.7881,12.7028,7.2481,12.7028,7.2481S910.0266,103.1662,919.3577,112.06Z" style="fill:#b89274"/><path d="M904.6585,108.1782c18.4924,7.9642,25.7806,25.8,40.9931,35.8668,9.71,6.4011,31.7317,16.62,41.2764-2.7313,1.041,3.2824-.2362,4.5888-1.7791,6.8582-3.6325,5.343-12.3871,8.6335-19.5535,7.1593-19.356-3.7194-32.7161-20.0829-47.8687-33.102-19.066-16.3813-33.3891-9.1547-36.8508-10.2618-.3184-.647,1.3911-14.371,3.8845-15.8539.2584-.1537,2.8661-1.078,2.8661-1.078.2188,3.1152-1.8232,12.2449-1.4172,12.0761C890.3092,105.4072,896.6155,104.7143,904.6585,108.1782Z" style="fill:#634425"/><path d="M755.32,178.8984a.8494.8494,0,0,1-.8493-.8493V95.0611a.8493.8493,0,1,1,1.6986,0v82.988A.8494.8494,0,0,1,755.32,178.8984Z" style="fill:#886338"/><path d="M794.4487,175.2588a.8493.8493,0,0,1-.7623-.474L754.5583,95.4367a.8493.8493,0,0,1,1.5234-.7512L795.21,174.0336a.85.85,0,0,1-.7612,1.2252Z" style="fill:#886338"/><path d="M716.1913,174.8948a.85.85,0,0,1-.76-1.2266L754.559,94.684a.8493.8493,0,1,1,1.522.7541l-39.1281,78.9842A.85.85,0,0,1,716.1913,174.8948Z" style="fill:#886338"/><path d="M797.9525,172.639c-1.5338-.8911-84.3931-1.46-85.3535-.1282s3.1616,12.5146,11.7764,13.4729c14.4925,1.6121,47.1829,1.2893,61.7533.0876C792.9249,185.5107,799.4862,173.53,797.9525,172.639Z" style="fill:#886338"/><path d="M797.9525,172.639c-1.5338-.8911-2.1631,12.69-75.3236,8.5039-.96,1.3317-4.1858,3.2759,1.7465,4.8408,14.4925,1.6121,47.1829,1.2893,61.7533.0876C792.9249,185.5107,799.4862,173.53,797.9525,172.639Z" style="fill:#634425"/><path d="M714.4867,174.5306s1.6986,2.6692,6.7943,3.8824c2.7292.472,59.2256-2.0455,60.131-3.64s-41.666-.78-41.666-.78S714.125,172.9706,714.4867,174.5306Z" style="fill:#ac9274"/><path d="M847,83.0332c-18.0475,2.0374-36.8773,20.0633-54.97,22.3934-11.5376,1.4653-29.1139.4576-31.4032-15.6382-.3535-2.4853-2.8239-3.5985-5.1649-2.2442-2.3813,2.4874-1.8108,4.223-1.4263,6.94.9053,6.397,7.3129,13.21,14.3953,15.0455,19.0135,5.1939,38.2188-3.6046,57.5587-8.611,24.3347-6.2994,34.0055,6.501,37.6008,7.0333s5.2181-6.3106,4.9074-13.0781C866.2478,87.0058,857.1887,81.883,847,83.0332Z" style="fill:#886338"/><path d="M829.0092,91.072s11.4257-5.7535,17.9471-6.4806,13.4063,1.8064,14.5774,3.2c3.88,5.0118-14.597.9063-14.597.9063S841.3052,87.2022,829.0092,91.072Z" style="fill:#b89274"/><path d="M843.9143,94.0673c-20.11-1.0031-34.5136,11.7936-52.606,14.1237-11.5376,1.4652-35.8085.93-35.8456-20.6468-2.3813,2.4874-1.8108,4.223-1.4263,6.94.9053,6.397,7.3129,13.21,14.3953,15.0455,19.0135,5.1939,38.2188-3.6046,57.5587-8.611,24.3347-6.2994,34.0055,6.501,37.6008,7.0333.571-.4405,5.0863-13.5127,3.5018-15.9428-.1642-.2519-2.0974-2.231-2.0974-2.231-1.57,2.7-3.7612,11.7947-4.0512,11.4642C858.0157,97.9054,852.6606,94.5036,843.9143,94.0673Z" style="fill:#634425"/><path d="M869.6151,108.2272c.4788,1.3807,4.4561,2.1818,5.9706,1.2418s8.8776-18.83,8.3061-20.4329-3.6045-8.1924-4.8519-8.4822-6.8749,4.0615-8.1043,5.6176S869.1364,106.8465,869.6151,108.2272Z" style="fill:#634425"/><path d="M863.4682,111.8c.6685,1.4227,14.414,4.4618,16.2447,3.5917s5.996-19.7092,4.7027-21.27S870.0689,89.3563,868.171,90.53,862.8,110.3776,863.4682,111.8Z" style="fill:#886338"/><path d="M872.3041,105.0351c.1963.7764,5.3412,1.9139,6.08,1.3444s3.1339-11.4007,2.7037-12.2288-5.3026-2.0886-6.08-1.3443S872.1078,104.2588,872.3041,105.0351Z" style="fill:#b89274"/><path d="M868.171,90.53a5.504,5.504,0,0,1,2.7413-.1932c-1.8237,5.5187-3.8832,17.42-3.3548,18.545.5238,1.1146,9.0742,3.2212,13.6329,3.6628-.5506,1.5761-1.0715,2.654-1.4775,2.847-1.8307.87-15.5762-2.169-16.2447-3.5917S866.2731,91.7042,868.171,90.53Z" style="fill:#634425"/><path d="M882.4321,88.4417c-.1351.2541-7.4328-.9793-8.6594-1.7313s4.8713-5.688,5.3144-5.585S883.0955,87.1946,882.4321,88.4417Z" style="fill:#886338"/><path d="M812.1383,295.3013c1.5878,1.5417,119.9174,2.3242,120.3784,0,.4474-2.2563-9.161-17.2038-13.2-19.2408-3.8131-1.9231-89.8506-1.9231-94.07,0C820.7769,278.0975,810.5815,293.79,812.1383,295.3013Z" style="fill:#7e4d38"/><path d="M801.4576,306.2877c2.5506,1.2754,140.2257,1.9132,141.8181,0s-3.2052-16.1789-7.6153-18.3675c-4.2873-2.1277-121.7669-2.1277-126.6183,0C804.052,290.1088,798.9069,305.0122,801.4576,306.2877Z" style="fill:#663a2a"/><path d="M801.4576,306.2877c2.5506,1.2754,140.2257,1.9132,141.8181,0,1.12-1.3452-.92-8.7969-3.7622-13.8638-15.1112-2.8234-122.4123-.7387-123.7216-1.3885-4.2874-2.1278-6.75-3.1152-6.75-3.1152C804.052,290.1088,798.9069,305.0122,801.4576,306.2877Z" style="fill:#4c281c"/><path d="M791.4172,309.9036c2.9127,1.0258,160.132,1.5387,161.95,0s-3.66-13.0125-8.6963-14.7727c-4.896-1.7114-139.0528-1.7114-144.5929,0C794.38,296.8911,788.5045,308.8777,791.4172,309.9036Z" style="fill:#663a2a"/><path d="M791.4172,309.9036c2.9127,1.0258,160.132,1.5387,161.95,0,.5972-.5054.4073-2.0825-.2955-4.0352,0,0-137.4752-.8964-140.8572-2.0785-4.896-1.7113-9.7555-8.6093-12.1365-8.659C794.38,296.8911,788.5045,308.8777,791.4172,309.9036Z" style="fill:#4c281c"/><path d="M920.8253,280.1143s-.65-2.87-4.5526-3.1089-69.5887-.9566-76.7426-.7174a118.6737,118.6737,0,0,0-12.0317.9566s15.2835,2.1523,29.5914,3.1089S920.8253,280.1143,920.8253,280.1143Z" style="fill:#a58462"/></g><path d="M719.5983,311.6534c-76.2065,8.3514-92.9093,88.7336-11.4832,87.69S789.3184,304.0128,719.5983,311.6534Z" style="fill:#c5c5be"/><path d="M721.4547,304.278c-62.72,6.8735-76.4672,73.03-9.451,72.1713S778.8364,297.99,721.4547,304.278Z" style="fill:#fff"/><path d="M653.2224,387.2022c-56.5292,6.195-68.9191,65.8216-8.5181,65.0473S704.94,381.5345,653.2224,387.2022Z" style="fill:#c5c5be"/><path d="M655.2431,389.6341c-41.4928,4.5471-50.5871,48.3135-6.2523,47.7451S693.2042,385.4739,655.2431,389.6341Z" style="fill:#fff"/><path d="M585.8821,430.92c-34.4459,3.7749-41.9957,40.1083-5.19,39.6364S617.3962,427.4659,585.8821,430.92Z" style="fill:#c5c5be"/><path d="M587.1135,432.4013c-25.2836,2.7708-30.8252,29.44-3.81,29.0934S610.245,429.8663,587.1135,432.4013Z" style="fill:#fff"/><path d="M529.7476,449.6814c-20.0571,2.6593-24.4532,28.2552-3.0223,27.9228S548.0975,447.2484,529.7476,449.6814Z" style="fill:#c5c5be"/><path d="M530.4646,450.7253c-14.7221,1.952-17.9489,20.74-2.2184,20.4955S543.9335,448.94,530.4646,450.7253Z" style="fill:#fff"/><ellipse cx="308.25" cy="1199.4824" rx="308.25" ry="39.375" style="fill:#c4c4c4"/><path d="M194,623.1074c-12.5,5.5-20.9942,22.2689-23.8869,34.8266-.8652,3.7559-18.762,23.7966-23.69,55.6859-1.154,7.4685-10.721,12.5157-5.08,32.6513,4.0253,14.3681,18.4653,27.5309,34.903,27.6053,17.05.0772,41.1476-6.6573,48.5872-10.0678l15.7782-40.9208S214.7386,637.46,194,623.1074Z" style="fill:#332c24"/><path d="M416.946,628.9834c.7-.5328.554-7.876.554-7.876s25.5,19,45.2075,72.586c3.5657,10.86,16.14,27.3907,14.5494,41.7081-1.94,17.4593-13.75,32.9056-30.176,32.9787-17.0385.0758-33.0995-.85-54.0863-5.9525l23.6038-38.9037c-4.7464-8.291-40.4367-11.2672-40.4367-11.2672S398.4294,643.0756,416.946,628.9834Z" style="fill:#332c24"/><g id="lawyer-2" data-name="lawyer"><g id="lag"><g id="leg"><path d="M229.8453,1094.4462c-1.4283,8.2524-3.2168,24.6757-6.322,28.9976a43.0313,43.0313,0,0,1-18.9984,15.4582c-1.7346.7606-6.6551,3.6427-12.4964,10.7335-2.1607,2.6228,2.7969,7.9581,18.0047,11.4522,11.4721,2.6357,25.1331,2.25,35.5038,1.3532,20.8676-1.8042,23.8247-8.0046,38.2765-12.4125,6.8039-2.1186,1.8067-11.6142,1.7866-14.6889-.0344-5.2649-2.98-9.607-3.9055-16.723-.9342-7.1813.2682-15.7123-1.2952-23.9267C269.7044,1084.6757,231.4016,1087.01,229.8453,1094.4462Z" style="fill:#ffd8bb"/><path d="M282.5078,1122.784c-1.1946,1.0075-5.0563,6.245-15.4959,8.22-2.1757.4116-2.9994-9.3806-13.0924-12.1783-19.4423-5.3893-24.341,2.9623-30.3962,4.6183a43.0315,43.0315,0,0,1-18.9985,15.4582c-1.7346.76-6.6549,3.6427-12.4964,10.7334-2.1605,2.6229,2.797,7.9582,18.0049,11.4522,11.4719,2.6359,25.1331,2.25,35.5036,1.3533,20.8676-1.8042,23.8249-8.0046,38.2765-12.4125,6.8041-2.1186,1.8068-11.6142,1.7868-14.6889C285.5729,1131.1868,283.7373,1127.6027,282.5078,1122.784Z" style="fill:#efa789"/></g><g id="shoes"><path d="M280.8636,1165.9624c-6.4241,4.52-1.44,9.0709-17.3754,13.3669-17.0531,4.5972-62.4878,7.394-86.0739-.1607-8.7777-2.8115-9.4968-16.4572-8.1322-19.7487,4.4261-2.2734,18.3073-2.8986,25.5158-5.7979,8.7085-3.5026,66.2783-3.4181,66.2783-3.4181l6.8731-7.2412s16.3723-7.2077,18.2281-7.8994c1.4506-.7062,2.9771,7.8633,4.8094,11.5125C290.9868,1146.5758,286.9123,1162.0951,280.8636,1165.9624Z" style="fill:#3d2e24"/></g><g id="shoes-2" data-name="shoes"><path d="M290.2564,1146.4464c-1.8321-3.6491-2.6283-12.0893-4.079-11.3831-.9576.357-5.7792,2.4483-10.2232,4.39-.5747,5.7546-2.0447,11.493-5.8574,16.8045-6.5353,9.1043-29.9684,16.7672-29.9684,16.7672a68.4331,68.4331,0,0,1-35.2176,10.4816c22.1033,1.2545,46.9437-1.0407,58.5774-4.1769,15.9356-4.296,10.9513-8.8467,17.3754-13.367,4.1953-2.6822,7.853-3.7889,10.3279-5.1583C292.2848,1160.1991,293.13,1152.17,290.2564,1146.4464Z" style="fill:#271b0f"/></g><g id="shoes-3" data-name="shoes"><path d="M278.9053,1156.5269c-6.4241,4.52-1.44,9.0709-17.3754,13.3669-17.053,4.5972-60.32,6.2109-83.9058-1.3438-8.7777-2.8116-12.2322-12.8863-3.9084-17.1618,4.4261-2.2735,11.9155-4.3024,19.124-7.2017,8.7085-3.5026,17.5144-9.46,22.6632-13.2025a22.2557,22.2557,0,0,1,4.468-4.9349,31.5516,31.5516,0,0,1,19.1549-7.059c12.7809-.423,19.2689,6.6836,21.7472,10.5874a8.3186,8.3186,0,0,1-1.7551,11.1909c4.1845-1.2466,3.4667-6.6455,6.8731-7.2411,15.0581-2.6332,16.3723-7.2078,18.2281-7.8995,1.4506-.7062,3.2752,7.7283,4.8094,11.5125C290.7854,1141.4738,284.9541,1152.66,278.9053,1156.5269Z" style="fill:#584538"/></g><path d="M175.0415,1158.2958c-1.058-.8463-.4232-4.2319,8.6755-5.29,2.7777-.323,6.7292,4.2025,15.6582,6.7711,15.4466,4.4436,30.3141,4.2541,30.6817,4.8668.6348,1.058-15.24,1.7683-29.2005.8464C178.427,1164.009,176.1,1159.1422,175.0415,1158.2958Z" style="fill:#7d6555"/><g id="shoes-4" data-name="shoes"><path d="M225.8249,1143.9072c14.8533,1.1426,18.7073,5.4445,33.53,3.78,10.3261-1.16,21.4285-4.2133,29.4537-11.1171-1.4864-3.9947-3.2076-11.6151-4.59-10.9425-1.8558.6918-3.17,5.2664-18.2281,7.8995-3.4065.5956-2.6886,5.9946-6.8731,7.2411a8.3187,8.3187,0,0,0,1.7551-11.1909c-2.4783-3.9039-8.9663-11.01-21.7472-10.5876a31.5533,31.5533,0,0,0-19.1549,7.0592,22.2557,22.2557,0,0,0-4.468,4.9349c-2.5632,1.8631-6.0335,4.275-9.9462,6.66C205.7659,1137.78,212.0711,1142.8492,225.8249,1143.9072Z" style="fill:#3d2e24"/></g><g id="shoes-5" data-name="shoes"><path d="M289.0284,1137.14c-6.63-15.8385-.16-12.4718-13.0707-6.248.4805,8.389.4366,17.3764-3.3116,23.2614-5.1827,8.1374-11.0487,15.36-32.4,18.9088,8.3423-1.3865,16.15-1.7847,21.2837-3.1685,15.9356-4.2961,10.9513-8.8468,17.3754-13.367,5.8862-2.978,10.2933-4.4852,12.0917-6.4834C291.9492,1148.9855,290.997,1141.7912,289.0284,1137.14Z" style="fill:#3d2e24"/></g></g><g id="lag-2" data-name="lag"><g id="leg-2" data-name="leg"><path d="M387.5384,1094.6049c.9522,7.3,3.2125,24.517,6.3177,28.8389a43.0321,43.0321,0,0,0,18.9985,15.4582c1.7345.7606,6.655,3.6427,12.4963,10.7335,2.1607,2.6228-2.7969,7.9581-18.0047,11.4522-11.4721,2.6357-25.1331,2.25-35.5037,1.3532-20.8676-1.8042-23.8248-8.0046-38.2765-12.4125-6.8039-2.1186-1.8068-11.6142-1.7867-14.6889.0344-5.2649,2.98-9.607,3.9056-16.723A200.3012,200.3012,0,0,0,336.98,1094.69C347.675,1084.6757,385.9821,1087.1688,387.5384,1094.6049Z" style="fill:#ffd8bb"/><path d="M334.8717,1122.784c1.1946,1.0075,5.0563,6.245,15.4959,8.22,2.1757.4116,2.9994-9.3806,13.0924-12.1783,19.4423-5.3893,24.341,2.9623,30.3961,4.6183a43.0326,43.0326,0,0,0,18.9985,15.4582c1.7347.76,6.655,3.6427,12.4965,10.7334,2.1605,2.6229-2.7971,7.9582-18.0049,11.4522-11.472,2.6359-25.1331,2.25-35.5037,1.3533-20.8676-1.8042-23.8249-8.0046-38.2764-12.4125-6.8041-2.1186-1.8069-11.6142-1.7869-14.6889C331.8065,1131.1868,333.6421,1127.6027,334.8717,1122.784Z" style="fill:#efa789"/><g id="shoes-6" data-name="shoes"><path d="M337.3075,1165.9624c6.4241,4.52,1.44,9.0709,17.3754,13.3669,17.0531,4.5972,62.4878,7.394,86.0739-.1607,8.7777-2.8115,9.4968-16.4572,8.1322-19.7487-4.4261-2.2734-18.3073-2.8986-25.5158-5.7979-8.7085-3.5026-66.2782-3.4181-66.2782-3.4181l-6.8732-7.2412s-16.3722-7.2077-18.228-7.8994c-1.4507-.7062-2.9771,7.8633-4.8094,11.5125C327.1844,1146.5758,331.2588,1162.0951,337.3075,1165.9624Z" style="fill:#332c24"/></g><g id="shoes-7" data-name="shoes"><path d="M327.9147,1146.4464c1.8321-3.6491,2.6284-12.0893,4.0791-11.3831.9575.357,5.7791,2.4483,10.2232,4.39.5747,5.7546,2.0447,11.493,5.8573,16.8045,6.5353,9.1043,29.9684,16.7672,29.9684,16.7672a68.4334,68.4334,0,0,0,35.2176,10.4816c-22.1032,1.2545-46.9437-1.0407-58.5774-4.1769-15.9356-4.296-10.9513-8.8467-17.3754-13.367-4.1953-2.6822-7.853-3.7889-10.3278-5.1583C325.8863,1160.1991,325.0407,1152.17,327.9147,1146.4464Z" style="fill:#1e1914"/></g><g id="shoes-8" data-name="shoes"><path d="M339.2658,1156.5269c6.4241,4.52,1.44,9.0709,17.3754,13.3669,17.0531,4.5972,60.32,6.2109,83.9058-1.3438,8.7778-2.8116,12.2322-12.8863,3.9084-17.1618-4.4261-2.2735-11.9155-4.3024-19.124-7.2017-8.7084-3.5026-17.5143-9.46-22.6631-13.2025a22.2584,22.2584,0,0,0-4.4681-4.9349,31.551,31.551,0,0,0-19.1549-7.059c-12.7809-.423-19.2689,6.6836-21.7471,10.5874a8.3185,8.3185,0,0,0,1.755,11.1909c-4.1844-1.2466-3.4666-6.6455-6.8731-7.2411-15.0581-2.6332-16.3723-7.2078-18.2281-7.8995-1.4506-.7062-3.2752,7.7283-4.8094,11.5125C327.3857,1141.4738,333.2171,1152.66,339.2658,1156.5269Z" style="fill:#4a4238"/></g><path d="M443.13,1158.2958c1.0579-.8463.4231-4.2319-8.6756-5.29-2.7777-.323-6.7292,4.2025-15.6582,6.7711-15.4466,4.4436-30.314,4.2541-30.6816,4.8668-.6348,1.058,15.24,1.7683,29.2.8464C439.7441,1164.009,442.0717,1159.1422,443.13,1158.2958Z" style="fill:#544c43"/><g id="shoes-9" data-name="shoes"><path d="M392.3462,1143.9072c-14.8533,1.1426-18.7072,5.4445-33.53,3.78-10.3261-1.16-21.4285-4.2133-29.4536-11.1171,1.4863-3.9947,3.2076-11.6151,4.5895-10.9425,1.8558.6918,3.17,5.2664,18.2281,7.8995,3.4065.5956,2.6887,5.9946,6.8732,7.2411a8.3186,8.3186,0,0,1-1.7551-11.1909c2.4782-3.9039,8.9662-11.01,21.7472-10.5876a31.5527,31.5527,0,0,1,19.1548,7.0592,22.256,22.256,0,0,1,4.4681,4.9349c2.5632,1.8631,6.0334,4.275,9.9461,6.66C412.4052,1137.78,406.1,1142.8492,392.3462,1143.9072Z" style="fill:#332c24"/></g><g id="shoes-10" data-name="shoes"><path d="M329.1427,1137.14c6.63-15.8385.16-12.4718,13.0707-6.248-.4805,8.389-.4366,17.3764,3.3116,23.2614,5.1828,8.1374,11.0487,15.36,32.4,18.9088-8.3423-1.3865-16.15-1.7847-21.2837-3.1685-15.9356-4.2961-10.9513-8.8468-17.3754-13.367-5.8862-2.978-10.2933-4.4852-12.0917-6.4834C326.2219,1148.9855,327.1741,1141.7912,329.1427,1137.14Z" style="fill:#332c24"/></g></g></g><path d="M424.0884,631.3983c-17.167-23.46-53.4458-38.4772-116.7422-39.0126v-.011c-.2.0012-.3971.0041-.5968.0055-.2-.0014-.3965-.0043-.5968-.0055v.011c-63.2965.5354-99.5753,15.5522-116.7423,39.0126-6.8988,9.4279,16.0685,51.9142,16.1531,52.583,0,0,14.9187,46.2578,19.9175,79.28,7.3047,16.28,26.9191,22.834,80.3377,22.834s78.3527-14.223,82.9909-29.99c1.0087-36.9557,19.1259-72.1242,19.1259-72.1242C408.02,683.3125,430.9872,640.8262,424.0884,631.3983Z" style="fill:#ffd8bb"/><path d="M283.1143,564.682v32.564c0,6.072,10.3121,10.9943,23.0327,10.9943S329.18,603.318,329.18,597.246V564.682Z" style="fill:#c97a5f"/><path d="M458.6886,845s4.13,17.9278,3.541,31.941c-.4059,9.6654-6.61,30.21-16.4,26.8368-4.4592-1.5365-1.8453-7.0049.7455-11.3684,3.541-5.9637,3.541-10.6229,3.3546-15.8412-.2535-7.0988-5.069-18.726-3.3546-25.5322S454.0663,834.1183,458.6886,845Z" style="fill:#efa789"/><path d="M469.6843,840.2269s4.6031,23.54,2.9819,41.3734c-1.1182,12.3-13.6059,37.5727-25.5323,31.8687-4.2864-2.05-1.1309-7.7552,2.6091-13.0456,4.5-6.3651,4.2178-11.2257,5.032-17.3321,1.1985-8.99-10.8093-26.0914-8.2-34.6642S464.466,826.063,469.6843,840.2269Z" style="fill:#efa789"/><path d="M474.53,847.3089s4.6031,23.54,2.9819,41.3734c-1.1182,12.3-12.4866,36.1551-24.7868,31.31-7.1461-2.8152-.9446-8.5007,2.7955-13.7912,4.5-6.365,3.2859-9.921,4.1-16.0275,1.1986-8.9894-10.8093-26.0913-8.2-34.6642S469.3116,833.145,474.53,847.3089Z" style="fill:#efa789"/><path d="M486.5891,856.7142c-.7,9.5067-4.83,18.7761-11.9872,24.3976-3.7448,2.9414-22.067,1.3462-28.0271-3.6115-13.0457-14.1639,0-33.1733,2.5971-48.0826,3.3589-5.8535,21.178-9.2707,30.4963-4.4252,2.0631,1.587,7.1618,19.7072,6.9209,31.7217Z" style="fill:#ffd8bb"/><path d="M476.6586,879.008c-1.0628-18.4031-17.6182-10.5476-20.0764,2.4857,6.7656,6.4431,14.6212,4.5966,17.0158,2.7158.7218-.567,2.4083-4.2781,3.0682-4.9158C476.6624,879.1985,476.6635,879.1031,476.6586,879.008Z" style="fill:#efa789"/><path d="M485.7118,851.4089s4.6031,23.54,2.9819,41.3734c-.6391,7.03-4.2116,16.479-10.8093,24.4141-4.3833,5.2719-10.4847,9.4806-15.6548,6.8956-2.0738-1.037-1.75-3.1532-1.4465-4.8856.5148-2.9382,4.63-5.9822,6.9828-9.31,4.5-6.3651,4.4757-9.5518,5.29-15.6583.609-4.5671-4.4443-11.1929-7.0043-17.7657-2.4788-6.3643-4.7327-12.6457-3.4491-16.863C465.2115,851.0362,480.4936,837.2451,485.7118,851.4089Z" style="fill:#ffd8bb"/><path d="M445.7173,876.8157s2.8144,11.4989,2.8144,19.1349c0,3.6341,1.6773,8.1069,5.3114,7.2683,3.5411-.8172,5.7951-2.5039,6.3923-9.6247.5756-6.9416.7941-10.7656.7941-10.7656s13.4621-12.8884,11.3633-20.5025-10.7224-19.2648-16.7656-16.6232-20.1345,13.43-9.91,31.1128Z" style="fill:#ffd8bb"/><path d="M459.3843,857.1c5.5009-.9925,10.6671-2.1141,16.3165-1.7963,1.7325.0973,3.9651-.2265,5.1862,1.0985,1.1477,1.2452,6.3108,18.9607,8.1365,26.236-.153-10.0637-2.237-20.3347-3.166-26.2236.1828-12.0146-4.1373-29.8438-6.1893-31.4223-9.3183-4.8457-27.1374-1.4283-30.4963,4.4252-1.4783,8.4864-6.336,18.3005-7.8423,27.7932A56.0986,56.0986,0,0,0,459.3843,857.1Z" style="fill:#efa789"/><g id="shoes-11" data-name="shoes"><path d="M280.8636,1165.9624c-6.4241,4.52-1.44,9.0709-17.3754,13.3669-17.0531,4.5972-62.4878,7.394-86.0739-.1607-8.7777-2.8115-9.4968-16.4572-8.1322-19.7487,4.4261-2.2734,18.3073-2.8986,25.5158-5.7979,8.7085-3.5026,66.2783-3.4181,66.2783-3.4181l6.8731-7.2412s16.3723-7.2077,18.2281-7.8994c1.4506-.7062,2.9771,7.8633,4.8094,11.5125C290.9868,1146.5758,286.9123,1162.0951,280.8636,1165.9624Z" style="fill:#332c24"/></g><g id="shoes-12" data-name="shoes"><path d="M290.2564,1146.4464c-1.8321-3.6491-2.6283-12.0893-4.079-11.3831-.9576.357-5.7792,2.4483-10.2232,4.39-.5747,5.7546-2.0447,11.493-5.8574,16.8045-6.5353,9.1043-29.9684,16.7672-29.9684,16.7672a68.4331,68.4331,0,0,1-35.2176,10.4816c22.1033,1.2545,46.9437-1.0407,58.5774-4.1769,15.9356-4.296,10.9513-8.8467,17.3754-13.367,4.1953-2.6822,7.853-3.7889,10.3279-5.1583C292.2848,1160.1991,293.13,1152.17,290.2564,1146.4464Z" style="fill:#1e1914"/></g><g id="shoes-13" data-name="shoes"><path d="M278.9053,1156.5269c-6.4241,4.52-1.44,9.0709-17.3754,13.3669-17.053,4.5972-60.32,6.2109-83.9058-1.3438-8.7777-2.8116-12.2322-12.8863-3.9084-17.1618,4.4261-2.2735,11.9155-4.3024,19.124-7.2017,8.7085-3.5026,17.5144-9.46,22.6632-13.2025a22.2557,22.2557,0,0,1,4.468-4.9349,31.5516,31.5516,0,0,1,19.1549-7.059c12.7809-.423,19.2689,6.6836,21.7472,10.5874a8.3186,8.3186,0,0,1-1.7551,11.1909c4.1845-1.2466,3.4667-6.6455,6.8731-7.2411,15.0581-2.6332,16.3723-7.2078,18.2281-7.8995,1.4506-.7062,3.2752,7.7283,4.8094,11.5125C290.7854,1141.4738,284.9541,1152.66,278.9053,1156.5269Z" style="fill:#4a4238"/></g><path d="M175.0415,1158.2958c-1.058-.8463-.4232-4.2319,8.6755-5.29,2.7777-.323,6.7292,4.2025,15.6582,6.7711,15.4466,4.4436,30.3141,4.2541,30.6817,4.8668.6348,1.058-15.24,1.7683-29.2005.8464C178.427,1164.009,176.1,1159.1422,175.0415,1158.2958Z" style="fill:#544c43"/><g id="shoes-14" data-name="shoes"><path d="M225.8249,1143.9072c14.8533,1.1426,18.7073,5.4445,33.53,3.78,10.3261-1.16,21.4285-4.2133,29.4537-11.1171-1.4864-3.9947-3.2076-11.6151-4.59-10.9425-1.8558.6918-3.17,5.2664-18.2281,7.8995-3.4065.5956-2.6886,5.9946-6.8731,7.2411a8.3187,8.3187,0,0,0,1.7551-11.1909c-2.4783-3.9039-8.9663-11.01-21.7472-10.5876a31.5533,31.5533,0,0,0-19.1549,7.0592,22.2557,22.2557,0,0,0-4.468,4.9349c-2.5632,1.8631-6.0335,4.275-9.9462,6.66C205.7659,1137.78,212.0711,1142.8492,225.8249,1143.9072Z" style="fill:#332c24"/></g><g id="shoes-15" data-name="shoes"><path d="M289.0284,1137.14c-6.63-15.8385-.16-12.4718-13.0707-6.248.4805,8.389.4366,17.3764-3.3116,23.2614-5.1827,8.1374-11.0487,15.36-32.4,18.9088,8.3423-1.3865,16.15-1.7847,21.2837-3.1685,15.9356-4.2961,10.9513-8.8468,17.3754-13.367,5.8862-2.978,10.2933-4.4852,12.0917-6.4834C291.9492,1148.9855,290.997,1141.7912,289.0284,1137.14Z" style="fill:#332c24"/></g><path d="M419.048,625.3423c.7827-.53,6.47,4.5941,6.47,4.5941s7.4613,11.4263,10,23.699,23.0642,54.169,41.2616,94.3725c1.439,3.1793-48.7733,36.818-69.0867,30.0469l-8.8871-59.9879L388.12,698.4941S398.3457,639.3688,419.048,625.3423Z" style="fill:#4a4238"/><path d="M460.0636,738.2744l7.8291-9.31s38.9153,78.0613,49.3385,102.91c1.802,4.296-21.8755,14.89-41.2294,18.1119-27.82,4.6306-58.1737,8.0526-59.4216,8.0526-2.1159,0-6.6653-49.5138-9.5219-85.697-.4662-5.9064,17.5627-28.46,17.5627-28.46Z" style="fill:#4a4238"/><polygon points="411.343 682.201 467.046 850.58 463.714 851.373 411.608 688.761 411.343 682.201" style="fill:#332c24"/><polygon points="415.205 656.598 487.402 846.803 484.101 847.718 415.84 665.273 415.205 656.598" style="fill:#332c24"/><path d="M415.2049,633.322c5.9247,1.4812,19.2553,37.03,19.2553,37.03l76.2176,167.5643-3.428,1.2906-75.0473-166.04s-10.2265-29.8993-17.844-37.5168Z" style="fill:#332c24"/><path d="M413.5121,639.2467s4.6551,30.47,5.0783,40.6268-12.6958,26.6613-12.6958,29.412c0,.6075,7.6285,6.7692,7.8291,10.58.4232,8.0407,4.1261,85.4855,4.1261,85.4855s-20.7365-87.0724-25.3917-91.7276c0,0,4.5494-40.9442,4.9725-47.2921S413.5121,639.2467,413.5121,639.2467Z" style="fill:#332c24"/><path d="M410.2323,728.2235s-11.32,27.5077-10.4741,29.8353,20.9482,98.71,20.9482,98.71l26.9787-3.8087S413.6179,738.8034,410.2323,728.2235Z" style="fill:#332c24"/><path d="M153.9871,845s-4.13,17.9278-3.541,31.941c.4059,9.6654,6.61,30.21,16.4,26.8368,4.4593-1.5365,1.8454-7.0049-.7454-11.3684-3.541-5.9637-3.541-10.6229-3.3546-15.8412.2535-7.0988,5.069-18.726,3.3546-25.5322S158.6094,834.1183,153.9871,845Z" style="fill:#efa789"/><path d="M142.9914,840.2269s-4.6031,23.54-2.9819,41.3734c1.1182,12.3,13.6059,37.5727,25.5323,31.8687,4.2864-2.05,1.1309-7.7552-2.6092-13.0456-4.5-6.3651-4.2177-11.2257-5.0319-17.3321-1.1986-8.99,10.8093-26.0914,8.2-34.6642S148.21,826.063,142.9914,840.2269Z" style="fill:#efa789"/><path d="M138.1459,847.3089s-4.6031,23.54-2.9819,41.3734c1.1182,12.3,12.4866,36.1551,24.7868,31.31,7.1461-2.8152.9445-8.5007-2.7955-13.7912-4.5-6.365-3.2859-9.921-4.1-16.0275-1.1986-8.9894,10.8093-26.0913,8.2-34.6642S143.3641,833.145,138.1459,847.3089Z" style="fill:#efa789"/><path d="M126.0866,856.7142c.7,9.5067,4.83,18.7761,11.9872,24.3976,3.7448,2.9414,22.067,1.3462,28.0271-3.6115,13.0456-14.1639,0-33.1733-2.5971-48.0826-3.3589-5.8535-21.178-9.2707-30.4963-4.4252-2.0631,1.587-7.1618,19.7072-6.9209,31.7217Z" style="fill:#ffd8bb"/><path d="M136.0171,879.008c1.0628-18.4031,17.6182-10.5476,20.0763,2.4857-6.7655,6.4431-14.6211,4.5966-17.0157,2.7158-.7219-.567-2.4083-4.2781-3.0682-4.9158C136.0133,879.1985,136.0122,879.1031,136.0171,879.008Z" style="fill:#efa789"/><path d="M126.9639,851.4089s-4.6031,23.54-2.9819,41.3734c.639,7.03,4.2116,16.479,10.8093,24.4141,4.3833,5.2719,10.4846,9.4806,15.6548,6.8956,2.0738-1.037,1.75-3.1532,1.4464-4.8856-.5147-2.9382-4.63-5.9822-6.9827-9.31-4.5-6.3651-4.4757-9.5518-5.29-15.6583-.609-4.5671,4.4443-11.1929,7.0043-17.7657,2.4788-6.3643,4.7327-12.6457,3.4491-16.863C147.4642,851.0362,132.1821,837.2451,126.9639,851.4089Z" style="fill:#ffd8bb"/><path d="M166.9584,876.8157s-2.8144,11.4989-2.8144,19.1349c0,3.6341-1.6773,8.1069-5.3114,7.2683-3.5411-.8172-5.7951-2.5039-6.3923-9.6247-.5757-6.9416-.7941-10.7656-.7941-10.7656S138.184,869.94,140.2828,862.3261s10.7225-19.2648,16.7657-16.6232,20.1344,13.43,9.91,31.1128Z" style="fill:#ffd8bb"/><path d="M153.2913,857.1c-5.5008-.9925-10.667-2.1141-16.3164-1.7963-1.7325.0973-3.9651-.2265-5.1862,1.0985-1.1477,1.2452-6.3108,18.9607-8.1365,26.236.153-10.0637,2.237-20.3347,3.166-26.2236-.1828-12.0146,4.1373-29.8438,6.1893-31.4223,9.3183-4.8457,27.1374-1.4283,30.4963,4.4252,1.4783,8.4864,6.336,18.3005,7.8423,27.7932A56.0993,56.0993,0,0,1,153.2913,857.1Z" style="fill:#efa789"/><path d="M193.6277,625.3423c-.7827-.53-6.47,4.5941-6.47,4.5941s-7.4613,11.4263-10,23.699-23.0642,54.169-41.2616,94.3725c-1.439,3.1793,48.7733,36.818,69.0866,30.0469l8.8872-59.9879,10.6856-19.5728S214.33,639.3688,193.6277,625.3423Z" style="fill:#4a4238"/><path d="M152.6121,738.2744l-7.8291-9.31s-38.9153,78.0613-49.3385,102.91c-1.802,4.296,21.8755,14.89,41.2293,18.1119,27.8205,4.6306,58.1738,8.0526,59.4216,8.0526,2.116,0,6.6654-49.5138,9.5219-85.697.4663-5.9064-17.5626-28.46-17.5626-28.46Z" style="fill:#4a4238"/><polygon points="201.332 682.201 145.629 850.58 148.962 851.373 201.068 688.761 201.332 682.201" style="fill:#332c24"/><polygon points="197.471 656.598 125.274 846.803 128.575 847.718 196.836 665.273 197.471 656.598" style="fill:#332c24"/><path d="M197.4708,633.322c-5.9247,1.4812-19.2554,37.03-19.2554,37.03L101.9979,837.9159l3.4279,1.2906,75.0474-166.04S190.7,643.2671,198.3172,635.65Z" style="fill:#332c24"/><path d="M199.1636,639.2467l-8.8871,28.0367s.6348,44.5413.6348,47.2921c0,.6074-.1168,26.9767-.3174,30.7875-.4232,8.0407,2.2218,67.6054,2.2218,67.6054s22.7467-94.69,27.4019-99.3451c0,0-4.5494-40.9442-4.9726-47.2921S199.1636,639.2467,199.1636,639.2467Z" style="fill:#332c24"/><path d="M202.4434,728.2235s11.3205,27.5077,10.4741,29.8353-20.9482,98.71-20.9482,98.71L164.9906,852.96S199.0578,738.8034,202.4434,728.2235Z" style="fill:#332c24"/><path d="M314.0612,864.81s-21.7493,123.044-20.4126,130.0267-24.0591,14.3887-39.43,15.6583-35.42-2.2218-38.7618-4.1262c-1.0024-5.0783-3.9644-8.1468-5.0123-13.648s.0769-12.1452-1.2732-20.9106c-5.9577-38.6809-6.9393-99.3827-6.9393-99.3827s.6683-36.818,6.683-46.9747S314.0612,864.81,314.0612,864.81Z" style="fill:#4a4238"/><path d="M303.9045,902.8974a68.1792,68.1792,0,0,1-13.9655,17.7742c-1.9623,5.8394-1.746,58.5068,2.9092,73.9534-.2116-9.9451,11.0563-59.5647,13.1722-72.6838,1.5631-9.6907,3.8088-21.7945,3.8088-21.7945Z" style="fill:#332c24"/><path d="M303.27,864.81s19.444,123.8375,18.1376,130.82,23.5149,14.3887,38.5384,15.6583,34.6192-2.2218,37.8851-4.1262c.98-5.0783,3.8748-8.1468,4.899-13.6481s-.0751-12.1451,1.2444-20.91c5.823-38.6809,8.6915-100.1762,8.6915-100.1762s-.6532-36.818-6.532-46.9747S303.27,864.81,303.27,864.81Z" style="fill:#4a4238"/><path d="M309.7234,899.4061c.9522,0,44.1181,6.3479,45.7051,6.9827s-19.0438,8.8871-19.0438,8.8871Z" style="fill:#332c24"/><path d="M308.56,903.9554l11.6379,14.3887s-8.0407,14.8118-7.1943,22.0061l-3.3856-29.8352Z" style="fill:#332c24"/><path d="M389.7392,750.5182l-41.6185-5.002-78.7284-2.3342L225.52,756.854s-14.9133,73.1952-13.3526,95.7039c.6315,9.1075,83.5838,30.0117,89.8266,31.5123.0667.0161,12.4,0,12.4,0,.0624.0124,89.3879-22.4048,90.0194-31.5123C405.9738,830.0492,389.7392,750.5182,389.7392,750.5182Z" style="fill:#4a4238"/><path d="M244.6571,814.9786c5.275.19,39.6746-2.8566,44.7529-3.174.3174,3.4914.3141,6.47,4.1262,6.348,3.7793-.1215,29.8353.6348,36.1832-4.4436,7.5834.0155,37.25,2.5057,44.3827.9528,8.71-1.8963,17.3937-3.96,26.1493-5.6162-4.3655-28.4124-10.5122-58.5274-10.5122-58.5274l-41.6185-5.0019-78.7284-2.3342L225.52,756.8539s-5.9,28.96-9.89,56.05C219.7838,814.8261,239.0715,814.7773,244.6571,814.9786Z" style="fill:#332c24"/><path d="M298.2586,809.3818c28.9216.8358,95.7818-3.2293,101.4408-3.8807-4.313-27.3157-9.96-54.9829-9.96-54.9829l-41.6185-5.0019-78.7284-2.3342L225.52,756.8539s-4.7751,23.4388-8.6386,47.8676C222.8768,806.0064,284.0936,808.9724,298.2586,809.3818Z" style="fill:#2c2c24"/><path d="M305.3592,812.4394c-2.5116.0381-12.9339,1.7457-14.9176-.3174-2.6365-2.7419-2.3045-23.4782.7141-26.2645.3992-.3695,3.0372-1.2357,14.0287-.9985,7.4741.1612,15.8859.6811,17.3936,3.7757.5114,1.05-25.7885-1.0316-27.0407.7092-1.1171,2.9433-1.4105,14.8176-.47,18.161,3.95.524,28.8554.5217,28.7805,1.6812-.1586,2.46-2.6368,2.8472-4.7609,3.3327C316.3094,813.1536,308.0872,812.3981,305.3592,812.4394Z" style="fill:#c5c5be"/><path d="M305.703,810.7466c-2.5116.0381-10.9237.0529-12.9074-2.01-1.844-1.9178-.1641-9.2565.8464-15.9757.1782-1.1848-3.95-1.4265-3.6911-2.3538a6.3779,6.3779,0,0,1,1.3635-2.83c.3992-.37,2.8785-2.9549,13.87-2.7177,7.4741.1612,15.8859.6811,17.3936,3.7757.5114,1.05-25.7885-1.0316-27.0407.7092-1.1171,2.9433-1.4105,14.8176-.47,18.161,3.95.524,28.8554.5217,28.7805,1.6812-.1586,2.46-2.6368,2.8472-4.7609,3.3327C316.3094,813.1536,308.4311,810.7053,305.703,810.7466Z" style="fill:#919188"/><path d="M297.7681,821.8555c-1.27-1.9044-1.4811,19.0438-1.058,27.9309s-1.8514,36.1832-2.6978,42.9543,14.1241,16.9279,14.1241,16.9279,0-7.1944-1.27-10.58c-.7935-1.7457-8.8408-3.01-9.0458-6.1893s.7119-37.5842.5819-40.5738C297.98,842.5921,299.0377,823.76,297.7681,821.8555Z" style="fill:#332c24"/><path d="M289.9729,980.977c.4455,1.6928,1.1138,11.2147,3.3415,14.6s5.0123,8.57,5.3465,11.7437c0,0-2.5093,5.7318-2.3391,7.6175.3341,3.703,1.3366,10.3683.4455,17.5626s-8.1452,32.0571-5.472,48.9849,1.6708,44.9645,2.1164,48.35-35.42,5.3957-56.1378,3.4913c-13.9252-1.28-26.7323-2.8566-28.7372-4.7609s8.3538-30.7875,8.3538-49.8313c0-10.1567-2.1219-62.1039-3.6031-77.5505a189.1271,189.1271,0,0,1,.4232-20.3134Z" style="fill:#4a4238"/><path d="M280.2055,1062.2305c4.2358,9.2166,10.6337,18.0459,11.0529,18.9875-2.557-16.9211,4.6225-41.56,5.5089-48.717.8911-7.1943-.1113-13.86-.4455-17.5626-.17-1.8857,2.3391-7.6175,2.3391-7.6175-.3342-3.174-3.1188-8.3581-5.3465-11.7437s-2.896-12.9074-3.3415-14.6l-76.2623-.1058a189.157,189.157,0,0,0-.4232,20.3134c.5411,5.6426,3.073,46.5155,3.65,58.0835C217.0418,1061.3507,277.5745,1056.5056,280.2055,1062.2305Z" style="fill:#332c24"/><path d="M294.5409,1014.9384s3.3856-6.7711,3.174-7.6175-18.6206-7.8291-19.6786-7.6175S291.5786,1008.5905,294.5409,1014.9384Z" style="fill:#332c24"/><path d="M231.4848,1005.84c11.0031.8464,18.6206-5.29,19.89-4.6551s-9.7335,9.7335-13.119,13.119-9.7335,9.0987-11.85,9.7335S216.25,999.0686,216.25,999.0686,222.8118,1005.1726,231.4848,1005.84Z" style="fill:#332c24"/><path d="M325,981.7705c-.4355,1.6928-1.0887,11.2147-3.266,14.6s-4.8989,8.57-5.2255,11.7437c0,0,2.4524,5.7318,2.2861,7.6175-.3266,3.703-1.3064,10.3683-.4354,17.5626s9.9466,31.2636,7.3338,48.1914-1.633,44.9645-2.0684,48.35,34.6192,5.3957,54.8682,3.4913c13.61-1.28,26.1277-2.8565,28.0872-4.7609s-8.1649-30.7875-8.1649-49.8313c0-10.1567.8142-70.3033,1.7664-78.08.5756-4.7008.1587-16.346.1587-16.346Z" style="fill:#4a4238"/><path d="M318.7945,1015.7319c-.3266,3.703-1.3063,10.3683-.4354,17.5626.1676,1.3846,6.73,24.7513,7.4457,27.2432,26.4888,3.1888,43.0365,3.8566,69.1925-1.587-.01-16.5869,4.7288-54.5773,5.1841-58.2951.5756-4.7008.1587-16.346.1587-16.346L325,981.7705c-.4355,1.6928-1.0887,11.2147-3.266,14.6s-4.8989,8.57-5.2255,11.7437C316.5084,1008.1144,318.9609,1013.8462,318.7945,1015.7319Z" style="fill:#332c24"/><path d="M320.5149,967.4876s2.5392,23.4874,2.5392,25.8149,0,4.02-.8464,5.29-2.9624,3.174-2.9624,4.02,6.1363,4.02,9.31,5.7132,27.9309,9.0987,28.9889,9.31-13.7539-11.6379-17.1394-12.9075S326.228,986.1082,325.3816,981.03,320.5149,967.4876,320.5149,967.4876Z" style="fill:#332c24"/><path d="M345.0915,988.267c6.6893,5.4328,14.5,10.96,18.5893,10.96,8.0407,0,8.8871-29.4121,4.6552-30.2585-2.6335-.5267-16.0826,2.06-25.561,4.7015C341.1457,975.4225,343.05,985.5792,345.0915,988.267Z" style="fill:#544c43"/><path d="M387.9616,1007.3209c-5.5623,1.7637-17.9329,4.2848-19.8372,5.5544s5.9576,4.6179,8.57,9.3632c9.5219,17.2981,18.6206,70.1447,21.3184,69.1925-.9522-4.2849-1.4282-28.8831-1.4282-28.8831l1.2166-48.8791s1.27-10.3154,1.7457-12.6958A38.1,38.1,0,0,1,387.9616,1007.3209Z" style="fill:#332c24"/><path d="M419.048,625.3423c-15.6431-16.6142-42.68-28.0647-84.5563-31.7189-14.929,14.4127-28.26,13.4605-28.26,13.4605-11.4262-.6348-27.3068-13.4533-27.3068-13.4533-40.8979,3.58-67.63,14.602-83.4122,30.6094-2.2546,2.2867,9.9658,59.0725,10.05,59.7413,0,0,14.9187,46.2578,19.9175,79.28,6.7793,15.1087,21.9372,25.1176,67.1031,26.008,3.5007.069,9.4881,5.0783,13.3306,5.0783,8.8871.3174,13.617-5.62,19.3612-6.03,40.7629-2.91,59.4684-18.3922,63.5337-32.2118,1.0087-36.9557,19.1259-72.1242,19.1259-72.1242C411.9251,654.3759,420.8831,627.2913,419.048,625.3423Z" style="fill:#fdfdfd"/><path d="M288.14,615.6536c0,.9522,6.9828,28.2483,6.9828,28.2483l-7.6176,121.5628s15.87,19.0438,20.9482,19.3612,21.9-23.4873,21.9-23.4873-8.2523-112.9932-7.9349-115.5324,12.061-30.1526,12.061-30.1526l-18.409-8.8871-18.7264.3174Z" style="fill:#c5c5be"/><path d="M346.3293,780.0086q-6.0687.1329-12.1381-.1019c-1.5879-.0637-7.1439.0316-8.3589.5581-4.4444,1.9257-3.994,8.1381-8.5972,9.6511-7.52,2.4718-22.96-15.3909-23.0641-15.4467-2.1736-1.1633-12.8188,4.4151-15.87,4.6552-2.59.2037-19.2813-6.93-25.1485-7.2584-8.9254-.5-18.4177-1.8748-26.367-6.1667,7.3851,13.6272,23.3172,22.5327,65.7984,23.37,3.5007.069,9.4881,5.0783,13.3306,5.0783,8.8871.3174,13.617-5.62,19.3612-6.03,17.7122-1.2644,31.2551-4.9042,41.2467-9.7484C359.8179,779.3626,353.08,779.86,346.3293,780.0086Z" style="fill:#54a0b5"/><path d="M342.7326,591.6372c-5.95-2.9751-10.8819-7.7989-12.3784-7.9349-2.2167.6334-1.0112,15.0509-24.3338,23.4874-22.3637-7.6552-21.6942-22.8542-23.9105-23.4874-1.4965.136-6.4281,4.96-12.3785,7.9349a128.9677,128.9677,0,0,0-11.7436,7.3s11.7436,34.5962,32.057,40.0977c2.4393.6607,4.5788-14.2857,15.87-25.7091,11.297,11.4234,14.7177,26.0081,17.14,25.2859,18.0916-5.3957,31.4222-39.6745,31.4222-39.6745A128.96,128.96,0,0,0,342.7326,591.6372Z" style="fill:#c5c5be"/><path d="M297.98,629.9364c-.0267,1.1861-8.8548,125.3271-8.935,128.8853s15.3888,21.3491,16.9757,21.3491,16.3543-17.8076,17.3511-19.7844S315.41,631.1225,315.41,631.1225Z" style="fill:#633527"/><path d="M297.1874,643.4245a17.4174,17.4174,0,0,0,19.33,3.605c-.67-9.694-1.1073-15.907-1.1073-15.907l-17.43-1.1861c-.0053.2358-.3592,5.341-.9222,13.3807C297.1005,643.3547,297.1454,643.3822,297.1874,643.4245Z" style="fill:#3e1e17"/><path d="M290.7854,618.9333s4.6552,22.4294,6.1363,23.699,19.0438,1.058,19.89,0,6.348-31.74,6.348-31.74l-17.404-4.1261-14.1241,4.9725Z" style="fill:#633527"/><path d="M290.7854,618.9333s1.4491,6.982,2.9875,13.3756c0,0,8.9678-16.8669,10.0258-16.8669s9.2045,7.0885,15.2206,17.56c1.8521-9.3464,4.1406-22.1091,4.1406-22.1091l-17.404-4.1261-14.1241,4.9725Z" style="fill:#3e1e17"/><path d="M282.11,579.47c2.2218.6348,1.4283,19.6786,23.9634,27.2961-11.4262,11.4262-14.23,28.3392-16.6633,27.6135-18.0916-5.3958-31.4222-39.6746-31.4222-39.6746a128.9752,128.9752,0,0,1,11.7436-7.3C275.6818,584.43,280.6134,579.6064,282.11,579.47Z" style="fill:#fdfdfd"/><path d="M281.3164,588.5162c1.8724.641,4.044,7.6406,5.5545,8.8871a57.5463,57.5463,0,0,0,9.6574,6.862,29.221,29.221,0,0,0,9.5021,2.5458c.0146-.0147.0283-.03.0429-.0446-22.5351-7.6175-21.7416-26.6613-23.9634-27.2961-1.4965.1359-6.4281,4.96-12.3785,7.9349a124.4434,124.4434,0,0,0-11.5449,7.1629S279.6546,587.9471,281.3164,588.5162Z" style="fill:#c5c5be"/><path d="M330.3542,579.47c-2.2218.6348-1.1109,18.8851-24.5983,27.2961,11.4263,11.4262,14.8649,28.3392,17.2982,27.6135,18.0916-5.3958,31.4222-39.6746,31.4222-39.6746a128.967,128.967,0,0,0-11.7437-7.3C336.7823,584.43,331.8507,579.6064,330.3542,579.47Z" style="fill:#fdfdfd"/><path d="M324.8526,599.89c4.8425-4.47,3.3178-7.4069,5.29-12.4842.5912-1.5221,24.3337,7.3,24.3337,7.3a128.967,128.967,0,0,0-11.7437-7.3c-5.95-2.9752-10.8819-7.799-12.3784-7.9349-2.2218.6348-.6348,18.938-24.5983,27.2961C306.0309,607.0413,319.3511,604.9679,324.8526,599.89Z" style="fill:#c5c5be"/><path d="M453.3982,1022.45c2.784-2.5383-52.6373-309.1442-52.6373-309.1442l22.8864-77.0639.5671-1.9213,1.3034-4.3843c-10.7744-15.11-33.38-26.1412-48.9679-32.3325,0,0-8.9545,80.1536-73.7034,111.0469.4232,21.16,8.6938,253.4918,8.6938,253.4918,3.5643,29.6665,10.1606,84.3063,10.5616,84.5355C323.5831,1047.5245,431.8153,1042.1287,453.3982,1022.45Z" style="fill:#4a4238"/><path d="M163.9326,1019.5936c-2.5553-2.7683,37.1354-298.0354,37.1354-298.0354L190.0311,636.242l-.5671-1.9213-1.3035-4.3843c10.99-15.4122,34.2872-26.58,49.8933-32.6976,0,0,6.3917,69.0924,66.9087,111.412,0,0,37.5044,254.935,38.9339,336.5461,0,0-13.3306,2.7508-35.4426,1.4812C306.9726,1047.5245,177.2633,1040.5417,163.9326,1019.5936Z" style="fill:#4a4238"/><path d="M200.7506,732.0323s.646-4.985,1.5829-12.0616c2.1667-16.3645,5.8889-43.914,6.7752-46.8684,1.27-4.2319,10.6749,20.5532,10.3683,30.3643C219.0538,717.0089,200.7506,732.0323,200.7506,732.0323Z" style="fill:#332c24"/><path d="M165.52,1015.7848c.6348-32.3744,33.9614-267.8827,34.5962-283.7525l11.1089.3174C211.1189,736.74,168.6935,1020.8631,165.52,1015.7848Z" style="fill:#332c24"/><path d="M201.7028,729.8105c1.6928.4232,97.4407,1.058,101.6727.6348s99.2393-.9522,99.2393-.9522l.9522,5.0784-100.9321.3195-103.1539-.6369Z" style="fill:#332c24"/><path d="M399.97,713.3059s-1.6928-46.5515,2.9624-54.169,16.5046-16.9278,16.5046-16.9278S404.625,698.9173,399.97,713.3059Z" style="fill:#332c24"/><polygon points="383.465 731.503 426.843 1032.924 431.498 1031.655 386.004 731.292 383.465 731.503" style="fill:#332c24"/><polygon points="355.534 730.445 388.755 1040.33 393.199 1039.695 359.766 731.292 355.534 730.445" style="fill:#332c24"/><polygon points="330.354 732.773 349.292 1044.682 354.495 1044.285 334.586 732.35 330.354 732.773" style="fill:#332c24"/><polygon points="303.593 733.956 304.312 1046.353 309.529 1046.276 307.843 733.794 303.593 733.956" style="fill:#332c24"/><polygon points="224.184 731.503 183.929 1030.173 179.273 1028.269 220.799 731.927 224.184 731.503" style="fill:#332c24"/><polygon points="249.576 731.927 222.713 1041.709 217.541 1041.016 245.344 732.773 249.576 731.927" style="fill:#332c24"/><polygon points="277.507 733.619 262.378 1045.529 257.175 1045.131 273.275 733.196 277.507 733.619" style="fill:#332c24"/><path d="M409.4917,659.1369A21.5446,21.5446,0,0,0,422.5929,638.86c-.1324-6.9336-4.2647-13.2987-10.5781-17.9328l.411-.5652c-10.2039-6.9827-35.992-15.87-36.7341-14.6-.2914.4986.0763,4.5262.6406,9.268-7.4291,2.172-13.7,6.4238-16.9281,12.3881-6.1512,11.3661.32,25.056,15.649,31.3227-6.8451,50.6466-23.8406,141.9176-23.5393,144.7063.5287,4.8922,38.9877,36.6243,40.07,36.616s40.3349-34.2556,40.76-39.1552C432.584,798.1478,417.46,710.0371,409.4917,659.1369Z" style="fill:#332c24"/><path d="M395.4975,617.8042l-9.7153.9066-9.7328-.7565s-23.7662,174.5358-23.3507,178.38c.5287,4.8922,34.4175,35.2727,35.5,35.2644s33.9839-30.9045,34.4094-35.804C422.9421,791.9447,395.4975,617.8042,395.4975,617.8042Z" style="fill:#facc47"/><path d="M392.813,638.53l-6.8137.77-6.8287-.6645s-16.3752,150.5062-16.0772,153.8222c.3792,4.22,24.5482,26.8654,25.3073,26.86s23.442-23.0128,23.7322-27.2381C412.3609,788.7586,392.813,638.53,392.813,638.53Z" style="fill:#fff6dd"/><path d="M375.2746,623.324c-.1856-.6348-3.7106-24.7569-2.9684-26.0265s26.53,7.6175,36.734,14.6l-14.6565,20.1547Z" style="fill:#bc9022"/><path d="M419.2073,630.3957c.2816,14.7452-16.9565,26.3783-38.57,22.4647s-31.8615-20.5241-24.619-33.9068c5.8494-10.8087,21.6856-16.0078,36.316-13.3586S418.98,618.4866,419.2073,630.3957Z" style="fill:#facc47"/><path d="M409.5917,630.5359c.2439,10.2874-11.9467,18.3654-27.2868,15.5876s-22.6582-14.3883-17.5619-23.7087c4.1162-7.5278,15.3318-11.12,25.7159-9.24S409.3947,622.2272,409.5917,630.5359Z" style="fill:#fff6dd"/></g><path d="M187.2432,227.23c-31.47,14.3488-67.6722,59.4063-83.2465,108.9887-11.1044,35.3521-11.4491,73.3022,10.5213,104.394l61.3672-169.4682Z" style="fill:#8b5e19"/><path d="M368.2759,216.6417c66.5281,17.34,153.9843,134.954,105.942,212.7878l-71.776-165.3287Z" style="fill:#8b5e19"/><path d="M133.0762,423.7524s-5.2561-45.1055-29.0048-37.7679c-8.65,2.6725-13.8807,19.5121-12.4052,36.4222,1.5305,17.5395,8.7086,47.0168,33.7518,48.8083Z" style="fill:#efa789"/><path d="M454.73,413.7522s2.4439-45.3449,26.6026-39.4967c8.799,2.13,15.066,18.612,14.6438,35.5812-.438,17.6007-5.7711,47.467-30.6547,50.8107Z" style="fill:#efa789"/><path d="M478.2115,469.77c.1614,52.4947-39.5516,107.4978-171.3452,111.5953s-189.43-47.8791-192.52-100.2827a99.7229,99.7229,0,0,1,1.16-22.32c.1268-.801.2754-1.603.424-2.4051l-.01.0114,30.3165-137.6075s23.386-91.9818,142.2147-95.6762c115.7311-3.5981,146.9852,83.6356,146.9852,83.6356l39.5521,138.13.1428.5051A100.3414,100.3414,0,0,1,478.2115,469.77Z" style="fill:#ffd8bb"/><path d="M159.53,369.3425c2.6218-3.48-4.6633-14.7349-4.6633-14.7349,6.84-19.2977,44.7354-48.9417,51.4917-50.1222,4.3518,4.7168,23.2261,11.62,29.5268,13.3149,45.2429,12.1711,81.8205-.6029,94.6583-14.2645-27.854,9.2763-75.1748-4.1324-80.9-11.3943,44.3152-10.4351,71.727.02,94.5887,4.3041,52.71,9.8779,84.8379,46.5414,82.4043,49.3892-2.6342,3.0826-8.2652,12.2689-5.6879,14.7332,19.003,18.1708,35.0473,34.8162,51.0409,73.8062L435.4372,306.7205s-31.2541-87.2337-146.9852-83.6356c-118.8287,3.6943-142.2147,95.6761-142.2147,95.6761S112.63,445.1015,116.4453,450.58C130.3278,408.097,153.7381,377.03,159.53,369.3425Z" style="fill:#efa789"/><path d="M299.0087,563.5638C195.6359,566.7777,127.64,528.86,114.3468,481.084c3.09,52.3971,60.7259,104.3785,192.52,100.281s171.5018-59.1053,171.34-111.5934C471.88,512.4181,431.1729,559.4548,299.0087,563.5638Z" style="fill:#efa789"/><path d="M383.5811,371.0027a63.4866,63.4866,0,0,0-61.4287,64.3482c-4.5437-5.6582-13.8065-9.3637-24.3782-9.0351-10.68.3321-19.7723,4.69-23.8982,10.7144a63.3638,63.3638,0,1,0-.4675,11.0637,15.9084,15.9084,0,0,1,1.7484-2.5452c4.4761-5.3538,13.0146-9.1269,22.922-9.4349q1.1432-.0356,2.2646-.009a40,40,0,0,1,4.376.3408q1.0645.1427,2.096.34c7.3887,1.4146,13.3853,4.8978,16.4312,9.4695a63.4242,63.4242,0,1,0,60.3344-75.2527Zm.1916,6.1622a57.2593,57.2593,0,1,1-55.4523,59.011A57.3239,57.3239,0,0,1,383.7727,377.1649ZM208.75,382.6064a57.2593,57.2593,0,1,1-55.4523,59.0109A57.324,57.324,0,0,1,208.75,382.6064Z" style="fill:#efa789"/><path d="M157.689,481.5342c-18.8987,1.378-30.714,10.3859-31.2394,19.2139-.4169,7.0064,6.3667,26.4332,33.4044,24.9254C190.9554,523.9391,199.867,478.4586,157.689,481.5342Z" style="fill:#f6906e"/><path d="M149.9245,496.5945a1.8554,1.8554,0,0,1-2.3916-.22,2.0741,2.0741,0,0,1-.1241-2.83,88.3748,88.3748,0,0,1,9.1095-8.5868,1.8683,1.8683,0,0,1,2.6884.393,2.059,2.059,0,0,1-.31,2.81,86.1846,86.1846,0,0,0-8.6649,8.1561A1.8746,1.8746,0,0,1,149.9245,496.5945Z" style="fill:#c45c44"/><path d="M160.7255,497.625a1.8566,1.8566,0,0,1-2.4287-.2587,2.07,2.07,0,0,1-.0444-2.83,92.4509,92.4509,0,0,1,8.0814-7.4526,1.8592,1.8592,0,0,1,2.6868.3927,2.058,2.058,0,0,1-.3139,2.8085,90.3785,90.3785,0,0,0-7.7088,7.1037A1.903,1.903,0,0,1,160.7255,497.625Z" style="fill:#c45c44"/><path d="M440.1346,475.5023c-18.963.7189-31.43,9.3127-32.6143,18.12-.94,6.99,4.3781,26.6475,31.4745,26.0762C470.154,519.0419,482.4422,473.8985,440.1346,475.5023Z" style="fill:#f6906e"/><path d="M426.0418,490.393a1.8325,1.8325,0,0,1-2.3705-.303,2.077,2.077,0,0,1,.0855-2.8336,93.6486,93.6486,0,0,1,9.726-8.2662,1.8377,1.8377,0,0,1,2.6537.4864,2.0923,2.0923,0,0,1-.517,2.7985,91.3209,91.3209,0,0,0-9.25,7.8513A1.99,1.99,0,0,1,426.0418,490.393Z" style="fill:#c45c44"/><path d="M436.7442,491.7986a1.8311,1.8311,0,0,1-2.4044-.343,2.0789,2.0789,0,0,1,.165-2.8306,98.0094,98.0094,0,0,1,8.6152-7.168,1.8288,1.8288,0,0,1,2.6519.4861,2.0915,2.0915,0,0,1-.521,2.7962,95.7867,95.7867,0,0,0-8.2174,6.8322A2.01,2.01,0,0,1,436.7442,491.7986Z" style="fill:#c45c44"/><path d="M206.46,486.7022c-19.5713-9.0739-30.288-22.97-25.0135-47.9818,6.1238-24.6085,15.5162-49.9727,36.9106-52.772,24.044-3.1459,36.9383,23.47,37.1926,54.1208C257.2829,467.8454,243.2692,495.8443,206.46,486.7022Z" style="fill:#efa789"/><path d="M207.1454,477.2016c-16.1468-3.4328-23.4976-23.6516-25.2727-40.7547,5.62-22.5244,17.9308-44.4967,37.505-47.0566,21.9969-2.8768,33.801,21.4676,34.0429,49.5227a131.0754,131.0754,0,0,1-.6738,17.0948C250.8353,463.7771,238.4666,484.7346,207.1454,477.2016Z" style="fill:#efa789"/><path d="M208.2,456.59c-8.9714-1.9073-18.64-12.3978-19.6261-21.9006,2.03-22.0333,12.8852-38.8552,23.7609-40.2775,12.2218-1.5984,20.0888,14.8116,20.2232,30.3995a72.8341,72.8341,0,0,1-.3744,9.4982C231.1214,438.6265,232.0843,464.8188,208.2,456.59Z" style="fill:#ffd8bb"/><path d="M182.2891,434.1853c-4.4745,1.5987-.5867,47.0017,37.46,49.2242,10.0732.5884,19.5494-4.838,26.3947-13.3439,5.3685-6.6709,9.0527-18.2762,7.538-18.6238s-8.0856,23.5844-33.1144,22.45C181.74,472.1313,182.5711,434.0863,182.2891,434.1853Z" style="fill:#563117"/><path d="M393.1257,482.7709c19.1719-9.89,29.2941-24.2244,22.9711-48.9924-7.1544-24.3288-17.6064-49.2751-39.1-51.1711-24.1552-2.1308-35.9174,25.0047-34.881,55.6387C341.5537,466.0706,356.7339,493.4547,393.1257,482.7709Z" style="fill:#efa789"/><path d="M392.0407,473.3077c15.988-4.11,22.481-24.62,23.5345-41.7827-6.5631-22.2678-19.7884-43.7023-39.453-45.4358-22.0985-1.9481-32.8672,22.8716-31.9277,50.9121a131.0518,131.0518,0,0,0,1.393,17.0512C347.8243,461.7344,361.0644,482.1526,392.0407,473.3077Z" style="fill:#efa789"/><path d="M375.0435,453.5076c10.2756.9694,21.935-1.8259,22.52-11.3618-2.956-21.9283-18.3433-49.6239-29.2693-50.5871-24.4742-3.4731-23.1627,38.3245-20.808,47.7611C348.7294,443.588,352.0961,453.4519,375.0435,453.5076Z" style="fill:#ffd8bb"/><path d="M415.0639,429.283c4.5378,1.4088,2.5651,46.9353-35.3541,50.7576-10.0395,1.012-19.7357-4.0106-26.933-12.2207-5.6446-6.439-9.8142-17.8789-8.3154-18.29s9.0713,23.2231,34.03,21.0357C417.21,467.1721,414.778,429.1959,415.0639,429.283Z" style="fill:#563117"/><path d="M287.5642,479.452c-.0636-2.8609,1.785-11.1453,7.0942-9.9735,5.3071,1.1713,9.5031,7.9175,7.1114,10.1007C299.38,481.7611,287.6115,481.5827,287.5642,479.452Z" style="fill:#efa789"/><path d="M263.77,537.3719c5.4288-18.0228,23.9181-37.6283,34.8069-37.7368,10.907-.0815,28.3226,17.2648,36.257,31.1149,3.8235,6.6742-9.4992,9.4184-11.7589,5.1442-7.4953-14.177-18.0149-26.2567-23.8773-26.2152-5.83.0584-14.1287,9.2069-25.1579,29.5671C271.4836,543.9643,262.6223,541.1811,263.77,537.3719Z" style="fill:#efa789"/><path d="M269.509,538.3416a4.2477,4.2477,0,0,1-1.0259-.1877c-1.7293-.5438-2.6964-2.0582-2.16-3.3823,5.4026-13.35,21.9284-34.0182,32.8172-34.1267,10.9065-.1025,25.9948,14.8276,33.7631,28.7268.7542,1.3494.0309,2.8319-1.6151,3.311a3.8965,3.8965,0,0,1-4.3459-1.5759c-7.8658-14.0729-21.2789-25.3127-27.1414-25.2771-5.83.0584-21.4439,16.6464-27.2162,30.9082A3.0266,3.0266,0,0,1,269.509,538.3416Z" style="fill:#905448"/><path d="M166.409,344.4179c-10.8784-6.3109-3.7694,19.2639,27.1722,29.9821,12.683,4.3934,34.2768,1.627,42.1959-2.6874,16.8089-9.1576,18.1525-28.2545,15.2571-30.67-5.06-4.22-13.6929,15.752-35.2851,16.4187C201.95,357.8876,177.2115,350.6847,166.409,344.4179Z" style="fill:#efa789"/><path d="M157.8752,334.7964c10.2555,32.1419,41.6961,33.98,56.1194,34.2962,4.1767.0916,21.8415-1.9521,29.6761-10.2193,4.6749-4.933,8.2041-17.1923,7.044-17.88-2.9951-1.7763-11.0881,12.3408-23.9048,16.8856C215.2546,361.976,167.7532,359.5712,157.8752,334.7964Z" style="fill:#a98330"/><path d="M264.5527,357.5876c-3.9537,8.5413-13.6706,9.0442-13.6706,9.0442a61.4257,61.4257,0,0,0,11.9408-23.1906C263.693,340.1914,268.5064,349.0463,264.5527,357.5876Z" style="fill:#efa789"/><path d="M385.3129,316.6767c4.8229-11.615,14.127,12.1075,1.3486,42.2568-8.54,20.15-31.041,20.1408-39.9543,21.5126-18.9187,2.9116-31.5679-11.4584-30.73-15.1347,1.4638-6.4241,20.44,4.2215,38.0134-8.3423C365.2214,348.94,380.5237,328.2106,385.3129,316.6767Z" style="fill:#efa789"/><path d="M386.2639,303.8512c11.3368,31.7765-12.5485,52.304-23.8252,61.3022-3.2655,2.6058-18.5509,11.693-29.794,9.87-6.7087-1.0875-16.9491-8.6953-16.4439-9.9458,1.3044-3.2287,16.3,3.0887,29.2475-1.07C357.1212,360.2588,393.4334,329.5409,386.2639,303.8512Z" style="fill:#a98330"/><path d="M314.0524,385.8551c7.2716,5.9757,16.2421,2.2074,16.2421,2.2074A21.8638,21.8638,0,0,1,312.9922,369.69C312.4331,366.3726,306.7807,379.88,314.0524,385.8551Z" style="fill:#efa789"/><path d="M296.7651,369.6642c.2417,9.4089,8.9622,13.7245,8.9622,13.7245a61.4264,61.4264,0,0,1-1.7633-26.0246C304.4542,354.0358,296.5235,360.2553,296.7651,369.6642Z" style="fill:#efa789"/><path d="M211.4779,498.088a63.4244,63.4244,0,1,1,61.4229-65.3647A63.4962,63.4962,0,0,1,211.4779,498.088Zm-3.75-120.6254a57.2593,57.2593,0,1,0,59.011,55.4523A57.3238,57.3238,0,0,0,207.7276,377.4626Z" style="fill:#7c5b3c"/><path d="M212.9759,494.726a57.56,57.56,0,0,0,46.6719-88.63,57.5709,57.5709,0,0,1-98.2656,59.9591A57.6342,57.6342,0,0,0,212.9759,494.726Z" style="fill:#aa866d"/><path d="M148.6307,438.2831a61.716,61.716,0,0,1,113.7468-35.0748A61.7161,61.7161,0,1,0,156.9828,467.403,61.3522,61.3522,0,0,1,148.6307,438.2831Z" style="fill:#aa866d"/><path d="M258.491,409.4824l-83.85,67.8415a55.0937,55.0937,0,0,1-17.968-26.9822v-.0062l81.3938-62.7381A55.2512,55.2512,0,0,1,258.491,409.4824Z" style="fill:#fdfdfd;opacity:0.30000000000000004"/><path d="M220.8235,380.7625,154.41,434.492a55.1167,55.1167,0,0,1,66.4139-53.73Z" style="fill:#fdfdfd;opacity:0.30000000000000004"/><path d="M386.5,492.6465a63.4244,63.4244,0,1,1,61.4229-65.3647A63.4961,63.4961,0,0,1,386.5,492.6465Zm-3.75-120.6254a57.2593,57.2593,0,1,0,59.0109,55.4523A57.3241,57.3241,0,0,0,382.75,372.0211Z" style="fill:#7c5b3c"/><path d="M387.9985,489.2846a57.56,57.56,0,0,0,46.6719-88.63,57.5709,57.5709,0,0,1-98.2656,59.9591A57.6345,57.6345,0,0,0,387.9985,489.2846Z" style="fill:#aa866d"/><path d="M323.6533,432.8416A61.716,61.716,0,0,1,437.4,397.7668a61.7161,61.7161,0,1,0-105.3946,64.1947A61.3511,61.3511,0,0,1,323.6533,432.8416Z" style="fill:#aa866d"/><path d="M433.5136,404.0409l-83.8505,67.8416A55.0949,55.0949,0,0,1,331.6952,444.9l0-.0061,81.3938-62.7382A55.2528,55.2528,0,0,1,433.5136,404.0409Z" style="fill:#fdfdfd;opacity:0.30000000000000004"/><path d="M395.846,375.3211l-66.4138,53.7294a55.1162,55.1162,0,0,1,66.4138-53.7294Z" style="fill:#fdfdfd;opacity:0.30000000000000004"/><path d="M297.0563,430.97c12.1938-.3791,22.644,4.6094,26.12,11.771a11.9307,11.9307,0,0,0,.9238-4.9324c-.3-9.6483-12.5444-17.0968-27.3488-16.6365s-26.5624,8.6549-26.2625,18.3033a11.9313,11.9313,0,0,0,1.2285,4.8655C274.7425,436.977,284.8626,431.349,297.0563,430.97Z" style="fill:#7c5b3c"/><path d="M279.5826,430.1591a1.233,1.233,0,0,1-.681-2.2853,37.4533,37.4533,0,0,1,18.0569-5.0122,1.233,1.233,0,0,1,.0766,2.4649,34.9639,34.9639,0,0,0-16.8506,4.6531A1.2288,1.2288,0,0,1,279.5826,430.1591Z" style="fill:#aa866d"/><path d="M271.5077,443.88c.0677.1542.1361.3081.21.46,3.0248-7.3636,13.1449-12.9917,25.3386-13.3708s22.644,4.61,26.12,11.771a12.3821,12.3821,0,0,0,.8027-2.8993c-3.2493-7.4024-13.885-12.6078-26.3333-12.2207C283.9,428.0482,272.7873,435.1447,271.5077,443.88Z" style="fill:#604128"/><path d="M159.0708,333.7745c24.94-40.5629,76.2933-52.82,104.07-54.7618,51.229-3.5806,101.2183,11.6992,132.7311,24.1094,31.6922,12.4807,74.9975,102.4743,77.484,88.811s-1.3083-37.57-10.6421-66.3925c-9.024-27.8664-24.8828-61.2078-52.3567-84.563-36.9974-42.46-114.1355-58.9335-169.8063-50.3333-34.05,5.26-84.0675,28.7-92.4663,70.69C137.4154,292.7194,147.0558,324.4042,159.0708,333.7745Z" style="fill:#a98330"/><path d="M227.02,203.1805c17.8924-4.566,61.9787-14.5424,120.3048,2.3625-35.0168-13.5906-74.9649-18.7721-107.3967-13.7619-34.05,5.26-83.381,33.6459-91.78,75.6354-.0182.0533-.0331.1066-.0512.16C166.0087,228.0441,211.2336,207.2091,227.02,203.1805Z" style="fill:#cca962"/><path d="M255.5134,209.3771s-52.1381-14.1058-100.6727,47.145c-47.69,60.1848-27.1423,144.3994-27.1423,144.3994S147.2309,296.2959,253.4226,278.438Z" style="fill:#a98330"/><path d="M198.99,224.5393c12.2068,4.8623,26.9664-1.7565,41.7716-8.2935s20.67-16.953-3.7076-14.1442S189.0267,220.57,198.99,224.5393Z" style="fill:#cca962"/><path d="M230.8326,225.7908c3.8568-1.9712,15.1289-5.3647,16.3136-2.54s-13.8315,11.05-18.0646,10.301S227.9335,227.2726,230.8326,225.7908Z" style="fill:#cca962"/><path d="M164.9738,270.2177c-2.1205-.5629-5.1513-7.837-2.3929-17.1019,1.655-5.559,9.18-11.43,15.3987-12.3,1.8735-.2621-6.97,9.3551-8.7262,15.8046C167.6827,262.3884,168.1019,271.0482,164.9738,270.2177Z" style="fill:#8b5e19"/><path d="M168.5,271.6266c.3438-4.7622,6.0055-11.24,7.4447-10.2357,2.4594,1.7166-.8623,14.2287-3.7728,14.9529S168.338,273.8684,168.5,271.6266Z" style="fill:#8b5e19"/><path d="M129.553,315.4794s-32.7891,67.7342-12.9737,134.2985c0,0,10.5514-54.0789,35.7812-85.3037Z" style="fill:#a98330"/><path d="M122.1036,334.5533c-10.9859,24.4335-21.5771,72.2059-5.5243,115.2246a282.8514,282.8514,0,0,1,10.1723-36.02C110.9235,394.36,118.1078,347.987,122.1036,334.5533Z" style="fill:#8b5e19"/><path d="M454.63,322.5734s33.775,48.464,18.1333,116.1307c0,0-13.8908-53.319-41.0118-82.9162Z" style="fill:#a98330"/><path d="M456.89,326.1877c2.3038,5.588,15.1434,44.0059,4.3894,79.3545a281.0973,281.0973,0,0,1,11.4843,33.1619C485.9005,381.8734,464.1833,338.5937,456.89,326.1877Z" style="fill:#8b5e19"/><path d="M428.3074,316.3466c-27.9695-25.6555-72.0607-33.2164-87.9138-39.3186-49.7638-19.1553-117.8024-10.0065-131.09-2.6754-13.2976,7.3364-24.3131,17.6281-34.516,28.7555-10.0858,11-25.9649,25.02-36.2582,35.8337-3.9611,4.1613,13.5531,25.877,13.8315,25.5324L146.8843,352.71c13.1908-22.7135,34.7548-48.0781,69.2014-63.2389a169.6327,169.6327,0,0,1,47.0554-10.4586c51.229-3.5807,101.2183,11.6991,132.7311,24.1093,13.3311,5.25,28.7164,24.2149,42.2546,43.4109C438.1268,346.533,434.6269,322.1432,428.3074,316.3466Z" style="fill:#8b5e19"/><path d="M219.405,245.5307c3.0542,35.8108,59.159,61.2385,108.4221,53.8843-35.1778,23.4135-122.9141,10.6144-129.7558-22.1674C198.0713,277.2476,206.224,258.5561,219.405,245.5307Z" style="fill:#a98330"/><path d="M219.405,245.5307c2.2634,26.5385,33.6618,47.3747,69.8195,53.3924,0,0-41.4542,2.3339-69.08-26.1356A28.7493,28.7493,0,0,1,219.405,245.5307Z" style="fill:#8b5e19"/><path d="M325.9435,655.7667s-22.8479-9.053-38.7983-5.1731-46.558,23.279-42.6782,31.0386,52.5933,3.0177,64.6639-1.2933S325.9435,655.7667,325.9435,655.7667Z" style="fill:#efa789"/><path d="M425.0947,667.4062c-4.742-4.742-21.9767.987-21.9767.987s-2.2017-3.4195-5.6617-4.2352-5.1669.5006-9.4948-.7345-77.8708-19.8624-80.865-18.0976c-8.8434,15.64-7.9426,50.5492-7.9136,52.7045s14.2653,2.826,19.8806,3.6127c2.8639.4013,49.3242,13.0249,65.235,17.9845,3.5528,1.1074,21.9359,7.5926,33.8987,8.5626,5.6877.4612,30.1651-15.1948,28.8832-27.1588C445.1405,682.9255,429.8367,672.1482,425.0947,667.4062Z" style="fill:#4a4238"/><path d="M435,683.1074c-9.031-4.9732-68.5045,8.54-77.5,3.5-17.6518-9.89-36.9357-15.7761-56.2465-22.0376-2.5095,15.3949-2.09,31.9953-2.0706,33.4606.0291,2.1552,14.2652,2.8261,19.8806,3.6127,2.864.4012,37.5273,16.4143,53.4379,21.374,3.553,1.1072,25.4345,9.0529,49.5756,6.0353,1.71-.2138,12.8937-5.0727,16.8126-7.3286C463,703.1074,443.9515,688.0367,435,683.1074Z" style="fill:#332c24"/><path d="M200.4352,677.0155l10.5015-1.5846s2.7119-3.0308,6.2572-3.2923,5.0238,1.3068,9.4921.7675,80.0253-7.3711,82.7047-5.1574c6.2743,16.8356-.1043,51.1693-.4718,53.2932s-14.5323.5478-20.2014.4418c-2.8914-.0541-49.3124,9.9146-65.8051,12.3107-2.5995.3777-19.2355,3.7575-37.505,4.742-7.6129.41-28.4521-3.0176-30.1765-14.226C151.6428,691.3273,200.4352,677.0155,200.4352,677.0155Z" style="fill:#4a4238"/><path d="M222.4813,733.3633s53.7743-10.5476,56.2576-10.9929,26.3561.1308,28.1287,0,43.6481-3.88,72.7469-3.88c-21.3391-9.7-60.1374-29.0987-71.7769-32.9785C300.2162,682.9716,202,677.6074,169,695.1074,156.4889,701.7421,138.5,720.1074,222.4813,733.3633Z" style="fill:#332c24"/><path d="M69.3373,765.2249c9.316-27.8328,462.0245-41.6672,468.6408,0,6.6953,42.1644-7.6628,412.3263-12.498,426.6973-4.3683,12.9251-440.8743,14.1947-443.68,0C78.6893,1173.7424,59.9472,793.2787,69.3373,765.2249Z" style="fill:#724c1c"/><path d="M110.8473,784.7353c7.6627-24.298,380.0259-36.3754,385.468,0,5.507,36.8095-6.3029,359.96-10.28,372.5063-3.593,11.2836-362.6294,12.392-364.9371,0C118.54,1141.3707,103.1238,809.2263,110.8473,784.7353Z" style="fill:#513312"/><path d="M126.5421,789.7855c7.0375-22.9254,349.0226-34.3206,354.0207,0,5.0578,34.73-5.7886,339.6265-9.4413,351.4637-3.3,10.6462-333.0453,11.6919-335.1648,0C133.6068,1126.2747,119.4486,812.893,126.5421,789.7855Z" style="fill:#724c1c"/><circle cx="303.5063" cy="971.8782" r="132.6717" transform="translate(-598.3268 499.2679) rotate(-45)" style="fill:#fdfdfd"/><path d="M418.3623,971.6928a9.2307,9.2307,0,0,0-2.5781-.2858l-26.7016-53.9a3.794,3.794,0,0,0-.5041-3.3732,2.3308,2.3308,0,0,0-3.9631.7279c-4.2017,10.8478-16.6151,8.7043-24.4193,5.8151-12.2328-4.5534-22.4381-20.1658-34.6869-24.5078-6.0218-2.1346-12.2142-.8126-15.5914,2.945a2.4274,2.4274,0,0,0-.3779-1.1474,1.006,1.006,0,0,0-.2532-.1674c-.0112-.0057-.02-.0116-.0321-.0172a2.8422,2.8422,0,0,0-.3718-.1392c-.02-.0064-.04-.0128-.0614-.019-.1447-.0423-.3056-.0814-.481-.1178l-.0731-.0147-.0482-.01a8.9727,8.9727,0,0,0,.1-3.0007c-.6049-1.2836-3.8227-5.2275-4.739-5.2275s-4.0972,4.102-4.755,5.1263a8.68,8.68,0,0,0,.017,3.087,3.2427,3.2427,0,0,0-1.2056.3729,2.4242,2.4242,0,0,0-.462,1.2407c-3.3841-3.7308-9.5552-5.0394-15.5582-2.9114-12.2488,4.342-22.4542,19.9544-34.687,24.5078-7.8042,2.8892-20.2176,5.0327-24.4192-5.8151a2.3309,2.3309,0,0,0-3.9632-.7279,3.7943,3.7943,0,0,0-.5041,3.3732l-26.7016,53.9a9.2322,9.2322,0,0,0-2.5781.2858c-.6872.9528,2.2623,8.9547,8.4265,9.64,10.37,1.1534,33.7611.9226,44.1868.0626,4.8629-.4011,9.5578-8.9737,8.46-9.6112a.21.21,0,0,0-.0882-.0281,22.3064,22.3064,0,0,0-2.47-.1827l-22.7589-46.1531a14.4972,14.4972,0,0,0,6.6265,1.9371c14.0929.5415,26.054-8.7,38.723-15.321,15.2962-7.9937,24.0254-1.5479,26.9969-1.2.0115.1247.0235.2476.0362.3656h0l.0018.0141c.0078.0717.0164.1383.0247.2074.01.083.02.1667.03.2456.0092.0685.019.1325.0287.1979.0107.0729.0216.1455.0329.2143.01.0617.0208.12.0315.1781.012.0653.0242.1288.0368.1895.0112.0533.0223.1046.0339.1543.0136.0583.0276.1131.0419.1661.0115.043.023.0857.035.1251.0159.0521.0324.0986.049.1441.0115.0316.0229.0648.0348.0931a1.2361,1.2361,0,0,0,.06.1207c.01.0188.02.0414.0308.0578a.479.479,0,0,0,.0973.1154,6.9421,6.9421,0,0,0,2.6712.5686c.2138.02.4375.0376.6651.054-.3281,15.133-.6161,50.5977-.5135,63.7693a46.0871,46.0871,0,0,0-4.6528.166c-1.4672.2738-1.5151,4.76-.0539,5.0649a13.61,13.61,0,0,0,1.5355.135c-.8513,4.2611-1.2521,29.1485-.8369,40.3662l.0021.0592q.0217.5787.0463,1.107l.0031.0631c.0166.3528.0343.69.0529,1.0048l.0008.0123c.0191.3209.0393.6217.06.9l.0009.01c.02.2631.0414.5022.0636.7242l.0078.0793c.0213.2067.0435.3927.0666.56l.0116.08c.0191.1308.0386.2508.0591.3535-13.8887.0753-26.346.4138-27.54,1.0159-1.6255.82-4.5112,4.5613-6.6687,7.9662a24.78,24.78,0,0,0-5.0259.52,7.9774,7.9774,0,0,0-2.7545,3.2221l-.0025,0c-.0164.0293-.0319.0607-.0483.09q-.1467.265-.2895.54c-.0153.03-.031.058-.0461.0878-.1086.2126-.2146.43-.3188.6491-.0271.0572-.0535.1146-.08.1723-.0168.0362-.034.0723-.0507.1088a17.1018,17.1018,0,0,0-2.857.2888c-2.4214.8463-4.9784,4.8258-6.0055,7.683h-.0056c-.0159.0443-.0281.0856-.0433.1293-.0189.0545-.036.107-.0538.16-.069.2084-.13.41-.1808.6024-.006.0231-.0141.0478-.02.0706-.0522.2071-.09.3994-.1179.5823-.0069.0443-.0122.0866-.0175.1293a3.2822,3.2822,0,0,0-.0305.4675c0,.01-.0012.0219-.0008.0316a1.4689,1.4689,0,0,0,.0615.3809c.0081.0272.0174.0525.0273.0774a.6354.6354,0,0,0,.1643.2554c1.3012,1.1011,113.7974.734,115.8816,0s-2.12-9.3109-6.1975-10.57a15.8112,15.8112,0,0,0-2.5061-.2633c-1.0951-2.2724-2.5091-4.2828-3.9078-4.8963a23.8444,23.8444,0,0,0-4.66-.4935c-2.1585-3.4085-5.17-7.1881-6.9346-7.9925-1.3185-.6009-13.8-.9394-27.6719-1.0154.4347-3.3627.8993-19.1343.9264-31.266q.0023-.9488.0007-1.8654c-.003-1.8312-.0175-3.5527-.045-5.1031-.0136-.7752-.0306-1.5077-.0511-2.19s-.0446-1.3134-.0723-1.8867q-.0135-.2865-.0289-.5537c-.02-.3558-.0419-.6846-.0655-.9842-.0431-.5482-.0924-.9928-.1476-1.3311a9.6582,9.6582,0,0,0,1.5385-.1128c.8816-.28,1.5143-4.6875.0539-5.0649a46.6718,46.6718,0,0,0-5.7769-.3025c.2708-13.171.6464-48.507.6071-63.7086.1272-.0044.2539-.009.3775-.0146q.2334-.01.4571-.0239c.298-.0176.5816-.0389.8468-.064q.1986-.0188.3828-.04a7.1912,7.1912,0,0,0,1.1833-.217.9024.9024,0,0,0,.4279-.2225.98.98,0,0,0,.129-.3083,16.0074,16.0074,0,0,0,.3557-2.4046c.0184.002.0339.01.0526.011,2.592.2111,11.4048-7.1447,27.3457,1.1858,12.669,6.6206,24.63,15.8625,38.723,15.321a14.4964,14.4964,0,0,0,6.6264-1.9371l-22.7589,46.1531a22.3088,22.3088,0,0,0-2.47.1827.2109.2109,0,0,0-.0882.0281c-1.0974.6375,3.5975,9.21,8.46,9.6112,10.4256.86,33.8169,1.0908,44.1867-.0626C416.1,980.6475,419.05,972.6456,418.3623,971.6928Zm-3.9633-.3439c-5.4236-.1944-15.6632-.2486-25.9974-.2084V919.3081c.0143-.0356.0335-.07.0473-.1062.0177-.0457.0344-.0862.052-.1311ZM218.6241,919.0708c.0177.0449.0343.0854.052.1311.0139.0358.0331.0706.0473.1062v51.8324c-10.3342-.04-20.5737.014-25.9974.2084ZM245.8964,971.52c-5.41-.1869-15.6319-.3269-25.9575-.3744V921.4594a13.617,13.617,0,0,0,2.554,2.601Zm138.7357-47.46a13.6147,13.6147,0,0,0,2.5541-2.601v49.6864c-10.3256.0475-20.5471.1875-25.9575.3744Z" style="fill:#facc47"/><path d="M48.1177,712.6635c10.1631-5.123,504.03-7.6694,511.2483,0,7.304,7.7609,1.37,68.6862-13.6343,78.5389-14.7953,9.7155-467.0428,9.7155-484.0181,0C44.4988,781.35,37.874,717.8271,48.1177,712.6635Z" style="fill:#513312"/><path d="M23.2766,698.2441c10.9363-4.0327,553.4557-6.04,561.0464,0,7.6627,6.0969-1.52,53.4478-18.2127,61.021-16.4105,7.4451-505.9121,7.4451-524.68,0C22.3391,751.6919,12.2713,702.3023,23.2766,698.2441Z" style="fill:#724c1c"/><path d="M23.2766,698.2441c10.9363-4.0327,553.4557-6.04,561.0464,0,2.5087,1.9961,3.2275,8.2651,2.4866,16.1121,0,0-523.4444,14.3039-548.9642,15.6658C37.8454,722.4045,12.2713,702.3023,23.2766,698.2441Z" style="fill:#a07240"/></g></g></g></svg>