<svg xmlns="http://www.w3.org/2000/svg" viewBox="0 0 160.2461 232.5322"><g style="isolation:isolate"><g id="Layer_2" data-name="Layer 2"><g id="_1" data-name="1"><path d="M14.12,215.2813,13.105,232.5322s84.2256-.3379,125.8311-8.456Z" style="fill:#fcd59d"/><path d="M153.4834,16.1856,150.17,48.5938,19.628,35.5674l-1.12-20.3252C71.7789,13.3711,120.4268,16.1738,153.4834,16.1856Z" style="fill:#fcd59d"/><path d="M14.4581,209.0234l-1.0152,17.251s61.2246,8.626,102.83.5078Z" style="fill:#934444;opacity:0.5;mix-blend-mode:multiply"/><path d="M8.7076,197.3535l.3383,26.0459a625.53,625.53,0,0,0,143.4205,3.044c.7529-9.95,1.3369-19.7178,1.7983-29.4278Z" style="fill:#ffe7c0"/><path d="M16.4849,28.9912l.333,189.6729,136.3247.3379c4.396-58.1338,3.187-110.0469,3.7207-180.29C100.7129,35.668,51.3555,29.707,16.4849,28.9912Z" style="fill:#934444;opacity:0.5;mix-blend-mode:multiply"/><path d="M19.8672,26.9609,20.2,216.6348l136.3252.3379c4.396-58.1338,3.1871-110.0469,3.7207-180.29C104.0958,33.6377,54.7378,27.6777,19.8672,26.9609Z" style="fill:#fcd59d"/><path d="M16.3155,25.1006l.333,189.6728,137.0015-.6757c4.3959-58.1338,5.2167-110.7237,5.75-180.9668C103.25,30.0859,51.1866,25.8174,16.3155,25.1006Z" style="fill:#934444;opacity:0.5;mix-blend-mode:multiply"/><path d="M15.47,23.5791l.333,189.6729,137.0014-.6768c4.396-58.1338,5.2168-110.7236,5.75-180.9668C102.4043,28.5645,50.3409,24.2949,15.47,23.5791Z" style="fill:#ffe7c0"/><path d="M7.939,13.9766l2.03,37.8847L147.9771,41.7139l2.3677-18.2657C94.1944,20.4033,42.8111,14.6934,7.939,13.9766Z" style="fill:#934444;opacity:0.5;mix-blend-mode:multiply"/><path d="M6.6778,12.3281l2.03,37.8848L146.7159,40.0645l2.3676-18.2657C92.9332,18.7549,41.55,13.0439,6.6778,12.3281Z" style="fill:#ffe7c0"/><polygon points="27.269 24.122 26.384 0.307 41.603 0 40.417 25.06 27.269 24.122" style="fill:#f45656"/><path d="M26.9415.2959l-.5577.0107.1172,3.1475A14.1821,14.1821,0,0,1,26.9415.2959Z" style="fill:#d33737"/><path d="M32.56,15.1631a13.3078,13.3078,0,0,1-5.9887-9.8193l.6982,18.7783,13.1475.9375.3725-7.8623A13.1409,13.1409,0,0,1,32.56,15.1631Z" style="fill:#d33737"/><path d="M155.3194,31.4336C94.5787,26.1992,51.544,21.5879,5.5513,22.7031,2.8443,94.2861,5.959,134.9023,8.2,212.5752c1.7237.3516.3379,4.5664.835,10.0117,34.42,5.8945,83.6138,3.6348,140.6118-3.2451C153.7989,145.2256,156.0674,89.6367,155.3194,31.4336Z" style="fill:#934444;opacity:0.5;mix-blend-mode:multiply"/><path d="M153.481,26.31C92.74,21.0752,49.7393,19.332,3.7471,20.4473,1.04,92.03-.2988,141.668,1.9424,219.3418c34.6529,7.06,85.2432,5.4375,145.2251-1.8037C151.3194,143.4219,154.2286,84.5127,153.481,26.31Z" style="fill:#ffbc5a"/><path d="M47.31,25.3691c-.0395-.04-.0786-.081-.1182-.12-.09,1.9658,3.28,4.7207,4.7652,6.3965C61.6338,42.56,71.3609,51.7148,83.4488,59.9932c16.1787,11.0791,29.3452,25.61,47.4175,33.8994,7.2822,3.34,14.5493,6.3662,21.7241,9.5928.44-13.7666.7485-27.1846.9-40.4151-5.5855-5.5381-11.1729-11.0722-16.6963-16.6767-5.9341-6.02-14.4868-14.3467-19.0537-22.8975-28.2632-1.9854-52.8892-3.06-76.793-3.31A29.1059,29.1059,0,0,1,47.31,25.3691Z" style="fill:#ffb655"/><path d="M115.606,202.1133c-5.0361-5.0049-8.9448-10.8985-13.5815-16.19-.9214-1.0518-2.8579-2.7325-3.0093-4.1221-.4981-4.5781,8.2305-3.8174,11.1338-4.0742,12.1411-1.0713,23.4917,1.4209,35.4834,2.7285.9819.1074,2.1958.2685,3.5371.44.6479-12.292,1.2456-24.19,1.7764-35.7637-10.7125-3.0107-21.0855-7.3457-31.9463-9.9267-18.7852-4.4668-35.397-13.9727-53.3872-20.7666-17.502-6.6074-36.1343-13.917-51.1788-25.2735A62.9744,62.9744,0,0,1,1.8365,76.7578C1.04,105.3232.6519,132.29.8736,162.249c8.5-.0088,17.3735,4.1045,24.5317,7.9658,18.6533,10.0635,33.1011,25.6592,51.272,36.2247a234.8066,234.8066,0,0,0,30.3359,15.1894q9.1268-.7368,18.6363-1.6992c.01-.3623.018-.7051.0244-.9961C125.8667,210.9,120.8672,207.3438,115.606,202.1133Z" style="fill:#ffb655"/><path d="M2.6187,51.6543c.0356-.0312.0649-.0625.1006-.0928,2.3125-1.98,5.7344-3.1211,7.6123-5.3779,2.0156-2.4219,2.9053-6.9727,4.5493-9.834,2.0723-3.6064,1.89-6.6387,2.6885-10.5859a21.3663,21.3663,0,0,0,.5576-5.57c-4.7764.0527-9.5615.1377-14.38.2539C3.337,31.2979,2.9585,41.6387,2.6187,51.6543Z" style="fill:#ffb655"/><path d="M10.1,194.6426a93.5856,93.5856,0,0,1-8.981-11.6162c.1841,11.497.4546,23.5195.8237,36.3154,13.1875,2.6855,28.689,4.1133,46.1324,4.4531C35.0308,214.5313,20.9869,206.7188,10.1,194.6426Z" style="fill:#ffb655"/><rect x="0.5985" y="170.9785" width="14.5359" height="34.1622" transform="translate(-2.8803 0.1426) rotate(-0.8778)" style="fill:#ffe2bb"/><rect x="0.2612" y="112.1625" width="9.1366" height="34.1613" transform="matrix(0.9999, -0.0153, 0.0153, 0.9999, -1.9755, 0.0889)" style="fill:#ffe2bb"/><rect x="-6.6434" y="65.1349" width="25.7528" height="10.1389" transform="translate(-64.1127 74.562) rotate(-88.4711)" style="fill:#ffe2bb"/><rect x="67.1104" y="22.4759" width="25.2563" height="84.3349" transform="translate(13.2387 142.8403) rotate(-88.653)" style="fill:#ffebc0"/><path d="M125.4815,81.4219,33.2686,79.25l.7266-31.3828,92.2138,2.1709Zm-90.83-3.4942L124.16,80.0371l.6655-28.6777L35.3169,49.252Z" style="fill:#ffebc0"/><g style="opacity:0.5;mix-blend-mode:multiply"><path d="M123.375,206.3018a22.2935,22.2935,0,1,0-27.9829-14.52A22.297,22.297,0,0,0,123.375,206.3018Zm-12.72-41.0752a20.9724,20.9724,0,1,1-13.7285,26.3466A21.0066,21.0066,0,0,1,110.6548,165.2266Z" style="fill:#934444"/><path d="M116.6324,166.085A18.999,18.999,0,1,0,135.63,185.084,19,19,0,0,0,116.6324,166.085Zm.5615,35.1748a17.1387,17.1387,0,1,1,17.1367-17.1387A17.1391,17.1391,0,0,1,117.1939,201.26Z" style="fill:#934444"/><polygon points="122.375 184.589 127.123 178.462 119.004 180.19 113.788 173.383 113.865 181.283 107.227 182.695 113.902 185.143 114 195.395 120.166 187.439 126.276 189.68 122.375 184.589" style="fill:#934444"/><path d="M125.8565,178.5254a1.1277,1.1277,0,1,0,1.1274-1.1289A1.1274,1.1274,0,0,0,125.8565,178.5254Z" style="fill:#934444"/><path d="M112.7774,173.2256a1.1277,1.1277,0,1,0,1.1274-1.1289A1.1277,1.1277,0,0,0,112.7774,173.2256Z" style="fill:#934444"/><path d="M106.3506,182.4717a1.1277,1.1277,0,1,0,1.1275-1.1279A1.1276,1.1276,0,0,0,106.3506,182.4717Z" style="fill:#934444"/><path d="M112.7774,195.2119a1.1277,1.1277,0,1,0,1.1274-1.1279A1.1271,1.1271,0,0,0,112.7774,195.2119Z" style="fill:#934444"/><path d="M125.4058,189.5752a1.1277,1.1277,0,1,0,1.1275-1.1279A1.1268,1.1268,0,0,0,125.4058,189.5752Z" style="fill:#934444"/></g><path d="M45.6934,56.5918c1.2983.03,4.2022,1.1611,4.0674,6.793-.1255,5.23-4.0361,5.3476-4.5664,5.334-.544-.0137-1.55-.003-1.8989-.0118-.2232-.0058-.2583-.2841-.25-.5976.0039-.1563.0219-.3125.0254-.4512.01-.417-.0122-1.2861-.003-1.65.0078-.35-.0415-1.2031-.0083-2.5771.0323-1.3545.1656-2.2207.1988-3.6114.0337-1.4082.0337-2.59.0429-2.955.0078-.3467.605-.2461.94-.2383l.5044-.0225C45.0381,56.5928,45.3731,56.584,45.6934,56.5918ZM46.232,64.43a3.0456,3.0456,0,0,0,.7446-1.9649,2.3342,2.3342,0,0,0-.6274-1.77,1.8512,1.8512,0,0,0-.645-.4345c.0092.1924.019.3828.0141.5927-.0146.6084-.0869,1.2676-.1,1.8252-.01.3985-.0376.9541-.0635,1.4571-.021.2949-.0283.6084-.0346.9043A2.5785,2.5785,0,0,0,46.232,64.43Z" style="fill:#934444"/><path d="M57.2457,63.0762c-.0606,2.52-1.045,6.3213-3.2344,6.27-3.0689-.0742-3.1924-4.79-3.1475-6.666.1206-5.0059,2.1294-6.1592,3.357-6.1289C57.2471,56.625,57.3067,60.5381,57.2457,63.0762Zm-2.4576.0986c.0215-.8867-.1963-1.7441-.601-1.7539-.5162-.0117-.7256,1.1309-.7432,1.8789-.0166.6943.0034,1.6162.5615,1.63C54.55,64.9424,54.7671,64.043,54.7881,63.1748Z" style="fill:#934444"/><path d="M64.8565,58.6846a.7064.7064,0,0,1,.1323.3515c-.0034.1748-.1606.2569-.3164.3741-.2143.1679-.9565.916-1.17,1.0507a.2052.2052,0,0,1-.1138.0489c-.1387-.003-.2041-.2149-.2842-.3369-.1215-.1592-.3476-.65-.8359-.6622s-.9067.5674-.9663,3.07c-.06,2.4853.5068,3.2646.8555,3.2734s.5337-.126.7031-.7314c.09-.3282.2324-.4122.3725-.4092a1.9807,1.9807,0,0,1,.3462.0947c.1934.0928,1.22.3955,1.6065.4922.1528.039.1909.2139.186.4228a1.6089,1.6089,0,0,1-.02.26,3.5691,3.5691,0,0,1-.1274.6045c-.2735.9521-1.03,2.8789-3.1651,2.83-1.4653-.0362-3.7441-1.5684-3.6186-6.834s2.3618-5.9805,3.6318-5.95A3.0212,3.0212,0,0,1,64.8565,58.6846Z" style="fill:#934444"/><path d="M70.1861,65.6123c.8379.0195.9614-1.0742.9736-1.6123.01-.3984.104-1.9629.1289-3.0225.0069-.2607.0122-.4882.002-.6611.02-.8506-.0264-2.4-.0161-2.8174s.083-.5556.3486-.55l1.772.043c.0547.001.1259-.0137.2085-.0117.1548.0039.3061.0761.3364.5293.021.2959.0019,1.1142-.021,2.0527-.0332,1.4063-.0879,3.0928-.104,3.7373-.0249,1.0586-.4229,6.0215-3.7163,5.9434-3.3042-.0791-3.44-3.1416-3.4756-4.0489-.01-.1728-.0039-.416.0029-.6943.03-1.2334.1636-3.3008.1573-4.2217.0283-1.164.0185-2.5381.0268-2.87.0078-.3476-.0532-.6435.3223-.6182.2368.0235.4878.0479.7251.0528a4.2854,4.2854,0,0,0,.4609-.0235,4.66,4.66,0,0,1,.5029-.0244c.2378.0069.461.0293.5581.0323.1812.0039.1929.1093.2.371l-.1665,6.9512C69.4034,64.5674,69.3365,65.5908,70.1861,65.6123Z" style="fill:#934444"/><path d="M76.83,63.1094c-.0122.539-.0957,2.8144-.11,3.4238l-.0781,2.71c-.0074.2793-.1861.205-.3956.1992-.1669-.0039-.476.041-.6718.0361-.2925-.0068-.2744-.1621-.25-.5976.0078-.33.018-2.52.0346-3.2315.0171-.7138.2144-3.0918.2286-3.7168s.0947-2.7617.1074-3.2666c.0058-.2441.0005-.6074.0078-.9394a1.8423,1.8423,0,0,1,.0869-.6934c.0439-.0518.0718-.0518.0986-.0508.07.002.1387.09.333.0615a2.1565,2.1565,0,0,1,.3506-.0107,1.3957,1.3957,0,0,1,.3887.0449c.2354.1094.2505.667.3223,1.1035a20.2637,20.2637,0,0,0,.7588,2.7832,24.02,24.02,0,0,1,.9209,2.8389c.09.334.2734.8584.4155,1.333l.2734.8233c.2207-.5.4273-.9649.62-1.4287l.9615-2.2383c.4716-1.0674,1.05-2.4961,1.36-3.1494.28-.6543.8233-1.8243,1.0186-1.8194.0844.002.1089.0879.1064.2285-.0063.26-.1142.6758-.15.9883-.0669.4678-.1382,3.4219-.1558,4.17-.0195.7989-.1264,2.9873-.1816,3.5254-.0195.2256-.0474.7823-.06,1.34-.0176.7461-.023,1.5439-.0264,1.6845,0,.0342-.002.0684-.002.087-.0039.1728-.0468.19-.0869.17h-.0288c-.0835-.002-.2378.0283-.3481.0273-.0835-.0185-.0957-.125-.09-.333-.0185.7647.0313-2.4687.1031-3.1094.0547-.5224.1572-2.4482.1689-2.9531-.0078-.2607.0347-.9209.0654-1.5986l.0586-1.252a2.21,2.21,0,0,0-.1767.3623c-.1021.2061-.2066.4463-.28.6368-.1636.38-1.0957,2.5654-1.2871,2.9785S80.0572,67.082,79.9366,67.41a6.0242,6.0242,0,0,1-.4424,1.0507c-.0562-.0009-.11-.1425-.2285-.4052a15.5988,15.5988,0,0,1-.5962-1.9092c-.1279-.5088-.9995-2.5117-1.168-3.0381-.0923-.2627-.2339-.7529-.35-1.1728-.0786-.2461-.1553-.5088-.2183-.7706l-.0473.7637C76.8628,62.3447,76.837,62.85,76.83,63.1094Z" style="fill:#934444"/><path d="M85.3575,62.9844c.0332-1.34-.0352-1.4629-.01-2.5069.0249-1.041.0776-2.0664.1035-2.5527.0078-.33.12-.3809.2735-.376.0708.001.1386.02.2094.0215.21.0059.4585.0635,1.0869.0781.5992.0147,1.5513-.12,2.0948-.1064.5727.0146,1.2822.1006,1.5478.1064s.2891.1641.2808.4942c-.0083.3662.0386.7842.0249,1.3232a4.0347,4.0347,0,0,1-.0576.6416c-.0191.208-.1045.2578-.2017.2549a1.6037,1.6037,0,0,1-.3047-.0937,6.8618,6.8618,0,0,0-1.2134-.0811c-.3481-.01-.7109-.05-1.0595-.0586a2.89,2.89,0,0,0-.3775.0068c-.208.0118-.4731.0235-.7378.0166-.3359-.0078-.6562-.0332-.7387-.0351-.1534-.0029-.1421.084-.148.3447-.0068.2783-.0674,1.06-.082,1.669l-.0249,1.0254c-.0049.1894-.0088.3642.001.5556a2.3048,2.3048,0,0,0,.3759.0264c.2359.0244.585.0312.9761.041.5147.0117,1.145-.042,1.48-.0342.335.01.5283.0655.6821.0694s.1792.0908.1758.2119-.0332.208-.041.5381.0029.4863-.0078.9209c-.0054.2255-.0489.2773-.1314.2763a2.4557,2.4557,0,0,0-.2505-.0595c-.2241-.0049-.5161-.0459-1.3945-.0674a13.01,13.01,0,0,0-1.6484.1.4778.4778,0,0,1-.1812-.0215c-.042-.002-.0688-.002-.083-.02l-.042,1.7382a.4671.4671,0,0,0,.1543-.0136c.0972.0029.2378-.0117.3911-.0088.3208.0078,1.0171.0088,1.645.0224.461.0118,1.2.0645,1.7584.0772.25.0059.46-.0059.5849-.0049.2378.0068.2759.1641.2715.3731-.0024.1044-.02.2431-.0225.3476-.0078.3486-.0312.711-.0429,1.2158-.0118.4873-.2325.376-.6783.3662-.4614-.0107-1.8-.0771-2.4565-.0947-.668-.0146-2.0229.0244-2.2041.0186-.0283,0-.0566.0146-.0845.0146-.1255-.0039-.1074-.1426-.1045-.2978-.0092-.1924-.0029-.4356.0015-.6446.0054-.207-.019-.38-.01-.7461l.0567-2.3808C85.22,64.6318,85.3257,64.3223,85.3575,62.9844Z" style="fill:#934444"/><path d="M96.63,57.8086c.0117-.5029.4292-.458.7217-.4522a10.1312,10.1312,0,0,0,1.5391-.1025c.3911-.0439.3838.2539.3164.791-.0347.2608-.0723,1.8262-.1114,3.458-.038,1.6162-.0795,3.3379-.0942,3.9287-.0356,1.4766-.0259,5.129-.0068,4.3467-.0049.209-.09.2764-.229.2735a.646.646,0,0,1-.1685-.0225.808.808,0,0,0-.2212-.0225c-.3081-.0078-.77.0518-1.0762.044-.3774-.0078-.4975-.2022-.6557-.6582-.1826-.4727-.5191-1.543-.917-2.4395-.1987-.4414-.5547-1.3369-.8706-2.1259l-.5786-1.4561-.0161.6611c-.0093.3994-.0337.8135-.0289,1.2159-.0185.7832-.0747,3.65-.0151,4.1191a1.24,1.24,0,0,1,.0083.2109c-.0058.26-.103.2588-.2715.2364a9.0933,9.0933,0,0,0-1.0893.0781c-.2954.0459-.335-.0772-.3072-.6328.0132-.5381.0025-2.9737.0108-5.0772.0347-1.4785.1518-3.4062.1826-4.6924a11.5912,11.5912,0,0,0-.0142-1.164c-.01-.1582-.0214-.2793-.0185-.4014.0117-.4863.1807-.5537.376-.5293A2.0709,2.0709,0,0,0,93.92,57.31a1.2331,1.2331,0,0,1,.3086-.0264c.1533.0039.2358.0391.6411.0488.5859.0147.8554.9776,1.1079,1.5391a8.8494,8.8494,0,0,0,.3838.8281l.1987.4043.023-.956C96.5953,58.6436,96.61,58.07,96.63,57.8086Z" style="fill:#934444"/><path d="M103.9385,57.9326c.3911.01,1.63.0889,2.4107.1084a4.51,4.51,0,0,0,.5444-.0039c.5024-.0049.5654.31.5474.4483-.0181.1728-.0562.5908-.0738,1.32-.0117.5039.0035,1.042.0113,1.3222a.4244.4244,0,0,1-.4995.4561l-2.4541-.0567-.0708,1.7891c-.0215.294-.0337.833-.05,1.4785-.0454,1.9278-.0728,4.7959-.0787,5.0576-.0014.0342-.0014.0518-.0019.086-.0059.2607-.0762.2236-.2148.2217l-.9493-.0235c-.2641-.0068-.2212-.1094-.2094-.5957s.2568-4.8633.2788-5.7676c.0166-.7128.0005-1.8076.0127-2.2783-.9634-.0234-2.2886-.0029-2.47-.0068-.2656-.0059-.3169-.2168-.27-.4063.0039-.1572.0786-1.5107.0972-2.291a4.2478,4.2478,0,0,0-.0025-.5049c.0015-.0351.003-.0879.0035-.122.0058-.2784.1455-.2588.2578-.2578l1.38.0351C102.5284,57.9492,103.4224,57.92,103.9385,57.9326Z" style="fill:#934444"/><path d="M112.7286,60.7686c-.0972-.003-.1529-.04-.1514-.0889a.4441.4441,0,0,1-.0371-.2109,4.6507,4.6507,0,0,1,.0488-.8868.6525.6525,0,0,1,.3716-.3213,6.3033,6.3033,0,0,0,2.9673-.9912,1.0068,1.0068,0,0,1,.35-.0586c.2095.0039.3193.1114.3174.2334-.022.8858-.062,1.4063-.0933,2.084L116.38,62.124l-.0293,1.2168.0166,1.0625c.0074.28.01.7823-.0078,1.53.0132.6074-.0727,2.4512.0342,3.1846,1.1016.0791,1.6577.1777,1.6553.2822l.0244.748c.0078.2432-.1079.3623-.3574.3379-.4605-.0273-.795-.0537-1.0181-.0918-.2207-.041-.4873-.0654-.7783-.0888-.4483.0224-1.0484.0449-1.8032.0605-.1656-.0039-.3467-.0264-.542-.03-.3208-.0078-.6978.002-1.1035.0254-.0972-.0029-.1641-.1777-.1978-.5088a.56.56,0,0,1,.0044-.1562c.0049-.2441.0654-.3975.1768-.4287a13.879,13.879,0,0,0,1.5585-.3125c.4581.0293.6851-.1045.691-.3653.0214-.2783.0263-.5214.0317-.747s.0132-.5576.01-.9922l.0381-1.5645c.0288-.625.0273-1.164.0112-1.6328.0068-.2949-.001-.5752.0063-.8711s.0279-.5888.0357-.8857l.0825-1.6846-1.6572.4473A2.54,2.54,0,0,1,112.7286,60.7686Z" style="fill:#934444"/><g style="opacity:0.5;mix-blend-mode:multiply"><path d="M53.5176,166.3555c.4463-.2051,1.8892-.81,2.7827-1.2207a6.3888,6.3888,0,0,0,.6153-.3028c.5683-.28.78-.0293.8232.1045a13.02,13.02,0,0,0,.5093,1.2354c.2129.4638.4731.9433.606,1.19.1328.2881.0058.5195-.3609.6885l-2.8091,1.292.7242,1.66c.1093.2784.3359.7725.6084,1.3633.8144,1.7735,2.0742,4.3838,2.1845,4.6231.0156.0322.0225.0478.0366.0791.11.24.0166.2441-.1435.3173l-1.0845.5c-.3037.14-.3008.0225-.5063-.4228-.2046-.4482-1.896-4.544-2.2779-5.374-.3017-.6553-.8115-1.6387-1.01-2.07-1.1011.5058-2.5962,1.2529-2.8028,1.3476-.3047.1416-.4555-.0215-.4878-.2178-.0659-.1445-.5918-1.4111-.9228-2.13a3.6132,3.6132,0,0,0-.228-.4561c-.0152-.0322-.0362-.0791-.0513-.1113-.1177-.2559.0493-.3125.1777-.3721l1.58-.7256C51.9268,167.1475,52.9273,166.6279,53.5176,166.3555Z" style="fill:#934444"/><path d="M68.4834,166.4336c1.066,2.3145,1.66,6.2959-.8466,7.4492-3.5108,1.6153-5.7725-2.5869-6.565-4.31-2.1147-4.5966-.3559-6.7412,1.0484-7.3876C65.5845,160.5918,67.4122,164.1045,68.4834,166.4336ZM65.7408,167.87c-.3741-.8144-1.0044-1.4717-1.4673-1.2578-.5908.2695-.314,1.42.0019,2.1074.294.6367.73,1.46,1.3682,1.168C66.2667,169.6006,66.1094,168.668,65.7408,167.87Z" style="fill:#934444"/><path d="M68.0787,159.832c.4-.1836,1.2993-.791,2.018-1.123,2.1387-.9824,3.5122-1.6143,4.6187-1.0977a3.3847,3.3847,0,0,1,1.9595,1.6914c.8876,1.9287-.0684,3.5108-1.1954,4.5918a9.9593,9.9593,0,0,1-2.5253,1.7l.769,1.7549,1.0034,2.2656c.1841.4.0293.5674-.1631.6543-.1274.0577-.27.084-.3652.1289-.2559.1182-.9439.5137-1.1992.6309s-.3985-.0684-.5381-.3711c-.1323-.2881-1.1333-2.6309-1.5225-3.4785l-2.0122-4.3721c-.11-.24-.3662-.8369-.5757-1.4189l-.4214-1.0821C67.7608,159.94,67.8711,159.9277,68.0787,159.832Zm5.686,4.3291a6.5377,6.5377,0,0,0,1.7471-1.29,2.0643,2.0643,0,0,0,.2212-2.459,7.0865,7.0865,0,0,0-.7076-1.2031c-.6157-.876-1.7983-.7959-2.8144-.4854a7.7767,7.7767,0,0,0-1.05.4073c-.2725.124-.5523.2724-.8477.4277l2.2759,5.1982A8.4568,8.4568,0,0,0,73.7647,164.1611Z" style="fill:#934444"/><path d="M89.1758,151.791a.206.206,0,0,1,.1284.1133.6425.6425,0,0,1,.0074.2686c-.0459.1943-.1026.78-.1905,1.0527-.0625.2422-.019.34-.1943.4189-.16.0743-2.3843-.8945-3.55-.3564-.4136.19-1.0058.501-.5137,1.5693.4839,1.0537,1.8233.98,2.6958.9463a4.7243,4.7243,0,0,1,5.0806,2.8438c.9692,2.1064-.3144,3.8584-2.916,5.0547a4.3517,4.3517,0,0,1-4.4043-.1583.2767.2767,0,0,1-.1367-.1318c-.03-.0605-.0039-.1308.0312-.2656a8.878,8.878,0,0,1,.2906-.9649.1746.1746,0,0,1,.0991-.121c.1118-.0518.289.0791.4736.1484a3.2554,3.2554,0,0,0,2.5733-.043c.5742-.2646,1.4409-.8164.9946-1.791-.4561-.99-1.8672-1.3672-2.82-1.5459-.9541-.1816-3.4771.0918-4.4253-1.9687-.9478-2.0586.7881-4.4229,1.9531-4.96A6.3058,6.3058,0,0,1,89.1758,151.791Z" style="fill:#934444"/><path d="M93.6973,155.3965c.1694.3662.3062.4961.4751.8633l.8916,1.8925c.1235.2715.24.5645.3491.8057a3.8582,3.8582,0,0,0,.168.4053c.2148-.0791.4229-.1738.6138-.2637.3427-.1377.7412-.32,1.0459-.46.59-.2725,1.13-.4815,1.7055-.7452.5757-.2656,1.0957-.5644,1.5264-.7617.4307-.1992.8613-.3574,1.0366-.4385s.2119,0,.293.1758c.0669.1426.1143.334.1958.51.0669.1445-.0078.2344-.2481.3447a2.18,2.18,0,0,1-.2929.1152c-.3013.1016-1.0274.4161-1.7627.753-.3989.1836-.7974.3681-1.1416.5459-.2652.1406-.5684.28-.8867.4267-.8462.39-1.77.7754-2.1055.9287-.3189.1485-.4116.0733-.4775-.0683-.0372-.082-.0577-.168-.1011-.2647a.6289.6289,0,0,0-.0508-.1494c-.0518-.1113-.1279-.1933-.4507-.8965-.4487-.9736-1.1-2.1816-1.5918-3.2509s-1.0913-2.7071-1.3916-3.3614c-.2949-.6377-.853-1.8525-1.1728-2.4218s.62-.6709,1.1137-.8995,1.7759-.9316,2.6392-1.3271c.83-.3818,2.4644-1.0752,2.7983-1.2314.3355-.1534.3882.1308.47.3066.0214.0488.0439.0967.0805.1758.0738.16.169.3672.1055.3965-.1758.082-.2305.0478-.5332.1875l-2.5542,1.1748-1.9858.8935c-.24.11-.4956.2676-.6968.3789l-.3516.2012.167.4453c.0933.2461.2173.5186.3286.7578.2056.4473.459.8311.628,1.2l.2944.6377a3.8065,3.8065,0,0,0,.1992.3916,4.3825,4.3825,0,0,0,.439-.1826l.6382-.2949c.2719-.1241.5771-.3408,1.0727-.5694.5107-.2353,1.082-.4209,1.273-.51.1923-.0869.4248-.253.8081-.43.288-.1319.8042-.3115,1.1245-.458a1.1541,1.1541,0,0,0,.23-.126c.0323-.0146.0577-.0449.09-.06a.1939.1939,0,0,1,.2876.1192c.02.0859.1894.4531.2309.59.0518.15.0821.1758-.1577.2852-.2236.1025-1.6777.5586-2.2846.8379-.5894.2714-1.357.625-1.9727.9658a6.9267,6.9267,0,0,1-.9268.4648,4.4794,4.4794,0,0,1-.4536.19l.0689.2753C93.5455,155.0215,93.6177,155.2207,93.6973,155.3965Z" style="fill:#934444"/><path d="M106.1441,144.0234a.635.635,0,0,1,.3061.2452c.0728.16-.0659.32-.1889.5146-.166.2695-.6738,1.3525-.855,1.5908a.28.28,0,0,1-.105.1065c-.16.0732-.3291-.0821-.4741-.1494a1.4369,1.4369,0,0,0-1.2456-.1436c-.56.2588-.7725,1.0147.2856,3.3125,1.0508,2.2832,2.043,2.6758,2.4414,2.4922.4-.1836.5484-.4072.4673-1.0469-.0444-.3457.0791-.499.2393-.5732a2.6105,2.6105,0,0,1,.4346-.1045c.2607-.0225,1.5586-.3115,2.0429-.4356.19-.0478.3115.0879.399.2793a1.2435,1.2435,0,0,1,.0937.2471,2.8763,2.8763,0,0,1,.13.6172,3.9047,3.9047,0,0,1-2.3169,4.2939c-1.6753.77-4.9492.6348-7.1743-4.2011-2.2251-4.8379-.01-6.7071,1.4428-7.3741A3.7675,3.7675,0,0,1,106.1441,144.0234Z" style="fill:#934444"/><path d="M119.7916,148.9238c.2758.18.3984.28.436.3594.0508.1123-.1.1621-.26.2354-.2549.1171-1.51.7529-1.7817.8769-.271.126-.4868-.2588-1.2144-.834-.3842-.2861-1.2656-.9824-2.0937-1.6455l-1.541-1.207c.3935.7285.7412,1.3994,1.0756,1.999.5337,1.0313,1.1177,2.1367,1.2471,2.2891a.6706.6706,0,0,1,.0879.1533c.1177.2549-.0127.3926-.3384.4834-.4043.1279-1.584.8838-1.999,1.0752-.3032.1387-.41.0351-.5127-.1885-.0449-.0976-.0874-.2314-.1533-.375-.168-.3682-1.2881-2.4639-1.8833-3.7568a6.1108,6.1108,0,0,1-.3555-.9,20.1707,20.1707,0,0,0-.9555-2.2871c-.5357-1.1641-1.148-2.41-1.4078-2.8906a2.9977,2.9977,0,0,1-.1772-.3448c-.2568-.5576-.0357-.581.123-.6552.1763-.0792,1.0923-.6954,2.0337-1.129,2.4908-1.1455,4.2593-.1992,5.1118,1.6534a4.2753,4.2753,0,0,1,.2779,2.5781,5.11,5.11,0,0,1-.3526,1.168l2.05,1.5127C118.2837,147.876,119.42,148.7061,119.7916,148.9238Zm-7.14-4.5879a.9171.9171,0,0,0,.0581-1.0527c-.3081-.6689-.6733-.792-.9292-.6738a.4749.4749,0,0,0-.2436.2666c-.0284.0713.2744.4746.41.8945a2.6985,2.6985,0,0,0,.1924.5879c.0225.0479.0283.1035.0508.1514s.0517.0722.0747.1211A1.0382,1.0382,0,0,0,112.6519,144.3359Z" style="fill:#934444"/><path d="M118.8633,142.4072c-.5649-1.23-.6963-1.3056-1.1372-2.2627-.4389-.957-.8413-1.914-1.0312-2.3672-.14-.3027-.0337-.41.1416-.4921.08-.0352.1675-.0577.2461-.0938.24-.11.5483-.1933,1.2675-.5244.6856-.3154,1.7056-.958,2.3287-1.2441.6538-.3018,1.4975-.6123,1.8007-.752s.4019-.0107.5406.293c.1538.333.395.69.623,1.1845a3.3279,3.3279,0,0,1,.2227.6114c.0717.1982,0,.291-.1128.3418a2.6325,2.6325,0,0,1-.3887.082,10.8034,10.8034,0,0,0-1.41.5918c-.3994.1826-.8291.3428-1.2275.5254a3.7845,3.7845,0,0,0-.4238.2148c-.2324.127-.5279.28-.8321.42-.3818.1757-.7573.3291-.8525.373-.1768.082-.1235.1533-.0132.3945.1177.2559.4.9951.6568,1.5518l.4336.9443c.081.1758.1538.333.2509.502a3.5853,3.5853,0,0,0,.438-.1817c.2788-.1093.6782-.2929,1.1245-.498.59-.2725,1.28-.666,1.6636-.8418s.6289-.2324.8047-.3125.2436-.0156.2944.0957.0557.206.1958.5088.2227.4414.4048.8389c.0957.2089.07.2773-.0264.3222-.0634.0293-.1967.0332-.309.085-.2554.1172-.606.2392-1.61.7011-1.021.4708-1.6489.9151-1.8247.9942a.6575.6575,0,0,1-.2158.08c-.0484.0215-.08.0361-.1021.0263l.7334,1.5967a.797.797,0,0,0,.17-.0957c.11-.0508.2632-.14.4385-.2217.3662-.1689,1.1582-.5507,1.877-.8808.5259-.2422,1.3877-.6006,2.0259-.8936.2861-.1338.5185-.2607.6616-.3252.2724-.125.3862-.0049.4741.1865.0435.0967.0869.2315.13.3272.1469.32.2856.6621.4985,1.125.2056.4463-.0942.4687-.6045.7041-.5268.2422-2.0737.9141-2.8247,1.2607-.7661.3516-2.2851,1.127-2.4912,1.2217-.0322.0147-.0571.0479-.0889.0625-.1435.0645-.187-.0693-.2519-.2129-.0972-.1709-.2-.3926-.2876-.584s-.1948-.3369-.3487-.6709l-1.0068-2.1875C119.4488,143.9746,119.4292,143.6357,118.8633,142.4072Z" style="fill:#934444"/><path d="M133.65,137.1709c.61,1.3252,1.9434,3.5527,2.23,4.1748.335.6025-.2344.709-1.1767,1.1416-.958.4414-3.3179,1.4483-3.6363,1.5947-.1274.06-.2187-.0527-.3076-.2441-.1235-.27-.2431-.6992-.4277-1.0977-.11-.2011-.3765-.7363-.6992-1.4375-.7642-1.6611-1.8907-4.2363-2.3174-5.414-.1577-.4307-.3267-.7969-.481-1.1319a12.13,12.13,0,0,0-.5913-1.16c-.1841.0654-.2475.0967-.2949.1172-.2554.1181-1.1358.56-1.311.6416-.1109.05-.1788-.0537-.2437-.1963-.0527-.1133-.0879-.2324-.1465-.3594-.08-.1758-.0317-.2363.0806-.2891.0952-.0439.2378-.07.396-.1425l3.394-1.583c.8941-.41,3.7129-1.7637,4.0962-1.94.3428-.1387.3653.1211.4907.3936.1538.2959.04.4248-.2153.542s-.5913.3115-1.3486.6386l-.064.0313C131.5972,132.583,133.1441,136.07,133.65,137.1709Z" style="fill:#934444"/></g></g></g></g></svg>