<svg xmlns="http://www.w3.org/2000/svg" viewBox="0 0 146.9922 193.8687"><g id="Layer_2" data-name="Layer 2"><g id="_1" data-name="1"><polygon points="138.777 4.955 6.162 5.895 0 192.398 146.992 193.869 138.777 4.955" style="fill:#b7a08d"/><polygon points="132.87 12.801 12.119 12.066 7.678 51.373 4.695 50.307 1.828 190.027 145.083 191.981 132.87 12.801" style="fill:#896f5c"/><polygon points="132.851 12.066 12.119 12.066 12.119 185.747 137.659 186.805 132.851 12.066" style="fill:#f4be7d"/><polygon points="132.038 13.387 14.629 13.386 15.544 182.524 131.072 179.189 132.038 13.387" style="fill:#fcd59d"/><polygon points="129.785 21.624 12.728 23.702 17.077 175.38 132.013 174.794 129.785 21.624" style="fill:#eaa16a"/><polygon points="131.354 16.058 14.296 18.159 18.645 171.528 139.377 171.528 131.354 16.058" style="fill:#fffad4"/><path d="M27.6709,23.3472A3.27,3.27,0,1,0,30.9326,20.3,3.16,3.16,0,0,0,27.6709,23.3472Z" style="fill:#755d4c"/><path d="M56.7617,23.3472A3.2714,3.2714,0,1,0,60.0244,20.3,3.16,3.16,0,0,0,56.7617,23.3472Z" style="fill:#755d4c"/><path d="M85.8554,23.3472A3.27,3.27,0,1,0,89.1162,20.3,3.1594,3.1594,0,0,0,85.8554,23.3472Z" style="fill:#755d4c"/><path d="M114.9482,23.3472A3.27,3.27,0,1,0,118.21,20.3,3.16,3.16,0,0,0,114.9482,23.3472Z" style="fill:#755d4c"/><polygon points="119.804 5.185 113.13 5.185 117.372 23.444 119.674 23.444 119.804 5.185" style="fill:#755d4c"/><path d="M121.07,2.8638A2.6188,2.6188,0,0,0,120.208.7877a3.0272,3.0272,0,0,0-2.2324-.7823,3.2745,3.2745,0,0,0-2.2735,1.086,2.8511,2.8511,0,0,0-.7012,2.293l2.6856,18.8877h2.3Z" style="fill:#ffeecf"/><polygon points="90.526 5.381 83.852 5.381 88.096 23.639 90.396 23.639 90.526 5.381" style="fill:#755d4c"/><path d="M91.7929,3.06a2.627,2.627,0,0,0-.86-2.0781A3.035,3.035,0,0,0,88.6992.2008a3.2781,3.2781,0,0,0-2.2744,1.0859,2.8512,2.8512,0,0,0-.7,2.293l2.6845,18.8886h2.3Z" style="fill:#ffeecf"/><polygon points="61.666 5.479 54.993 5.479 59.235 23.738 61.536 23.738 61.666 5.479" style="fill:#755d4c"/><path d="M62.9336,3.4517a2.6316,2.6316,0,0,0-.8614-2.0791A3.04,3.04,0,0,0,59.8388.5914a3.2822,3.2822,0,0,0-2.2734,1.0859,2.8549,2.8549,0,0,0-.7022,2.293L59.5488,22.859h2.3Z" style="fill:#ffeecf"/><polygon points="32.177 5.772 25.505 5.772 29.748 24.032 32.048 24.032 32.177 5.772" style="fill:#755d4c"/><path d="M33.4463,3.4517a2.6337,2.6337,0,0,0-.8633-2.0791A3.0338,3.0338,0,0,0,30.3515.5914a3.2865,3.2865,0,0,0-2.2744,1.0859,2.8475,2.8475,0,0,0-.7012,2.293L30.0615,22.859h2.3Z" style="fill:#ffeecf"/><path d="M87.7031,23.1275a1.8079,1.8079,0,1,0,1.8027-1.6846A1.7449,1.7449,0,0,0,87.7031,23.1275Z" style="fill:#ffeecf"/><path d="M58.6855,23.3472A1.8085,1.8085,0,1,0,60.49,21.6627,1.7458,1.7458,0,0,0,58.6855,23.3472Z" style="fill:#ffeecf"/><path d="M29.2773,23.3472a1.8079,1.8079,0,1,0,1.8037-1.6845A1.7444,1.7444,0,0,0,29.2773,23.3472Z" style="fill:#ffeecf"/><path d="M116.8769,22.8346a1.8084,1.8084,0,1,0,1.8037-1.6846A1.7464,1.7464,0,0,0,116.8769,22.8346Z" style="fill:#ffeecf"/><path d="M66.6015,56.0045c-1.8037,0-2.94-1.4619-4.04-2.8789A10.8924,10.8924,0,0,0,60.833,51.21a6.1216,6.1216,0,0,1-.0489,1.2226l-.3359,2.4336-.8769-2.3135a6.5694,6.5694,0,0,1-.2774-1.7441c-.0176-.23-.0312-.4473-.0566-.63l-.0782-.625a6.4224,6.4224,0,0,0-1.6347-2.1953c-1.6875-1.5068-2.3535-1.207-3.5664-.6641a7.131,7.131,0,0,1-3.5742.791,4,4,0,0,1-2.6973-1.2587,2.4088,2.4088,0,0,0-1.585-.8291c-2.2031-.0889-3.164,2.7617-3.7724,5.2919l-.9434,3.9288L41.0918,50.6c-.252-3.4414-2.8418-7.293-6.7422-7.78-1.8565-.2314-3.169.1484-3.9014,1.1309-1.6973,2.2744-.2715,7.5927,1.4092,10.5566l-1.1094.55c-1.4248-2.5146-3.626-8.7012-1.33-11.7773,1.0235-1.3711,2.7344-1.9219,5.1-1.62a9.286,9.286,0,0,1,7.29,6.3536c.7109-1.9121,1.9834-3.9121,4.3721-3.7852a3.5913,3.5913,0,0,1,2.3818,1.1563,2.7214,2.7214,0,0,0,1.8916.9306,5.8407,5.8407,0,0,0,2.9609-.6777c1.3672-.6172,2.6592-1.1973,4.9776.873a7.3117,7.3117,0,0,1,2.1494,3.1778,7.5875,7.5875,0,0,1,3.0361,2.749c.9815,1.2617,1.8867,2.4746,3.13,2.3935,1.4414-.0742,1.8525-1.6328,2.2793-3.8281a9.808,9.808,0,0,1,.623-2.3l.1836-.3779.4414.0361a6.36,6.36,0,0,1,3.5264,1.7764c1.3486,1.0889,2.5078,2.0312,4.667,1.418a12.7129,12.7129,0,0,0,3.15-1.542A17.4889,17.4889,0,0,1,84.18,48.63l.6269-.6641c2.2168-2.3545,7.4863-2.3682,11.3233-1.667a21.2708,21.2708,0,0,1,2.4443.6514c2.8389.8808,4.5127,1.26,5.8974-1.2354l.461-.832.6006.75c.2011.252.4209.5947.6611.9688.5391.8417,1.3555,2.1142,2.0488,2.1269l.01.001c.3506,0,.791-.3535,1.2432-.9971l.5634-.8008.5059.833c.7978,1.31,1.7773,1.8877,2.9228,1.7178a5.6148,5.6148,0,0,0,3.9424-3.833c.06-.2676.1075-.7412-.1884-.9131l.6562-.998a1.8,1.8,0,0,1,.7656,2.1377,6.8113,6.8113,0,0,1-4.9756,4.7617,3.8278,3.8278,0,0,1-3.708-1.5713,2.4782,2.4782,0,0,1-1.7617.834c-1.3877-.0264-2.3388-1.5069-3.1006-2.6973-.0244-.039-.0488-.0762-.0732-.1142-1.917,2.5107-4.5322,1.6972-6.8672.9736a20.259,20.259,0,0,0-2.2891-.6152c-2.4648-.4493-6.8154-.7422-9.2148.5888.042.0049.082.0088.12.0137l-.0146,1.167a9.734,9.734,0,0,0-4.5166,1.7793,14.006,14.006,0,0,1-3.4717,1.6816c-2.8194.8008-4.43-.5049-5.8506-1.6552a6.3715,6.3715,0,0,0-2.3506-1.418,14.5823,14.5823,0,0,0-.37,1.6084C69.8183,53.2877,69.3174,55.87,66.7763,56,66.7168,56.0035,66.6591,56.0045,66.6015,56.0045Z" style="fill:#b7a08d"/><path d="M30.73,98.2242l-.2089-.2969c-2.8672-4.1006-.5674-26.91,5.3554-32.9453,1.9014-1.9394,3.7061-1.6465,4.8867-1.0557,3.4268,1.7129,2.2676,7.7618.6368,13.5791a15.1145,15.1145,0,0,1,5.2548-5.36,7.0362,7.0362,0,0,1,6.0772-.4268c1.7236.66,2.917,2.4092,3.6523,4.6407,2.8643-2.0059,6.2891-3.52,8.3467-2.3584,1.0205.5781,1.5176,1.6943,1.4883,3.3349a19.4533,19.4533,0,0,1,1.3594-1.48l1.1591-1.1455-.0771,1.5742c-.1328,2.76.3643,4.57,1.5264,5.5362a5.0106,5.0106,0,0,0,3.791.8095c.1553-2.4013,3.8994-3.9277,7.2324-5.2861a18.21,18.21,0,0,0,4.69-2.3584l2.5673-2.4082L86.9111,75.65c-.4893.9658-.47,1.54-.291,1.7539a.89.89,0,0,0,.8193.1338,3.7085,3.7085,0,0,0,2.6387-2.5908l.5986-2.0811.6143,2.0771a5.3983,5.3983,0,0,0,5.7734,3.9063,4.6554,4.6554,0,0,0,4.2774-4.6279l.0732-1.5078,1.0352,1.1572q.5419.6079.997,1.1347c1.3477,1.5469,2.1612,2.4815,2.9649,2.5254.7715.087,1.8642-.6611,3.914-2.5136l.3975-.3594.43.3223c1.1465.8574,3.8242,2.8535,5.8135,2.48a2.8649,2.8649,0,0,0,1.9326-1.5665l1.1074.55a4.0771,4.0771,0,0,1-2.7861,2.1651c-2.1055.4082-4.3994-.9268-6.417-2.3936-1.8887,1.6719-3.1875,2.5557-4.4678,2.4873-1.3525-.0761-2.2969-1.16-3.8613-2.957-.0244-.03-.0528-.06-.0791-.0889a5.8141,5.8141,0,0,1-5.19,4.3584,6.6768,6.6768,0,0,1-6.5595-3.3789A4.8383,4.8383,0,0,1,87.69,78.6861a2.08,2.08,0,0,1-2.0557-.5586,1.7618,1.7618,0,0,1-.3818-1.2783c-1.0029.5352-2.248,1.043-3.5391,1.5684-3.1836,1.2978-6.7939,2.77-6.4609,4.624l.1055.581-.6221.0938c-2.3379.3515-4.1465.01-5.3838-1.0195-1.1992-.9981-1.8418-2.5987-1.9492-4.87a10.2179,10.2179,0,0,0-1.6885,2.5957l-1.1943-.3574c.7217-2.6963.5644-4.4941-.4375-5.0605-1.3135-.7412-4.2823.3291-7.3506,2.5791a23.7841,23.7841,0,0,1,.5576,6.67c-.2412,4.5908-1.7656,9.8525-5.3232,10.8486a3.6571,3.6571,0,0,1-3.003-.1982c-1.2871-.8125-1.5634-2.6377-1.7226-4.2861-.4024-4.168,2.11-8.5352,7.4678-12.9786.1962-.163.4023-.3271.61-.49-.668-2.24-1.7353-3.8389-3.0615-4.3457a5.752,5.752,0,0,0-4.9776.3584c-4.5654,2.4492-7.84,10.2363-8.39,13.9072l-1.2471-.1045a34.5515,34.5515,0,0,1,1.5635-6.4013c1.665-5.5743,4.1787-13.9981.9639-15.6045-.74-.3682-1.8955-.69-3.3692.8144-5.2529,5.3516-7.6279,26.7451-5.417,31.1944,2.04-.41,3.5088-2.4776,4.8155-4.3155.4072-.5732.8-1.124,1.1914-1.6064l.999.71c-.377.4629-.7549.9932-1.1445,1.544-1.545,2.1728-3.294,4.6357-6.1387,4.8916Zm24.9082-19.79c-.0312.0273-.0654.0546-.0976.082-5.04,4.1826-7.4121,8.2178-7.05,11.9961.1416,1.4824.3847,2.9209,1.1767,3.4219a2.3985,2.3985,0,0,0,1.9385.0468c2.3789-.667,4.1582-4.5986,4.4287-9.7851A22.679,22.679,0,0,0,55.6386,78.4342Z" style="fill:#b7a08d"/><path d="M32.3525,120.4039l-.4092-1.084c-.9521-2.5176-2.0967-4.88-3.3095-7.38-.31-.6445-.6231-1.291-.9356-1.9453l1.1445-.4756q.4674.9756.9366,1.94c.9961,2.0527,2.0185,4.167,2.8994,6.333a29.5175,29.5175,0,0,0,2.3662-5.8311c.9639-2.9306,1.9609-5.96,4.0254-8.4238l.9883.7236c-1.9209,2.291-2.8819,5.2159-3.8116,8.043a25.1955,25.1955,0,0,1-3.1963,7.1553Z" style="fill:#b7a08d"/><path d="M99.0752,115.2408a12.7684,12.7684,0,0,1-2.8037-.2852,11.4574,11.4574,0,0,1-4.1817-2.1718,11.4591,11.4591,0,0,0-2.9756-1.7207c-3.1347-1.0489-7.6465-.7725-11.626-.53-1.6269.1-3.166.1943-4.5634.2012a15.505,15.505,0,0,0-4.6885.833,22.9545,22.9545,0,0,1-2.9424.7275c-1.9131.3164-2.2432.2656-3.0889.0283a13.1236,13.1236,0,0,0-1.5068-.3388c-2.1963-.375-6.8984-.378-7.3769.5029-.086.1582.0859.585.85,1.2549l1.503,1.3154-2.0352-.3115a11.7152,11.7152,0,0,0-3.2021.1074,16.1542,16.1542,0,0,1-2.9668.1758l.082-1.17a14.9647,14.9647,0,0,0,2.72-.168c.6787-.084,1.3682-.168,2.0713-.1865A1.4836,1.4836,0,0,1,52.2,111.96c1.1582-2.14,8.6523-1.1407,8.7236-1.129a14.6022,14.6022,0,0,1,1.6416.37c.6475.1816.7988.2226,2.5107-.0586a22.8818,22.8818,0,0,0,2.7832-.6914,16.7186,16.7186,0,0,1,5.0586-.8877c1.3594-.0069,2.8789-.1,4.49-.2,4.1-.2491,8.7529-.5342,12.1308.5967a12.6211,12.6211,0,0,1,3.3155,1.8955,10.3224,10.3224,0,0,0,3.7129,1.9619c3.3242.7509,7.9667-.3262,10.9335-1.4756l.48,1.083A26.1926,26.1926,0,0,1,99.0752,115.2408Z" style="fill:#b7a08d"/><path d="M36.4746,145.4722l-.7-.4423c-2.6543-1.6729-4.9766-5.8018-6.0127-8.9307l1.1982-.3447a18.9489,18.9489,0,0,0,4.8174,7.791c.166-.58.3389-1.2471.53-1.9805,1.2168-4.6748,2.8857-11.0752,6.8594-12.0625l.3232,1.1319c-3.2568.8085-4.8857,7.0664-5.9639,11.207-.2949,1.1308-.5478,2.1064-.8017,2.876Z" style="fill:#b7a08d"/><path d="M68.5966,141.3629l-.7275-.7383c-1.2207-1.2383-5.5517-5.1231-10.0576-3.0293-1.1983.5557-1.76,1.2832-1.7871,1.7578a.3121.3121,0,0,0,.1523.3242c.26.1543.917.1494,1.9092-.3584l.6025,1.0274c-1.7343.8867-2.7353.581-3.1777.3232a1.4517,1.4517,0,0,1-.7383-1.374c.0537-1.0264.9825-2.0537,2.48-2.75,4.6-2.1328,8.8838.87,10.8281,2.6064a5.6929,5.6929,0,0,1,2.8057-3.2675c1.9951-.876,4.3809.0019,7.14,1.0195.3867.1445.7871.291,1.1933.4375,2.669.9551,4.7246.5615,7.1074.1064a19.6234,19.6234,0,0,1,6.0459-.4736l1.3829.1455a79.48,79.48,0,0,0,9.7587.6533,25.7585,25.7585,0,0,0,7.462-1.5576,33.2953,33.2953,0,0,1,7.1689-1.6533l.1084,1.167a32.2656,32.2656,0,0,0-6.88,1.5986,27.24,27.24,0,0,1-7.8555,1.6172h-.1562a89.1974,89.1974,0,0,1-9.749-.66l-1.377-.1455a18.4854,18.4854,0,0,0-5.6572.4561c-2.3574.4512-4.7979.92-7.8106-.16-.4111-.1474-.8134-.2959-1.2041-.44-2.59-.957-4.6357-1.7158-6.1425-1.0488-1.02.4472-1.8369,1.581-2.4932,3.4648Z" style="fill:#b7a08d"/></g></g></svg>