<svg xmlns="http://www.w3.org/2000/svg" viewBox="0 0 1645.1003 1533.835"><g id="Layer_2" data-name="Layer 2"><g id="Capa_1" data-name="Capa 1"><path d="M1631.3165,757.1836c8.41-10.9688,25.7461-718.2617,0-752.918-4.2149-5.6758-792.5352-5.6758-796.75,0-4.2188-5.6875-816.8008-5.6875-821.02,0-25.7421,34.7305-8.4062,741.9258,0,752.918-25.7421,34.4922-8.4062,758.4375,0,769.3594,7.4493,9.6679,813.57,9.6679,821.02,0,7.5742,9.7226,789.1758,9.7226,796.75,0C1639.8712,1515.5625,1657.5079,791.8594,1631.3165,757.1836Z" style="fill:#54b689"/><path d="M919.4141,215.2148c-35.1718,8.8477-67.4609,25.5586-98.3867,44.8907.1914-132.34,3.7539-242.668,13.5391-255.84-4.2188-5.6875-816.8008-5.6875-821.02,0-25.7421,34.7305-8.4062,741.9258,0,752.918-25.7421,34.4922-8.4062,758.4375,0,769.3594,7.4493,9.6679,813.57,9.6679,821.02,0-3.5274-4.5274-8.5977-130.2422-11.5078-278.8594-28.9063,18.3359-58.3828,35.8086-90.0118,48.6133-39.5781,16.0234-83.1757,24.48-125.1171,16.7382-71.5313-13.2031-107.9649-65.4843-109.6329-136.3007-2.6093-110.7539,94.6446-190.9258,200.875-164.0039,44.086,11.1679,83.6719,34.7148,121.7149,60.3437-.7461-158.4258,2.4062-300.9687,13.68-315.8906-3.6289-4.7383-8.93-139.3828-11.6992-293.6211,20.2695,11.9453,41.0468,22.93,62.8515,31.6953,39.3672,15.8242,82.7266,24.1719,124.4375,16.5313,71.1485-13.0391,107.3789-64.668,109.043-134.6094C1121.7891,267.8047,1025.0626,188.6328,919.4141,215.2148Z" style="fill:#5299d3"/><path d="M733.0469,1296.2969c-39.5781,16.0234-83.1757,24.48-125.1171,16.7382-71.5313-13.2031-107.9649-65.4843-109.6329-136.3007-2.6093-110.7539,94.6446-190.9258,200.875-164.0039,44.086,11.1679,83.6719,34.7148,121.7149,60.3437-.7461-158.4258,2.4062-300.9687,13.68-315.8906-3.0352,3.9648-138.6485,6.3164-298.8008,7.0508,15.9648-26.0743,30.9375-52.7383,42.2187-81.1328,15.754-39.6329,24.0625-83.2969,16.4571-125.2969C581.461,486.168,530.0743,449.6836,460.4649,448.0156c-108.8594-2.6172-187.66,94.7813-161.1992,201.1641,10.34,41.5742,31.4648,79.1562,54.9336,115.2109-177.6719-.4961-337.3594-2.8984-340.6524-7.207-25.7421,34.4922-8.4062,758.4375,0,769.3594,7.4493,9.6679,813.57,9.6679,821.02,0-3.5274-4.5274-8.5977-130.2422-11.5078-278.8594C794.1524,1266.02,764.6759,1283.4922,733.0469,1296.2969Z" style="fill:#e83c3e"/><path d="M1631.3165,4.2656c-4.2149-5.6758-792.5352-5.6758-796.75,0-9.7852,13.1719-13.3477,123.5-13.5391,255.84,30.9258-19.3321,63.2149-36.043,98.3867-44.8907,105.6485-26.582,202.375,52.59,199.7852,161.9649-1.6641,69.9414-37.8945,121.57-109.043,134.6094-41.7109,7.6406-85.07-.7071-124.4375-16.5313-21.8047-8.7656-42.582-19.75-62.8515-31.6953,2.7695,154.2383,8.07,288.8828,11.6992,293.6211,3.16,4.125,145.8984,6.4961,309.7031,7.1211-21.32,33.48-40.0977,68.422-49.6523,106.77-26.461,106.16,52.34,203.3438,161.1992,200.7344,69.6133-1.6641,120.9961-38.07,133.9765-109.5547,7.6016-41.9063-.707-85.4766-16.457-125.0233-10.1328-25.4494-23.2422-49.5-37.3711-72.9845,157.6992-.7031,292.2891-3.0586,295.3516-7.0625C1639.7266,746.2148,1657.0626,38.9219,1631.3165,4.2656Z" style="fill:#fcc13b"/><path d="M69.8751,1286.8047c-.918-68.8672-.16-137.7422,1.6172-206.586Q72.91,1025.24,75.168,970.2851c.3125-7.6562-6.7343-14.1757-14.1757-14.1757-7.9414,0-13.8711,6.4922-14.18,14.1757-2.6953,66.461-4.6133,132.961-5.3555,199.4727-.7656,68.832-.3242,137.707,2.3164,206.5039,1.4024,36.6094,3.4492,73.2031,6.4492,109.7188.6289,7.6367,6.0664,14.18,14.18,14.18,7.1875,0,14.8125-6.5039,14.18-14.18C73.1368,1419.7344,70.7618,1353.2578,69.8751,1286.8047Z" style="fill:#bf2d3a"/><path d="M303.2384,1477.7812c-57.2383-.914-114.4532-3.1093-171.6211-6.0156-7.66-.3906-14.1836,6.7969-14.1836,14.18,0,8,6.5039,13.7891,14.1836,14.18,57.1679,2.91,114.3828,5.1016,171.6211,6.0156,7.664.1211,14.18-6.6015,14.18-14.1758A14.3817,14.3817,0,0,0,303.2384,1477.7812Z" style="fill:#bf2d3a"/><path d="M412.9844,1493.07a14.2222,14.2222,0,0,0-3.6484-6.2617c-.957-.7344-1.9141-1.4766-2.8711-2.2149a14.0754,14.0754,0,0,0-7.1562-1.9336q-5.5429.0118-11.0821.0313a14.5686,14.5686,0,0,0-14.18,14.18c.168,1.2578.336,2.5117.504,3.7695a14.15,14.15,0,0,0,3.6484,6.2578c.9531.7383,1.91,1.48,2.8672,2.2149a14.1453,14.1453,0,0,0,7.16,1.9414q5.5371-.0176,11.0821-.0352a15.77,15.77,0,0,0,10.0273-4.1562,15.7629,15.7629,0,0,0,4.1524-10.0274C413.32,1495.5781,413.1524,1494.32,412.9844,1493.07Z" style="fill:#bf2d3a"/><path d="M56.1641,417.8984c.6836,7.6289,6.0274,14.18,14.1758,14.18,7.1445,0,14.8711-6.5078,14.1836-14.18a1855.2879,1855.2879,0,0,1-4.3008-273.91q2.2559-38.6309,6.1367-77.1407c.7657-7.6289-7.0625-14.18-14.18-14.18-8.3047,0-13.4141,6.5273-14.18,14.18a1855.4669,1855.4669,0,0,0-7.168,273.8555Q52.69,379.3515,56.1641,417.8984Z" style="fill:#437cbf"/><path d="M75.5157,490.5781c-7.2227.32-14.7617,6.2578-14.18,14.18q1.8164,24.9434,3.6328,49.8867c.5391,7.3789,6.1367,14.5391,14.18,14.18,7.2227-.3242,14.7578-6.2539,14.1836-14.18q-1.8222-24.9434-3.6367-49.8867C89.1563,497.375,83.5587,490.2148,75.5157,490.5781Z" style="fill:#437cbf"/><path d="M604.27,67.4687q77.7363.1,155.4648.1954a14.18,14.18,0,0,0,0-28.3594q-77.7363-.0937-155.4648-.1953a14.18,14.18,0,1,0,0,28.3593Z" style="fill:#437cbf"/><path d="M1391.6016,82.2344q50.6661.24,101.3321.4765a14.18,14.18,0,1,0,0-28.3593l-101.3321-.48a14.1817,14.1817,0,0,0,0,28.3633Z" style="fill:#f7a614"/><path d="M1571.1173,490.3516c.3554,7.6523,6.27,14.18,14.1836,14.18,7.41,0,14.5312-6.4921,14.1757-14.18q-6.7968-148.295-6.6836-296.7891.0353-42.4161.6446-84.8242c.1054-7.66-6.5977-14.18-14.1836-14.18a14.3809,14.3809,0,0,0-14.18,14.18q-2.1036,148.4355,2.7148,296.8515Q1569.1661,447.9825,1571.1173,490.3516Z" style="fill:#f7a614"/><path d="M1588.3243,601.2148c-7.6836.3438-14.18,6.2305-14.18,14.18v29.8047a14.6316,14.6316,0,0,0,4.1523,10.0274,14.3921,14.3921,0,0,0,10.0274,4.1523c7.6836-.3438,14.18-6.2305,14.18-14.18V615.3945a14.6424,14.6424,0,0,0-4.1563-10.0273A14.3927,14.3927,0,0,0,1588.3243,601.2148Z" style="fill:#f7a614"/><path d="M1510.8243,1449.3516q-45.75-1.1369-91.4922-2.2852-6.5274-.1582-13.0469-.32c-7.664-.1914-14.1836,6.6523-14.1836,14.18a14.3976,14.3976,0,0,0,14.1836,14.18q45.75,1.1426,91.4922,2.2851,6.5274.1641,13.0469.3242c7.6641.1914,14.1836-6.6523,14.1836-14.18A14.4008,14.4008,0,0,0,1510.8243,1449.3516Z" style="fill:#009b7e"/><path d="M1601.8048,1008.8359a14.18,14.18,0,1,0-28.3594,0q.6679,174.3926,1.332,348.7852.1875,49.1426.375,98.2812a14.18,14.18,0,0,0,28.3594,0q-.668-174.4042-1.332-348.7929Q1601.9982,1057.9667,1601.8048,1008.8359Z" style="fill:#009b7e"/><path d="M1327.1173,1454.4375a14.7285,14.7285,0,0,0-10.0235-4.1524h-23.8476a14.6294,14.6294,0,0,0-10.0235,4.1524,14.3989,14.3989,0,0,0-4.1523,10.0273c.16,3.6641,1.3633,7.4688,4.1523,10.0274a14.7136,14.7136,0,0,0,10.0235,4.1523h23.8476a14.6119,14.6119,0,0,0,10.0235-4.1523,14.4129,14.4129,0,0,0,4.1562-10.0274C1331.1094,1460.7969,1329.9063,1456.9922,1327.1173,1454.4375Z" style="fill:#009b7e"/><path d="M940.9571,256.8828a146.2094,146.2094,0,0,1,19.207,4.0586q4.7228,1.3476,9.34,3.0078c1.7578.6289,3.4961,1.3086,5.2383,1.9922.4375.1719.7031.2734.8593.3281.1719.086.4649.2227.9141.4336a172.42,172.42,0,0,1,17.3789,9.1406q4.19,2.5606,8.2227,5.3789c1.3437.9415,2.664,1.9063,3.98,2.8829.2774.207.4492.3359.52.3906q.8085.6329,1.5976,1.2773a156.4672,156.4672,0,0,1,14.4492,13.3242c2.2578,2.3672,4.4532,4.8008,6.5625,7.3086,2.5547,3.0469,3.02,3.668,4.6836,5.9766a147.818,147.818,0,0,1,10.4219,16.6133q2.1563,4.0137,4.0586,8.16c.1875.3985,1.5547,3.6485,1.3008,2.9766.6133,1.5508,1.2109,3.1133,1.7812,4.68,2.6211,7.1914,9.6289,12.0508,17.4414,9.9062,6.9336-1.9062,12.5352-10.2148,9.9024-17.4414C1058.5118,281.57,1007.6407,238.07,948.5,229.5312c-7.57-1.0937-15.2383,1.8711-17.4414,9.9063C929.2266,246.0976,933.3282,255.7812,940.9571,256.8828Z" style="fill:#f6d9c0"/><path d="M1076.0391,382.832c-3.6679.16-7.4726,1.3672-10.0234,4.1524q-1.1133,1.43-2.2188,2.8672a14.132,14.132,0,0,0-1.9375,7.16q-1.1777,10.5528-2.3554,21.1172a15.739,15.739,0,0,0,4.1523,10.0273,14.4233,14.4233,0,0,0,10.0274,4.1524c3.6679-.1641,7.4726-1.3672,10.0273-4.1524q1.1074-1.4355,2.2188-2.8711a14.1674,14.1674,0,0,0,1.9375-7.1562q1.1718-10.5586,2.3515-21.1172a15.739,15.739,0,0,0-4.1523-10.0273A14.3753,14.3753,0,0,0,1076.0391,382.832Z" style="fill:#f6d9c0"/><path d="M365.0235,707.6992c6.91-4.0469,8.6055-12.57,5.0859-19.4023a137.425,137.425,0,0,1-11.0039-28,147.2,147.2,0,0,1-5.32-28.7539,158.34,158.34,0,0,1,.5469-30.6329c-.0586.6133.4375-3.0117.4258-2.9414.16-1,.3359-2,.5195-3q.6855-3.7323,1.57-7.43a136.793,136.793,0,0,1,4.8321-15.961,120.5118,120.5118,0,0,1,13.3281-25.0937c.6523-.93,1.32-1.8477,1.9883-2.7618,1.6445-2.2617.6562-.8437.2734-.371q2.1329-2.6544,4.4063-5.1993a121.8588,121.8588,0,0,1,10.6953-10.5156,113.56,113.56,0,0,1,45.1523-23.4023q3.9258-1.0137,7.918-1.7461c1.1054-.2032,2.2109-.3828,3.32-.5625.168-.0235.2969-.043.4062-.0586.6094-.0742,1.2188-.1406,1.8321-.2031a109.8122,109.8122,0,0,1,14.7343-.4922c2.68.09,5.3438.3125,8.0118.582.3007.0312.5429.0547.7422.07.207.0469.4648.0977.7929.1641,1.32.2578,2.6406.4648,3.9571.7383a100.8643,100.8643,0,0,1,15.5195,4.6132c7.1523,2.7383,15.5547-3.0351,17.4414-9.9062,2.1992-7.9961-2.7266-14.6875-9.9024-17.4414-40.5781-15.5586-87.9726-4.8906-121.8359,21.0351-37.7734,28.918-56.7031,74.9649-55.4766,122.09a184.36,184.36,0,0,0,20.6407,79.4961C349.1251,709.418,358.668,711.4141,365.0235,707.6992Z" style="fill:#f6d9c0"/><path d="M533.1485,547.5937c.4883.543.9609,1.0977,1.43,1.66a41.1546,41.1546,0,0,1,8.1445,19.2578,15.8437,15.8437,0,0,0,4.16,9.7969,14.3827,14.3827,0,0,0,10.0234,4.1523c3.668-.164,7.4727-1.3672,10.0274-4.1523,2.3789-2.59,4.5664-6.3672,4.1523-10.0274a80.9791,80.9791,0,0,0-2.0625-12.0351,79.3994,79.3994,0,0,0-4.2305-11.32,67.2552,67.2552,0,0,0-11.5937-17.3867c-2.332-2.6211-6.6016-4.1524-10.0234-4.1524a14.446,14.446,0,0,0-10.0274,4.1524c-2.4805,2.7031-4.3242,6.25-4.1523,10.0273A15.51,15.51,0,0,0,533.1485,547.5937Z" style="fill:#f6d9c0"/><path d="M1292.129,1013.41a125.7663,125.7663,0,0,1-12.7383,2.918c-.9258.16-1.8555.3125-2.7852.4492-.18.02-.3867.0391-.625.0625-2.4062.2383-4.8125.461-7.23.5821-4.1016.2226-8.2188.23-12.3242.0468-2.1836-.1054-4.3516-.2539-6.52-.4648q-1.2422-.1172-2.4648-.2617c1.5664.1758-2.3594-.3438-2.4141-.3516a132.5879,132.5879,0,0,1-24.5586-6.4844c-1.1289-.4257-2.2617-.8632-3.3906-1.3046-.1328-.0547-.8086-.3516-1.1484-.5-1.6016-.711-3.18-1.4493-4.7422-2.2266a127.9905,127.9905,0,0,1-12.0078-6.7656,106.6617,106.6617,0,0,1-32.9532-33.5235,117.36,117.36,0,0,1-16.1992-45.5976,111.7444,111.7444,0,0,1,6.3594-54.9922c2.6562-7.1836-2.9727-15.5391-9.9063-17.4414-7.9257-2.18-14.7773,2.6914-17.4414,9.9023-14.07,38.043-9.6836,82,9.7539,117.3711,19.1914,34.91,54.1289,59.7031,92.9844,67.8477a142.4715,142.4715,0,0,0,67.8906-1.9219,14.182,14.182,0,1,0-7.539-27.3438Zm-15.4961,3.3594c.6406-.082,1.8594-.1875,0,0Z" style="fill:#f6d9c0"/><path d="M1341.2423,986.8672c7.2539,3.832,14.8476,1.4219,19.3945-5.086a112.7677,112.7677,0,0,0,19.6641-73.2031c-.6329-7.375-6.07-14.5469-14.1758-14.1836-7.1367.32-14.8633,6.2656-14.1836,14.1836a100.6371,100.6371,0,0,1,.0937,16.5977,37.9837,37.9837,0,0,1-.4492,4.41c.2031-1.0351.293-1.4492.3008-1.4883-.02.0938-.543,2.6719-.6367,3.1915q-.7383,4.0956-1.82,8.1093c-.7188,2.6719-1.5469,5.3242-2.48,7.93a41.06,41.06,0,0,1-1.5156,3.9766c-.27.539-.5508,1.1094-.6524,1.3359a100.7224,100.7224,0,0,1-8.6289,14.8242C1331.8868,973.5586,1334.8477,983.4883,1341.2423,986.8672Z" style="fill:#f6d9c0"/><path d="M626.1055,1248.5117c-.5234.0859-.8828.1484-1.125.1953-.6523.0664-1.3086.1211-1.9609.168-1.5937.125-3.1914.1836-4.7852.1914-1.59.0039-3.18-.0391-4.77-.1406-.9062-.0586-1.8047-.1524-2.707-.23-.1992-.0156-.3672-.0273-.5078-.0391a3.0806,3.0806,0,0,0-.4336-.0976,86.9846,86.9846,0,0,1-9.9141-2.3867c-1.5234-.4727-3.0312-1.0039-4.5195-1.5625-.1563-.0625-.9024-.3711-1.4141-.5743-.6054-.2929-2.1836-1.0234-2.1211-.996a86.8959,86.8959,0,0,1-8.4336-4.7071c-1.5664-.9883-3.0742-2.0508-4.5937-3.1054-.18-.129-1.0625-.7891-1.1445-.8438q-.7441-.6093-1.4766-1.2227a93.3328,93.3328,0,0,1-7.625-7.1875c-1.1289-1.1835-2.2227-2.3984-3.2891-3.6328-.4453-.5273-.8906-1.0586-1.3281-1.59.1836.2031-1.0391-1.34-1.2187-1.5938a92.0213,92.0213,0,0,1-5.6641-8.8281c-.8008-1.418-1.5547-2.8633-2.2774-4.3242-.41-.8359-.8046-1.68-1.1953-2.5195a2.7855,2.7855,0,0,0-.207-.41c-.0586-.1562-.1367-.3867-.2539-.7031a101.5066,101.5066,0,0,1-3.2461-10.2774c-.4336-1.7226-.82-3.4492-1.16-5.1953-.1953-.9922-.3593-1.9883-.5351-2.9843-.0977-.5665-.1524-.8594-.1836-1.004.0195.043.0234-.0078-.0234-.48-1.7305-16.2031-.2461-28.3946,4.457-43.4961a132.5164,132.5164,0,0,1,23.75-43.2774c4.918-5.8671,5.75-14.3125,0-20.0586-5.0547-5.0546-15.1133-5.8984-20.0547,0-23.9687,28.5977-39.8711,65.9454-36.8008,103.8243,2.9375,36.2578,23.1719,69.68,55.7344,86.8632a91.0949,91.0949,0,0,0,58.5625,9.5743c7.5586-1.2774,11.7852-10.5938,9.9062-17.4453C641.3477,1250.418,633.68,1247.2305,626.1055,1248.5117Z" style="fill:#f6d9c0"/><path d="M662.6759,1027.875a64.6139,64.6139,0,0,0-8.1524-3.09,61.2867,61.2867,0,0,0-8.7109-1.48,52.757,52.757,0,0,0-14.7227.6914c-9.5586,1.5195-18.4336,6.3633-25.59,12.7656-5.5391,4.9649-5.43,15.07,0,20.0508,5.9218,5.4336,14.1445,5.2969,20.0547,0,.2382-.207.4765-.418.7187-.6211a38.7071,38.7071,0,0,1,5.0586-2.9453,42.0957,42.0957,0,0,1,6.3633-1.7344,40.5853,40.5853,0,0,1,6.4648-.0078,37.7071,37.7071,0,0,1,7.0391,2.0547c-.918-.3828-1.8359-.7735-2.7578-1.16,3.6367,1.5274,6.8515,2.4961,10.8437,1.3946a14.4523,14.4523,0,0,0,8.4766-6.52c1.7383-3.289,2.6094-7.2734,1.43-10.9258C668.1407,1033.1016,665.9727,1029.2734,662.6759,1027.875Z" style="fill:#f6d9c0"/></g></g></svg>