<svg xmlns="http://www.w3.org/2000/svg" viewBox="0 0 98.69 213.3682"><g id="Layer_2" data-name="Layer 2"><g id="_1" data-name="1"><path d="M49.3453,86.7314c-22.8067,0-41.2935-17.6894-41.2935-39.5127S26.5386,7.705,49.3453,7.705,90.6382,25.3955,90.6382,47.2187,72.1514,86.7314,49.3453,86.7314Z" style="fill:#70b8e8"/><path d="M49.3453,75.1582c-16.1265,0-29.1988-12.5078-29.1988-27.9395S33.2188,19.2793,49.3453,19.2793,78.5435,31.7871,78.5435,47.2187,65.4712,75.1582,49.3453,75.1582Z" style="fill:#7cc4ed"/><path d="M90.5044,44.1767C90.0962,64.9433,72.3887,81.66,50.5884,81.66c-22.0566,0-39.9355-17.1084-39.9355-38.2138a36.8894,36.8894,0,0,1,6.7695-21.2911A38.3318,38.3318,0,0,0,8.0518,47.2187c0,21.8233,18.4868,39.5127,41.2935,39.5127S90.6382,69.042,90.6382,47.2187C90.6382,46.1943,90.5845,45.1816,90.5044,44.1767Z" style="fill:#8bd3fc"/><path d="M47.6045,12.4209c22.8062,0,41.293,17.69,41.293,39.5136A37.9319,37.9319,0,0,1,87.313,62.77a37.928,37.928,0,0,0,3.3252-15.5508c0-21.8232-18.4868-39.5137-41.2929-39.5137-18.878,0-34.7847,12.126-39.7085,28.6778C15.9478,22.2929,30.5689,12.4209,47.6045,12.4209Z" style="fill:#5ba5ce"/><polygon points="51.086 94.532 47.604 94.532 46.279 123.612 52.411 123.612 51.086 94.532" style="fill:#ffbc5a"/><path d="M51.5547,104.8115l-.4692-10.2793H47.6036l-.81,17.7734C48.01,108.79,49.76,106.0634,51.5547,104.8115Z" style="fill:#ff994d"/><polygon points="54.733 125.027 43.46 125.027 40.145 208.966 58.047 208.966 54.733 125.027" style="fill:#995841"/><path d="M51.0274,135.4023c1.5005.0088,2.9272,1.0713,4.2314,2.9766l-.5263-13.3516H43.46l-.9292,23.55C44.6973,140.4492,47.7154,135.3828,51.0274,135.4023Z" style="fill:#77412f"/><path d="M56.4488,168.4853c-1.23,14.5166-4.2056,24.7617-7.6836,24.7617-3.0884,0-5.7808-8.081-7.2066-20.0537l-1.4135,35.7725H58.0474Z" style="fill:#77412f"/><path d="M58.711,206.9218a1.4551,1.4551,0,0,0-1.4917-1.415H40.9747a1.6165,1.6165,0,0,0-1.6578,1.5723v4.2441c0,2.7266,19.3941,2.7266,19.3941,0Z" style="fill:#ffbc5a"/><path d="M53.9859,210.3808c-5.8179,0-10.6162-2.122-11.3965-4.874H40.9747a1.6165,1.6165,0,0,0-1.6578,1.5723v4.2441c0,2.7266,19.3941,2.7266,19.3941,0v-1.4443A21.9777,21.9777,0,0,1,53.9859,210.3808Z" style="fill:#ffad4a"/><path d="M56.5455,206.8632c0-.4033-2.56-.73-5.7188-.73s-5.7187.3271-5.7187.73,2.56.73,5.7187.73S56.5455,207.2666,56.5455,206.8632Z" style="fill:#ffda73"/><path d="M45.1626,98.917a2.3438,2.3438,0,0,0,2.1573,2.375h3.3759A3.1452,3.1452,0,0,0,53.59,98.1054l.2138-3.872a1.4912,1.4912,0,0,0-.3071-1.0059,1.0685,1.0685,0,0,0-.8335-.4228H45.7505a.8119.8119,0,0,0-.6333.3222,1.1324,1.1324,0,0,0-.2324.7627Z" style="fill:#ff994d"/><path d="M55.4439,123.5283a3.2045,3.2045,0,0,0-3.2661-2.9024H45.9043a3.09,3.09,0,0,0-3.1489,2.7979l-.3989,5.8281A1.5881,1.5881,0,0,0,42.82,130.48a1.7749,1.7749,0,0,0,1.2631.52h10.47a1.35,1.35,0,0,0,.9585-.3936,1.208,1.208,0,0,0,.352-.9316Z" style="fill:#ffbc5a"/><path d="M51.8516,129.664a7.2972,7.2972,0,0,1-7.397-7.1914,6.9949,6.9949,0,0,1,.1875-1.59,2.9989,2.9989,0,0,0-1.8867,2.541l-.3989,5.8281A1.5881,1.5881,0,0,0,42.82,130.48a1.7749,1.7749,0,0,0,1.2631.52h10.47a1.35,1.35,0,0,0,.9585-.3936,1.208,1.208,0,0,0,.352-.9316l-.0766-1.1211A7.5089,7.5089,0,0,1,51.8516,129.664Z" style="fill:#ffad4a"/><path d="M49.3453,0C22.0923,0,0,21.1416,0,47.2187S22.0923,94.4375,49.3453,94.4375,98.69,73.2968,98.69,47.2187,76.5977,0,49.3453,0Zm0,86.1562c-22.4742,0-40.6914-17.4326-40.6914-38.9375S26.8711,8.2812,49.3453,8.2812,90.0362,25.7129,90.0362,47.2187,71.8189,86.1562,49.3453,86.1562Z" style="fill:#ffbc5a"/><path d="M87.8179,59.8984C82.3194,75.1757,67.1773,86.1562,49.3453,86.1562c-22.4742,0-40.6914-17.4326-40.6914-38.9375A37.4464,37.4464,0,0,1,9.8057,38.02a50.432,50.432,0,0,1-4.6172-11.874A45.3512,45.3512,0,0,0,0,47.2187C0,73.2968,22.0923,94.4375,49.3453,94.4375c25.37,0,46.2573-18.3243,49.0244-41.8926A56.2915,56.2915,0,0,1,87.8179,59.8984Z" style="fill:#ffad4a"/><path d="M84.8936,44.5781c-1.0742-6.1006-4.8545-10.5859-8.4434-10.0176s-5.6289,5.9736-4.5546,12.0752,4.854,10.5869,8.4433,10.0186S85.9673,50.68,84.8936,44.5781Z" style="fill:#b0e7ff"/><path d="M69.983,25.6035c-1.84-2.3487-4.4512-3.4639-5.8335-2.49s-1.0113,3.6651.8286,6.0147,4.4507,3.4648,5.8335,2.4922S71.8223,27.9531,69.983,25.6035Z" style="fill:#b0e7ff"/><path d="M52.5772,98.9336c0-.9551-1.3359-1.73-2.9834-1.73s-2.9839.7744-2.9839,1.73,1.3359,1.7285,2.9839,1.7285S52.5772,99.8877,52.5772,98.9336Z" style="fill:#ffbc5a"/><path d="M9.3438,37.1A36.9732,36.9732,0,0,0,8.8614,51.167,37.4172,37.4172,0,0,1,9.8057,38.02C9.6421,37.7177,9.501,37.4043,9.3438,37.1Z" style="fill:#ff994d"/><path d="M97.772,53.0439C93.9239,75.4511,73.604,92.5507,49.0962,92.5507c-24.8818,0-45.4521-17.625-48.8442-40.538C2.7627,75.8388,23.7832,94.4375,49.3453,94.4375c25.37,0,46.2573-18.3243,49.0244-41.8926C98.1758,52.7168,97.9683,52.874,97.772,53.0439Z" style="fill:#ff994d"/><path d="M48.0186,2.5156c27.2529,0,49.3452,21.1406,49.3452,47.2187a45.3437,45.3437,0,0,1-4.6763,20.07A45.4271,45.4271,0,0,0,98.69,47.2187C98.69,21.1416,76.5977,0,49.3453,0,29.5938,0,12.5616,11.1084,4.6768,27.1494A49.6948,49.6948,0,0,1,48.0186,2.5156Z" style="fill:#ffda73"/><path d="M7.3277,49.7343c0,21.5039,18.2173,38.9375,40.6909,38.9375a40.828,40.828,0,0,0,36.9541-22.64,40.9854,40.9854,0,0,1-35.6274,20.124c-22.4742,0-40.6914-17.4326-40.6914-38.9375a37.3744,37.3744,0,0,1,3.7373-16.2978A37.4527,37.4527,0,0,0,7.3277,49.7343Z" style="fill:#ffda73"/><path d="M49.3453,6.8916c-23.2764,0-42.1441,18.0547-42.1441,40.3271S26.0689,87.5468,49.3453,87.5468s42.144-18.0556,42.144-40.3281S72.6211,6.8916,49.3453,6.8916Zm0,78.6347c-22.1109,0-40.0328-17.1513-40.0328-38.3076S27.2344,8.9121,49.3453,8.9121s40.0322,17.15,40.0322,38.3066S71.4556,85.5263,49.3453,85.5263Z" style="fill:#77412f"/><path d="M54.4009,155.7382c-.188-8.8974-.7856-16.1005-1.3349-16.0908s-.8423,7.2315-.6543,16.127c.188,8.8974.7856,16.1006,1.3349,16.09S54.5889,164.6338,54.4009,155.7382Z" style="fill:#bc6c53"/><path d="M53.7789,122.3252c0-.4727-2.0455-.8555-4.5689-.8555s-4.5688.3828-4.5688.8555,2.0454.8545,4.5688.8545S53.7789,122.7978,53.7789,122.3252Z" style="fill:#ffda73"/></g></g></svg>