<svg xmlns="http://www.w3.org/2000/svg" viewBox="0 0 500.3291 568.8309"><g id="Layer_2" data-name="Layer 2"><g id="Слой_1" data-name="Слой 1"><path d="M444.3418,98.4451A57.6848,57.6848,0,0,0,362.7627,16.867c-.585.5849-1.1533,1.1865-1.7051,1.7715a57.6643,57.6643,0,0,0-74.4726,84.94l-.8868,4.23a58.77,58.77,0,0,0,6.7383,41.584L249.248,192.5818l-43.1889-43.1894a58.7677,58.7677,0,0,0,6.7383-41.584l-.8863-4.23a57.6642,57.6642,0,0,0-74.4726-84.94c-.5518-.585-1.12-1.1866-1.7056-1.7715A57.6846,57.6846,0,0,0,54.1543,98.4451c.7519.7529,1.5215,1.4883,2.3071,2.1738a57.6856,57.6856,0,0,0,83.3013,76.2452l6.521,1.0039a58.63,58.63,0,0,0,37.8887-6.8887l43.3393,43.3389L54.6558,387.1736A15.37,15.37,0,0,0,76.3921,408.91l27.5888-27.5889,21.7369,21.7373-5.0161,5.0156A15.37,15.37,0,0,0,142.438,429.81l15.8843-15.8837a15.3689,15.3689,0,0,0,0-21.7364l-32.6045-32.6054,8.36-8.36,32.605,32.6055a15.37,15.37,0,0,0,21.7363,0l14.2124-14.2129a15.37,15.37,0,0,0-21.7363-21.7363l-3.3442,3.3437-21.7364-21.7363,158.51-158.5088a58.6286,58.6286,0,0,0,37.8887,6.8887l6.5205-1.0039a57.6853,57.6853,0,0,0,83.3008-76.2452C442.82,99.9334,443.59,99.198,444.3418,98.4451ZM75.8906,76.7088a26.9448,26.9448,0,0,1,38.106-38.1055c.602.6016,1.1538,1.2207,1.6885,1.8555a57.45,57.45,0,0,0-7.273,31.9531A57.6693,57.6693,0,0,0,78.8,79.2166,25.62,25.62,0,0,1,75.8906,76.7088Zm49.2583,72.3662a26.9432,26.9432,0,0,1-40.9316-34.7783A26.3143,26.3143,0,0,1,87.043,110.97a26.9678,26.9678,0,0,1,30.7993-5.1836,25.3854,25.3854,0,0,1,4.3974,2.6924,25.0274,25.0274,0,0,1,2.8926,2.4912A26.97,26.97,0,0,1,125.1489,149.075Zm54.2075-14.8809a27.5226,27.5226,0,0,1-3.7451,4.9151,28.0671,28.0671,0,0,1-6.4038,5.1,27.3239,27.3239,0,0,1-8.0928,3.0771,57.8794,57.8794,0,0,0,2.5249-20.8838,57.0431,57.0431,0,0,0,19.4122-2.5586A26.7314,26.7314,0,0,1,179.3564,134.1941Zm8.461-49.6933a26.6835,26.6835,0,0,1-2.8428,3.3437,26.9637,26.9637,0,0,1-38.0889,0c-.602-.6015-1.1538-1.22-1.6889-1.8554a26.85,26.85,0,0,1,1.6723-36.25,26.3059,26.3059,0,0,1,4.5645-3.6622,26.9422,26.9422,0,0,1,36.3838,38.4239Zm141.4717,59.708a28.0674,28.0674,0,0,1-6.4043-5.1,27.481,27.481,0,0,1-3.7452-4.9151,26.7491,26.7491,0,0,1-3.6953-10.3506,57.0425,57.0425,0,0,0,19.4121,2.5586,57.8923,57.8923,0,0,0,2.5245,20.8838A27.3181,27.3181,0,0,1,329.2891,144.2088Zm27.07-62.751a26.9732,26.9732,0,0,1-3.0606,4.5313c-.5342.6357-1.0859,1.2539-1.6885,1.8554a26.9636,26.9636,0,0,1-38.0888,0,26.5913,26.5913,0,0,1-2.8428-3.3437,26.9423,26.9423,0,0,1,36.3838-38.4239,26.2865,26.2865,0,0,1,4.5644,3.6622A27.0057,27.0057,0,0,1,356.3594,81.4578Zm55.11,67.6172A26.945,26.945,0,1,1,373.3633,110.97a25.1775,25.1775,0,0,1,2.8926-2.4922,25.4756,25.4756,0,0,1,4.3974-2.6914,26.9685,26.9685,0,0,1,30.8,5.1836,26.31,26.31,0,0,1,2.8252,3.3272A26.9739,26.9739,0,0,1,411.47,149.075Zm11.1358-72.3662a25.6285,25.6285,0,0,1-2.9092,2.5078,57.6693,57.6693,0,0,0-29.6123-6.8047,57.4508,57.4508,0,0,0-7.2735-31.9531c.5352-.6348,1.087-1.2539,1.6885-1.8555a26.945,26.945,0,0,1,38.1065,38.1055Z" style="fill:#629b8c"/><path d="M278.5068,221.8406,256.77,243.5769l85.9121,85.9112-21.7363,21.7363-3.3437-3.3437a15.37,15.37,0,0,0-21.7373,21.7363L310.0771,383.83a15.37,15.37,0,0,0,21.7364,0l32.6045-32.6055,8.36,8.36L340.1738,392.19a15.3689,15.3689,0,0,0,0,21.7364L356.0576,429.81a15.37,15.37,0,0,0,21.7373-21.7363l-5.0166-5.0156,21.7363-21.7363L422.1035,408.91A15.37,15.37,0,1,0,443.84,387.1736Z" style="fill:#629b8c"/><path d="M51.9722,498.3182c-2.95-8.8506-8.147-19.2442-19.6651-19.2442-7.8662,0-13.625,5.8994-13.625,13.9053,0,7.7256,5.0567,12.2217,17.417,18.4014,14.749,7.164,24.8628,15.0293,24.8628,28.9365,0,16.0117-13.625,28.5137-34.1328,28.5137a50.1619,50.1619,0,0,1-14.187-1.9659,67.3234,67.3234,0,0,1-8.5689-3.09C2.8091,560.2625.9829,548.4646,0,539.8963l4.916-1.5469c2.81,8.99,11.0967,24.7236,24.5816,24.7236,8.5683,0,14.0468-5.9013,14.0468-14.75,0-8.288-6.18-13.4853-16.7153-19.1025C12.3608,521.9158,2.3882,514.33,2.3882,500.8465c0-15.4522,12.22-27.5322,32.1665-27.5322a57.2872,57.2872,0,0,1,19.5244,3.7919c.562,5.1973,1.5454,11.3789,2.6689,20.087Z" style="fill:#2d3333"/><path d="M143.9761,543.406c-.8428,6.3223-3.7925,19.1045-4.9165,23.3184H67.4228v-4.917c11.939-.9824,13.3443-1.8252,13.3443-13.7646V494.1043c0-12.2217-1.4053-12.9229-11.3779-13.7666v-4.917h66.1591c.14,2.5283.8428,12.3613,1.4043,21.07l-5.0561.7022c-1.4053-4.9161-3.231-9.5508-5.7593-12.0791-2.3877-2.5284-6.1812-3.5118-14.0469-3.5118h-6.7422c-5.1972,0-5.7588.28-5.7588,4.9151v29.78h9.4112c11.7993,0,13.625-.7041,15.5913-10.5361h5.0566v28.375h-5.0566c-1.9663-10.1133-3.6519-10.6758-15.5913-10.6758H99.5893v24.3c0,6.6026.5616,10.1153,3.3711,11.5186,2.5284,1.125,7.3042,1.4043,12.6416,1.4043,7.1636,0,12.2212-.9834,15.5918-4.4932,2.6695-3.0908,5.1973-7.5869,7.8658-13.7666Z" style="fill:#2d3333"/><path d="M238.0859,542.8455c-1.8266,6.7422-5.4785,17.417-7.8657,22.334-3.6523.8428-16.5757,3.6514-26.1269,3.6514-37.3643,0-52.9561-24.3-52.9561-46.6348,0-28.7959,22.1934-48.8818,55.7656-48.8818,11.377,0,21.772,2.9492,25.564,3.7919,1.2641,7.7256,2.248,14.1875,3.2309,23.0381l-5.1972.9825c-4.6353-16.7159-15.4507-21.6309-26.2671-21.6309-20.3677,0-31.6045,19.2432-31.6045,39.8926,0,25.8437,13.9062,42.8418,33.0088,42.8418,11.6592,0,20.3677-7.4453,27.5317-21.6328Z" style="fill:#2d3333"/><path d="M332.1943,567.9881c-.8427,0-2.5273-.1406-4.2138-.1406-17.6983-.8428-23.1768-4.7745-28.795-13.625-3.6523-5.7579-7.4453-13.3448-11.5185-20.6485-2.2481-4.3535-4.7764-6.039-9.27-6.18h-2.669v20.5078c0,11.5176,1.4043,12.9229,11.9395,13.9053v4.917h-42.42v-4.917c10.5346-.9824,12.08-2.3877,12.08-13.9053V493.9627c0-11.2373-1.2656-12.6426-11.519-13.625v-4.917h39.4712c12.2207,0,19.3838,1.4053,25.0029,5.3389,5.6182,3.6513,9.5518,9.9736,9.5518,18.6816,0,12.36-8.1465,18.9629-17.5586,22.8965,1.9668,4.0723,7.3037,13.4834,11.3769,19.9453,5.0577,7.7256,8.0069,12.2217,10.8164,15.1709,3.09,3.23,5.3379,4.916,8.5684,6.04ZM279.38,521.9158c5.8994,0,10.6748-.9834,13.7646-3.792,4.7764-3.9336,6.7432-9.5517,6.7432-16.7158,0-14.8906-8.709-20.3682-16.5752-20.3682-3.5117,0-5.4775.5625-6.32,1.4053-.9844.8428-1.2647,2.2481-1.2647,5.1973v34.2734Z" style="fill:#2d3333"/><path d="M413.1006,543.406c-.8428,6.3223-3.793,19.1045-4.917,23.3184H336.5469v-4.917c11.9394-.9824,13.3447-1.8252,13.3447-13.7646V494.1043c0-12.2217-1.4053-12.9229-11.3779-13.7666v-4.917h66.1591c.1407,2.5283.8428,12.3613,1.4043,21.07l-5.0566.7022c-1.4053-4.9161-3.2305-9.5508-5.7588-12.0791-2.3877-2.5284-6.1816-3.5118-14.0469-3.5118h-6.7422c-5.1972,0-5.7587.28-5.7587,4.9151v29.78h9.4111c11.7988,0,13.625-.7041,15.5918-10.5361h5.0566v28.375h-5.0566c-1.9668-10.1133-3.6524-10.6758-15.5918-10.6758h-9.4111v24.3c0,6.6026.5615,10.1153,3.3711,11.5186,2.5283,1.125,7.3037,1.4043,12.6416,1.4043,7.163,0,12.2207-.9834,15.5918-4.4932,2.6689-3.0908,5.1972-7.5869,7.8652-13.7666Z" style="fill:#2d3333"/><path d="M495.2715,499.4412c-1.6856-7.3047-3.6524-11.9394-6.18-14.4678-2.3887-2.5283-6.041-3.3711-14.1865-3.3711h-6.4619v66.4405c0,11.9394,1.4042,12.7822,13.7646,13.7646v4.917H436.417v-4.917c11.7988-.9824,13.2041-1.8252,13.2041-13.7646V481.6023h-4.7764c-11.5176,0-14.0459,1.544-16.1533,3.792-2.2471,2.3877-4.0742,7.1631-5.8994,14.1875h-5.0567c.5616-10.2539,1.4043-20.5078,1.6856-27.6728h3.3711c2.248,3.2314,4.0732,3.5117,8.0068,3.5117h56.4668c3.792,0,5.7588-.8428,8.1475-3.5117h3.37c.1406,5.9013.8437,18.2617,1.5459,27.2519Z" style="fill:#2d3333"/></g></g></svg>