<svg xmlns="http://www.w3.org/2000/svg" xmlns:xlink="http://www.w3.org/1999/xlink" viewBox="0 0 1036.3264 892.5747"><defs><linearGradient id="Áåçûìÿííûé_ãðàäèåíò_1424" x1="117.1283" y1="769.3106" x2="1648.9485" y2="769.3106" gradientUnits="userSpaceOnUse"><stop offset="0" stop-color="#ffebd7"/><stop offset="1" stop-color="#ff778b"/></linearGradient><linearGradient id="Áåçûìÿííûé_ãðàäèåíò_1424-2" x1="518.1632" y1="-65.5081" x2="518.1632" y2="702.4914" xlink:href="#Áåçûìÿííûé_ãðàäèåíò_1424"/><linearGradient id="Áåçûìÿííûé_ãðàäèåíò_1424-3" x1="248.9244" y1="102.2376" x2="248.9244" y2="812.7312" xlink:href="#Áåçûìÿííûé_ãðàäèåíò_1424"/><linearGradient id="Áåçûìÿííûé_ãðàäèåíò_1424-4" x1="188.2198" y1="-57.8592" x2="389.9389" y2="504.9634" xlink:href="#Áåçûìÿííûé_ãðàäèåíò_1424"/><linearGradient id="Áåçûìÿííûé_ãðàäèåíò_1424-5" x1="175.0435" y1="72.0635" x2="84.1615" y2="101.7859" gradientTransform="translate(52.4456 48.5962)" xlink:href="#Áåçûìÿííûé_ãðàäèåíò_1424"/><linearGradient id="Áåçûìÿííûé_ãðàäèåíò_1424-6" x1="159.0563" y1="58.5667" x2="68.1828" y2="88.2863" gradientTransform="translate(79.5205 72.6852)" xlink:href="#Áåçûìÿííûé_ãðàäèåíò_1424"/><linearGradient id="Áåçûìÿííûé_ãðàäèåíò_1424-7" x1="184.001" y1="73.0642" x2="93.1274" y2="102.7839" gradientTransform="translate(85.1483 56.6133)" xlink:href="#Áåçûìÿííûé_ãðàäèåíò_1424"/><linearGradient id="Áåçûìÿííûé_ãðàäèåíò_1424-8" x1="208.2879" y1="140.1025" x2="117.4104" y2="169.8234" gradientTransform="translate(75.5792 -2.387)" xlink:href="#Áåçûìÿííûé_ãðàäèåíò_1424"/><linearGradient id="Áåçûìÿííûé_ãðàäèåíò_1424-9" x1="144.6779" y1="-18.6405" x2="346.3971" y2="544.1821" xlink:href="#Áåçûìÿííûé_ãðàäèåíò_1424"/><linearGradient id="Áåçûìÿííûé_ãðàäèåíò_1424-10" x1="192.3433" y1="271.3779" x2="192.3433" y2="390.8133" xlink:href="#Áåçûìÿííûé_ãðàäèåíò_1424"/><linearGradient id="Áåçûìÿííûé_ãðàäèåíò_1424-11" x1="101.1356" y1="20.5773" x2="302.8546" y2="583.3994" xlink:href="#Áåçûìÿííûé_ãðàäèåíò_1424"/><linearGradient id="Áåçûìÿííûé_ãðàäèåíò_1424-12" x1="79.6125" y1="108.8087" x2="258.1885" y2="607.0586" xlink:href="#Áåçûìÿííûé_ãðàäèåíò_1424"/><linearGradient id="Áåçûìÿííûé_ãðàäèåíò_1424-13" x1="743.6029" y1="102.2376" x2="743.6029" y2="812.7312" xlink:href="#Áåçûìÿííûé_ãðàäèåíò_1424"/><linearGradient id="Áåçûìÿííûé_ãðàäèåíò_1424-14" x1="682.8983" y1="-57.8592" x2="884.6174" y2="504.9634" xlink:href="#Áåçûìÿííûé_ãðàäèåíò_1424"/><linearGradient id="Áåçûìÿííûé_ãðàäèåíò_1424-15" x1="639.3564" y1="-18.6405" x2="841.0756" y2="544.1821" xlink:href="#Áåçûìÿííûé_ãðàäèåíò_1424"/><linearGradient id="Áåçûìÿííûé_ãðàäèåíò_1424-16" x1="701.6588" y1="334.9185" x2="911.5287" y2="334.9185" xlink:href="#Áåçûìÿííûé_ãðàäèåíò_1424"/><linearGradient id="Áåçûìÿííûé_ãðàäèåíò_1424-17" x1="732.2038" y1="318.7326" x2="947.9787" y2="318.7326" xlink:href="#Áåçûìÿííûé_ãðàäèåíò_1424"/><linearGradient id="Áåçûìÿííûé_ãðàäèåíò_1424-18" x1="721.5896" y1="303.4805" x2="892.4273" y2="303.4805" xlink:href="#Áåçûìÿííûé_ãðàäèåíò_1424"/><linearGradient id="Áåçûìÿííûé_ãðàäèåíò_1424-19" x1="595.8141" y1="20.5773" x2="797.5331" y2="583.3994" xlink:href="#Áåçûìÿííûé_ãðàäèåíò_1424"/><linearGradient id="Áåçûìÿííûé_ãðàäèåíò_1424-20" x1="574.291" y1="108.8087" x2="752.867" y2="607.0586" xlink:href="#Áåçûìÿííûé_ãðàäèåíò_1424"/><linearGradient id="Áåçûìÿííûé_ãðàäèåíò_93" x1="502.2056" y1="284.9558" x2="507.685" y2="310.2313" gradientUnits="userSpaceOnUse"><stop offset="0" stop-color="#ffc294"/><stop offset="1" stop-color="#e37054"/></linearGradient><linearGradient id="Áåçûìÿííûé_ãðàäèåíò_93-2" x1="472.2089" y1="305.7559" x2="459.2512" y2="310.939" xlink:href="#Áåçûìÿííûé_ãðàäèåíò_93"/><linearGradient id="Áåçûìÿííûé_ãðàäèåíò_93-3" x1="479.8878" y1="282.2107" x2="489.7806" y2="320.8397" xlink:href="#Áåçûìÿííûé_ãðàäèåíò_93"/><linearGradient id="Áåçûìÿííûé_ãðàäèåíò_93-4" x1="505.5489" y1="284.2383" x2="511.0259" y2="309.5034" xlink:href="#Áåçûìÿííûé_ãðàäèåíò_93"/><linearGradient id="Áåçûìÿííûé_ãðàäèåíò_93-5" x1="470.6698" y1="313.2648" x2="483.3981" y2="304.6614" xlink:href="#Áåçûìÿííûé_ãðàäèåíò_93"/><linearGradient id="Áåçûìÿííûé_ãðàäèåíò_93-6" x1="482.6752" y1="321.2157" x2="495.3952" y2="312.6179" xlink:href="#Áåçûìÿííûé_ãðàäèåíò_93"/><linearGradient id="Áåçûìÿííûé_ãðàäèåíò_93-7" x1="479.2837" y1="316.1838" x2="491.9912" y2="307.5945" xlink:href="#Áåçûìÿííûé_ãðàäèåíò_93"/><linearGradient id="Áåçûìÿííûé_ãðàäèåíò_385" x1="-10.8118" y1="375.0107" x2="-10.8118" y2="734.1619" gradientTransform="matrix(1, 0, 0, -1, 541.544, 1058.56)" gradientUnits="userSpaceOnUse"><stop offset="0" stop-color="#772f26"/><stop offset="1" stop-color="#fa864d"/></linearGradient><linearGradient id="Áåçûìÿííûé_ãðàäèåíò_385-2" x1="-153.4668" y1="375.0107" x2="-153.4668" y2="734.1619" gradientTransform="matrix(1, 0, 0, -1, 826.8541, 1058.56)" xlink:href="#Áåçûìÿííûé_ãðàäèåíò_385"/><linearGradient id="Áåçûìÿííûé_ãðàäèåíò_241" x1="359.6274" y1="310.2529" x2="324.2931" y2="465.7235" gradientTransform="matrix(-1, 0, 0, 1, 519.9204, 0)" gradientUnits="userSpaceOnUse"><stop offset="0" stop-color="#8d6390"/><stop offset="0.9946" stop-color="#472f63"/></linearGradient><linearGradient id="Áåçûìÿííûé_ãðàäèåíò_3" x1="222.7375" y1="760.5088" x2="222.7375" y2="730.1772" gradientTransform="translate(-44.6628)" gradientUnits="userSpaceOnUse"><stop offset="0" stop-color="#878787"/><stop offset="1"/></linearGradient><linearGradient id="Áåçûìÿííûé_ãðàäèåíò_3-2" x1="305.6787" y1="760.5088" x2="305.6787" y2="730.1772" xlink:href="#Áåçûìÿííûé_ãðàäèåíò_3"/><linearGradient id="Áåçûìÿííûé_ãðàäèåíò_3-3" x1="388.1228" y1="760.5088" x2="388.1228" y2="730.1772" xlink:href="#Áåçûìÿííûé_ãðàäèåíò_3"/><linearGradient id="Áåçûìÿííûé_ãðàäèåíò_3-4" x1="258.4296" y1="737.5777" x2="258.4296" y2="576.2641" gradientTransform="matrix(-1, 0, 0, 1, 519.9204, 0)" xlink:href="#Áåçûìÿííûé_ãðàäèåíò_3"/><linearGradient id="Áåçûìÿííûé_ãðàäèåíò_3-5" x1="258.9031" y1="737.578" x2="258.9031" y2="576.2463" gradientTransform="matrix(-1, 0, 0, 1, 519.9204, 0)" xlink:href="#Áåçûìÿííûé_ãðàäèåíò_3"/><linearGradient id="Áåçûìÿííûé_ãðàäèåíò_368" x1="254.1158" y1="439.3832" x2="242.8083" y2="514.2955" gradientTransform="matrix(-1, 0, 0, 1, 519.9204, 0)" gradientUnits="userSpaceOnUse"><stop offset="0" stop-color="#604463"/><stop offset="0.9946" stop-color="#261936"/></linearGradient><linearGradient id="Áåçûìÿííûé_ãðàäèåíò_241-2" x1="427.3643" y1="534.0096" x2="283.1936" y2="534.9519" xlink:href="#Áåçûìÿííûé_ãðàäèåíò_241"/><linearGradient id="Áåçûìÿííûé_ãðàäèåíò_3-6" x1="146.8245" y1="501.2976" x2="162.2273" y2="535.1627" gradientTransform="matrix(-1, 0, 0, 1, 519.9204, 0)" xlink:href="#Áåçûìÿííûé_ãðàäèåíò_3"/><linearGradient id="Áåçûìÿííûé_ãðàäèåíò_241-3" x1="134.5866" y1="290.3141" x2="200.039" y2="434.2196" gradientTransform="translate(-44.6628)" xlink:href="#Áåçûìÿííûé_ãðàäèåíò_241"/><linearGradient id="Áåçûìÿííûé_ãðàäèåíò_3-7" x1="264.1518" y1="628.545" x2="260.3987" y2="566.618" gradientTransform="matrix(-1, 0, 0, 1, 519.9204, 0)" xlink:href="#Áåçûìÿííûé_ãðàäèåíò_3"/><linearGradient id="Áåçûìÿííûé_ãðàäèåíò_3-8" x1="262.1808" y1="628.7032" x2="258.421" y2="566.6658" gradientTransform="matrix(-1, 0, 0, 1, 519.9204, 0)" xlink:href="#Áåçûìÿííûé_ãðàäèåíò_3"/><linearGradient id="Áåçûìÿííûé_ãðàäèåíò_8" x1="-111.1668" y1="250.3187" x2="1.5703" y2="421.5345" gradientTransform="matrix(1, 0, 0, -1, 567.5637, 765.9428)" gradientUnits="userSpaceOnUse"><stop offset="0" stop-color="#941727"/><stop offset="1" stop-color="#c25e2d"/></linearGradient><linearGradient id="Áåçûìÿííûé_ãðàäèåíò_5" x1="-127.5402" y1="219.2898" x2="-4.4308" y2="406.2583" gradientTransform="matrix(-1, 0, 0, 1, 519.9204, 0)" gradientUnits="userSpaceOnUse"><stop offset="0" stop-color="#cc2f44"/><stop offset="1" stop-color="#fa864d"/></linearGradient><linearGradient id="Áåçûìÿííûé_ãðàäèåíò_8-2" x1="-232.2513" y1="342.507" x2="-211.2042" y2="374.4715" gradientTransform="matrix(-1, 0, 0, 1, 519.9204, 0)" xlink:href="#Áåçûìÿííûé_ãðàäèåíò_8"/><linearGradient id="Áåçûìÿííûé_ãðàäèåíò_89" x1="-102.1413" y1="337.0052" x2="26.7568" y2="337.0052" gradientTransform="matrix(-0.9972, -0.0747, -0.0747, 0.9972, 614.1054, 22.6844)" gradientUnits="userSpaceOnUse"><stop offset="0" stop-color="#b5f114"/><stop offset="1" stop-color="#ffff0e"/></linearGradient><linearGradient id="Áåçûìÿííûé_ãðàäèåíò_401" x1="608.018" y1="368.2604" x2="612.0376" y2="368.2604" gradientTransform="translate(-43.6338 26.221) rotate(-4.3301)" gradientUnits="userSpaceOnUse"><stop offset="0" stop-color="#68aba5"/><stop offset="0.9946" stop-color="#033"/></linearGradient><linearGradient id="Áåçûìÿííûé_ãðàäèåíò_401-2" x1="262.6322" y1="133.398" x2="231.8988" y2="181.5278" gradientTransform="translate(623.2949 52.1189) rotate(56.8534)" xlink:href="#Áåçûìÿííûé_ãðàäèåíò_401"/><linearGradient id="Áåçûìÿííûé_ãðàäèåíò_360" x1="101.7923" y1="568.0614" x2="266.4156" y2="568.0614" gradientTransform="matrix(-1, 0, 0, 1, 519.9204, 0)" gradientUnits="userSpaceOnUse"><stop offset="0" stop-color="#345567"/><stop offset="0.9946" stop-color="#000014"/></linearGradient><linearGradient id="Áåçûìÿííûé_ãðàäèåíò_360-2" x1="179.7147" y1="586.9776" x2="321.0508" y2="586.9776" xlink:href="#Áåçûìÿííûé_ãðàäèåíò_360"/><linearGradient id="Áåçûìÿííûé_ãðàäèåíò_93-8" x1="449.5178" y1="342.2237" x2="384.775" y2="342.2237" xlink:href="#Áåçûìÿííûé_ãðàäèåíò_93"/><linearGradient id="Áåçûìÿííûé_ãðàäèåíò_93-9" x1="448.2512" y1="334.724" x2="388.3908" y2="334.724" xlink:href="#Áåçûìÿííûé_ãðàäèåíò_93"/><linearGradient id="Áåçûìÿííûé_ãðàäèåíò_93-10" x1="448.2501" y1="328.4481" x2="388.386" y2="328.4481" xlink:href="#Áåçûìÿííûé_ãðàäèåíò_93"/><linearGradient id="Áåçûìÿííûé_ãðàäèåíò_93-11" x1="448.2535" y1="332.9269" x2="388.3874" y2="332.9269" xlink:href="#Áåçûìÿííûé_ãðàäèåíò_93"/><linearGradient id="Áåçûìÿííûé_ãðàäèåíò_93-12" x1="448.2525" y1="336.9681" x2="388.3887" y2="336.9681" xlink:href="#Áåçûìÿííûé_ãðàäèåíò_93"/><linearGradient id="Áåçûìÿííûé_ãðàäèåíò_93-13" x1="448.2482" y1="340.9518" x2="388.4017" y2="340.9518" xlink:href="#Áåçûìÿííûé_ãðàäèåíò_93"/><linearGradient id="Áåçûìÿííûé_ãðàäèåíò_280" x1="105.0208" y1="309.0393" x2="200.9525" y2="309.0393" gradientTransform="matrix(-1, 0, 0, 1, 519.9204, 0)" gradientUnits="userSpaceOnUse"><stop offset="0" stop-color="#4678a5"/><stop offset="0.9946" stop-color="#000014"/></linearGradient><linearGradient id="Áåçûìÿííûé_ãðàäèåíò_93-14" x1="240.2486" y1="269.6753" x2="191.6533" y2="217.1609" gradientTransform="matrix(-1, 0, 0, 1, 519.9204, 0)" xlink:href="#Áåçûìÿííûé_ãðàäèåíò_93"/><linearGradient id="Áåçûìÿííûé_ãðàäèåíò_280-2" x1="143.0443" y1="368.2833" x2="312.346" y2="360.1568" xlink:href="#Áåçûìÿííûé_ãðàäèåíò_280"/><linearGradient id="Áåçûìÿííûé_ãðàäèåíò_348" x1="210.6506" y1="257.419" x2="213.0802" y2="191.8196" gradientTransform="matrix(-1, 0, 0, 1, 519.9204, 0)" gradientUnits="userSpaceOnUse"><stop offset="0" stop-color="#efa551"/><stop offset="1" stop-color="#ffefb9"/></linearGradient><linearGradient id="Áåçûìÿííûé_ãðàäèåíò_348-2" x1="171.635" y1="274.8933" x2="174.1031" y2="229.9752" xlink:href="#Áåçûìÿííûé_ãðàäèåíò_348"/><linearGradient id="Áåçûìÿííûé_ãðàäèåíò_88" x1="93.5341" y1="157.016" x2="93.5341" y2="142.1447" gradientTransform="matrix(-0.7474, -0.0255, -0.0341, 0.9994, 452.4611, -17.3106)" gradientUnits="userSpaceOnUse"><stop offset="0" stop-color="#a12c11"/><stop offset="1" stop-color="#dd5e43"/></linearGradient><linearGradient id="Áåçûìÿííûé_ãðàäèåíò_88-2" x1="99.2324" y1="182.3387" x2="99.2324" y2="167.4683" gradientTransform="matrix(-0.7694, 0.056, 0.0726, 0.9974, 407.4532, -43.2308)" xlink:href="#Áåçûìÿííûé_ãðàäèåíò_88"/><linearGradient id="Áåçûìÿííûé_ãðàäèåíò_88-3" x1="138.8813" y1="151.6911" x2="150.3526" y2="151.6911" gradientTransform="matrix(-1, 0, 0, 1, 519.9204, 0)" xlink:href="#Áåçûìÿííûé_ãðàäèåíò_88"/><linearGradient id="Áåçûìÿííûé_ãðàäèåíò_88-4" x1="340.9685" y1="131.5051" x2="304.5489" y2="142.5893" gradientTransform="matrix(-0.8498, 0.5271, 0.5271, 0.8498, 546.33, -135.862)" xlink:href="#Áåçûìÿííûé_ãðàäèåíò_88"/><linearGradient id="Áåçûìÿííûé_ãðàäèåíò_2" x1="149.2416" y1="254.2529" x2="149.2416" y2="293.2569" gradientTransform="matrix(-0.9728, 0.2317, 0.2317, 0.9728, 444.6431, -110.3163)" gradientUnits="userSpaceOnUse"><stop offset="0" stop-color="#ffad89"/><stop offset="1" stop-color="#ffdccf"/></linearGradient><linearGradient id="Áåçûìÿííûé_ãðàäèåíò_88-5" x1="178.5192" y1="212.1682" x2="155.7542" y2="204.4813" gradientTransform="matrix(-1, 0, 0, 1, 519.9204, 0)" xlink:href="#Áåçûìÿííûé_ãðàäèåíò_88"/><linearGradient id="Áåçûìÿííûé_ãðàäèåíò_88-6" x1="233.4385" y1="143.0969" x2="172.6413" y2="162.2457" gradientTransform="matrix(-1, 0, 0, 1, 519.9204, 0)" xlink:href="#Áåçûìÿííûé_ãðàäèåíò_88"/><linearGradient id="Áåçûìÿííûé_ãðàäèåíò_2-2" x1="193.8695" y1="236.8734" x2="211.6435" y2="226.8756" xlink:href="#Áåçûìÿííûé_ãðàäèåíò_2"/><linearGradient id="Áåçûìÿííûé_ãðàäèåíò_88-7" x1="221.3201" y1="221.3999" x2="135.78" y2="192.5162" gradientTransform="matrix(-1, 0, 0, 1, 519.9204, 0)" xlink:href="#Áåçûìÿííûé_ãðàäèåíò_88"/><linearGradient id="Áåçûìÿííûé_ãðàäèåíò_263" x1="-107.9854" y1="703.9037" x2="17.3444" y2="759.5011" gradientTransform="matrix(-1, 0, 0, 1, 519.9204, 0)" gradientUnits="userSpaceOnUse"><stop offset="0"/><stop offset="1" stop-color="#878787"/></linearGradient><linearGradient id="Áåçûìÿííûé_ãðàäèåíò_263-2" x1="-214.6775" y1="636.5537" x2="-86.5365" y2="713.8152" xlink:href="#Áåçûìÿííûé_ãðàäèåíò_263"/><linearGradient id="Áåçûìÿííûé_ãðàäèåíò_262" x1="48.2909" y1="271.471" x2="-179.9096" y2="279.1416" gradientTransform="matrix(-1, 0, 0, 1, 519.9204, 0)" gradientUnits="userSpaceOnUse"><stop offset="0" stop-color="#647d91"/><stop offset="0.9946" stop-color="#000014"/></linearGradient><linearGradient id="Áåçûìÿííûé_ãðàäèåíò_208" x1="-195.0979" y1="229.291" x2="-163.06" y2="285.1217" gradientTransform="matrix(-1, 0, 0, 1, 519.9204, 0)" gradientUnits="userSpaceOnUse"><stop offset="0" stop-color="#4e90db"/><stop offset="1" stop-color="#9ef7ff"/></linearGradient><linearGradient id="Áåçûìÿííûé_ãðàäèåíò_93-15" x1="-158.5422" y1="276.5117" x2="-198.7839" y2="193.0839" gradientTransform="matrix(-1, 0, 0, 1, 519.9204, 0)" xlink:href="#Áåçûìÿííûé_ãðàäèåíò_93"/><linearGradient id="Áåçûìÿííûé_ãðàäèåíò_264" x1="-182.2344" y1="526.4846" x2="0.0904" y2="557.5788" gradientTransform="matrix(-1, 0, 0, 1, 519.9204, 0)" gradientUnits="userSpaceOnUse"><stop offset="0.0054" stop-color="#000014"/><stop offset="1" stop-color="#647d91"/></linearGradient><linearGradient id="Áåçûìÿííûé_ãðàäèåíò_241-4" x1="-367.8196" y1="265.4928" x2="-344.4997" y2="386.3325" xlink:href="#Áåçûìÿííûé_ãðàäèåíò_241"/><linearGradient id="Áåçûìÿííûé_ãðàäèåíò_3-9" x1="-302.3712" y1="760.5088" x2="-302.3712" y2="730.1772" gradientTransform="matrix(-1, 0, 0, 1, 519.9204, 0)" xlink:href="#Áåçûìÿííûé_ãðàäèåíò_3"/><linearGradient id="Áåçûìÿííûé_ãðàäèåíò_3-10" x1="-219.43" y1="760.5088" x2="-219.43" y2="730.1772" gradientTransform="matrix(-1, 0, 0, 1, 519.9204, 0)" xlink:href="#Áåçûìÿííûé_ãðàäèåíò_3"/><linearGradient id="Áåçûìÿííûé_ãðàäèåíò_3-11" x1="-136.9859" y1="760.5088" x2="-136.9859" y2="730.1772" gradientTransform="matrix(-1, 0, 0, 1, 519.9204, 0)" xlink:href="#Áåçûìÿííûé_ãðàäèåíò_3"/><linearGradient id="Áåçûìÿííûé_ãðàäèåíò_3-12" x1="-220.8786" y1="723.5876" x2="-218.0519" y2="553.9756" gradientTransform="matrix(-1, 0, 0, 1, 519.9204, 0)" xlink:href="#Áåçûìÿííûé_ãðàäèåíò_3"/><linearGradient id="Áåçûìÿííûé_ãðàäèåíò_3-13" x1="-219.1969" y1="723.6156" x2="-216.3699" y2="553.9859" gradientTransform="matrix(-1, 0, 0, 1, 519.9204, 0)" xlink:href="#Áåçûìÿííûé_ãðàäèåíò_3"/><linearGradient id="Áåçûìÿííûé_ãðàäèåíò_368-2" x1="-216.7264" y1="390.3451" x2="-212.4863" y2="504.8275" xlink:href="#Áåçûìÿííûé_ãðàäèåíò_368"/><linearGradient id="Áåçûìÿííûé_ãðàäèåíò_241-5" x1="-257.3794" y1="433.8403" x2="-197.3298" y2="525.0388" xlink:href="#Áåçûìÿííûé_ãðàäèåíò_241"/><linearGradient id="Áåçûìÿííûé_ãðàäèåíò_241-6" x1="-386.8047" y1="209.8651" x2="-363.4842" y2="330.7079" xlink:href="#Áåçûìÿííûé_ãðàäèåíò_241"/><linearGradient id="Áåçûìÿííûé_ãðàäèåíò_3-14" x1="-216.6017" y1="559.6864" x2="-219.4286" y2="512.572" gradientTransform="matrix(-1, 0, 0, 1, 519.9204, 0)" xlink:href="#Áåçûìÿííûé_ãðàäèåíò_3"/><linearGradient id="Áåçûìÿííûé_ãðàäèåíò_3-15" x1="-215.9761" y1="559.6491" x2="-218.803" y2="512.5344" gradientTransform="matrix(-1, 0, 0, 1, 519.9204, 0)" xlink:href="#Áåçûìÿííûé_ãðàäèåíò_3"/><linearGradient id="Áåçûìÿííûé_ãðàäèåíò_264-2" x1="-251.902" y1="423.2207" x2="-59.6732" y2="628.1707" xlink:href="#Áåçûìÿííûé_ãðàäèåíò_264"/><linearGradient id="Áåçûìÿííûé_ãðàäèåíò_262-2" x1="-324.4727" y1="354.7407" x2="-136.9521" y2="358.5099" xlink:href="#Áåçûìÿííûé_ãðàäèåíò_262"/><linearGradient id="Áåçûìÿííûé_ãðàäèåíò_208-2" x1="-193.8726" y1="269.4917" x2="-177.7259" y2="288.5742" xlink:href="#Áåçûìÿííûé_ãðàäèåíò_208"/><linearGradient id="Áåçûìÿííûé_ãðàäèåíò_7" x1="-172.1642" y1="250.8934" x2="-196.1935" y2="288.7044" gradientTransform="matrix(-1, 0, 0, 1, 519.9204, 0)" gradientUnits="userSpaceOnUse"><stop offset="0" stop-color="#3895ff"/><stop offset="1" stop-color="#003f6b"/></linearGradient><linearGradient id="Áåçûìÿííûé_ãðàäèåíò_7-2" x1="-157.8706" y1="264.545" x2="-177.4285" y2="295.3201" xlink:href="#Áåçûìÿííûé_ãðàäèåíò_7"/><linearGradient id="Áåçûìÿííûé_ãðàäèåíò_208-3" x1="-208.848" y1="219.4046" x2="-167.3871" y2="268.4038" xlink:href="#Áåçûìÿííûé_ãðàäèåíò_208"/><linearGradient id="Áåçûìÿííûé_ãðàäèåíò_385-3" x1="714.4705" y1="459.1905" x2="714.4705" y2="852.1984" gradientTransform="matrix(1, 0, 0, 1, 0, 0)" xlink:href="#Áåçûìÿííûé_ãðàäèåíò_385"/><linearGradient id="Áåçûìÿííûé_ãðàäèåíò_262-3" x1="-323.5256" y1="308.0297" x2="-136.009" y2="311.7989" xlink:href="#Áåçûìÿííûé_ãðàäèåíò_262"/><linearGradient id="Áåçûìÿííûé_ãðàäèåíò_385-4" x1="535.487" y1="389.1348" x2="535.487" y2="786.7064" gradientTransform="matrix(1, 0, 0, 1, 0, 0)" xlink:href="#Áåçûìÿííûé_ãðàäèåíò_385"/><linearGradient id="Áåçûìÿííûé_ãðàäèåíò_169" x1="-137.2929" y1="168.785" x2="-136.9396" y2="189.6332" gradientTransform="matrix(-1, 0, 0, 1, 519.9204, 0)" gradientUnits="userSpaceOnUse"><stop offset="0" stop-color="#00fff2"/><stop offset="1" stop-color="#00548e"/></linearGradient><linearGradient id="Áåçûìÿííûé_ãðàäèåíò_6" x1="-223.6825" y1="155.7507" x2="-126.5308" y2="155.7507" gradientTransform="matrix(-1, 0, 0, 1, 519.9204, 0)" gradientUnits="userSpaceOnUse"><stop offset="0" stop-color="#d15036"/><stop offset="1" stop-color="#ff9e6e"/></linearGradient><linearGradient id="Áåçûìÿííûé_ãðàäèåíò_2-3" x1="-245.2326" y1="248.356" x2="-272.076" y2="237.2412" gradientTransform="matrix(-0.9818, 0.1898, 0.1898, 0.9818, 404.5928, -3.1307)" xlink:href="#Áåçûìÿííûé_ãðàäèåíò_2"/><linearGradient id="Áåçûìÿííûé_ãðàäèåíò_6-2" x1="-149.3646" y1="168.8414" x2="-133.7579" y2="168.8414" xlink:href="#Áåçûìÿííûé_ãðàäèåíò_6"/><linearGradient id="Áåçûìÿííûé_ãðàäèåíò_280-3" x1="56.59" y1="285.577" x2="282.1918" y2="274.7481" xlink:href="#Áåçûìÿííûé_ãðàäèåíò_280"/><linearGradient id="Áåçûìÿííûé_ãðàäèåíò_1424-21" x1="837.3994" y1="116.798" x2="750.8032" y2="248.6573" xlink:href="#Áåçûìÿííûé_ãðàäèåíò_1424"/><linearGradient id="Áåçûìÿííûé_ãðàäèåíò_1424-22" x1="837.3994" y1="90.2199" x2="750.8032" y2="222.0792" xlink:href="#Áåçûìÿííûé_ãðàäèåíò_1424"/><linearGradient id="Áåçûìÿííûé_ãðàäèåíò_1424-23" x1="836.5151" y1="107.951" x2="757.0453" y2="228.9589" xlink:href="#Áåçûìÿííûé_ãðàäèåíò_1424"/></defs><g style="isolation:isolate"><g id="Layer_2" data-name="Layer 2"><g id="office"><ellipse cx="523.5323" cy="769.3106" rx="417.9409" ry="41.0021" style="fill:url(#Áåçûìÿííûé_ãðàäèåíò_1424)"/><path d="M948.1207,608.2c-19.97,31.77-52.3537,58.1722-84.9793,76.7119-28.8269,16.3812-93.2071,19.9672-126.274,22.4C549.0253,721.13,336.3951,720.8211,151.9766,682.5407c-34.1681-7.0922-62.5346-16.222-84.5927-43.2626-36.58-44.8434-40.4587-90.7468-50.5947-133.5609C-1.7033,427.6047-7.0695,356.7061,11.7,278.66S78.884,127.1362,150.8381,91.5533C247.0581,43.97,361.7842,70.851,468.53,59.5456c88.71-9.3951,174.84-45.8385,263.8418-39.8085,85.1892,5.7714,166.0688,52.4912,216.1656,121.6345s99.5955,159.1268,85.2843,243.3034C1020.4509,463.32,990.5743,540.6609,948.1207,608.2Z" style="fill:url(#Áåçûìÿííûé_ãðàäèåíò_1424-2)"/><rect x="117.4071" width="263.0346" height="650.379" style="fill:url(#Áåçûìÿííûé_ãðàäèåíò_1424-3)"/><rect x="139.4735" y="44.3297" width="220.0864" height="137.675" style="fill:url(#Áåçûìÿííûé_ãðàäèåíò_1424-4)"/><rect x="154.7206" y="100.9821" width="20.2607" height="80.3292" transform="translate(-42.7486 77.896) rotate(-23.6257)" style="fill:url(#Áåçûìÿííûé_ãðàäèåíò_1424-5)"/><rect x="188.9178" y="104.0203" width="20.2608" height="80.3292" transform="translate(-46.4669 155.6666) rotate(-38.596)" style="fill:url(#Áåçûìÿííûé_ãðàäèåíò_1424-6)"/><rect x="214.6805" y="104.0204" width="20.2607" height="80.3291" transform="translate(-40.8393 171.7388) rotate(-38.5962)" style="fill:url(#Áåçûìÿííûé_ãðàäèåíò_1424-7)"/><rect x="247.6535" y="106.0883" width="20.2608" height="80.3292" transform="translate(-28.6041 222.5705) rotate(-44.4899)" style="fill:url(#Áåçûìÿííûé_ãðàäèåíò_1424-8)"/><rect x="139.4735" y="205.0359" width="220.0864" height="137.675" style="fill:url(#Áåçûìÿííûé_ãðàäèåíò_1424-9)"/><path d="M208.2558,290.1382l6.6492-19.6177H167.9658l8.1631,19.8249a28.6942,28.6942,0,1,0,32.1269-.2072Z" style="fill:url(#Áåçûìÿííûé_ãðàäèåíò_1424-10)"/><rect x="139.4735" y="365.7423" width="220.0864" height="137.6748" style="fill:url(#Áåçûìÿííûé_ãðàäèåíò_1424-11)"/><rect x="139.4735" y="526.4485" width="220.0864" height="112.8296" style="fill:url(#Áåçûìÿííûé_ãðàäèåíò_1424-12)"/><rect x="612.0855" width="263.0348" height="650.379" style="fill:url(#Áåçûìÿííûé_ãðàäèåíò_1424-13)"/><rect x="634.152" y="44.3297" width="220.0864" height="137.675" style="fill:url(#Áåçûìÿííûé_ãðàäèåíò_1424-14)"/><rect x="634.152" y="205.0359" width="220.0864" height="137.675" style="fill:url(#Áåçûìÿííûé_ãðàäèåíò_1424-15)"/><rect x="700.0782" y="327.126" width="114.5215" height="15.5849" style="fill:url(#Áåçûìÿííûé_ãðàäèåíò_1424-16)"/><rect x="730.5787" y="310.3393" width="117.7438" height="16.7867" style="fill:url(#Áåçûìÿííûé_ãðàäèåíò_1424-17)"/><rect x="720.3029" y="296.6216" width="93.2225" height="13.7177" style="fill:url(#Áåçûìÿííûé_ãðàäèåíò_1424-18)"/><rect x="634.152" y="365.7423" width="220.0864" height="137.6748" style="fill:url(#Áåçûìÿííûé_ãðàäèåíò_1424-19)"/><rect x="634.152" y="526.4485" width="220.0864" height="112.8296" style="fill:url(#Áåçûìÿííûé_ãðàäèåíò_1424-20)"/><path d="M537.2891,288.2577,535.6354,306.59s-7.4065-.933-13.1733,1.9222-11.4913,3.1662-16.7491,3.5054a22.2194,22.2194,0,0,0-9.7528,3.4205c-1.3569.8056-9.6539-6.841-12.7067-8.6079s-13.4419-4.9469-11.7882-6.3323c1.64-1.3851,19.6609-10.9822,23.6751-13.3427,1.5406-.9187,4.89-1.3851,8.8764-1.5264a103.91,103.91,0,0,1,19.152,1.173,102.8132,102.8132,0,0,0,10.9966,1.3145C536.1442,288.2437,537.2891,288.2577,537.2891,288.2577Z" style="fill:url(#Áåçûìÿííûé_ãðàäèåíò_93)"/><path d="M537.2891,288.2577,535.6354,306.59s-7.4065-.933-13.1733,1.9222-11.4913,3.1662-16.7491,3.5054a22.2194,22.2194,0,0,0-9.7528,3.4205c-1.3569.8056-9.6539-6.841-12.7067-8.6079s-13.4419-4.9469-11.7882-6.3323c1.64-1.3851,19.6609-10.9822,23.6751-13.3427,1.5406-.9187,4.89-1.3851,8.8764-1.5264,2.6147,3.4629,6.0071,7.7738,8.82,9.9928,5.23,4.0848,10.4453,8.8481,16.58,2.6856,4-4.0424,4.7209-7.9719,4.7492-10.1909C536.1442,288.2437,537.2891,288.2577,537.2891,288.2577Z" style="fill:#fae2ca;mix-blend-mode:multiply"/><path d="M472.6949,306.9716a12.7833,12.7833,0,0,1-4.6359,3.0673c-1.6679.65-3.2509.8339-4.1414.3532-1.1874-.65-1.258-1.4415-.8481-2.1907a8.8545,8.8545,0,0,1,3.0389-2.5726C470.1084,303.5087,474.589,304.9362,472.6949,306.9716Z" style="fill:url(#Áåçûìÿííûé_ãðàäèåíò_93-2)"/><path d="M472.6949,306.9716a12.7833,12.7833,0,0,1-4.6359,3.0673c-.0283-2.3747-4-1.9647-4.99-1.8375a8.8545,8.8545,0,0,1,3.0389-2.5726C470.1084,303.5087,474.589,304.9362,472.6949,306.9716Z" style="fill:#fae2ca;mix-blend-mode:multiply"/><path d="M523.2819,310.6606a4.9531,4.9531,0,0,1-1.0742.8764c-2.615,1.5549-5.7527-.636-9.8375-4.3673,1.8658,1.809,5.23,5.5688,2.7845,6.8408-3.4488,1.8094-7.5619-1.1873-9.9366-3.3922,1.4277,1.7811,2.7139,4.2969.17,5.8657-1.7952,1.1026-6.3747-2.0776-7.9436-3.2508,1.2579,1.0035,3.9858,3.5761.2827,4.3816-2.4311.523-9.5407-2.3179-15.9012-7.1944-6.36-4.89-9.8941-3.4771-14.841-2.9965-4.9472.4666-14.6008.4666-14.6008.4666s-12.2546-8.0144,0-18.3747c0,0,4.89,0,10.4028-.4949,4.3675-.3815,9.1308-1.0881,12.1556-2.332,4.311-1.7668,10.77-2.4311,16.6079-1.583a21.9085,21.9085,0,0,1,9.1873,3.2367c2.4736,1.6962,5.3852,3.8869,8.2121,6.12,4.622,3.6466,9.0036,7.378,10.7562,9.1449C521.3032,305.219,526.0239,307.7774,523.2819,310.6606Z" style="fill:url(#Áåçûìÿííûé_ãðàäèåíò_93-3)"/><path d="M512.37,307.17c1.8658,1.809,3.4241,5.1633,1.9647,6.3744-2.0613,1.7106-6.7421-.7209-9.1168-2.9258,1.4277,1.7811,1.6149,3.5733-.0117,4.8814-1.6415,1.32-6.1932-1.0933-7.7621-2.2665,1.2579,1.0035,3.22,3.0389-.4829,3.8446-2.4311.523-8.7751-1.7809-15.1356-6.6574-6.36-4.89-9.8941-3.4771-14.841-2.9965-4.9472.4666-14.6008.4666-14.6008.4666s-12.2546-8.0144,0-18.3747c0,0,4.89,0,10.4028-.4949,0,2.05.7774,6.714,8.0849,5.7953,8.7634-1.1026,15.2369-7.463,20.6786-9.71a21.9085,21.9085,0,0,1,9.1873,3.2367c2.4736,1.6962,5.3852,3.8869,8.2121,6.12-.0283,3.4488,1.3993,11.053,13.258,17.0742C519.5927,313.0919,516.455,310.901,512.37,307.17Z" style="fill:#fae2ca;mix-blend-mode:multiply"/><path d="M488.2623,289.0446c-2.8521,2.783-2.5873,7.7738,3.7331,4.24s6.6224-4.6271,14.2454-1.3712,13.7479,8.91,19.166,5.14,2.3557-9.7877-5.1825-12.3144-20.35-2.9978-22.3071-2.5266S491.4006,285.9821,488.2623,289.0446Z" style="fill:url(#Áåçûìÿííûé_ãðàäèåíò_93-4)"/><path d="M481.4017,309.1625a1.9646,1.9646,0,0,1,0,.41c-.2685,2.2049-3.9858,2.8269-6.2755,2.12a3.3354,3.3354,0,0,1-2.1768-2.9682,1.9306,1.9306,0,0,1,1.0319-2.0777C477.3735,305.2473,481.1615,307.0988,481.4017,309.1625Z" style="fill:url(#Áåçûìÿííûé_ãðàäèåíò_93-5)"/><path d="M481.4017,309.1625a1.9646,1.9646,0,0,1,0,.41c-.2685,2.2049-3.9858,2.8269-6.2755,2.12a3.3354,3.3354,0,0,1-2.1768-2.9682c.4806.7915,1.5972,1.583,4.2262,1.3145A17.5521,17.5521,0,0,0,481.4017,309.1625Z" style="fill:#fae2ca;mix-blend-mode:multiply"/><path d="M496.5679,313.4875c-.0424.9754-1.1024,1.8941-2.1059,3.039-1.4983,1.7386-3.0955,2.6714-5.3,2.1343-2.219-.523-2.8126-3.35-1.6254-4.2827a23.5806,23.5806,0,0,1,3.1661-2.1908c2.0777-1.1733,3.6607-1.3286,4.99-.2262A1.9037,1.9037,0,0,1,496.5679,313.4875Z" style="fill:url(#Áåçûìÿííûé_ãðàäèåíò_93-6)"/><path d="M496.5679,313.4875c-.0424.9754-1.1024,1.8941-2.1059,3.039-1.4983,1.7386-3.0955,2.6714-5.3,2.1343-2.219-.523-2.8126-3.35-1.6254-4.2827a23.5806,23.5806,0,0,1,3.1661-2.1908c-1.8656,2.7137.636,4.7916,2.8975,3.7739A6.8,6.8,0,0,0,496.5679,313.4875Z" style="fill:#fae2ca;mix-blend-mode:multiply"/><path d="M488.0168,314.166c-2.3465,1.1873-5.1874,1.569-6.6008,1.0177a1.9274,1.9274,0,0,1-1.2439-1.3709,3.38,3.38,0,0,1,1.6537-3.3924c3.8022-2.3462,7.4206-2.2614,8.9187-.6219a2.0473,2.0473,0,0,1,.4807.7774C491.72,311.8764,490.2358,313.0354,488.0168,314.166Z" style="fill:url(#Áåçûìÿííûé_ãðàäèåíò_93-7)"/><path d="M488.0168,314.166c-2.3465,1.1873-5.1874,1.569-6.6008,1.0177a1.9274,1.9274,0,0,1-1.2439-1.3709,13.0293,13.0293,0,0,0,5.357-.82,25.3107,25.3107,0,0,0,5.6961-2.4171C491.72,311.8764,490.2358,313.0354,488.0168,314.166Z" style="fill:#fae2ca;mix-blend-mode:multiply"/><rect x="398.8968" y="347.6191" width="263.6708" height="363.3218" transform="translate(1061.4644 1058.56) rotate(180)" style="fill:url(#Áåçûìÿííûé_ãðàäèåíò_385)"/><rect x="662.5676" y="347.6191" width="21.6393" height="363.3218" transform="translate(1346.7745 1058.56) rotate(180)" style="fill:url(#Áåçûìÿííûé_ãðàäèåíò_385-2)"/><path d="M143.9636,329.3464C150.2815,345.403,172.7694,535.1,172.7694,535.1l63.0534-27.76S220.8545,392.7108,205.9,344.9932c-2.4311-7.7457-4.8622-13.71-7.2227-17.1592-12.5089-18.2475-39.2653-15.675-52.4243-1.2862A30.8684,30.8684,0,0,0,143.9636,329.3464Z" style="fill:url(#Áåçûìÿííûé_ãðàäèåíò_241)"/><path d="M143.9636,329.3464C150.2815,345.403,172.7694,535.1,172.7694,535.1l63.0534-27.76S220.8545,392.7108,205.9,344.9932c.9471,40.1867-2.3015,71.9134-27.8257,53.1335C165.8576,389.1379,144.67,328.3711,143.9636,329.3464Z" style="fill:#748db9;mix-blend-mode:multiply"/><path d="M192.3061,742.54a14.2314,14.2314,0,1,1-14.2315-14.2313A14.2314,14.2314,0,0,1,192.3061,742.54Z" style="fill:url(#Áåçûìÿííûé_ãðàäèåíò_3)"/><path d="M187.5978,742.54a9.5231,9.5231,0,1,1-9.5232-9.523A9.5231,9.5231,0,0,1,187.5978,742.54Z" style="fill:#546064;mix-blend-mode:multiply"/><path d="M275.2473,742.54a14.2315,14.2315,0,1,1-14.2314-14.2313A14.2315,14.2315,0,0,1,275.2473,742.54Z" style="fill:url(#Áåçûìÿííûé_ãðàäèåíò_3-2)"/><path d="M269.2371,742.54a8.2212,8.2212,0,1,1-8.2212-8.2212A8.2213,8.2213,0,0,1,269.2371,742.54Z" style="fill:#546064;mix-blend-mode:multiply"/><path d="M357.6914,742.54A14.2315,14.2315,0,1,1,343.46,728.3085,14.2315,14.2315,0,0,1,357.6914,742.54Z" style="fill:url(#Áåçûìÿííûé_ãðàäèåíò_3-3)"/><path d="M352.2382,741.7951a8.7783,8.7783,0,1,1-8.7783-8.7783A8.7784,8.7784,0,0,1,352.2382,741.7951Z" style="fill:#546064;mix-blend-mode:multiply"/><rect x="254.4943" y="571.7084" width="13.993" height="102.3752" style="fill:url(#Áåçûìÿííûé_ãðàäèåíò_3-4)"/><path d="M254.4943,581.49s12.2969,40.99,0,88.17v4.424h13.993V571.7084h-13.993Z" style="fill:#546064;mix-blend-mode:multiply"/><path d="M173.66,737.9286a4.5546,4.5546,0,0,0,4.1978,4.6078h.0706a4.4157,4.4157,0,0,0,4.5655-4.41c0-41.1875,33.3148-54.1063,57.9368-58.0075a14.0629,14.0629,0,0,1,16.17,13.9366V737.872a4.5961,4.5961,0,0,0,4.1838,4.6644,4.42,4.42,0,0,0,4.65-4.41v-43.76a14.1316,14.1316,0,0,1,16.8764-13.8235,93.31,93.31,0,0,1,30.7563,11.4207c17.47,10.6715,26.3747,26.1062,26.4737,45.8518a4.6268,4.6268,0,0,0,4.1556,4.721,4.4259,4.4259,0,0,0,4.6784-4.41c0-21.9506-9.8658-38.3182-24.65-49.5268-16.9189-12.8482-40.2687-18.94-62.7142-18.94-12.2828,0-28.622,1.4558-44.0992,7.3639a82.4063,82.4063,0,0,0-14.8976,7.4489C183.5115,696.3171,173.7163,714.8048,173.66,737.9286Z" style="fill:url(#Áåçûìÿííûé_ãðàäèåíò_3-5)"/><path d="M177.9283,742.5364a4.4157,4.4157,0,0,0,4.5655-4.41c0-41.1875,33.3148-54.1063,57.9368-58.0075a14.0629,14.0629,0,0,1,16.17,13.9366V737.872a4.5961,4.5961,0,0,0,4.1838,4.6644,4.42,4.42,0,0,0,4.65-4.41v-43.76a14.1316,14.1316,0,0,1,16.8764-13.8235,93.31,93.31,0,0,1,30.7563,11.4207c17.47,10.6715,26.3747,26.1062,26.4737,45.8518a4.6268,4.6268,0,0,0,4.1556,4.721,4.4183,4.4183,0,0,0,3.3214-1.23c-1.5547-.99-2.9258-3.4771-3.5618-8.919-1.8656-16.014-7.1379-24.82-15.4347-35.7315a25.6846,25.6846,0,0,1-4.2969-8.0566c-16.9189-12.8482-40.2687-18.94-62.7142-18.94-12.2828,0-28.622,1.4558-44.0992,7.3639-4.7633,4-9.8092,8.1272-14.77,12.0283C183.0733,704.02,177.1368,720.5292,177.9283,742.5364Z" style="fill:#546064;mix-blend-mode:multiply"/><polygon points="172.766 528.278 235.816 507.341 382.519 507.341 343.206 528.278 172.766 528.278" style="fill:url(#Áåçûìÿííûé_ãðàäèåíò_368)"/><polygon points="172.766 528.278 343.206 528.278 343.206 541.935 177.53 541.935 172.766 528.278" style="fill:url(#Áåçûìÿííûé_ãðàäèåíò_241-2)"/><polygon points="382.519 507.341 343.206 528.278 343.206 541.935 382.519 519.317 382.519 507.341" style="fill:url(#Áåçûìÿííûé_ãðàäèåíò_3-6)"/><path d="M178.0746,541.9353l-5.3084-13.6577S152.58,372.9,151.02,360.4323c-3.8912-31.0915-7.05-31.0915-7.05-31.0915-5.833,34.0909,23.6437,212.5945,23.6437,212.5945Z" style="fill:url(#Áåçûìÿííûé_ãðàäèåíò_241-3)"/><polygon points="193.377 541.941 205.151 553.164 318.212 553.164 328.657 541.941 193.377 541.941" style="fill:url(#Áåçûìÿííûé_ãðàäèåíò_3-7)"/><polygon points="217.377 541.941 223.074 553.164 318.212 553.164 328.657 541.941 217.377 541.941" style="fill:#546064;mix-blend-mode:multiply"/><polygon points="232.388 553.164 241.957 571.708 283.456 571.708 292.247 553.164 232.388 553.164" style="fill:url(#Áåçûìÿííûé_ãðàäèåíò_3-8)"/><polygon points="239.908 553.164 250.127 571.708 283.456 571.708 292.247 553.164 239.908 553.164" style="fill:#546064;mix-blend-mode:multiply"/><rect x="355.3336" y="376.8049" width="376.8169" height="12.333" transform="translate(1087.4841 765.9428) rotate(180)" style="fill:url(#Áåçûìÿííûé_ãðàäèåíò_8)"/><polygon points="355.338 376.808 732.147 376.808 739.578 345.4 407.862 335.839 355.338 376.808" style="fill:url(#Áåçûìÿííûé_ãðàäèåíò_5)"/><path d="M355.3384,376.8084h35.92c34.6574-29.2558,135.0069-23.1038,174.7811-22.0563,47.4914,1.2763,107.3477,22.0563,107.3477,22.0563h58.7593L739.5778,345.4l-331.7161-9.5615Z" style="fill:#debaaa;mix-blend-mode:multiply"/><polygon points="739.58 345.406 732.151 376.805 732.151 389.138 739.58 356.326 739.58 345.406" style="fill:url(#Áåçûìÿííûé_ãðàäèåíò_8-2)"/><path d="M690.8806,365.1185s-34.2267-14.6171-57.92-18.4049c-12.7119,1.8414-60.5838.5753-69.9605.0168,2.8934,10.6314,34.1813,27.9641,34.1813,27.9641S659.1472,375.976,690.8806,365.1185Z" style="fill:url(#Áåçûìÿííûé_ãðàäèåíò_89)"/><path d="M694.7449,363.8621s-34.4368-14.555-58.2276-18.3137c-12.7354,1.8485-60.7555.6273-70.1636.0784,2.981,10.6051,34.4888,27.872,34.4888,27.872S663,374.7236,694.7449,363.8621Z" style="fill:#ede6ed"/><path d="M567.1363,342.2546c2.9805,10.4419,34.3154,27.3643,34.3154,27.3643a382.4491,382.4491,0,0,0,38.7785.0381c15.9427-.8087,33.858-2.8348,47.2007-7.3995,0,0-26.9548-16.6316-50.5943-20.2757-8.3819,1.2331-32.5621,1.1746-50.306.8431C577.6331,342.66,570.28,342.4305,567.1363,342.2546Z" style="fill:#fff"/><path d="M586.5306,342.8249a82.0677,82.0677,0,0,1,22.29,10.9067c9.6513,6.7775,21,12.0237,31.41,15.9254,15.9427-.8087,33.858-2.8348,47.2007-7.3995,0,0-26.9548-16.6316-50.5943-20.2757C628.4547,343.2149,604.2745,343.1564,586.5306,342.8249Z" style="fill:#efe0e1;mix-blend-mode:multiply"/><polygon points="590.927 347.072 596.302 345.114 596.484 348.998 590.927 347.072" style="fill:url(#Áåçûìÿííûé_ãðàäèåíò_401)"/><path d="M652.2266,347.35a.352.352,0,0,1-.1-.0041l-55.6434,1.6522a1.9445,1.9445,0,0,1-.1817-3.8844l14.3877-.9184,41.1673-2.6293a2.8942,2.8942,0,0,1,3.0786,2.6993,2.9129,2.9129,0,0,1-2.7089,3.0847Z" style="fill:url(#Áåçûìÿííûé_ãðàäèåíò_401-2)"/><path d="M652.2266,347.35a.352.352,0,0,1-.1-.0041l-55.6434,1.6522a1.9445,1.9445,0,0,1-.1817-3.8844,19.9681,19.9681,0,0,0,8.8462,1.9423,112.3659,112.3659,0,0,0,12.8388-.3426c5.3082-.7377,30.6646-1.2535,36.82-1.3944A2.903,2.903,0,0,1,652.2266,347.35Z" style="fill:#89abc2;mix-blend-mode:multiply"/><path d="M362.8624,720.2748c2.12,6.2331,2.5584,8.82,14.4878,15.0529,11.93,6.2195,13.244,18.587,30.9119,18.1487,5.5265-.1414,9.7386-1.71,11.9435-3.7032,3.6608-3.3357,1.7668-7.8164-8.9328-8.7917-5.88-.5369-10.0637-8.2541-13.1733-15.52s0-23.8585,0-23.8585c-.947-1.7245-4.2827-2.4171-8.5089-2.516-9.7527-.2826-24.17,2.516-24.17,2.516S360.7424,714.0557,362.8624,720.2748Z" style="fill:#222"/><path d="M362.8624,720.2748c2.12,6.2331,2.5584,8.82,14.4878,15.0529,11.93,6.2195,13.244,18.587,30.9119,18.1487,5.5265-.1414,9.7386-1.71,11.9435-3.7032-16.2687-1.06-25.8941-12.3959-29.3995-23.5053-2.3745-7.4632-1.9647-18.9543-1.2155-27.1805-9.7527-.2826-24.17,2.516-24.17,2.516S360.7424,714.0557,362.8624,720.2748Z" style="fill:#546064;mix-blend-mode:multiply"/><path d="M358.5938,717.4621a12.2619,12.2619,0,0,1,2.1486-3.4064c3.6324,3.6324,28.0143,13.484,29.4277,8.2968,1.4135-3.1095,8.7209-4.1555,8.7209-4.1555s1.2862,17.8658,21.64,17.8658c5.894,0,9.7952,3.2652,11.3782,7.2653,2.5583,6.4027-.7915,14.7138-11.3782,14.7138-18.5018,0-28.9754,1.1449-38.5161-11.8165-2.0354-2.7845-5.3569-4.6925-8.9047-6.3887l-1.993,5.3429-13.4276-6.8552V728.3031A17.0809,17.0809,0,0,1,358.5938,717.4621Z" style="fill:#313131"/><path d="M357.6893,728.3031v10.0213l13.4276,6.8552,1.993-5.3429c3.5478,1.6962,6.8693,3.6042,8.9047,6.3887,9.5407,12.9614,20.0143,11.8165,38.5161,11.8165,10.5867,0,13.9365-8.3111,11.3782-14.7138-4.212,6.23-12.1145,7.1208-22.1924,6.23-18.7279-1.6537-20.8891-21.2552-20.8891-21.2552s-18.8835,3.0108-30.2336-10.841A17.0809,17.0809,0,0,0,357.6893,728.3031Z" style="fill:#546064;mix-blend-mode:multiply"/><path d="M304.1907,508.4289c29.06,19.8446,48.3255,26.3747,53.4986,26.6715,0,0,8.4947-1.1732,5.1731,6.841-3.3214,8,0,16.297,0,16.297l-5.1731,147.86s17.06,6.5019,32.7211,4.4382a31.5112,31.5112,0,0,0,13.0178-4.4382c3.8445-40.6363,21.1309-179.7893,12.1413-198.7575-4.2544-8.9753-50.601-37.9507-69.3573-51.52q-1.5051-1.0812-2.7562-2.0353c-16.4241-12.4525-54.53-45.2865-81.1455-18.1486C235.71,462.7748,275.1446,488.5841,304.1907,508.4289Z" style="fill:url(#Áåçûìÿííûé_ãðàäèåíò_360)"/><path d="M304.1907,508.4289c29.06,19.8446,48.3255,26.3747,53.4986,26.6715,0,0,8.4947-1.1732,5.1731,6.841-3.3214,8,0,16.297,0,16.297l-5.1731,147.86s17.06,6.5019,32.7211,4.4382c.8481-44.6363,2.6573-157.2449,3.6749-175.4358,1.1167-20.1273-11.5619-15.7881-36.396-38.6857-16.2546-15.0108-14.5584-31.2088-11.4771-40.594q-1.5051-1.0812-2.7562-2.0353c-16.4241-12.4525-54.53-45.2865-81.1455-18.1486C235.71,462.7748,275.1446,488.5841,304.1907,508.4289Z" style="fill:#546064;mix-blend-mode:multiply"/><path d="M277.2224,768.5577c12.9611,2.05,21.8375,6.1061,37.3571,6.2616,13.2722.1271,11.8022-7.5759,2.3039-10.9541a27.0882,27.0882,0,0,0-5.4276-1.2721c-14.0072-1.8516-14.6857-14.7987-14.0355-19.11.65-4.2967,2.106-12.8339,2.106-12.8339a38.2991,38.2991,0,0,0-7.7031-4.2121c-5.8234-2.3747-13.88-3.887-20.3112,1.6537-.014.0142-1.0317,11.3782-3.8869,17.6115C264.77,751.9215,264.2469,766.5225,277.2224,768.5577Z" style="fill:#222"/><path d="M277.2224,768.5577c12.9611,2.05,21.8375,6.1061,37.3571,6.2616,13.2722.1271,11.8022-7.5759,2.3039-10.9541-12.6785-.5089-26.7422-1.9506-27.7033-5.795-1.7668-7.0532,3.0671-26.8554,3.0671-26.8554l-.424-4.7774c-5.8234-2.3747-13.88-3.887-20.3112,1.6537-.014.0142-1.0317,11.3782-3.8869,17.6115C264.77,751.9215,264.2469,766.5225,277.2224,768.5577Z" style="fill:#546064;mix-blend-mode:multiply"/><path d="M262.3388,745.5893a43.9769,43.9769,0,0,1,3.986-5.64c9.7243,6.7,16.6079,9.8941,25.9224,6.7847,3.6042-4.1414,9.8375-4,9.8375-4a16.41,16.41,0,0,0,2.629,9.7106c9.4417,7.18,23.251-.4949,28.8907,9.8941a15.103,15.103,0,0,1,.7067,1.5122c3.59,8.947.9046,16.6079-14.1485,16.0849-14.4172-.4946-36.8624-4.3252-44.0709-7.8447l-.8481,2.6575c-5.2014.862-17.2158-6.7421-17.2158-6.7421v-5.71C256.8548,756.4163,259.6674,750.0278,262.3388,745.5893Z" style="fill:#313131"/><path d="M258.0278,762.2963v5.71s12.0144,7.6041,17.2158,6.7421l.8481-2.6575c7.2085,3.5195,29.6537,7.35,44.0709,7.8447,15.0531.523,17.7386-7.1379,14.1485-16.0849a15.103,15.103,0,0,0-.7067-1.5122c-.6078,8.8056-10.6746,8.9854-20.0426,7.3921-12.4665-2.12-21.5548-14.841-21.5548-14.841s-7.0672,3.1777-18.3747-1.4021c-7.3171-2.9636-8.7916-4.52-11.2935-7.8985C259.6674,750.0278,256.8548,756.4163,258.0278,762.2963Z" style="fill:#546064;mix-blend-mode:multiply"/><path d="M215.6529,521.5739c19.3641,24.9047,42.3326,31.59,42.3326,31.59s8.8623,7.2368,14.3887,9.2721c-3.8869,9.2722,11.0815,9.2722,11.0815,9.2722s-6.7706,1.2156-5.8093,9.7811-16.3959,81.2019-11.52,151.76a69.935,69.935,0,0,0,19.3642,5.8235c11.0671,1.5266,17.3287-.9894,17.3287-.9894s38.8553-170.1354,37.3429-189.8529c-.82-10.7139-20.7493-28.7352-36.65-46.0214-3.4631-3.76-7.3359-8.3817-11.3641-13.3712-14.53-17.9647-31.0815-40.8625-37.654-46.8131-8.41-7.6042-49.7955-15.83-53.4845,9.244C197.335,476.358,196.289,496.669,215.6529,521.5739Z" style="fill:url(#Áåçûìÿííûé_ãðàäèåíò_360-2)"/><path d="M215.6529,521.5739c19.3641,24.9047,42.3326,31.59,42.3326,31.59s8.8623,7.2368,14.3887,9.2721c-3.8869,9.2722,11.0815,9.2722,11.0815,9.2722s-6.7706,1.2156-5.8093,9.7811-16.3959,81.2019-11.52,151.76a69.935,69.935,0,0,0,19.3642,5.8235c-.8624-20.6079-2.3041-66.5587.48-91.944,3.6608-33.4,8.0424-67.3928,15.1238-75.4211-10.8269-3.3216-4.2545-13.6395-8.8481-18.5443-4.5937-4.9187-33.1027-19.59-23.76-40.6221,5.0177-11.2793,15.251-18.9824,23.661-23.7034-14.53-17.9647-31.0815-40.8625-37.654-46.8131-8.41-7.6042-49.7955-15.83-53.4845,9.244C197.335,476.358,196.289,496.669,215.6529,521.5739Z" style="fill:#546064;mix-blend-mode:multiply"/><path d="M432.7059,348.9713a1.058,1.058,0,0,1-.0143.2121c-.0706,1.0743-1.0883,1.5407-2.106,1.5124-2.4309-.0989-7.8727-.7349-10.0636-1.6819-2.7984-1.1873-4.4665-1.3428-6.7-3.4065a21.4031,21.4031,0,0,1-2.1485-2.2192.0433.0433,0,0,1-.0141-.0281,7.047,7.047,0,0,1-1.3568-2.4877c-1.5266-5.5972,8.6359-10.106,10.6007-4.6644.41,6.7987,3.3781,6.841,8.0848,9.5832C429.7658,346.2434,432.6776,347.9113,432.7059,348.9713Z" style="fill:url(#Áåçûìÿííûé_ãðàäèåíò_93-8)"/><path d="M432.6916,349.1834c-.0706,1.0743-1.0883,1.5407-2.106,1.5124-2.4309-.0989-7.8727-.7349-10.0636-1.6819-2.7984-1.1873-4.4665-1.3428-6.7-3.4065a21.4031,21.4031,0,0,1-2.1485-2.2192.0433.0433,0,0,1-.0141-.0281s4.5229,4.325,13.894,6.1061A17.0562,17.0562,0,0,0,432.6916,349.1834Z" style="fill:#fae2ca;mix-blend-mode:multiply"/><path d="M437.9356,332.4624c-3.4205,4.4665-6.12,7.2934-11.3782,7.887a108.004,108.004,0,0,0-14.8835,3.0107,42.8257,42.8257,0,0,0-5.0459,1.682c-4.9189,2.0636-2.5584-22.1768,5.2155-20.5231a46.5274,46.5274,0,0,0,7.1378,1.0742c4.2828.212,5.9648-.9329,14.5019-1.3C439.25,324.0383,441.37,327.9961,437.9356,332.4624Z" style="fill:url(#Áåçûìÿííûé_ãðàäèåíò_93-9)"/><path d="M456.31,331.0207c.0989,2.0072-2.1485,1.4842-3.265.9046-2.7139-1.3709-6.3182-3.8445-9.4276-3.7739-.9188.0566-1.9365.1413-2.9825.2545h-.0142c-2.2614.2121-4.7065.4806-6.8974.6077-1.1732.0706-2.5018.3253-3.3923-.6643a2.31,2.31,0,0,1,1.7527-3.8163c3.7456.0707,7.4912-.1413,11.2368-.0706,3.1944.0566,6.2051,1.8941,8.9471,3.3641,1.1306.6077,3.8586,1.4841,4.0282,2.9965A.9949.9949,0,0,1,456.31,331.0207Z" style="fill:url(#Áåçûìÿííûé_ãðàäèåíò_93-10)"/><path d="M456.31,331.0207c.0989,2.0072-2.1485,1.4842-3.265.9046-2.7139-1.3709-6.3182-3.8445-9.4276-3.7739-.9188.0566-1.9365.1413-2.9825.2545,1.258-1.8106,5.3844-2.8315,8.8192-.98C451.8855,328.7264,455.1371,330.5826,456.31,331.0207Z" style="fill:#fae2ca;mix-blend-mode:multiply"/><path d="M458.7131,338.4942a2.3735,2.3735,0,0,1-.5512.4666c-1.1026.6926-1.9931-.0708-2.8693-.6785A65.9218,65.9218,0,0,0,449.3,334.48c-1.159-.636-3.5618-1.9928-4.3957-2.0635-2.2191.0141-4.4241.0707-6.6148.1977l-.0142.0142c-1.4982.0707-3.0106.1837-4.5089.3392-1.9222.1838-3.9011-.7773-3.8162-3.01.0706-2.1485,1.894-2.7279,3.6609-3.0248a44.1434,44.1434,0,0,1,6.2614-.311,24.9714,24.9714,0,0,1,6.417.4523c4.311,1.2156,7.3923,5.5266,10.8552,8.1132C458.1761,335.95,459.7166,337.3212,458.7131,338.4942Z" style="fill:url(#Áåçûìÿííûé_ãðàäèåíò_93-11)"/><path d="M458.7131,338.4942a2.3735,2.3735,0,0,1-.5512.4666c-1.1026.6926-1.9931-.0708-2.8693-.6785A65.9218,65.9218,0,0,0,449.3,334.48c-1.159-.636-3.5618-1.9928-4.3957-2.0635-2.2191.0141-4.4241.0707-6.6148.1977-1.8941-2.9433,7.8707-2.4738,9.3462-2.0165C450.3455,331.4377,455.6741,336.6144,458.7131,338.4942Z" style="fill:#fae2ca;mix-blend-mode:multiply"/><path d="M458.2891,342.9078a1.5664,1.5664,0,0,1-.113.2121c-1.0036,1.6253-3.5761-.41-4.622-.9754-2.5584-1.3993-5.0744-2.8268-7.6466-4.1837-1.47-.7915-3.2511-1.993-4.9048-2.205a17.64,17.64,0,0,0-4.6078.3956,30.15,30.15,0,0,1-4.1271.58c-3.2793.1132-4.7916-4.41-1.23-5.3427,3.3358-.82,7.5478-1.5973,10.9683-.947a19.09,19.09,0,0,1,7.0424,3.309c2.3606,1.64,4.8022,3.9418,7.0071,5.8076C456.918,340.293,458.9393,341.4943,458.2891,342.9078Z" style="fill:url(#Áåçûìÿííûé_ãðàäèåíò_93-12)"/><path d="M458.1761,343.12c-1.0036,1.6253-3.5761-.41-4.622-.9754-2.5584-1.3993-5.0744-2.8268-7.6466-4.1837-1.47-.7915-3.2511-1.993-4.9048-2.205a17.64,17.64,0,0,0-4.6078.3956c.41-.226,2.4064-2.8586,8.7307-1.4043C447.26,335.238,453.5258,340.9713,458.1761,343.12Z" style="fill:#fae2ca;mix-blend-mode:multiply"/><path d="M450.3455,347.6285c-.24.2687-.7209.3111-1.5124-.0423a7.1347,7.1347,0,0,1-1.5122-1.3286c-1.2157-1.0883-2.46-2.1343-3.7173-3.152a26.5716,26.5716,0,0,0-3.8588-2.7986,8.251,8.251,0,0,0-4.1414-.5653c-1.6679.0281-3.3216.1413-4.9612.3109-.014,0-.014,0-.0283.0142H430.6c-1.6962.17-3.3923.4239-5.0744.7492-2.1343.41-5.7527,2.2473-7.053-.4666-1.2438-2.5865,1.3569-3.6467,3.251-4.2967a36.1376,36.1376,0,0,1,17.6821-1.4984c4.2686.7916,8.3815,5.5266,10.318,9.1733C450.1478,344.5191,451.0381,346.8936,450.3455,347.6285Z" style="fill:url(#Áåçûìÿííûé_ãðàäèåíò_93-13)"/><path d="M450.3455,347.6285c-.24.2687-.7209.3111-1.5124-.0423a7.1347,7.1347,0,0,1-1.5122-1.3286c-1.2157-1.0883-2.46-2.1343-3.7173-3.152a26.5716,26.5716,0,0,0-3.8588-2.7986,8.251,8.251,0,0,0-4.1414-.5653c-1.6679.0281-3.3216.1413-4.9612.3109.5937-.2262,7.1519-2.5865,10.1909-.6643C443.8579,341.2964,448.48,346.2151,450.3455,347.6285Z" style="fill:#fae2ca;mix-blend-mode:multiply"/><path d="M418.9813,325.5932a14.4257,14.4257,0,0,0-5.5264,8.7209c-1.6821,6.954-1.781,8.7915-1.781,9.046a42.8257,42.8257,0,0,0-5.0459,1.682c-4.9189,2.0636-2.5584-22.1768,5.2155-20.5231A46.5274,46.5274,0,0,0,418.9813,325.5932Z" style="fill:#fae2ca;mix-blend-mode:multiply"/><path d="M319.8265,318.3577c3.0215,24.1586,18.6686,35.4076,33.4032,39.5214,5.52,1.5408,13.6724.9273,21.7054-.4338a202.32,202.32,0,0,0,26.582-6.7016s5.6095-1.9147,10.546-4.0989a29.3764,29.3764,0,0,1-1.451-6.2527A20.4582,20.4582,0,0,1,414.9,325.1058l-10.7947-6.21s-7.9581-5.2057-10.7106-6.0284a4.01,4.01,0,0,0-.8675-2.199,6.91,6.91,0,0,0-4.9665-2.2139,8.5351,8.5351,0,0,0-1.2414.015c-1.0472-3.5752-4.7271-2.7525-4.7271-2.7525s-.9142-21.333-4.7136-36.1572-28.7795-11.8759-41.9582-2.0029C321.7412,277.4451,316.8047,294.1989,319.8265,318.3577Z" style="fill:url(#Áåçûìÿííûé_ãðàäèåíò_280)"/><path d="M319.8265,318.3577c3.0215,24.1586,18.6686,35.4076,33.4032,39.5214,5.52,1.5408,13.6724.9273,21.7054-.4338a202.32,202.32,0,0,0,26.582-6.7016s5.6095-1.9147,10.546-4.0989a29.3764,29.3764,0,0,1-1.451-6.2527c-14.2558,1.4361-24.8018,1.0022-25.7593-3.2161-2.0793-9.14,1.4661-28.7062,2.7075-28.7212.4349-.0053-.8376-.0149-1.2414.015-1.0472-3.5752-4.7271-2.7525-4.7271-2.7525s-.9142-21.333-4.7136-36.1572-28.7795-11.8759-41.9582-2.0029C321.7412,277.4451,316.8047,294.1989,319.8265,318.3577Z" style="fill:#898994;mix-blend-mode:multiply"/><path d="M311.8008,168.2691c-1.4863,7.66-4.0111,22.3678-9.4976,37.26s-14.8922,15.2842-19.203,16.46-4.3109,18.4193,0,36.0546,38.0141,21.1625,52.1224,16.8517S350.9755,260.003,347.41,249.03s-4.309-12.8274-.6445-21.1625,11.1955-20.2062,12.4977-31.788-1.3106-22.5973-15.0268-31.9S314.5814,153.9384,311.8008,168.2691Z" style="fill:url(#Áåçûìÿííûé_ãðàäèåíò_93-14)"/><path d="M311.8008,168.2691c-1.4863,7.66-4.0111,22.3678-9.4976,37.26s-14.8922,15.2842-19.203,16.46-4.3109,18.4193,0,36.0546,38.0141,21.1625,52.1224,16.8517S350.9755,260.003,347.41,249.03s-4.309-12.8274-.6445-21.1625,11.1955-20.2062,12.4977-31.788-1.3106-22.5973-15.0268-31.9S314.5814,153.9384,311.8008,168.2691Z" style="fill:#ffe7d3;mix-blend-mode:multiply"/><path d="M187.2118,490.7488s41.4214,17.7115,68.0631,13.7921a55.0394,55.0394,0,0,0,9.6785-2.2886c12.0419-4.0241,28.4519-9.2,38.7287-16.7092,2.9169-2.124,3.246-29.9178,3.246-29.9178s3.5453,21.3314,8.2274,19.4465c6.0584-2.4383,10.0674-6.7762,14.0166-10.71,3.3807-3.3658,6.7165-6.4473,11.249-7.7637-8.8556-15.6171-1.7353-67.7939,1.825-96.2756,1.4661-11.6831,11.1744-45.46,16.5746-57.2029,5.4-11.7577,18.5489-34.4953,14.8093-39.1924-3.0368-3.8295-9.9328-9.14-20.7781-17.7861q-3.7695-2.9844-8.1975-6.567s2.3188,19.641-4.727,24.3531a14.4974,14.4974,0,0,1-2.6775,1.3913c-8.0929,3.3507-22.7826,2.902-32.5506-7.5693-3.9193-4.2036-7.21-10.0973-9.8281-15.9612a136.0765,136.0765,0,0,1-7.21-20.9276s-11.623-1.1069-28.8706,6.4922c-17.2327,7.5991-23.53,47.18-26.6568,76.1859-3.1414,29.0052-22.6478,84.8468-27.8088,101.4662C186.0151,464.0622,187.2118,490.7488,187.2118,490.7488Z" style="fill:url(#Áåçûìÿííûé_ãðàäèåíò_280-2)"/><path d="M321.9929,296.8433c-.4842,1.8.3062,3.5772,1.7656,3.97s3.0351-.748,3.5195-2.5479-.3061-3.5773-1.7657-3.97S322.4773,295.0435,321.9929,296.8433Z" style="fill:#898994;mix-blend-mode:multiply"/><path d="M316.423,314.0952c-.4843,1.8.3062,3.5773,1.7656,3.97s3.0351-.748,3.5195-2.5479-.3063-3.5772-1.7657-3.97S316.9074,312.2955,316.423,314.0952Z" style="fill:#898994;mix-blend-mode:multiply"/><path d="M312.434,333.4273c-.4844,1.8.3061,3.5772,1.7655,3.97s3.0352-.748,3.5195-2.5478-.3061-3.5772-1.7655-3.97S312.9183,331.6275,312.434,333.4273Z" style="fill:#898994;mix-blend-mode:multiply"/><path d="M308.4108,352.4251c-.4844,1.8.3061,3.5772,1.7655,3.97s3.0352-.748,3.5194-2.5479-.3061-3.5772-1.7654-3.97S308.895,350.6253,308.4108,352.4251Z" style="fill:#898994;mix-blend-mode:multiply"/><path d="M305.6258,371.8451c-.4844,1.8.306,3.5773,1.7654,3.97s3.0352-.7479,3.5195-2.5477-.3061-3.5772-1.7655-3.97S306.11,370.0452,305.6258,371.8451Z" style="fill:#898994;mix-blend-mode:multiply"/><path d="M302.8407,391.3339c-.4842,1.8.3063,3.5772,1.7657,3.97s3.035-.748,3.5194-2.5477-.3062-3.5773-1.7656-3.97S303.3251,389.5339,302.8407,391.3339Z" style="fill:#898994;mix-blend-mode:multiply"/><path d="M300.0558,410.2818c-.4844,1.8.3061,3.5773,1.7655,3.97s3.0352-.7479,3.5195-2.5477-.3061-3.5772-1.7655-3.97S300.54,408.4821,300.0558,410.2818Z" style="fill:#898994;mix-blend-mode:multiply"/><path d="M298.5712,429.9527c-.4842,1.8.3063,3.5772,1.7657,3.97s3.035-.7479,3.5195-2.5477-.3063-3.5772-1.7657-3.97S299.0557,428.1528,298.5712,429.9527Z" style="fill:#898994;mix-blend-mode:multiply"/><path d="M306.9281,455.6253s3.5453,21.3314,8.2274,19.4465c6.0584-2.4383,10.0674-6.7762,14.0166-10.71-5.1459-10.0225-7.3987-33.6726-3.8983-65.0863,5.056-45.3855,18.7974-115.1836,23.285-143.1121.7778-4.8166,2.3037-8.018,4.2931-10.0223q-3.7695-2.9844-8.1975-6.567s2.3188,19.641-4.727,24.3531a14.4974,14.4974,0,0,1-2.6775,1.3913,515.721,515.721,0,0,1-11.13,52.4907C309.6656,381.459,306.9281,455.6253,306.9281,455.6253Z" style="fill:#898994;mix-blend-mode:multiply"/><path d="M187.2118,490.7488s41.4214,17.7115,68.0631,13.7921a55.0394,55.0394,0,0,0,9.6785-2.2886c-3.4555-30.232-7.5991-88.7662,2.8721-144.7276,10.6208-56.829,21.5857-97.1133,27.0457-115.7371a136.0765,136.0765,0,0,1-7.21-20.9276s-11.623-1.1069-28.8706,6.4922c-17.2327,7.5991-23.53,47.18-26.6568,76.1859-3.1414,29.0052-22.6478,84.8468-27.8088,101.4662C186.0151,464.0622,187.2118,490.7488,187.2118,490.7488Z" style="fill:#898994;mix-blend-mode:multiply"/><path d="M294.9863,216.9412s2.6569,20.7775,13.9062,33.2433S337.25,265.3181,337.25,265.3181l-9.8294,11.2425s-21.6759-7.9268-35.9183-26.3761-10.76-29.3808-10.76-29.3808C284.0493,218.4655,289.1024,217.4007,294.9863,216.9412Z" style="fill:url(#Áåçûìÿííûé_ãðàäèåíò_348)"/><path d="M337.25,265.3181l7.3254,11.2425s8.8142-14.4214,12.8391-26.789a23.8355,23.8355,0,0,0-12.9171-11.1192S344.1321,253.0217,337.25,265.3181Z" style="fill:url(#Áåçûìÿííûé_ãðàäèåíò_348-2)"/><path d="M306.5,155.3134c-3.8691-3.094-6.7195,2.046-7.7795,5.2263s1.4417,10.2225,5.6678,8.6448S309.6862,157.8612,306.5,155.3134Z" style="fill:#ffe7d3;mix-blend-mode:multiply"/><path d="M296.0635,188.2007c9.0319,12.3109,16.0142,13.95,19.0956,21.5971,6.77,15.6328,23.8446,14.87,30.7987,20.58a8.2461,8.2461,0,0,0,2.9683,1.4841c9.0883,2.7281,27.788-3.1661,27.6043-10.5441-.2119-8.3252,6.6715-13.5267,8.6786-26.4313,1.9928-12.9048-1.0884-20.5514-5.1308-23.6468a5.0878,5.0878,0,0,1-1.1166-1.159c-2.2475-3.2086,1.5082-8.6633,1.48-13.5255,0-.3675-.014-.7492-.0423-1.1168a25.9678,25.9678,0,0,0-.5371-3.7314c-.1838-.9187-.4382-1.9081-.7351-2.9541-1.8092-6.304-7.9252-14.4888-14.4271-20.7926-.2119-.1979-.4381-.41-.6643-.6079-10.0495-8.4241-41.3429-9.456-50.29-4.5229C292.6572,134.4476,287.0458,175.89,296.0635,188.2007Z" style="fill:#ffad89"/><path d="M354.1982,149.8387s-.5307,23.3244-5.2721,23.4131c-7.18.1342-13.9844.7642-17.6072-.6736s-10.3365-12.2434-3.9761-17.2648S346.7776,146.9118,354.1982,149.8387Z" style="fill:#ffd8b8;mix-blend-mode:multiply"/><path d="M348.9261,231.8616c9.0883,2.7281,27.788-3.1661,27.6043-10.5441-.2119-8.3252,6.6715-13.5267,8.6786-26.4313,1.9928-12.9048-1.0884-20.5514-5.1308-23.6468-3.7739-2.8977.3916-9.1722.3633-14.6845,0-.3675-.014-.7492-.0423-1.1168a32.1186,32.1186,0,0,0-1.2722-6.6855c-1.8092-6.304-7.9252-14.4888-14.4271-20.7926-.2119-.1979-.4381-.41-.6643-.6079,4,6.8127,8.65,17.7811,5.4983,28.396-5.0884,17.1592-4.2827,19.2793-2.742,25.2864s-2.3464,19.59-5.5265,25.8941-.622,16.5089-9.3288,22.87C350.9332,230.533,349.93,231.2256,348.9261,231.8616Z" style="fill:#ffd8b8;mix-blend-mode:multiply"/><path d="M366.8485,171.07c.8621,2.8126,6.4027,2.9116,12.1131-.9894-2.2475-3.2086,1.5082-8.6633,1.48-13.5255,0-.3675-.014-.7492-.0423-1.1168a25.9678,25.9678,0,0,0-.5371-3.7314c-1.993-.9328-6.6109-1.2449-7.996,1.0307C369.0534,157.4159,365.958,168.1157,366.8485,171.07Z" style="fill:#ffe7d3;mix-blend-mode:multiply"/><path d="M366.9915,171.3371c.8783,3.6875,3.9587,3.28,8.4024,2.8289,3.5226-.3575,4.9492-2.1121,4.0709-5.8a6.426,6.426,0,1,0-12.4733,2.9707Z" style="fill:#fff"/><path d="M373.0941,169.0816c-.0745,2.1883,1.2146,4.0085,2.88,4.0654s3.0756-1.6712,3.15-3.86-1.2145-4.0084-2.88-4.0652S373.1689,166.8931,373.0941,169.0816Z" style="fill:url(#Áåçûìÿííûé_ãðàäèåíò_88)"/><path d="M334.724,169.7316c1.12,4.7009,5.06,3.1313,9.565,3.4223,6.0481.3907,7.4559-2.5087,6.3362-7.2094s-5.5867-7.6639-9.9778-6.6181S333.6044,165.0309,334.724,169.7316Z" style="fill:#fff"/><path d="M342.0839,167.8166c.2025,2.7842,2.138,4.9122,4.3231,4.7532s3.7923-2.5448,3.59-5.3288-2.1381-4.9121-4.3232-4.7532S341.8814,165.0326,342.0839,167.8166Z" style="fill:url(#Áåçûìÿííûé_ãðàäèåíò_88-2)"/><path d="M371.8378,155.7622c2.7421-.1837,7.0914.1708,8.6037.7927,0-.3675,1.9989-2.8152-1.3145-7.8023-2.1907-1.3145-6.71-1.9658-7.8969-1.9234C368.7707,146.9283,369.0958,155.946,371.8378,155.7622Z" style="fill:url(#Áåçûìÿííûé_ãðàäèåíò_88-3)"/><path d="M355.746,146.0559c2.5551.5986,1.0925,7.49-1.7762,9.0859-1.7393.9676-14.054-4.9355-19.6807-2.0261s-7.2328,5.9394-8.7227,5.4109-1.9306-1.7073.0661-4.1081,9.2406-8.0562,12.9065-9.1684S351.6671,145.1,355.746,146.0559Z" style="fill:url(#Áåçûìÿííûé_ãðàäèåíò_88-4)"/><path d="M366.8543,171.0736c.9623,3.3486,4.3417,13.967,6.6977,17.4662s2.1849,8.1079-6.8723,9.5037-17.0507-1.2682-14.2837-7.7639,3.6506-13.2524,4.6124-16.861C358.8845,166.379,365.826,167.4951,366.8543,171.0736Z" style="fill:url(#Áåçûìÿííûé_ãðàäèåíò_2)"/><path d="M341.1238,201.7272a11.4959,11.4959,0,0,0,.5089,2.3886,10.4572,10.4572,0,0,0,5.357,6.29c7.2791,3.6184,11.6607,2.7845,13.908,2.6573a16.6518,16.6518,0,0,0,5.4278-1.4134,12.1339,12.1339,0,0,0,4.1837-2.728.712.712,0,0,0-.5936-1.1449c-3.4771.0564-12.8623-.0566-19.5337-2.7a33.48,33.48,0,0,1-8.0283-4.2687C341.7174,200.3137,341.0391,200.9216,341.1238,201.7272Z" style="fill:#fff"/><path d="M341.6327,204.1158a10.4572,10.4572,0,0,0,5.357,6.29c7.2791,3.6184,11.6607,2.7845,13.908,2.6573a16.6518,16.6518,0,0,0,5.4278-1.4134,41.92,41.92,0,0,1-12.1273-.7562C346.6892,209.0382,344.1275,206.9325,341.6327,204.1158Z" style="fill:url(#Áåçûìÿííûé_ãðàäèåíò_88-5)"/><path d="M288.0635,175.9037l1.4415-.3534c.7915,8.17,5.258,17.2722,14.0638,21.767,2.106-11.42-4.8906-27.8307-3.3922-34.46,3.152-13.9508,10.4453-9.4841,12.0707-21.2723a19.2047,19.2047,0,0,1,6.3323-12.41,16.1493,16.1493,0,0,1,9.6254-3.9437c5.7244-.226,24.8483,2.3324,31.1522,3.2369a14.4279,14.4279,0,0,1,7.0106,3.2792c5.1874,4.1978,10.29,11.3446,10.29,11.3446.1273-4.6361-3.2929-11.5-7.7311-17.479a32.792,32.792,0,0,0-4.4382-4.8763c-8.0285-7.2367-22.2193-6.7844-37.4844-7.0248-16.9753-.2685-17.1166,5.2156-24.7917,11.3217-7.0531,5.6255-11.76,19.3076-12.4807,21.4983-.0706.1979-.0989.2968-.0989.2968Z" style="fill:url(#Áåçûìÿííûé_ãðàäèåíò_88-6)"/><g style="mix-blend-mode:multiply"><path d="M366.3678,131.7479c5.1874,4.1978,10.29,11.3446,10.29,11.3446.1273-4.6361-3.2929-11.5-7.7311-17.479C369.2088,128.0587,368.6294,130.32,366.3678,131.7479Z" style="fill:#c5abb9"/><path d="M288.0635,175.9037l1.4415-.3534c.7915,8.17,5.258,17.2722,14.0638,21.767,2.106-11.42-4.8906-27.8307-3.3922-34.46,3.152-13.9508,10.4453-9.4841,12.0707-21.2723a19.2047,19.2047,0,0,1,6.3323-12.41c-8.5513-1.7385-12.7776,2.9823-16.0851,4.3957-2.855,1.2156-2.5441,10.9966-12.7633,12.9612-.0706.1979-.0989.2968-.0989.2968Z" style="fill:#c5abb9"/></g><path d="M313.8235,158.342s-6.0163-13.54-14.4782-6.4487S294.4064,170.58,301.6,175.2107s10.9555.1821,10.9555.1821A33.7805,33.7805,0,0,0,313.8235,158.342Z" style="fill:url(#Áåçûìÿííûé_ãðàäèåíò_2-2)"/><path d="M303.6537,202.6317c4.848,15.3925,7.7032,25.244,10.4594,27.2511s15.6185,10.1626,19.6186,12.0284,28.2969.947,31.8163-.2828c2.2473-.7772,4.9472-3.0954,7.2792-7.0529a35.656,35.656,0,0,0,3.463-8.3251c1.0175-3.59,10.5724-21.2159,8.4806-28.9614a50.9776,50.9776,0,0,1-6.6573,9.64c-3.364,3.5054-5.2157,12.1414-10.0071,15.18-7.1662,4.5654-20.3677,6.1908-27.7458-.8058s-17.7811-7.5617-22.8412-20.82c-5.06-13.272-4.4523-20.5371-6.94-20.5371a9.0267,9.0267,0,0,1-1.7667-.1838c-3.986-.7492-7.0531-3.6327-6.7986-1.8658C302.0141,177.8966,299.0882,188.1158,303.6537,202.6317Z" style="fill:url(#Áåçûìÿííûé_ãðàäèåíò_88-7)"/><path d="M303.6537,202.6317c4.848,15.3925,7.7032,25.244,10.4594,27.2511s15.6185,10.1626,19.6186,12.0284,28.2969.947,31.8163-.2828c2.2473-.7772,4.9472-3.0954,7.2792-7.0529a53.5648,53.5648,0,0,1-22.0214,4.0565c-22.3464-.4664-20.0425-7.5336-28.5231-11.7457-8.4807-4.1979-8.0141-12.2826-10.1626-24.7351-1.47-8.5372-2.7-17.5549-3.3074-22.3888-3.986-.7492-7.0531-3.6327-6.7986-1.8658C302.0141,177.8966,299.0882,188.1158,303.6537,202.6317Z" style="fill:#c5abb9;mix-blend-mode:multiply"/><path d="M593.0366,669.6653s-2.4656,27.7391-7.8593,37.9922c-6.1023,11.6-5.9271,16.2036-14.5418,20.6222s-9.6691,7.0789-8.5043,10.5793,14.7538,1.206,25.5957-4.68,11.5509-12.7161,20.743-15,19.75-2.306,20.3521-9.1005-9.0014-13.5048-10.4805-19.1146,2.1717-21.299,2.1717-21.299S608.5218,657.9174,593.0366,669.6653Z" style="fill:#1d1d27"/><path d="M593.0366,669.6653s4.4932,25.6989-.9,35.9522c-6.1024,11.6-12.886,18.2436-21.5007,22.6622s-9.6691,7.0789-8.5043,10.5793,14.7538,1.206,25.5957-4.68,11.5509-12.7161,20.743-15,19.75-2.306,20.3521-9.1005-9.0014-13.5048-10.4805-19.1146,2.1717-21.299,2.1717-21.299S608.5218,657.9174,593.0366,669.6653Z" style="fill:#546064;mix-blend-mode:multiply"/><path d="M553.2948,742.5223c.7208,6.0355,16.7068.4241,29.555-3.18,10.8269-3.0388,8.2687-1.9083,17.9647-10.0636a39.7831,39.7831,0,0,1,9.2015-5.4559l3.9152,4.65,15.5621-4.3535,1.7526-6.77s1.7809-2.0777,1.7243-8.65c-.0281-4.5937-3.0529-8.5655-6.12-11.4066a35.6061,35.6061,0,0,0-6.417-4.6927c-10.516,12.8058-28.2969,13.0179-28.2969,13.0179-1.4135-3.4064-7.4772-3.4489-7.4772-3.4489-.9188,3.576-12.1131,20.1132-21.5972,24.5233-6.4172,2.968-8.9613,6.4028-9.71,10.1767A18.0153,18.0153,0,0,0,553.2948,742.5223Z" style="fill:url(#Áåçûìÿííûé_ãðàäèåíò_263)"/><path d="M553.2948,742.5223c.7208,6.0355,16.7068.4241,29.555-3.18,10.8269-3.0388,8.2687-1.9083,17.9647-10.0636a39.7831,39.7831,0,0,1,9.2015-5.4559l3.9152,4.65,15.5621-4.3535,1.7526-6.77s1.7809-2.0777,1.7243-8.65c-.0281-4.5937-3.0529-8.5655-6.12-11.4066-5.6536,6.53-15.9577,13.7809-33.8094,13.6537-6.9541,12.3112-26.2192,26.12-39.6893,25.9226A18.0153,18.0153,0,0,0,553.2948,742.5223Z" style="fill:#546064;mix-blend-mode:multiply"/><path d="M691.9316,650.5635s6.4816-14.3911.5927-25.0647c0,0,13.25-15.8263,20.9791-11.7777s14.7222,11.8511,15.09,18.4394-1.4515,11.0049-11.2152,14.6853-14.6221,17.2986-16.7936,22.4513-17.2617,12.8638-20.9423,13.2411-4.4166-8.8243,2.9445-14.7132S687.1238,659.03,691.9316,650.5635Z" style="fill:#1d1d27"/><path d="M691.9316,650.5635s6.4816-14.3911.5927-25.0647c0,0,13.25-15.8263,20.9791-11.7777s14.7222,11.8511,15.09,18.4394-1.4515,11.0049-11.2152,14.6853-14.6221,17.2986-16.7936,22.4513-17.2617,12.8638-20.9423,13.2411-4.4166-8.8243,2.9445-14.7132S687.1238,659.03,691.9316,650.5635Z" style="fill:#546064;mix-blend-mode:multiply"/><path d="M666.3981,687.8365c2.2049,5.6679,18.403.9611,30.1767-5.3s5.88-7.7174,13.244-18.0213a39.5617,39.5617,0,0,1,7.5619-7.59l4.9612,3.5335,13.9788-8.0849v-6.9965l-.7349-9.3286c-.7349-9.3287-12.099-15.9436-12.099-15.9436-8.099,16.1838-26.912,25.2722-26.912,25.2722a3.61,3.61,0,0,0-1.1024-.9752c-2.6149-1.5972-6.9965-.4947-6.9965-.4947,0,3.6748-8.0989,19.8729-16.1979,26.4877-4.735,3.8729-6.7,7.2511-7.0672,10.5018A14.3589,14.3589,0,0,0,666.3981,687.8365Z" style="fill:url(#Áåçûìÿííûé_ãðàäèåíò_263-2)"/><path d="M666.3981,687.8365c2.2049,5.6679,18.403.9611,30.1767-5.3s5.88-7.7174,13.244-18.0213a39.5617,39.5617,0,0,1,7.5619-7.59l4.9612,3.5335,13.9788-8.0849v-6.9965l-.7349-9.3286c-.7349-9.3287-12.099-15.9436-12.099-15.9436-8.099,16.1838-26.912,25.2722-26.912,25.2722a3.61,3.61,0,0,0-1.1024-.9752,32.6222,32.6222,0,0,1-12.89,23.4206c-6.5442,5.0742-12.4948,9.5124-17.3711,13.0742A14.3589,14.3589,0,0,0,666.3981,687.8365Z" style="fill:#546064;mix-blend-mode:multiply"/><path d="M534.1851,310.1282a160.9131,160.9131,0,0,0,19.6467.7209s70.0924-.1459,75.9866,1.48,98.573-6.05,105.3574-20.7775.7775-65.3715-30.0778-42.9969c-2.7137,1.9648-12.9188,5.357-25.244,9.1592-22.2334,6.8834-51.336,15.11-55.3785,18.6714-6.29,5.5407-57.6965,4.57-69.4845,9.814a90.908,90.908,0,0,0-18.6433,0s-1.0459,5.4274-1.7385,11.4488C534.1,302.1282,533.7611,306.9479,534.1851,310.1282Z" style="fill:url(#Áåçûìÿííûé_ãðàäèåíò_262)"/><path d="M534.1851,310.1282a160.9131,160.9131,0,0,0,19.6467.7209s70.0924-.1459,75.9866,1.48,98.573-6.05,105.3574-20.7775.7775-65.3715-30.0778-42.9969c-2.7137,1.9648-12.9188,5.357-25.244,9.1592-.5654,9.88-5.0459,38.5585-37.9508,39.3357-39.76.9472-79.0112-.9847-87.4918,1.8422-4.7067,1.5689-13.1874.2544-19.8022-1.2437C534.1,302.1282,533.7611,306.9479,534.1851,310.1282Z" style="fill:#898994;mix-blend-mode:multiply"/><path d="M700.4413,267.3521s-8.1622-9.86-13.0083-11.9694c2.515-7.9978,9.7132-17.3718,9.7132-17.3718s15.3252-23.1958,22.3726-29.061c2.0472-1.7037,9.4813-4.858,9.4813-4.858l3.2358,18.9053-22.9168,29.6843Z" style="fill:url(#Áåçûìÿííûé_ãðàäèåíò_208)"/><path d="M649.6206,234.3917a107.9111,107.9111,0,0,0,29.3853,3.2792c.3251,0,.6644,0,1.0036-.0141a25.0894,25.0894,0,0,1,16.5936,5.9929,45.1068,45.1068,0,0,1,12.8482,17.8375c1.8375,5.1591,46.7423-12.8763,32.396-29.4418-14.3606-16.5655-25.032-13.6114-26.5018-28.3394-1.47-14.7138-26.1345-31.7034-40.8625-10.1486A467.5562,467.5562,0,0,0,649.6206,234.3917Z" style="fill:url(#Áåçûìÿííûé_ãðàäèåíò_93-15)"/><path d="M649.6206,234.3917a107.9111,107.9111,0,0,0,29.3853,3.2792c3.1237-2.5443,9.7245-6.9966,16.0142-5.1308,4.8905,1.4417,3.6184,6.7562,1.583,11.11a45.1068,45.1068,0,0,1,12.8482,17.8375c1.8375,5.1591,46.7423-12.8763,32.396-29.4418-14.3606-16.5655-25.032-13.6114-26.5018-28.3394-1.47-14.7138-26.1345-31.7034-40.8625-10.1486A467.5562,467.5562,0,0,0,649.6206,234.3917Z" style="fill:#fae2ca;mix-blend-mode:multiply"/><path d="M583.0336,471.199c1.569,6.8551,5.1591,15.5476,11.2226,26.9541,18.403,34.6009,85.3433,135.45,91.9864,137.6548s28.9755-11.039,33.64-23.5621c0,0-50.5443-95.69-55.7035-109.6828-5.1448-13.9789,11.3924-12.5088,28.8907-15.4487,17.4843-2.9541,102.135-6.6291,117.5979-16.1981s14.7281-53.4843-2.94-56.9191c-17.668-3.4488-55.2089-3.901-87.8453,2.205,0,0-28.4524,4.7492-58.4172,10.6856-29.3995,5.8375-60.2831,12.7775-67.209,17.5266C584.8711,450.8312,579.811,457.2342,583.0336,471.199Z" style="fill:url(#Áåçûìÿííûé_ãðàäèåíò_264)"/><path d="M583.0336,471.199c1.569,6.8551,5.1591,15.5476,11.2226,26.9541,18.403,34.6009,85.3433,135.45,91.9864,137.6548s28.9755-11.039,33.64-23.5621c0,0-50.5443-95.69-55.7035-109.6828-5.1448-13.9789,11.3924-12.5088,28.8907-15.4487,17.4843-2.9541,102.135-6.6291,117.5979-16.1981s14.7281-53.4843-2.94-56.9191c-17.668-3.4488-55.2089-3.901-87.8453,2.205,0,0-28.4524,4.7492-58.4172,10.6856,1.9647,9.23-.3251,22.2192-23.8166,29.8518A553.08,553.08,0,0,1,583.0336,471.199Z" style="fill:#546064;mix-blend-mode:multiply"/><path d="M813.6076,481.9552l13.9929,23.76s78.7567-185.6973,85.0748-201.7539c-.113-.17-.24-.3251-.3675-.4807-12.311-16.2685-42.1062-14.12-52.3254,13.7387-.5513,1.4983-1.1732,3.2933-1.8515,5.371C845.9469,359.4951,813.6076,481.9552,813.6076,481.9552Z" style="fill:url(#Áåçûìÿííûé_ãðàäèåíò_241-4)"/><path d="M813.6076,481.9552l13.9929,23.76s78.7567-185.6973,85.0748-201.7539c-.113-.17-.24-.3251-.3675-.4807-16.9047,29.4138-40.7211,64.9475-49.1593,48.9332-4.24-8.0423-5.4134-18.8128-5.0176-29.8235C845.9469,359.4951,813.6076,481.9552,813.6076,481.9552Z" style="fill:#748db9;mix-blend-mode:multiply"/><path d="M808.06,742.54a14.2314,14.2314,0,1,0,14.2313-14.2313A14.2313,14.2313,0,0,0,808.06,742.54Z" style="fill:url(#Áåçûìÿííûé_ãðàäèåíò_3-9)"/><path d="M813.9185,742.54a8.3732,8.3732,0,1,0,8.3731-8.3731A8.3733,8.3733,0,0,0,813.9185,742.54Z" style="fill:#546064;mix-blend-mode:multiply"/><path d="M725.119,742.54a14.2315,14.2315,0,1,0,14.2315-14.2313A14.2314,14.2314,0,0,0,725.119,742.54Z" style="fill:url(#Áåçûìÿííûé_ãðàäèåíò_3-10)"/><path d="M730.7023,742.54a8.6481,8.6481,0,1,0,8.6482-8.648A8.6482,8.6482,0,0,0,730.7023,742.54Z" style="fill:#546064;mix-blend-mode:multiply"/><path d="M642.675,742.54a14.2314,14.2314,0,1,0,14.2314-14.2313A14.2313,14.2313,0,0,0,642.675,742.54Z" style="fill:url(#Áåçûìÿííûé_ãðàäèåíò_3-11)"/><path d="M648.2583,742.54a8.6481,8.6481,0,1,0,8.6481-8.648A8.648,8.648,0,0,0,648.2583,742.54Z" style="fill:#546064;mix-blend-mode:multiply"/><rect x="731.8753" y="542.3187" width="14.0014" height="131.7632" style="fill:url(#Áåçûìÿííûé_ãðàäèåíò_3-12)"/><path d="M745.8767,542.3187s-12.9177,70.744,0,127.3466c-6.5262,0-13.25.1951-13.25.1951l-.7514-127.5417Z" style="fill:#546064;mix-blend-mode:multiply"/><path d="M651.9952,738.1265a4.4271,4.4271,0,0,0,4.6784,4.41,4.627,4.627,0,0,0,4.1556-4.721c.0847-19.7456,8.9894-35.18,26.4737-45.8518a93.3077,93.3077,0,0,1,30.7563-11.4207,14.1317,14.1317,0,0,1,16.8764,13.8235v43.76a4.42,4.42,0,0,0,4.65,4.41,4.5962,4.5962,0,0,0,4.1839-4.6644V694.0556a14.0566,14.0566,0,0,1,16.17-13.9366c24.622,3.9012,57.9366,16.82,57.9366,58.0075a4.4163,4.4163,0,0,0,4.6363,4.41,4.5651,4.5651,0,0,0,4.1978-4.6078c0-.8481-.0143-1.682-.0424-2.516-.7491-21.9506-10.5018-39.5338-28.3111-50.94-14.77-9.4558-32.17-13.1449-46.8695-14.3321-4.3252-.3535-8.4243-.4807-12.1416-.4807a122.6218,122.6218,0,0,0-25.8517,2.7422c-32.17,6.9682-60.2831,27.4347-61.4563,63.3642C652.0092,736.5435,651.9952,737.335,651.9952,738.1265Z" style="fill:url(#Áåçûìÿííûé_ãðàäèåíò_3-13)"/><path d="M651.9952,738.1265a4.4271,4.4271,0,0,0,4.6784,4.41,4.627,4.627,0,0,0,4.1556-4.721c.0847-19.7456,8.9894-35.18,26.4737-45.8518a93.3077,93.3077,0,0,1,30.7563-11.4207,14.1317,14.1317,0,0,1,16.8764,13.8235v43.76a4.42,4.42,0,0,0,4.65,4.41,4.5962,4.5962,0,0,0,4.1839-4.6644V694.0556a14.0566,14.0566,0,0,1,16.17-13.9366c24.622,3.9012,57.9366,16.82,57.9366,58.0075a4.4163,4.4163,0,0,0,4.6363,4.41,4.5651,4.5651,0,0,0,4.1978-4.6078c0-.8481-.0143-1.682-.0424-2.516-2.4735-.6077-4.2261-2.6431-4.3818-7.11-.5228-16.41-16.6219-41.5407-46.5161-50.0922-12.509-3.576-19.9154-6.2191-24.2827-8.0706-4.3252-.3535-8.4243-.4807-12.1416-.4807a122.6218,122.6218,0,0,0-25.8517,2.7422C701.932,677.3062,686.37,684.7411,676.9281,692.6c-12.9752,10.8128-15.83,34.4174-24.8906,43.1664C652.0092,736.5435,651.9952,737.335,651.9952,738.1265Z" style="fill:#546064;mix-blend-mode:multiply"/><polygon points="827.6 498.888 813.614 481.958 650.121 481.958 637.653 498.888 827.6 498.888" style="fill:url(#Áåçûìÿííûé_ãðàäèåíò_368-2)"/><polygon points="827.6 498.888 637.653 498.888 637.653 512.546 822.292 512.546 827.6 498.888" style="fill:url(#Áåçûìÿííûé_ãðàäèåíò_241-5)"/><path d="M822.2916,512.5461,827.6,498.8882s60.0545-147.6956,65.1456-159.1832c14.3541-32.3887,19.9309-35.7472,19.9309-35.7472,5.8329,34.091-79.9236,208.5883-79.9236,208.5883Z" style="fill:url(#Áåçûìÿííûé_ãðàäèåíò_241-6)"/><polygon points="806.989 512.546 795.211 523.768 682.152 523.768 671.712 512.546 806.989 512.546" style="fill:url(#Áåçûìÿííûé_ãðàäèåíò_3-14)"/><polygon points="750.114 512.546 745.877 523.768 686.709 523.768 681.762 512.546 750.114 512.546" style="fill:#546064;mix-blend-mode:multiply"/><polygon points="708.123 523.768 716.908 542.319 758.406 542.319 767.975 523.768 708.123 523.768" style="fill:url(#Áåçûìÿííûé_ãðàäèåíò_3-15)"/><polygon points="753.582 523.768 745.877 542.319 725.119 541.935 716.459 523.768 753.582 523.768" style="fill:#546064;mix-blend-mode:multiply"/><path d="M583.9523,674.8187c1.0318,4.5231,8.8339,6.9117,16.9188,7.5476,9.0036.7067,18.3747-.7633,19.1522-3.8728,0,0,31.6467-132.4956,34.0213-139.803s3.5194-14.0354,7.1944-16.99c3.675-2.94,0-7.35,0-7.35l9.569-1.8092c9.569-1.7952,98.6438-14.3889,125.1457-15.8587,26.4879-1.47,27.6044-33.06,25.7528-44.905-3.675-23.5619-33.1168-22.827-45.9367-19.8729-7.3074,1.682-48.5516,12.6927-85.2443,22.53-27.6609,7.4206-52.7212,14.1627-58.7283,15.7457-13.9931,3.6748-22.0778,8.834-31.661,58.4315C590.5672,578.1962,581.7332,665.25,583.9523,674.8187Z" style="fill:url(#Áåçûìÿííûé_ãðàäèåíò_264-2)"/><path d="M600.8711,682.3663c9.0036.7067,18.3747-.7633,19.1522-3.8728,0,0,31.6467-132.4956,34.0213-139.803s3.5194-14.0354,7.1944-16.99c3.675-2.94,0-7.35,0-7.35l9.569-1.8092c9.569-1.7952,98.6438-14.3889,125.1457-15.8587,26.4879-1.47,27.6044-33.06,25.7528-44.905-3.675-23.5619-33.1168-22.827-45.9367-19.8729-7.3074,1.682-48.5516,12.6927-85.2443,22.53-4.5937,13.7527-16.6079,41.5268-38.53,41.0887-29.131-.5938-9.9224,11.0812-14.3466,17.0177-4.41,5.95-13.8374,12.1837-15.7172,42.05C620.3482,579.4682,605.705,657.1223,600.8711,682.3663Z" style="fill:#546064;mix-blend-mode:multiply"/><path d="M710.1862,289.8267a28.963,28.963,0,0,0,2.4878,3.8445c9.0742,12.1274,29.555,25.3571,32,48.1841,2.6856,25.2723,7.9153,36.0709,8.7351,38.0356-3.59,6.3746-6.0354,21.0884-8.7351,24.0425-2.7137,2.94-13.0177,4.9046-24.7917,12.2687,12.2688,5.88,11.774,11.7739,11.774,11.7739A31.5532,31.5532,0,0,0,748.83,415.2127c-1.9507,10.7987-8.82,20.7352-11.774,21.6539.4946,7.3074,11.2933-.0566,19.6327,21.5408,8.3391,21.5831,37.3005,36.3111,65.7531,34.8411,26.0213-53.9791,32.89-81.004,26.0213-137.174a103.022,103.022,0,0,0-4.7209-20.17c-17.3428-51.8592-73.315-108.637-107.0538-117.1034,0,0-5.4133,7.1661-12.0423,15.5054-5.8235,7.3358-12.6079,15.59-17.47,20.6644-.7208.7775-1.4276,1.4841-2.0777,2.106C695.4724,266.2788,703.2039,276.5827,710.1862,289.8267Z" style="fill:url(#Áåçûìÿííûé_ãðàäèåíò_262-2)"/><path d="M710.1862,289.8267a28.963,28.963,0,0,0,2.4878,3.8445c9.0742,12.1274,29.555,25.3571,32,48.1841,2.6856,25.2723,7.9153,36.0709,8.7351,38.0356-3.59,6.3746-6.0354,21.0884-8.7351,24.0425-2.7137,2.94-13.0177,4.9046-24.7917,12.2687,12.2688,5.88,11.774,11.7739,11.774,11.7739A31.5532,31.5532,0,0,0,748.83,415.2127c-1.9507,10.7987-8.82,20.7352-11.774,21.6539.4946,7.3074,11.2933-.0566,19.6327,21.5408,8.3391,21.5831,37.3005,36.3111,65.7531,34.8411,26.0213-53.9791,32.89-81.004,26.0213-137.174a103.022,103.022,0,0,0-4.7209-20.17c-14.1344,9.64-45.6257,24.2968-63.5057-20.1982-17.1451-42.6292-42.8413-69.7673-55.59-81.4-5.8235,7.3358-12.6079,15.59-17.47,20.6644-.7208.7775-1.4276,1.4841-2.0777,2.106C695.4724,266.2788,703.2039,276.5827,710.1862,289.8267Z" style="fill:#898994;mix-blend-mode:multiply"/><path d="M710.1862,289.8267a28.963,28.963,0,0,0,2.4878,3.8445c-5.1591-17.64-5.8234-30.8269-5.4983-38.7-.7208.7775-1.4276,1.4841-2.0777,2.106C695.4724,266.2788,703.2039,276.5827,710.1862,289.8267Z" style="fill:url(#Áåçûìÿííûé_ãðàäèåíò_208-2)"/><path d="M699.3453,271.0562c2.4028.3534,4.721.2687,5.9789-.8621,1.0177-.9188,1.3426-2.5159.4664-5.1025-1.9647-5.7951-1.2862-9.5266-7.18-6.6291a5.0574,5.0574,0,0,0-2.2049,3.3639C695.4584,265.4448,696.3063,270.59,699.3453,271.0562Z" style="fill:url(#Áåçûìÿííûé_ãðàäèåíò_7)"/><path d="M712.674,356.0745a11.0634,11.0634,0,0,0,4.2545.9611c6.5725.5371,17.2015-.9611,19.11-.9611,2.4311,0-4.9755-11.9011-10.5584-14.5867-10.8552-10.0354-9.0179-10.3463-12.8058-31.5761-3.7314-20.8908-7.2368-39.124-7.35-39.7176V270.18s-3.675-1.8658-5.9789.8762C698.2993,276.71,702.582,350.3642,712.674,356.0745Z" style="fill:url(#Áåçûìÿííûé_ãðàäèåíò_7-2)"/><path d="M696.4053,261.8264c1.5549,3.2792,3.0106,6.9825,2.94,9.23,0,0,6.304,20.4384,6.3746,39.5763.0424,11.8446,6.3887,32.4383,11.2086,46.4031,6.5725.5371,17.2015-.9611,19.11-.9611,2.4311,0-4.9755-11.9011-10.5584-14.5867-10.8552-10.0354-9.0179-10.3463-12.8058-31.5761-3.7314-20.8908-7.2368-39.124-7.35-39.7176,1.0177-.9188,1.3426-2.5159.4664-5.1025-1.9647-5.7951-1.2862-9.5266-7.18-6.6291A5.0574,5.0574,0,0,0,696.4053,261.8264Z" style="fill:#9192a9;mix-blend-mode:multiply"/><path d="M736.6908,218.7992,729,204.0919S707.78,240.7479,697.1462,246.52c-.3279,6.263,3.2951,20.8321,3.2951,20.8321S731.906,233.3988,736.6908,218.7992Z" style="fill:url(#Áåçûìÿííûé_ãðàäèåíò_208-3)"/><rect x="703.6506" y="389.1348" width="21.6397" height="397.5716" style="fill:url(#Áåçûìÿííûé_ãðàäèåíò_385-3)"/><path d="M677.53,358.2088c-13.1733-2.7985-12.198-7.8729-26.3324-7.2652a9.05,9.05,0,0,1-4.8906-.9611c-2.8126-1.5971-3.1943-4.9893-.3674-8.6643,4.0424-5.258,7.2085-8.58,13.3995-9.2864,1.1872-.127,2.5016-.2543,3.9009-.2826a31.5218,31.5218,0,0,1,4.1414.099,22.4806,22.4806,0,0,1,8.99,2.5724,16.6167,16.6167,0,0,1,5.272,4.5514C690.2654,350.3359,686.6893,360.1451,677.53,358.2088Z" style="fill:#ffa27c"/><path d="M676.3714,334.4206c.226,5.4276-7.774,7.8021-10.3464,2.5443-.0143-.0142-.0143-.0425-.0283-.0566-.1556-.3534-.3109-.6926-.4666-1.0319a25.0646,25.0646,0,0,0-2.2331-4.0565.2491.2491,0,0,0-.0566-.0707,12.0977,12.0977,0,0,0-.9328-1.2155,28.0466,28.0466,0,0,0-7.364-5.9647,9.4329,9.4329,0,0,1-2.2192-1.3,2.0391,2.0391,0,0,1-.5653-1.71,1.9257,1.9257,0,0,1,1.3428-1.6536c.9753-.3251,2.3745.1553,3.3356.3674a37.8224,37.8224,0,0,1,4.4948,1.258,32.2419,32.2419,0,0,1,9.4983,5.258c2.0354,1.64,4.8623,3.9575,5.4276,6.6572A4.8083,4.8083,0,0,1,676.3714,334.4206Z" style="fill:#ffa27c"/><path d="M665.2758,331.721l-1.9788.0989a13.5891,13.5891,0,0,0-.9894-1.2862,28.0466,28.0466,0,0,0-7.364-5.9647,9.4329,9.4329,0,0,1-2.2192-1.3,2.0391,2.0391,0,0,1-.5653-1.71c.7632.3958,1.8375.9047,3.3641,1.5267C660.71,325.205,665.2758,331.721,665.2758,331.721Z" style="fill:#fae2ca;mix-blend-mode:multiply"/><path d="M652.8376,350.661c-2.4877-.0566-4.9754-.0423-7.4772-.0141-2.1767.0282-4.3675.0707-6.5442.113-2.8552.0424-5.71-.1272-8.5653-.2119-1.7386-.0566-4.5655.4664-6.2191-.311a1.7172,1.7172,0,0,1-1.0743-1.258,2.1871,2.1871,0,0,1,2.0071-2.3181,68.1235,68.1235,0,0,1,7.2084-.113c4.7634-.0566,9.4137-.3674,14.1627-.8057,2.1343-.1977,5.0742-.9328,7.2085-.3815A2.6986,2.6986,0,0,1,652.8376,350.661Z" style="fill:#ffa27c"/><path d="M645.36,350.6469c-2.1767.0282-4.3675.0707-6.5442.113-2.8552.0424-5.71-.1272-8.5653-.2119-1.7386-.0566-4.5655.4664-6.2191-.311a1.7172,1.7172,0,0,1-1.0743-1.258,50.2147,50.2147,0,0,0,10.6432.9611A115.7714,115.7714,0,0,1,645.36,350.6469Z" style="fill:#fae2ca;mix-blend-mode:multiply"/><path d="M651.0425,348.555a48.3972,48.3972,0,0,1-5.8517.523,38.6,38.6,0,0,1-9.9081-.8339c-3.18-.7491-6.0778-2.1909-9.1873-3.152-1.5408-.4806-5.0743-.6361-5.9224-2.2474a2.0063,2.0063,0,0,1-.212-1.5124,2.63,2.63,0,0,1,2.9541-1.4416c2.728.41,5.4136,1.0318,8.1556,1.3992a74.5683,74.5683,0,0,0,17.8375.3817c2.3321-.2262,5.159-.8057,6.1626,2.0352C656.1166,346.7034,653.4878,348.1452,651.0425,348.555Z" style="fill:#ffa27c"/><path d="M645.1908,349.078a38.6,38.6,0,0,1-9.9081-.8339c-3.18-.7491-6.0778-2.1909-9.1873-3.152-1.5408-.4806-5.0743-.6361-5.9224-2.2474a2.0063,2.0063,0,0,1-.212-1.5124c3.11,1.1874,9.6679,3.689,13.5408,5.1873A66.0838,66.0838,0,0,0,645.1908,349.078Z" style="fill:#fae2ca;mix-blend-mode:multiply"/><path d="M654.0672,342.5761c-.537.1273-1.1024.2686-1.6679.3817-4.0282.8764-8.5089,1.3709-12.4665.5088a92.6254,92.6254,0,0,1-17.6538-6.3321,3.0378,3.0378,0,0,1-1.71-1.2015,1.6769,1.6769,0,0,1,.0425-1.6537,1.91,1.91,0,0,1,1.3569-.8764,9.7783,9.7783,0,0,1,2.8269.4666c1.6679.3392,3.3356.6783,5.0035,1.0458,5.3287,1.1591,10.4735,2.8411,15.9577,2.2049,1.7245-.1978,3.4488-.4238,5.1873-.6359a7.7761,7.7761,0,0,1,3.5618-.0283A3.23,3.23,0,0,1,654.0672,342.5761Z" style="fill:#ffa27c"/><path d="M652.3993,342.9578c-4.0282.8764-8.5089,1.3709-12.4665.5088a92.6254,92.6254,0,0,1-17.6538-6.3321,3.0378,3.0378,0,0,1-1.71-1.2015,1.6769,1.6769,0,0,1,.0425-1.6537,51.1229,51.1229,0,0,0,15.2228,6.5583C646.3781,343.5655,646.6749,342.9436,652.3993,342.9578Z" style="fill:#fae2ca;mix-blend-mode:multiply"/><path d="M665.0356,337.092a39.3813,39.3813,0,0,1-12.58,2.1908,51.1444,51.1444,0,0,1-6.6289-.2261,26.41,26.41,0,0,1-7.9719-2.4169,22.7713,22.7713,0,0,1-7.6325-4.8623c-.9754-1.0459-.9611-2.0494-.3392-2.5726a2.2932,2.2932,0,0,1,2.0494-.24c3.0531.8481,6.0636,1.8092,9.1026,2.6573,6.7138,1.8941,13.9789,1.1449,20.7209-.3675,2.3605-.5372,6.0638-2.1766,7.0955,1.2439C669.7,335.2829,667.0709,336.3,665.0356,337.092Z" style="fill:#ffa27c"/><path d="M677.53,358.2088c-13.1733-2.7985-12.198-7.8729-26.3324-7.2652a9.05,9.05,0,0,1-4.8906-.9611c.3252-.0281.6645-.0706,1.0037-.113,18.94-2.0637,14.4876-4.5229,17.7245-12.7775.17-.4239.3249-.82.4945-1.2156.65-1.5971,1.2721-2.9258,1.8517-4.0282,2.0494-3.9435,3.4488-5.06,3.4488-5.06,2.0354,1.64,4.8623,3.9575,5.4276,6.6572a4.8083,4.8083,0,0,1,.1132.9753,16.6167,16.6167,0,0,1,5.272,4.5514C690.2654,350.3359,686.6893,360.1451,677.53,358.2088Z" style="fill:#fae2ca;mix-blend-mode:multiply"/><path d="M652.4559,339.2828a51.1444,51.1444,0,0,1-6.6289-.2261,26.41,26.41,0,0,1-7.9719-2.4169,22.7713,22.7713,0,0,1-7.6325-4.8623c-.9754-1.0459-.9611-2.0494-.3392-2.5726,2.742,2.4313,10.5583,8.58,20.58,9.7811C651.2122,339.0709,651.8763,339.1839,652.4559,339.2828Z" style="fill:#fae2ca;mix-blend-mode:multiply"/><path d="M662.5676,352.6823c3.3358,2.5582,4.6362,4.6359,10.7,5.06,1.7951,1.9506,7.576,8.41,12.82,8.6361,7.8587,9.0318,29.6114,18.4737,37.781,13.9506,8.1557-4.5371,8.0568-10.2615,13.64-18.9118s12.24-23.9153,14.304-38.1909,2.5443-22.7706,9.5691-26.9261a22.0815,22.0815,0,0,0,5.2438-4.3109c5.1025-5.7387,8.0283-15.5336-2.4594-29.5127-13.9082-18.516-25.2864-24.0708-35.1522-23.0248-20.89,2.2473-20.2263,59.4209-23.2934,71.1807a35.6359,35.6359,0,0,0-1.3711,9.993c.099,5.0319,1.6256,8.7633,2.629,15.2368-3.166-4.9893-11.18-6.8693-10.2473-1.6679a14.234,14.234,0,0,0-2.6573-2.1766,22.7632,22.7632,0,0,0-6.3182-2.77,12.4941,12.4941,0,0,0-9.8515-5.258c-2.94-.1413-6.1061,3.3639-8.7917,8.17C665.5359,338.5479,662.808,347.2546,662.5676,352.6823Z" style="fill:url(#Áåçûìÿííûé_ãðàäèåíò_262-3)"/><path d="M662.5676,352.6823c3.3358,2.5582,4.6362,4.6359,10.7,5.06,1.7951,1.9506,7.576,8.41,12.82,8.6361,7.8587,9.0318,29.6114,18.4737,37.781,13.9506,8.1557-4.5371,8.0568-10.2615,13.64-18.9118s12.24-23.9153,14.304-38.1909,2.5443-22.7706,9.5691-26.9261a22.0815,22.0815,0,0,0,5.2438-4.3109c-5.6114.5936-19.7034,3.2933-24.1415,15.3357-5.4276,14.728-22.615,24.0285-38.1346,13.3005.099,5.0319,1.6256,8.7633,2.629,15.2368-3.166-4.9893-11.18-6.8693-10.2473-1.6679a14.234,14.234,0,0,0-2.6573-2.1766c.622,4.3252.82,9.7245-1.3145,12.5654-3.9294,5.2439-.9894-3.3073-12.8341-6.9117a34.9539,34.9539,0,0,1-10.8128-5.5124C665.5359,338.5479,662.808,347.2546,662.5676,352.6823Z" style="fill:#898994;mix-blend-mode:multiply"/><rect x="362.8568" y="389.1348" width="345.2603" height="397.5716" style="fill:url(#Áåçûìÿííûé_ãðàäèåíò_385-4)"/><polygon points="725.29 389.135 725.29 473.291 708.117 475.312 703.651 475.835 362.857 515.722 362.857 389.135 725.29 389.135" style="fill:#edbabe;mix-blend-mode:multiply"/><path d="M627.2035,197.7271c.5653,4.2263,5.682,11.6043,14.2474,9.9364,1.1589,4.3393-.0424,6.8976.5795,8.6785a2.5874,2.5874,0,0,0,.8622,1.2015c2.2333,1.8233,2.2756,1.64,2.2756,1.64a7.7111,7.7111,0,0,1,.6691.9564c1.9079,4.0766.4223,6.53.0271,7.1552-.58.9165-2.8586,4.157-3.2969,6.97-.6785,4.2546,1.6679,4.1414-.4522,8.6645-2.1343,4.5371,2.8409,6.954,9.1873,6.8552a15.3162,15.3162,0,0,0,4.3535-.9046c7.7172-2.5442,20.0988-10.0356,27.9011-17.3713,9.5124-8.9611,10.7563-19.9152,14.5585-21.5408,3.8163-1.6254,11.3922.6926,19.4347-6.1342,8.0566-6.8127,16.212-28.6363,15.053-46.22-1.1449-17.583-18.6573-34.4453-36.3252-36.65-9.0036-1.1166-16.1555,1.8658-22.4595,7.0953-6.0778,5.0319-11.3782,12.1416-16.82,19.6186a85.631,85.631,0,0,0-7.5053,14.5725c-1.7243,4.4524-1.3852,8.1415.3674,11.3641,1.7386,3.2226,2.3888,11.3075-5.4841,14.728-7.887,3.4206-16.3394,4.2968-17.1449,7.8305A4.3336,4.3336,0,0,0,627.2035,197.7271Z" style="fill:#ffad89"/><path d="M642.03,216.342a2.5874,2.5874,0,0,0,.8622,1.2015c2.2333,1.8233,2.2756,1.64,2.2756,1.64-.1224.1771,1.4935.5,3.9668.4223,6.04-.1909,12.8979-1.4642,16.33-3.2635C649.6206,217.3127,642.03,216.342,642.03,216.342Z" style="fill:#fae2ca;mix-blend-mode:multiply"/><path d="M627.2035,197.7271c.5653,4.2263,5.682,11.6043,14.2474,9.9364,1.7361-.5393,3.3582-3.46-3.9012-3.5477C633.2391,204.0637,629.4791,200.5116,627.2035,197.7271Z" style="fill:#fae2ca;mix-blend-mode:multiply"/><path d="M654.4122,184.3c2.6148,3.4488,6.77.0283,11.76,6.8693,4.9895,6.827,9.23,11.76,9.23,22.0214,0,9.6678.6219,22.1485-19.7456,35.6893,7.7172-2.5442,20.0988-10.0356,27.9011-17.3713,9.5124-8.9611,10.7563-19.9152,14.5585-21.5408,3.8163-1.6254,11.3922.6926,19.4347-6.1342,8.0566-6.8127,16.212-28.6363,15.053-46.22-1.1449-17.583-18.6573-34.4453-36.3252-36.65-9.0036-1.1166-16.1555,1.8658-22.4595,7.0953L666.1719,151.31s-6.7844,7.8164-9.2015,13.8234S651.783,180.8366,654.4122,184.3Z" style="fill:#fae2ca;mix-blend-mode:multiply"/><path d="M664.0222,187.1382a1.3482,1.3482,0,0,0,2.0708-1.0364c.277-3.845.1082-10.8342-5.217-10.8418-4.9936-.007-6.4778,2.2076-6.7361,4.8931-.2076,2.16.43,3.9561,2.5795,4.2512A19.17,19.17,0,0,1,664.0222,187.1382Z" style="fill:#fff"/><path d="M654.4729,179.9879c-.1334,2.2829.5323,3.7641,1.8855,4.1955,2,.6375,3.08-1.6144,3.2137-3.8972s-1-3.2362-2.4081-3.3185S654.6065,177.7051,654.4729,179.9879Z" style="fill:url(#Áåçûìÿííûé_ãðàäèåíò_169)"/><path d="M654.4263,138.0517c1.7243,6.0214-.7492,12.5939,2.4452,12.65a52.3789,52.3789,0,0,1,9.3.6078c4.6078.8481,10.05,2.9541,16.58,8.2545,8.6362,7.0247,3.8871,14.2474,10.0213,18.8269,6.1344,4.5937,10.3605,22.615,5.3429,31.5761,0,0,21.71,1.2864,28.99-10.9965,17.0036-28.6645,18.403-55.4914,15.0108-62.5022-4.4242-9.1166-21.6257-24.1555-44.1277-30.8129a80.834,80.834,0,0,0-8.8056-2.1343c-28.919-5.2861-42.5445.2687-42.7281,10.8977C646.299,123.4369,651.5428,128.0306,654.4263,138.0517Z" style="fill:url(#Áåçûìÿííûé_ãðàäèåíò_6)"/><path d="M666.1719,151.31c4.6078.8481,10.05,2.9541,16.58,8.2545,8.6362,7.0247,3.8871,14.2474,10.0213,18.8269,6.1344,4.5937,10.3605,22.615,5.3429,31.5761,0,0,21.71,1.2864,28.99-10.9965,17.0036-28.6645,18.403-55.4914,15.0108-62.5022-4.4242-9.1166-21.6257-24.1555-44.1277-30.8129-3.8586,4.0424-9.5124,7.774-14.8128,10.9541-7.0672,4.24-11.7739,7.5338-9.4275,20.2547C676.1083,149.5854,666.1719,151.31,666.1719,151.31Z" style="fill:#e4aba5;mix-blend-mode:multiply"/><path d="M688.5393,179.7992c1.5656-4.0944,16.1408-7.6454,20.3405-3.3738s-4.049,13.0853-3.4356,21.5406-11.4,14.1819-16.04,5.6925S686.7325,184.525,688.5393,179.7992Z" style="fill:url(#Áåçûìÿííûé_ãðàäèåíò_2-3)"/><path d="M688.5393,179.7992c1.5656-4.0944,11.167-4.8031,15.3666-.5315s-1.0845,10.5083-.471,18.9635-9.39,13.9167-14.0308,5.4273S686.7325,184.525,688.5393,179.7992Z" style="fill:#fae2ca;mix-blend-mode:multiply"/><path d="M645.1682,219.1832a12.1491,12.1491,0,0,1,.6962,8.1116s13.1273-.9174,19.5443-10.8821a.3133.3133,0,0,0,.0564-.0707A157.0033,157.0033,0,0,1,645.1682,219.1832Z" style="fill:#fff"/><path d="M669.285,174.4893s-4.8357-5.7032-10.7187-6.7407-6.2291-3.8047-2.2514-4.4964S668.2474,168.0869,669.285,174.4893Z" style="fill:url(#Áåçûìÿííûé_ãðàäèåíò_6-2)"/><path d="M241.6557,285.1146c8.5385,20.2135,54.5563,36.84,103.0136,41.0951,48.4428,4.24,105.6421-15.6686,105.6421-15.6686l11.9135-1.9331a37.5169,37.5169,0,0,1-1.7717-8.7579,40.6646,40.6646,0,0,1,.3051-11.0905l-13.9756-2.2656c-7.8437-3.735-49.9156-.3118-89.602-14.2708-32.8313-11.5477-62.7682-41.0749-81.6034-42.1005-4.8355-.2615-8.6691.0725-11.2395,1.1617C239.6228,241.6816,233.1317,264.9009,241.6557,285.1146Z" style="fill:url(#Áåçûìÿííûé_ãðàäèåíò_280-3)"/><path d="M241.6557,285.1146c8.5385,20.2135,54.5563,36.84,103.0136,41.0951,48.4428,4.24,105.6421-15.6686,105.6421-15.6686l11.9135-1.9331a37.5169,37.5169,0,0,1-1.7717-8.7579l-15.2678,1.5718s-71.7349,8.7272-130.4734-10.9781-38.6846-59.1594-38.6846-59.1594c-.1453-.3921-.29-.7843-.45-1.1617-4.8355-.2615-8.6691.0725-11.2395,1.1617C239.6228,241.6816,233.1317,264.9009,241.6557,285.1146Z" style="fill:#898994;mix-blend-mode:multiply"/><rect x="745.227" y="166.3007" width="109.0114" height="15.704" style="fill:url(#Áåçûìÿííûé_ãðàäèåíò_1424-21)"/><rect x="745.227" y="139.7226" width="109.0114" height="15.704" style="fill:url(#Áåçûìÿííûé_ãðàäèåíò_1424-22)"/><rect x="749.658" y="154.8707" width="104.5804" height="11.43" style="fill:url(#Áåçûìÿííûé_ãðàäèåíò_1424-23)"/><text transform="translate(851.7532 889.5747)" style="font-size:12px;font-family:MyriadPro-Regular, Myriad Pro">Consensual</text></g></g></g></svg>